<?xml version="1.0" encoding="utf-8" standalone="no"?>
<!DOCTYPE svg PUBLIC "-//W3C//DTD SVG 1.1//EN"
  "http://www.w3.org/Graphics/SVG/1.1/DTD/svg11.dtd">
<svg xmlns:xlink="http://www.w3.org/1999/xlink" width="281.135625pt" height="244.344688pt" viewBox="0 0 281.135625 244.344688" xmlns="http://www.w3.org/2000/svg" version="1.1">
 <metadata>
  <rdf:RDF xmlns:dc="http://purl.org/dc/elements/1.1/" xmlns:cc="http://creativecommons.org/ns#" xmlns:rdf="http://www.w3.org/1999/02/22-rdf-syntax-ns#">
   <cc:Work>
    <dc:type rdf:resource="http://purl.org/dc/dcmitype/StillImage"/>
    <dc:date>2025-10-31T00:23:50.163256</dc:date>
    <dc:format>image/svg+xml</dc:format>
    <dc:creator>
     <cc:Agent>
      <dc:title>Matplotlib v3.10.0, https://matplotlib.org/</dc:title>
     </cc:Agent>
    </dc:creator>
   </cc:Work>
  </rdf:RDF>
 </metadata>
 <defs>
  <style type="text/css">*{stroke-linejoin: round; stroke-linecap: butt}</style>
 </defs>
 <g id="figure_1">
  <g id="patch_1">
   <path d="M 0 244.344688 
L 281.135625 244.344688 
L 281.135625 0 
L 0 0 
z
" style="fill: #ffffff"/>
  </g>
  <g id="axes_1">
   <g id="patch_2">
    <path d="M 48.865625 202.84 
L 273.935625 202.84 
L 273.935625 7.2 
L 48.865625 7.2 
z
" style="fill: #ffffff"/>
   </g>
   <g id="PathCollection_1">
    <defs>
     <path id="m3f3153197c" d="M 0 3.872983 
C 1.027127 3.872983 2.012324 3.464901 2.738613 2.738613 
C 3.464901 2.012324 3.872983 1.027127 3.872983 0 
C 3.872983 -1.027127 3.464901 -2.012324 2.738613 -2.738613 
C 2.012324 -3.464901 1.027127 -3.872983 0 -3.872983 
C -1.027127 -3.872983 -2.012324 -3.464901 -2.738613 -2.738613 
C -3.464901 -2.012324 -3.872983 -1.027127 -3.872983 0 
C -3.872983 1.027127 -3.464901 2.012324 -2.738613 2.738613 
C -2.012324 3.464901 -1.027127 3.872983 0 3.872983 
z
" style="stroke: #e6c563; stroke-opacity: 0.7"/>
    </defs>
    <g clip-path="url(#p802e1dbb0e)">
     <use xlink:href="#m3f3153197c" x="255.83559" y="21.223147" style="fill: #e6c563; fill-opacity: 0.7; stroke: #e6c563; stroke-opacity: 0.7"/>
     <use xlink:href="#m3f3153197c" x="135.585459" y="99.202328" style="fill: #e6c563; fill-opacity: 0.7; stroke: #e6c563; stroke-opacity: 0.7"/>
     <use xlink:href="#m3f3153197c" x="259.732178" y="31.633416" style="fill: #e6c563; fill-opacity: 0.7; stroke: #e6c563; stroke-opacity: 0.7"/>
     <use xlink:href="#m3f3153197c" x="166.366865" y="123.150803" style="fill: #e6c563; fill-opacity: 0.7; stroke: #e6c563; stroke-opacity: 0.7"/>
     <use xlink:href="#m3f3153197c" x="249.524342" y="21.375536" style="fill: #e6c563; fill-opacity: 0.7; stroke: #e6c563; stroke-opacity: 0.7"/>
     <use xlink:href="#m3f3153197c" x="249.66337" y="30.042103" style="fill: #e6c563; fill-opacity: 0.7; stroke: #e6c563; stroke-opacity: 0.7"/>
     <use xlink:href="#m3f3153197c" x="198.781132" y="70.817203" style="fill: #e6c563; fill-opacity: 0.7; stroke: #e6c563; stroke-opacity: 0.7"/>
     <use xlink:href="#m3f3153197c" x="168.220928" y="56.745195" style="fill: #e6c563; fill-opacity: 0.7; stroke: #e6c563; stroke-opacity: 0.7"/>
     <use xlink:href="#m3f3153197c" x="185.303556" y="84.2426" style="fill: #e6c563; fill-opacity: 0.7; stroke: #e6c563; stroke-opacity: 0.7"/>
     <use xlink:href="#m3f3153197c" x="194.864729" y="95.877944" style="fill: #e6c563; fill-opacity: 0.7; stroke: #e6c563; stroke-opacity: 0.7"/>
     <use xlink:href="#m3f3153197c" x="250.193249" y="27.837839" style="fill: #e6c563; fill-opacity: 0.7; stroke: #e6c563; stroke-opacity: 0.7"/>
     <use xlink:href="#m3f3153197c" x="155.609802" y="101.664254" style="fill: #e6c563; fill-opacity: 0.7; stroke: #e6c563; stroke-opacity: 0.7"/>
     <use xlink:href="#m3f3153197c" x="172.326353" y="121.42406" style="fill: #e6c563; fill-opacity: 0.7; stroke: #e6c563; stroke-opacity: 0.7"/>
     <use xlink:href="#m3f3153197c" x="187.707508" y="31.337403" style="fill: #e6c563; fill-opacity: 0.7; stroke: #e6c563; stroke-opacity: 0.7"/>
     <use xlink:href="#m3f3153197c" x="125.293138" y="118.969376" style="fill: #e6c563; fill-opacity: 0.7; stroke: #e6c563; stroke-opacity: 0.7"/>
     <use xlink:href="#m3f3153197c" x="232.226849" y="48.585385" style="fill: #e6c563; fill-opacity: 0.7; stroke: #e6c563; stroke-opacity: 0.7"/>
     <use xlink:href="#m3f3153197c" x="253.77269" y="16.092727" style="fill: #e6c563; fill-opacity: 0.7; stroke: #e6c563; stroke-opacity: 0.7"/>
     <use xlink:href="#m3f3153197c" x="250.193249" y="17.7706" style="fill: #e6c563; fill-opacity: 0.7; stroke: #e6c563; stroke-opacity: 0.7"/>
     <use xlink:href="#m3f3153197c" x="179.566853" y="120.810824" style="fill: #e6c563; fill-opacity: 0.7; stroke: #e6c563; stroke-opacity: 0.7"/>
     <use xlink:href="#m3f3153197c" x="187.707508" y="43.194372" style="fill: #e6c563; fill-opacity: 0.7; stroke: #e6c563; stroke-opacity: 0.7"/>
     <use xlink:href="#m3f3153197c" x="223.97525" y="24.726443" style="fill: #e6c563; fill-opacity: 0.7; stroke: #e6c563; stroke-opacity: 0.7"/>
     <use xlink:href="#m3f3153197c" x="253.675313" y="16.092727" style="fill: #e6c563; fill-opacity: 0.7; stroke: #e6c563; stroke-opacity: 0.7"/>
     <use xlink:href="#m3f3153197c" x="144.837032" y="82.152987" style="fill: #e6c563; fill-opacity: 0.7; stroke: #e6c563; stroke-opacity: 0.7"/>
     <use xlink:href="#m3f3153197c" x="219.408357" y="23.426935" style="fill: #e6c563; fill-opacity: 0.7; stroke: #e6c563; stroke-opacity: 0.7"/>
     <use xlink:href="#m3f3153197c" x="130.609937" y="119.697317" style="fill: #e6c563; fill-opacity: 0.7; stroke: #e6c563; stroke-opacity: 0.7"/>
     <use xlink:href="#m3f3153197c" x="166.27227" y="36.418961" style="fill: #e6c563; fill-opacity: 0.7; stroke: #e6c563; stroke-opacity: 0.7"/>
     <use xlink:href="#m3f3153197c" x="227.948242" y="31.633416" style="fill: #e6c563; fill-opacity: 0.7; stroke: #e6c563; stroke-opacity: 0.7"/>
     <use xlink:href="#m3f3153197c" x="155.214769" y="49.181945" style="fill: #e6c563; fill-opacity: 0.7; stroke: #e6c563; stroke-opacity: 0.7"/>
     <use xlink:href="#m3f3153197c" x="248.262975" y="26.159966" style="fill: #e6c563; fill-opacity: 0.7; stroke: #e6c563; stroke-opacity: 0.7"/>
     <use xlink:href="#m3f3153197c" x="188.218321" y="45.447361" style="fill: #e6c563; fill-opacity: 0.7; stroke: #e6c563; stroke-opacity: 0.7"/>
     <use xlink:href="#m3f3153197c" x="207.537969" y="17.836399" style="fill: #e6c563; fill-opacity: 0.7; stroke: #e6c563; stroke-opacity: 0.7"/>
     <use xlink:href="#m3f3153197c" x="239.395179" y="16.092727" style="fill: #e6c563; fill-opacity: 0.7; stroke: #e6c563; stroke-opacity: 0.7"/>
     <use xlink:href="#m3f3153197c" x="210.069778" y="67.895022" style="fill: #e6c563; fill-opacity: 0.7; stroke: #e6c563; stroke-opacity: 0.7"/>
     <use xlink:href="#m3f3153197c" x="162.374954" y="56.745195" style="fill: #e6c563; fill-opacity: 0.7; stroke: #e6c563; stroke-opacity: 0.7"/>
     <use xlink:href="#m3f3153197c" x="105.422666" y="120.120858" style="fill: #e6c563; fill-opacity: 0.7; stroke: #e6c563; stroke-opacity: 0.7"/>
     <use xlink:href="#m3f3153197c" x="177.654618" y="42.687799" style="fill: #e6c563; fill-opacity: 0.7; stroke: #e6c563; stroke-opacity: 0.7"/>
     <use xlink:href="#m3f3153197c" x="229.28495" y="32.714647" style="fill: #e6c563; fill-opacity: 0.7; stroke: #e6c563; stroke-opacity: 0.7"/>
     <use xlink:href="#m3f3153197c" x="247.49851" y="16.092727" style="fill: #e6c563; fill-opacity: 0.7; stroke: #e6c563; stroke-opacity: 0.7"/>
     <use xlink:href="#m3f3153197c" x="192.80103" y="37.22396" style="fill: #e6c563; fill-opacity: 0.7; stroke: #e6c563; stroke-opacity: 0.7"/>
     <use xlink:href="#m3f3153197c" x="220.737261" y="24.985455" style="fill: #e6c563; fill-opacity: 0.7; stroke: #e6c563; stroke-opacity: 0.7"/>
     <use xlink:href="#m3f3153197c" x="232.820779" y="39.58295" style="fill: #e6c563; fill-opacity: 0.7; stroke: #e6c563; stroke-opacity: 0.7"/>
     <use xlink:href="#m3f3153197c" x="116.758642" y="153.525785" style="fill: #e6c563; fill-opacity: 0.7; stroke: #e6c563; stroke-opacity: 0.7"/>
     <use xlink:href="#m3f3153197c" x="223.585741" y="84.095936" style="fill: #e6c563; fill-opacity: 0.7; stroke: #e6c563; stroke-opacity: 0.7"/>
     <use xlink:href="#m3f3153197c" x="179.454368" y="78.86492" style="fill: #e6c563; fill-opacity: 0.7; stroke: #e6c563; stroke-opacity: 0.7"/>
     <use xlink:href="#m3f3153197c" x="220.002258" y="52.354334" style="fill: #e6c563; fill-opacity: 0.7; stroke: #e6c563; stroke-opacity: 0.7"/>
     <use xlink:href="#m3f3153197c" x="241.421012" y="21.375536" style="fill: #e6c563; fill-opacity: 0.7; stroke: #e6c563; stroke-opacity: 0.7"/>
     <use xlink:href="#m3f3153197c" x="147.628859" y="87.918601" style="fill: #e6c563; fill-opacity: 0.7; stroke: #e6c563; stroke-opacity: 0.7"/>
     <use xlink:href="#m3f3153197c" x="142.985807" y="117.469818" style="fill: #e6c563; fill-opacity: 0.7; stroke: #e6c563; stroke-opacity: 0.7"/>
     <use xlink:href="#m3f3153197c" x="211.549912" y="56.197184" style="fill: #e6c563; fill-opacity: 0.7; stroke: #e6c563; stroke-opacity: 0.7"/>
     <use xlink:href="#m3f3153197c" x="244.402426" y="31.193585" style="fill: #e6c563; fill-opacity: 0.7; stroke: #e6c563; stroke-opacity: 0.7"/>
     <use xlink:href="#m3f3153197c" x="176.299345" y="117.970574" style="fill: #e6c563; fill-opacity: 0.7; stroke: #e6c563; stroke-opacity: 0.7"/>
     <use xlink:href="#m3f3153197c" x="200.137298" y="22.9997" style="fill: #e6c563; fill-opacity: 0.7; stroke: #e6c563; stroke-opacity: 0.7"/>
     <use xlink:href="#m3f3153197c" x="225.591712" y="21.323743" style="fill: #e6c563; fill-opacity: 0.7; stroke: #e6c563; stroke-opacity: 0.7"/>
     <use xlink:href="#m3f3153197c" x="225.099682" y="31.193585" style="fill: #e6c563; fill-opacity: 0.7; stroke: #e6c563; stroke-opacity: 0.7"/>
     <use xlink:href="#m3f3153197c" x="255.759186" y="31.633416" style="fill: #e6c563; fill-opacity: 0.7; stroke: #e6c563; stroke-opacity: 0.7"/>
     <use xlink:href="#m3f3153197c" x="215.448309" y="96.630635" style="fill: #e6c563; fill-opacity: 0.7; stroke: #e6c563; stroke-opacity: 0.7"/>
     <use xlink:href="#m3f3153197c" x="227.372715" y="42.687799" style="fill: #e6c563; fill-opacity: 0.7; stroke: #e6c563; stroke-opacity: 0.7"/>
     <use xlink:href="#m3f3153197c" x="259.807854" y="21.174286" style="fill: #e6c563; fill-opacity: 0.7; stroke: #e6c563; stroke-opacity: 0.7"/>
     <use xlink:href="#m3f3153197c" x="133.145084" y="149.9071" style="fill: #e6c563; fill-opacity: 0.7; stroke: #e6c563; stroke-opacity: 0.7"/>
     <use xlink:href="#m3f3153197c" x="212.056274" y="22.9997" style="fill: #e6c563; fill-opacity: 0.7; stroke: #e6c563; stroke-opacity: 0.7"/>
     <use xlink:href="#m3f3153197c" x="198.781132" y="93.049021" style="fill: #e6c563; fill-opacity: 0.7; stroke: #e6c563; stroke-opacity: 0.7"/>
     <use xlink:href="#m3f3153197c" x="153.531045" y="110.15042" style="fill: #e6c563; fill-opacity: 0.7; stroke: #e6c563; stroke-opacity: 0.7"/>
     <use xlink:href="#m3f3153197c" x="220.422478" y="36.614406" style="fill: #e6c563; fill-opacity: 0.7; stroke: #e6c563; stroke-opacity: 0.7"/>
     <use xlink:href="#m3f3153197c" x="255.759186" y="17.81947" style="fill: #e6c563; fill-opacity: 0.7; stroke: #e6c563; stroke-opacity: 0.7"/>
     <use xlink:href="#m3f3153197c" x="237.627541" y="19.580071" style="fill: #e6c563; fill-opacity: 0.7; stroke: #e6c563; stroke-opacity: 0.7"/>
     <use xlink:href="#m3f3153197c" x="232.387452" y="32.426308" style="fill: #e6c563; fill-opacity: 0.7; stroke: #e6c563; stroke-opacity: 0.7"/>
     <use xlink:href="#m3f3153197c" x="219.928342" y="35.119027" style="fill: #e6c563; fill-opacity: 0.7; stroke: #e6c563; stroke-opacity: 0.7"/>
     <use xlink:href="#m3f3153197c" x="242.472152" y="19.448473" style="fill: #e6c563; fill-opacity: 0.7; stroke: #e6c563; stroke-opacity: 0.7"/>
     <use xlink:href="#m3f3153197c" x="257.914347" y="21.126346" style="fill: #e6c563; fill-opacity: 0.7; stroke: #e6c563; stroke-opacity: 0.7"/>
     <use xlink:href="#m3f3153197c" x="103.915214" y="143.131688" style="fill: #e6c563; fill-opacity: 0.7; stroke: #e6c563; stroke-opacity: 0.7"/>
     <use xlink:href="#m3f3153197c" x="136.307057" y="106.697873" style="fill: #e6c563; fill-opacity: 0.7; stroke: #e6c563; stroke-opacity: 0.7"/>
     <use xlink:href="#m3f3153197c" x="218.455083" y="57.136084" style="fill: #e6c563; fill-opacity: 0.7; stroke: #e6c563; stroke-opacity: 0.7"/>
     <use xlink:href="#m3f3153197c" x="214.04277" y="31.633416" style="fill: #e6c563; fill-opacity: 0.7; stroke: #e6c563; stroke-opacity: 0.7"/>
     <use xlink:href="#m3f3153197c" x="257.627673" y="23.136472" style="fill: #e6c563; fill-opacity: 0.7; stroke: #e6c563; stroke-opacity: 0.7"/>
     <use xlink:href="#m3f3153197c" x="244.21859" y="34.725108" style="fill: #e6c563; fill-opacity: 0.7; stroke: #e6c563; stroke-opacity: 0.7"/>
     <use xlink:href="#m3f3153197c" x="167.084211" y="73.730774" style="fill: #e6c563; fill-opacity: 0.7; stroke: #e6c563; stroke-opacity: 0.7"/>
     <use xlink:href="#m3f3153197c" x="175.172391" y="34.904266" style="fill: #e6c563; fill-opacity: 0.7; stroke: #e6c563; stroke-opacity: 0.7"/>
     <use xlink:href="#m3f3153197c" x="227.597684" y="19.580071" style="fill: #e6c563; fill-opacity: 0.7; stroke: #e6c563; stroke-opacity: 0.7"/>
     <use xlink:href="#m3f3153197c" x="151.370768" y="145.124456" style="fill: #e6c563; fill-opacity: 0.7; stroke: #e6c563; stroke-opacity: 0.7"/>
     <use xlink:href="#m3f3153197c" x="222.783352" y="46.582078" style="fill: #e6c563; fill-opacity: 0.7; stroke: #e6c563; stroke-opacity: 0.7"/>
     <use xlink:href="#m3f3153197c" x="231.609627" y="23.067415" style="fill: #e6c563; fill-opacity: 0.7; stroke: #e6c563; stroke-opacity: 0.7"/>
     <use xlink:href="#m3f3153197c" x="185.303556" y="52.660952" style="fill: #e6c563; fill-opacity: 0.7; stroke: #e6c563; stroke-opacity: 0.7"/>
     <use xlink:href="#m3f3153197c" x="225.099682" y="29.515712" style="fill: #e6c563; fill-opacity: 0.7; stroke: #e6c563; stroke-opacity: 0.7"/>
     <use xlink:href="#m3f3153197c" x="206.096786" y="52.354334" style="fill: #e6c563; fill-opacity: 0.7; stroke: #e6c563; stroke-opacity: 0.7"/>
     <use xlink:href="#m3f3153197c" x="215.448309" y="49.650189" style="fill: #e6c563; fill-opacity: 0.7; stroke: #e6c563; stroke-opacity: 0.7"/>
     <use xlink:href="#m3f3153197c" x="238.372616" y="39.806667" style="fill: #e6c563; fill-opacity: 0.7; stroke: #e6c563; stroke-opacity: 0.7"/>
     <use xlink:href="#m3f3153197c" x="224.036061" y="28.796623" style="fill: #e6c563; fill-opacity: 0.7; stroke: #e6c563; stroke-opacity: 0.7"/>
     <use xlink:href="#m3f3153197c" x="261.737775" y="16.092727" style="fill: #e6c563; fill-opacity: 0.7; stroke: #e6c563; stroke-opacity: 0.7"/>
     <use xlink:href="#m3f3153197c" x="162.374954" y="44.888225" style="fill: #e6c563; fill-opacity: 0.7; stroke: #e6c563; stroke-opacity: 0.7"/>
     <use xlink:href="#m3f3153197c" x="242.768426" y="21.88334" style="fill: #e6c563; fill-opacity: 0.7; stroke: #e6c563; stroke-opacity: 0.7"/>
     <use xlink:href="#m3f3153197c" x="259.807854" y="24.561991" style="fill: #e6c563; fill-opacity: 0.7; stroke: #e6c563; stroke-opacity: 0.7"/>
     <use xlink:href="#m3f3153197c" x="205.24543" y="71.98987" style="fill: #e6c563; fill-opacity: 0.7; stroke: #e6c563; stroke-opacity: 0.7"/>
     <use xlink:href="#m3f3153197c" x="238.129034" y="17.802867" style="fill: #e6c563; fill-opacity: 0.7; stroke: #e6c563; stroke-opacity: 0.7"/>
     <use xlink:href="#m3f3153197c" x="187.235106" y="41.243875" style="fill: #e6c563; fill-opacity: 0.7; stroke: #e6c563; stroke-opacity: 0.7"/>
     <use xlink:href="#m3f3153197c" x="179.912876" y="63.520606" style="fill: #e6c563; fill-opacity: 0.7; stroke: #e6c563; stroke-opacity: 0.7"/>
     <use xlink:href="#m3f3153197c" x="255.759186" y="19.546214" style="fill: #e6c563; fill-opacity: 0.7; stroke: #e6c563; stroke-opacity: 0.7"/>
     <use xlink:href="#m3f3153197c" x="221.988754" y="33.360159" style="fill: #e6c563; fill-opacity: 0.7; stroke: #e6c563; stroke-opacity: 0.7"/>
     <use xlink:href="#m3f3153197c" x="259.880701" y="21.079303" style="fill: #e6c563; fill-opacity: 0.7; stroke: #e6c563; stroke-opacity: 0.7"/>
     <use xlink:href="#m3f3153197c" x="218.015762" y="50.62759" style="fill: #e6c563; fill-opacity: 0.7; stroke: #e6c563; stroke-opacity: 0.7"/>
     <use xlink:href="#m3f3153197c" x="244.21859" y="16.092727" style="fill: #e6c563; fill-opacity: 0.7; stroke: #e6c563; stroke-opacity: 0.7"/>
    </g>
   </g>
   <g id="matplotlib.axis_1">
    <g id="xtick_1">
     <g id="line2d_1">
      <defs>
       <path id="ma09638a8bf" d="M 0 0 
L 0 3.5 
" style="stroke: #000000; stroke-width: 0.8"/>
      </defs>
      <g>
       <use xlink:href="#ma09638a8bf" x="59.09608" y="202.84" style="stroke: #000000; stroke-width: 0.8"/>
      </g>
     </g>
     <g id="text_1">
      <!-- 0 -->
      <g transform="translate(56.315611 217.086875) scale(0.1 -0.1)">
       <defs>
        <path id="Arimo-Regular-30" d="M 3309 2203 
Q 3309 1100 2920 518 
Q 2531 -63 1772 -63 
Q 1013 -63 631 515 
Q 250 1094 250 2203 
Q 250 3338 620 3903 
Q 991 4469 1791 4469 
Q 2569 4469 2939 3897 
Q 3309 3325 3309 2203 
z
M 2738 2203 
Q 2738 2841 2642 3239 
Q 2547 3638 2337 3825 
Q 2128 4013 1791 4013 
Q 1447 4013 1231 3828 
Q 1016 3644 917 3245 
Q 819 2847 819 2203 
Q 819 1578 920 1178 
Q 1022 778 1234 587 
Q 1447 397 1778 397 
Q 2275 397 2506 840 
Q 2738 1284 2738 2203 
z
" transform="scale(0.015625)"/>
       </defs>
       <use xlink:href="#Arimo-Regular-30"/>
      </g>
     </g>
    </g>
    <g id="xtick_2">
     <g id="line2d_2">
      <g>
       <use xlink:href="#ma09638a8bf" x="100.017898" y="202.84" style="stroke: #000000; stroke-width: 0.8"/>
      </g>
     </g>
     <g id="text_2">
      <!-- 20 -->
      <g transform="translate(94.45696 217.086875) scale(0.1 -0.1)">
       <defs>
        <path id="Arimo-Regular-32" d="M 3238 478 
L 3238 0 
L 322 0 
L 322 397 
Q 481 763 707 1044 
Q 934 1325 1190 1550 
Q 1447 1775 1697 1969 
Q 1822 2066 1933 2162 
Q 2044 2259 2144 2356 
Q 2344 2550 2467 2762 
Q 2591 2975 2591 3244 
Q 2591 3606 2378 3806 
Q 2166 4006 1788 4006 
Q 1428 4006 1195 3811 
Q 963 3616 922 3263 
L 347 3316 
Q 409 3844 795 4156 
Q 1181 4469 1788 4469 
Q 2453 4469 2811 4155 
Q 3169 3841 3169 3263 
Q 3169 3006 3051 2753 
Q 2934 2500 2703 2247 
Q 2588 2122 2366 1925 
Q 2144 1728 1819 1463 
Q 1459 1169 1246 933 
Q 1034 697 941 478 
L 3238 478 
z
" transform="scale(0.015625)"/>
       </defs>
       <use xlink:href="#Arimo-Regular-32"/>
       <use xlink:href="#Arimo-Regular-30" transform="translate(55.615234 0)"/>
      </g>
     </g>
    </g>
    <g id="xtick_3">
     <g id="line2d_3">
      <g>
       <use xlink:href="#ma09638a8bf" x="140.939716" y="202.84" style="stroke: #000000; stroke-width: 0.8"/>
      </g>
     </g>
     <g id="text_3">
      <!-- 40 -->
      <g transform="translate(135.378778 217.086875) scale(0.1 -0.1)">
       <defs>
        <path id="Arimo-Regular-34" d="M 2753 997 
L 2753 0 
L 2222 0 
L 2222 997 
L 147 997 
L 147 1434 
L 2163 4403 
L 2753 4403 
L 2753 1441 
L 3372 1441 
L 3372 997 
L 2753 997 
z
M 666 1441 
L 2222 1441 
L 2222 3197 
Q 2222 3341 2223 3483 
Q 2225 3625 2234 3769 
Q 2163 3631 2109 3545 
Q 2056 3459 2013 3397 
L 666 1441 
z
" transform="scale(0.015625)"/>
       </defs>
       <use xlink:href="#Arimo-Regular-34"/>
       <use xlink:href="#Arimo-Regular-30" transform="translate(55.615234 0)"/>
      </g>
     </g>
    </g>
    <g id="xtick_4">
     <g id="line2d_4">
      <g>
       <use xlink:href="#ma09638a8bf" x="181.861534" y="202.84" style="stroke: #000000; stroke-width: 0.8"/>
      </g>
     </g>
     <g id="text_4">
      <!-- 60 -->
      <g transform="translate(176.300597 217.086875) scale(0.1 -0.1)">
       <defs>
        <path id="Arimo-Regular-36" d="M 3278 1441 
Q 3278 744 2900 340 
Q 2522 -63 1856 -63 
Q 1113 -63 719 490 
Q 325 1044 325 2100 
Q 325 3244 734 3856 
Q 1144 4469 1900 4469 
Q 2400 4469 2714 4244 
Q 3028 4019 3156 3572 
L 2619 3475 
Q 2456 4013 1894 4013 
Q 1413 4013 1148 3564 
Q 884 3116 884 2266 
Q 1038 2550 1316 2698 
Q 1594 2847 1953 2847 
Q 2563 2847 2920 2465 
Q 3278 2084 3278 1441 
z
M 2706 1416 
Q 2706 1894 2472 2153 
Q 2238 2413 1819 2413 
Q 1425 2413 1183 2183 
Q 941 1953 941 1550 
Q 941 1213 1056 950 
Q 1172 688 1373 539 
Q 1575 391 1838 391 
Q 2244 391 2475 664 
Q 2706 938 2706 1416 
z
" transform="scale(0.015625)"/>
       </defs>
       <use xlink:href="#Arimo-Regular-36"/>
       <use xlink:href="#Arimo-Regular-30" transform="translate(55.615234 0)"/>
      </g>
     </g>
    </g>
    <g id="xtick_5">
     <g id="line2d_5">
      <g>
       <use xlink:href="#ma09638a8bf" x="222.783352" y="202.84" style="stroke: #000000; stroke-width: 0.8"/>
      </g>
     </g>
     <g id="text_5">
      <!-- 80 -->
      <g transform="translate(217.222415 217.086875) scale(0.1 -0.1)">
       <defs>
        <path id="Arimo-Regular-38" d="M 3281 1228 
Q 3281 619 2893 278 
Q 2506 -63 1781 -63 
Q 1075 -63 676 271 
Q 278 606 278 1222 
Q 278 1653 525 1947 
Q 772 2241 1156 2303 
L 1156 2316 
Q 797 2400 589 2681 
Q 381 2963 381 3341 
Q 381 3844 757 4156 
Q 1134 4469 1769 4469 
Q 2419 4469 2795 4162 
Q 3172 3856 3172 3334 
Q 3172 2956 2962 2675 
Q 2753 2394 2391 2322 
L 2391 2309 
Q 2813 2241 3047 1952 
Q 3281 1663 3281 1228 
z
M 2588 3303 
Q 2588 4050 1769 4050 
Q 956 4050 956 3303 
Q 956 2925 1170 2726 
Q 1384 2528 1775 2528 
Q 2172 2528 2380 2711 
Q 2588 2894 2588 3303 
z
M 2697 1281 
Q 2697 1691 2453 1898 
Q 2209 2106 1769 2106 
Q 1341 2106 1100 1882 
Q 859 1659 859 1269 
Q 859 816 1092 587 
Q 1325 359 1788 359 
Q 2247 359 2472 579 
Q 2697 800 2697 1281 
z
" transform="scale(0.015625)"/>
       </defs>
       <use xlink:href="#Arimo-Regular-38"/>
       <use xlink:href="#Arimo-Regular-30" transform="translate(55.615234 0)"/>
      </g>
     </g>
    </g>
    <g id="xtick_6">
     <g id="line2d_6">
      <g>
       <use xlink:href="#ma09638a8bf" x="263.70517" y="202.84" style="stroke: #000000; stroke-width: 0.8"/>
      </g>
     </g>
     <g id="text_6">
      <!-- 100 -->
      <g transform="translate(255.363764 217.086875) scale(0.1 -0.1)">
       <defs>
        <path id="Arimo-Regular-31" d="M 3247 478 
L 3247 0 
L 488 0 
L 488 478 
L 1609 478 
L 1609 3866 
L 616 3156 
L 616 3688 
L 1656 4403 
L 2175 4403 
L 2175 478 
L 3247 478 
z
" transform="scale(0.015625)"/>
       </defs>
       <use xlink:href="#Arimo-Regular-31"/>
       <use xlink:href="#Arimo-Regular-30" transform="translate(55.615234 0)"/>
       <use xlink:href="#Arimo-Regular-30" transform="translate(111.230469 0)"/>
      </g>
     </g>
    </g>
    <g id="text_7">
     <!-- Actual % Help -->
     <g transform="translate(114.295937 234.032188) scale(0.15 -0.15)">
      <defs>
       <path id="Arimo-Regular-41" d="M 1138 1288 
L 631 0 
L 13 0 
L 1809 4403 
L 2488 4403 
L 4256 0 
L 3647 0 
L 3144 1288 
L 1138 1288 
z
M 2141 3953 
Q 2088 3778 2014 3564 
Q 1941 3350 1878 3188 
L 1319 1753 
L 2966 1753 
L 2400 3206 
Q 2356 3316 2284 3516 
Q 2213 3716 2141 3953 
z
" transform="scale(0.015625)"/>
       <path id="Arimo-Regular-63" d="M 1728 -63 
Q 1019 -63 645 385 
Q 272 834 272 1694 
Q 272 2547 647 2995 
Q 1022 3444 1722 3444 
Q 2241 3444 2583 3175 
Q 2925 2906 3013 2434 
L 2434 2391 
Q 2391 2672 2212 2837 
Q 2034 3003 1706 3003 
Q 1259 3003 1059 2706 
Q 859 2409 859 1706 
Q 859 1031 1071 706 
Q 1284 381 1713 381 
Q 2013 381 2214 543 
Q 2416 706 2463 1044 
L 3031 1006 
Q 2988 681 2814 440 
Q 2641 200 2364 68 
Q 2088 -63 1728 -63 
z
" transform="scale(0.015625)"/>
       <path id="Arimo-Regular-74" d="M 1731 25 
Q 1456 -50 1163 -50 
Q 825 -50 656 142 
Q 488 334 488 716 
L 488 2972 
L 97 2972 
L 97 3381 
L 509 3381 
L 675 4138 
L 1050 4138 
L 1050 3381 
L 1675 3381 
L 1675 2972 
L 1050 2972 
L 1050 838 
Q 1050 594 1129 495 
Q 1209 397 1406 397 
Q 1513 397 1731 441 
L 1731 25 
z
" transform="scale(0.015625)"/>
       <path id="Arimo-Regular-75" d="M 2569 578 
Q 2375 228 2120 82 
Q 1866 -63 1488 -63 
Q 931 -63 673 214 
Q 416 491 416 1128 
L 416 3381 
L 981 3381 
L 981 1238 
Q 981 731 1139 551 
Q 1297 372 1678 372 
Q 2084 372 2318 650 
Q 2553 928 2553 1422 
L 2553 3381 
L 3116 3381 
L 3116 722 
Q 3116 428 3120 247 
Q 3125 66 3134 0 
L 2603 0 
Q 2600 16 2592 147 
Q 2584 278 2578 578 
L 2569 578 
z
" transform="scale(0.015625)"/>
       <path id="Arimo-Regular-61" d="M 1294 -63 
Q 784 -63 528 206 
Q 272 475 272 944 
Q 272 1469 617 1750 
Q 963 2031 1731 2050 
L 2491 2063 
L 2491 2247 
Q 2491 2659 2316 2837 
Q 2141 3016 1766 3016 
Q 1388 3016 1216 2887 
Q 1044 2759 1009 2478 
L 422 2531 
Q 566 3444 1778 3444 
Q 2416 3444 2737 3151 
Q 3059 2859 3059 2306 
L 3059 850 
Q 3059 600 3125 473 
Q 3191 347 3375 347 
Q 3463 347 3559 369 
L 3559 19 
Q 3453 -6 3343 -18 
Q 3234 -31 3125 -31 
Q 2813 -31 2670 133 
Q 2528 297 2509 647 
L 2491 647 
Q 2275 259 1989 98 
Q 1703 -63 1294 -63 
z
M 2491 1669 
L 1875 1656 
Q 1481 1653 1275 1575 
Q 1069 1500 959 1344 
Q 850 1188 850 934 
Q 850 659 998 509 
Q 1147 359 1422 359 
Q 1734 359 1972 500 
Q 2213 641 2352 886 
Q 2491 1131 2491 1391 
L 2491 1669 
z
" transform="scale(0.015625)"/>
       <path id="Arimo-Regular-6c" d="M 994 4638 
L 994 0 
L 431 0 
L 431 4638 
L 994 4638 
z
" transform="scale(0.015625)"/>
       <path id="Arimo-Regular-20" transform="scale(0.015625)"/>
       <path id="Arimo-Regular-25" d="M 1231 4441 
Q 2209 4441 2209 3047 
Q 2209 2369 1961 2003 
Q 1713 1638 1219 1638 
Q 725 1638 476 2000 
Q 228 2363 228 3047 
Q 228 3744 468 4092 
Q 709 4441 1231 4441 
z
M 4534 4403 
L 1647 0 
L 1163 0 
L 4044 4403 
L 4534 4403 
z
M 1750 3047 
Q 1750 3597 1631 3850 
Q 1513 4103 1231 4103 
Q 938 4103 813 3854 
Q 688 3606 688 3047 
Q 688 2506 813 2248 
Q 938 1991 1225 1991 
Q 1497 1991 1623 2253 
Q 1750 2516 1750 3047 
z
M 5463 1356 
Q 5463 684 5209 323 
Q 4956 -38 4463 -38 
Q 3975 -38 3726 314 
Q 3478 666 3478 1356 
Q 3478 2069 3717 2417 
Q 3956 2766 4475 2766 
Q 4988 2766 5225 2408 
Q 5463 2050 5463 1356 
z
M 5000 1356 
Q 5000 1916 4879 2167 
Q 4759 2419 4475 2419 
Q 4191 2419 4064 2172 
Q 3938 1925 3938 1356 
Q 3938 822 4061 564 
Q 4184 306 4469 306 
Q 4744 306 4872 567 
Q 5000 828 5000 1356 
z
" transform="scale(0.015625)"/>
       <path id="Arimo-Regular-48" d="M 1122 2041 
L 1122 0 
L 525 0 
L 525 4403 
L 1122 4403 
L 1122 2541 
L 3503 2541 
L 3503 4403 
L 4100 4403 
L 4100 0 
L 3503 0 
L 3503 2041 
L 1122 2041 
z
" transform="scale(0.015625)"/>
       <path id="Arimo-Regular-65" d="M 863 1572 
Q 863 991 1103 675 
Q 1344 359 1806 359 
Q 2172 359 2392 506 
Q 2613 653 2691 878 
L 3184 738 
Q 2881 -63 1806 -63 
Q 1056 -63 664 384 
Q 272 831 272 1713 
Q 272 2550 664 2997 
Q 1056 3444 1784 3444 
Q 2531 3444 2903 2994 
Q 3275 2544 3275 1647 
L 3275 1572 
L 863 1572 
z
M 2694 2003 
Q 2647 2538 2422 2783 
Q 2197 3028 1775 3028 
Q 1366 3028 1127 2754 
Q 888 2481 869 2003 
L 2694 2003 
z
" transform="scale(0.015625)"/>
       <path id="Arimo-Regular-70" d="M 3291 1706 
Q 3291 822 2980 379 
Q 2669 -63 2047 -63 
Q 1266 -63 997 525 
L 981 525 
Q 994 503 994 -6 
L 994 -1328 
L 431 -1328 
L 431 2691 
Q 431 2950 426 3123 
Q 422 3297 413 3381 
L 956 3381 
Q 959 3369 967 3259 
Q 975 3150 981 3023 
Q 988 2897 988 2838 
L 1000 2838 
Q 1150 3150 1397 3295 
Q 1644 3441 2047 3441 
Q 2672 3441 2981 3022 
Q 3291 2603 3291 1706 
z
M 2700 1694 
Q 2700 2400 2509 2703 
Q 2319 3006 1903 3006 
Q 1441 3006 1217 2686 
Q 994 2366 994 1650 
Q 994 984 1206 668 
Q 1419 353 1897 353 
Q 2316 353 2508 661 
Q 2700 969 2700 1694 
z
" transform="scale(0.015625)"/>
      </defs>
      <use xlink:href="#Arimo-Regular-41"/>
      <use xlink:href="#Arimo-Regular-63" transform="translate(66.699219 0)"/>
      <use xlink:href="#Arimo-Regular-74" transform="translate(116.699219 0)"/>
      <use xlink:href="#Arimo-Regular-75" transform="translate(144.482422 0)"/>
      <use xlink:href="#Arimo-Regular-61" transform="translate(200.097656 0)"/>
      <use xlink:href="#Arimo-Regular-6c" transform="translate(255.712891 0)"/>
      <use xlink:href="#Arimo-Regular-20" transform="translate(277.929688 0)"/>
      <use xlink:href="#Arimo-Regular-25" transform="translate(305.712891 0)"/>
      <use xlink:href="#Arimo-Regular-20" transform="translate(394.628906 0)"/>
      <use xlink:href="#Arimo-Regular-48" transform="translate(422.412109 0)"/>
      <use xlink:href="#Arimo-Regular-65" transform="translate(494.628906 0)"/>
      <use xlink:href="#Arimo-Regular-6c" transform="translate(550.244141 0)"/>
      <use xlink:href="#Arimo-Regular-70" transform="translate(572.460938 0)"/>
     </g>
    </g>
   </g>
   <g id="matplotlib.axis_2">
    <g id="ytick_1">
     <g id="line2d_7">
      <defs>
       <path id="m4f860eace9" d="M 0 0 
L -3.5 0 
" style="stroke: #000000; stroke-width: 0.8"/>
      </defs>
      <g>
       <use xlink:href="#m4f860eace9" x="48.865625" y="193.947273" style="stroke: #000000; stroke-width: 0.8"/>
      </g>
     </g>
     <g id="text_8">
      <!-- 0 -->
      <g transform="translate(36.304688 197.57071) scale(0.1 -0.1)">
       <use xlink:href="#Arimo-Regular-30"/>
      </g>
     </g>
    </g>
    <g id="ytick_2">
     <g id="line2d_8">
      <g>
       <use xlink:href="#m4f860eace9" x="48.865625" y="158.376364" style="stroke: #000000; stroke-width: 0.8"/>
      </g>
     </g>
     <g id="text_9">
      <!-- 20 -->
      <g transform="translate(30.74375 161.999801) scale(0.1 -0.1)">
       <use xlink:href="#Arimo-Regular-32"/>
       <use xlink:href="#Arimo-Regular-30" transform="translate(55.615234 0)"/>
      </g>
     </g>
    </g>
    <g id="ytick_3">
     <g id="line2d_9">
      <g>
       <use xlink:href="#m4f860eace9" x="48.865625" y="122.805455" style="stroke: #000000; stroke-width: 0.8"/>
      </g>
     </g>
     <g id="text_10">
      <!-- 40 -->
      <g transform="translate(30.74375 126.428892) scale(0.1 -0.1)">
       <use xlink:href="#Arimo-Regular-34"/>
       <use xlink:href="#Arimo-Regular-30" transform="translate(55.615234 0)"/>
      </g>
     </g>
    </g>
    <g id="ytick_4">
     <g id="line2d_10">
      <g>
       <use xlink:href="#m4f860eace9" x="48.865625" y="87.234545" style="stroke: #000000; stroke-width: 0.8"/>
      </g>
     </g>
     <g id="text_11">
      <!-- 60 -->
      <g transform="translate(30.74375 90.857983) scale(0.1 -0.1)">
       <use xlink:href="#Arimo-Regular-36"/>
       <use xlink:href="#Arimo-Regular-30" transform="translate(55.615234 0)"/>
      </g>
     </g>
    </g>
    <g id="ytick_5">
     <g id="line2d_11">
      <g>
       <use xlink:href="#m4f860eace9" x="48.865625" y="51.663636" style="stroke: #000000; stroke-width: 0.8"/>
      </g>
     </g>
     <g id="text_12">
      <!-- 80 -->
      <g transform="translate(30.74375 55.287074) scale(0.1 -0.1)">
       <use xlink:href="#Arimo-Regular-38"/>
       <use xlink:href="#Arimo-Regular-30" transform="translate(55.615234 0)"/>
      </g>
     </g>
    </g>
    <g id="ytick_6">
     <g id="line2d_12">
      <g>
       <use xlink:href="#m4f860eace9" x="48.865625" y="16.092727" style="stroke: #000000; stroke-width: 0.8"/>
      </g>
     </g>
     <g id="text_13">
      <!-- 100 -->
      <g transform="translate(25.182813 19.716165) scale(0.1 -0.1)">
       <use xlink:href="#Arimo-Regular-31"/>
       <use xlink:href="#Arimo-Regular-30" transform="translate(55.615234 0)"/>
       <use xlink:href="#Arimo-Regular-30" transform="translate(111.230469 0)"/>
      </g>
     </g>
    </g>
    <g id="text_14">
     <!-- Predicted % Help -->
     <g transform="translate(18.070313 162.963359) rotate(-90) scale(0.15 -0.15)">
      <defs>
       <path id="Arimo-Regular-50" d="M 3931 3078 
Q 3931 2663 3747 2356 
Q 3563 2050 3223 1883 
Q 2884 1716 2416 1716 
L 1122 1716 
L 1122 0 
L 525 0 
L 525 4403 
L 2378 4403 
Q 3119 4403 3525 4056 
Q 3931 3709 3931 3078 
z
M 3331 3072 
Q 3331 3925 2306 3925 
L 1122 3925 
L 1122 2188 
L 2331 2188 
Q 2831 2188 3081 2408 
Q 3331 2628 3331 3072 
z
" transform="scale(0.015625)"/>
       <path id="Arimo-Regular-72" d="M 1006 1763 
L 1006 0 
L 444 0 
L 444 2594 
Q 444 2772 439 2969 
Q 434 3166 425 3381 
L 956 3381 
Q 963 3238 967 3122 
Q 972 3006 975 2920 
Q 978 2834 979 2776 
Q 981 2719 981 2691 
L 994 2691 
Q 1088 2997 1200 3166 
Q 1309 3322 1450 3383 
Q 1591 3444 1797 3444 
Q 1913 3444 2025 3413 
L 2025 2897 
Q 1919 2928 1725 2928 
Q 1375 2928 1190 2626 
Q 1006 2325 1006 1763 
z
" transform="scale(0.015625)"/>
       <path id="Arimo-Regular-64" d="M 2609 0 
Q 2603 34 2595 129 
Q 2588 225 2583 340 
Q 2578 456 2578 544 
L 2566 544 
Q 2409 219 2151 78 
Q 1894 -63 1513 -63 
Q 872 -63 570 368 
Q 269 800 269 1675 
Q 269 2559 580 3001 
Q 891 3444 1513 3444 
Q 1897 3444 2153 3303 
Q 2409 3163 2566 2856 
L 2572 2856 
L 2566 3234 
L 2566 4638 
L 3128 4638 
L 3128 697 
Q 3128 431 3133 257 
Q 3138 84 3147 0 
L 2609 0 
z
M 859 1694 
Q 859 984 1046 678 
Q 1234 372 1656 372 
Q 2134 372 2350 703 
Q 2566 1034 2566 1731 
Q 2566 2403 2350 2715 
Q 2134 3028 1663 3028 
Q 1238 3028 1048 2714 
Q 859 2400 859 1694 
z
" transform="scale(0.015625)"/>
       <path id="Arimo-Regular-69" d="M 991 4638 
L 991 4100 
L 428 4100 
L 428 4638 
L 991 4638 
z
M 991 3381 
L 991 0 
L 428 0 
L 428 3381 
L 991 3381 
z
" transform="scale(0.015625)"/>
      </defs>
      <use xlink:href="#Arimo-Regular-50"/>
      <use xlink:href="#Arimo-Regular-72" transform="translate(66.699219 0)"/>
      <use xlink:href="#Arimo-Regular-65" transform="translate(100 0)"/>
      <use xlink:href="#Arimo-Regular-64" transform="translate(155.615234 0)"/>
      <use xlink:href="#Arimo-Regular-69" transform="translate(211.230469 0)"/>
      <use xlink:href="#Arimo-Regular-63" transform="translate(233.447266 0)"/>
      <use xlink:href="#Arimo-Regular-74" transform="translate(283.447266 0)"/>
      <use xlink:href="#Arimo-Regular-65" transform="translate(311.230469 0)"/>
      <use xlink:href="#Arimo-Regular-64" transform="translate(366.845703 0)"/>
      <use xlink:href="#Arimo-Regular-20" transform="translate(422.460938 0)"/>
      <use xlink:href="#Arimo-Regular-25" transform="translate(450.244141 0)"/>
      <use xlink:href="#Arimo-Regular-20" transform="translate(539.160156 0)"/>
      <use xlink:href="#Arimo-Regular-48" transform="translate(566.943359 0)"/>
      <use xlink:href="#Arimo-Regular-65" transform="translate(639.160156 0)"/>
      <use xlink:href="#Arimo-Regular-6c" transform="translate(694.775391 0)"/>
      <use xlink:href="#Arimo-Regular-70" transform="translate(716.992188 0)"/>
     </g>
    </g>
   </g>
   <g id="line2d_13">
    <path d="M 59.09608 193.947273 
L 263.70517 16.092727 
" clip-path="url(#p802e1dbb0e)" style="fill: none; stroke-dasharray: 5.55,2.4; stroke-dashoffset: 0; stroke: #000000; stroke-width: 1.5"/>
   </g>
   <g id="patch_3">
    <path d="M 48.865625 202.84 
L 48.865625 7.2 
" style="fill: none; stroke: #000000; stroke-width: 0.8; stroke-linejoin: miter; stroke-linecap: square"/>
   </g>
   <g id="patch_4">
    <path d="M 48.865625 202.84 
L 273.935625 202.84 
" style="fill: none; stroke: #000000; stroke-width: 0.8; stroke-linejoin: miter; stroke-linecap: square"/>
   </g>
  </g>
 </g>
 <defs>
  <clipPath id="p802e1dbb0e">
   <rect x="48.865625" y="7.2" width="225.07" height="195.64"/>
  </clipPath>
 </defs>
</svg>
