<?xml version="1.0" encoding="utf-8" standalone="no"?>
<!DOCTYPE svg PUBLIC "-//W3C//DTD SVG 1.1//EN"
  "http://www.w3.org/Graphics/SVG/1.1/DTD/svg11.dtd">
<svg xmlns:xlink="http://www.w3.org/1999/xlink" width="244.052188pt" height="207.4125pt" viewBox="0 0 244.052188 207.4125" xmlns="http://www.w3.org/2000/svg" version="1.1">
 <metadata>
  <rdf:RDF xmlns:dc="http://purl.org/dc/elements/1.1/" xmlns:cc="http://creativecommons.org/ns#" xmlns:rdf="http://www.w3.org/1999/02/22-rdf-syntax-ns#">
   <cc:Work>
    <dc:type rdf:resource="http://purl.org/dc/dcmitype/StillImage"/>
    <dc:date>2025-10-31T00:48:54.149516</dc:date>
    <dc:format>image/svg+xml</dc:format>
    <dc:creator>
     <cc:Agent>
      <dc:title>Matplotlib v3.10.0, https://matplotlib.org/</dc:title>
     </cc:Agent>
    </dc:creator>
   </cc:Work>
  </rdf:RDF>
 </metadata>
 <defs>
  <style type="text/css">*{stroke-linejoin: round; stroke-linecap: butt}</style>
 </defs>
 <g id="figure_1">
  <g id="patch_1">
   <path d="M 0 207.4125 
L 244.052188 207.4125 
L 244.052188 0 
L 0 0 
z
" style="fill: #ffffff"/>
  </g>
  <g id="axes_1">
   <g id="patch_2">
    <path d="M 42.652188 166.84 
L 236.852188 166.84 
L 236.852188 7.2 
L 42.652188 7.2 
z
" style="fill: #ffffff"/>
   </g>
   <g id="PathCollection_1">
    <defs>
     <path id="m7e6a333bae" d="M 0 2.738613 
C 0.726289 2.738613 1.422928 2.450055 1.936492 1.936492 
C 2.450055 1.422928 2.738613 0.726289 2.738613 0 
C 2.738613 -0.726289 2.450055 -1.422928 1.936492 -1.936492 
C 1.422928 -2.450055 0.726289 -2.738613 0 -2.738613 
C -0.726289 -2.738613 -1.422928 -2.450055 -1.936492 -1.936492 
C -2.450055 -1.422928 -2.738613 -0.726289 -2.738613 0 
C -2.738613 0.726289 -2.450055 1.422928 -1.936492 1.936492 
C -1.422928 2.450055 -0.726289 2.738613 0 2.738613 
z
" style="stroke: #009e73; stroke-opacity: 0.8"/>
    </defs>
    <g clip-path="url(#p750f990597)">
     <use xlink:href="#m7e6a333bae" x="103.050522" y="55.310914" style="fill: #009e73; fill-opacity: 0.8; stroke: #009e73; stroke-opacity: 0.8"/>
     <use xlink:href="#m7e6a333bae" x="63.439853" y="78.638104" style="fill: #009e73; fill-opacity: 0.8; stroke: #009e73; stroke-opacity: 0.8"/>
     <use xlink:href="#m7e6a333bae" x="112.573787" y="62.215104" style="fill: #009e73; fill-opacity: 0.8; stroke: #009e73; stroke-opacity: 0.8"/>
     <use xlink:href="#m7e6a333bae" x="92.504564" y="67.255608" style="fill: #009e73; fill-opacity: 0.8; stroke: #009e73; stroke-opacity: 0.8"/>
     <use xlink:href="#m7e6a333bae" x="130.199553" y="66.202971" style="fill: #009e73; fill-opacity: 0.8; stroke: #009e73; stroke-opacity: 0.8"/>
     <use xlink:href="#m7e6a333bae" x="123.71667" y="72.90698" style="fill: #009e73; fill-opacity: 0.8; stroke: #009e73; stroke-opacity: 0.8"/>
     <use xlink:href="#m7e6a333bae" x="135.269714" y="51.396872" style="fill: #009e73; fill-opacity: 0.8; stroke: #009e73; stroke-opacity: 0.8"/>
     <use xlink:href="#m7e6a333bae" x="134.736955" y="54.972204" style="fill: #009e73; fill-opacity: 0.8; stroke: #009e73; stroke-opacity: 0.8"/>
     <use xlink:href="#m7e6a333bae" x="77.418943" y="83.46949" style="fill: #009e73; fill-opacity: 0.8; stroke: #009e73; stroke-opacity: 0.8"/>
     <use xlink:href="#m7e6a333bae" x="84.826871" y="71.739511" style="fill: #009e73; fill-opacity: 0.8; stroke: #009e73; stroke-opacity: 0.8"/>
     <use xlink:href="#m7e6a333bae" x="97.256381" y="82.452166" style="fill: #009e73; fill-opacity: 0.8; stroke: #009e73; stroke-opacity: 0.8"/>
     <use xlink:href="#m7e6a333bae" x="81.346479" y="81.316874" style="fill: #009e73; fill-opacity: 0.8; stroke: #009e73; stroke-opacity: 0.8"/>
     <use xlink:href="#m7e6a333bae" x="112.370374" y="82.655557" style="fill: #009e73; fill-opacity: 0.8; stroke: #009e73; stroke-opacity: 0.8"/>
     <use xlink:href="#m7e6a333bae" x="122.85574" y="80.705067" style="fill: #009e73; fill-opacity: 0.8; stroke: #009e73; stroke-opacity: 0.8"/>
     <use xlink:href="#m7e6a333bae" x="131.640541" y="83.896728" style="fill: #009e73; fill-opacity: 0.8; stroke: #009e73; stroke-opacity: 0.8"/>
     <use xlink:href="#m7e6a333bae" x="74.233084" y="54.628619" style="fill: #009e73; fill-opacity: 0.8; stroke: #009e73; stroke-opacity: 0.8"/>
     <use xlink:href="#m7e6a333bae" x="101.246999" y="85.778566" style="fill: #009e73; fill-opacity: 0.8; stroke: #009e73; stroke-opacity: 0.8"/>
     <use xlink:href="#m7e6a333bae" x="117.503293" y="73.010635" style="fill: #009e73; fill-opacity: 0.8; stroke: #009e73; stroke-opacity: 0.8"/>
     <use xlink:href="#m7e6a333bae" x="101.115994" y="81.825944" style="fill: #009e73; fill-opacity: 0.8; stroke: #009e73; stroke-opacity: 0.8"/>
     <use xlink:href="#m7e6a333bae" x="77.604562" y="78.637621" style="fill: #009e73; fill-opacity: 0.8; stroke: #009e73; stroke-opacity: 0.8"/>
     <use xlink:href="#m7e6a333bae" x="100.91083" y="78.500738" style="fill: #009e73; fill-opacity: 0.8; stroke: #009e73; stroke-opacity: 0.8"/>
     <use xlink:href="#m7e6a333bae" x="60.819877" y="74.762942" style="fill: #009e73; fill-opacity: 0.8; stroke: #009e73; stroke-opacity: 0.8"/>
     <use xlink:href="#m7e6a333bae" x="98.120617" y="79.282604" style="fill: #009e73; fill-opacity: 0.8; stroke: #009e73; stroke-opacity: 0.8"/>
     <use xlink:href="#m7e6a333bae" x="103.687865" y="67.410515" style="fill: #009e73; fill-opacity: 0.8; stroke: #009e73; stroke-opacity: 0.8"/>
     <use xlink:href="#m7e6a333bae" x="69.053579" y="64.519508" style="fill: #009e73; fill-opacity: 0.8; stroke: #009e73; stroke-opacity: 0.8"/>
     <use xlink:href="#m7e6a333bae" x="123.759765" y="81.490357" style="fill: #009e73; fill-opacity: 0.8; stroke: #009e73; stroke-opacity: 0.8"/>
     <use xlink:href="#m7e6a333bae" x="128.987903" y="73.068448" style="fill: #009e73; fill-opacity: 0.8; stroke: #009e73; stroke-opacity: 0.8"/>
    </g>
   </g>
   <g id="PathCollection_2">
    <defs>
     <path id="mc7c01c1546" d="M 0 2.738613 
C 0.726289 2.738613 1.422928 2.450055 1.936492 1.936492 
C 2.450055 1.422928 2.738613 0.726289 2.738613 0 
C 2.738613 -0.726289 2.450055 -1.422928 1.936492 -1.936492 
C 1.422928 -2.450055 0.726289 -2.738613 0 -2.738613 
C -0.726289 -2.738613 -1.422928 -2.450055 -1.936492 -1.936492 
C -2.450055 -1.422928 -2.738613 -0.726289 -2.738613 0 
C -2.738613 0.726289 -2.450055 1.422928 -1.936492 1.936492 
C -1.422928 2.450055 -0.726289 2.738613 0 2.738613 
z
" style="stroke: #56b4e9; stroke-opacity: 0.8"/>
    </defs>
    <g clip-path="url(#p750f990597)">
     <use xlink:href="#mc7c01c1546" x="207.617811" y="73.987966" style="fill: #56b4e9; fill-opacity: 0.8; stroke: #56b4e9; stroke-opacity: 0.8"/>
     <use xlink:href="#mc7c01c1546" x="200.496247" y="78.121499" style="fill: #56b4e9; fill-opacity: 0.8; stroke: #56b4e9; stroke-opacity: 0.8"/>
     <use xlink:href="#mc7c01c1546" x="173.5713" y="76.776403" style="fill: #56b4e9; fill-opacity: 0.8; stroke: #56b4e9; stroke-opacity: 0.8"/>
     <use xlink:href="#mc7c01c1546" x="147.246163" y="78.712964" style="fill: #56b4e9; fill-opacity: 0.8; stroke: #56b4e9; stroke-opacity: 0.8"/>
     <use xlink:href="#mc7c01c1546" x="195.429738" y="54.557884" style="fill: #56b4e9; fill-opacity: 0.8; stroke: #56b4e9; stroke-opacity: 0.8"/>
     <use xlink:href="#mc7c01c1546" x="177.875022" y="79.621847" style="fill: #56b4e9; fill-opacity: 0.8; stroke: #56b4e9; stroke-opacity: 0.8"/>
     <use xlink:href="#mc7c01c1546" x="153.631765" y="76.043741" style="fill: #56b4e9; fill-opacity: 0.8; stroke: #56b4e9; stroke-opacity: 0.8"/>
     <use xlink:href="#mc7c01c1546" x="209.57894" y="85.076972" style="fill: #56b4e9; fill-opacity: 0.8; stroke: #56b4e9; stroke-opacity: 0.8"/>
     <use xlink:href="#mc7c01c1546" x="147.145736" y="20.196956" style="fill: #56b4e9; fill-opacity: 0.8; stroke: #56b4e9; stroke-opacity: 0.8"/>
     <use xlink:href="#mc7c01c1546" x="214.214193" y="67.63347" style="fill: #56b4e9; fill-opacity: 0.8; stroke: #56b4e9; stroke-opacity: 0.8"/>
     <use xlink:href="#mc7c01c1546" x="191.18566" y="72.674562" style="fill: #56b4e9; fill-opacity: 0.8; stroke: #56b4e9; stroke-opacity: 0.8"/>
     <use xlink:href="#mc7c01c1546" x="152.605001" y="80.376813" style="fill: #56b4e9; fill-opacity: 0.8; stroke: #56b4e9; stroke-opacity: 0.8"/>
     <use xlink:href="#mc7c01c1546" x="147.923379" y="24.373327" style="fill: #56b4e9; fill-opacity: 0.8; stroke: #56b4e9; stroke-opacity: 0.8"/>
     <use xlink:href="#mc7c01c1546" x="141.412518" y="60.964512" style="fill: #56b4e9; fill-opacity: 0.8; stroke: #56b4e9; stroke-opacity: 0.8"/>
     <use xlink:href="#mc7c01c1546" x="198.589855" y="58.161277" style="fill: #56b4e9; fill-opacity: 0.8; stroke: #56b4e9; stroke-opacity: 0.8"/>
     <use xlink:href="#mc7c01c1546" x="189.058642" y="46.821103" style="fill: #56b4e9; fill-opacity: 0.8; stroke: #56b4e9; stroke-opacity: 0.8"/>
     <use xlink:href="#mc7c01c1546" x="163.111612" y="75.217269" style="fill: #56b4e9; fill-opacity: 0.8; stroke: #56b4e9; stroke-opacity: 0.8"/>
     <use xlink:href="#mc7c01c1546" x="213.970059" y="83.032728" style="fill: #56b4e9; fill-opacity: 0.8; stroke: #56b4e9; stroke-opacity: 0.8"/>
     <use xlink:href="#mc7c01c1546" x="142.873611" y="66.757465" style="fill: #56b4e9; fill-opacity: 0.8; stroke: #56b4e9; stroke-opacity: 0.8"/>
     <use xlink:href="#mc7c01c1546" x="193.247304" y="82.337291" style="fill: #56b4e9; fill-opacity: 0.8; stroke: #56b4e9; stroke-opacity: 0.8"/>
     <use xlink:href="#mc7c01c1546" x="156.38645" y="73.507984" style="fill: #56b4e9; fill-opacity: 0.8; stroke: #56b4e9; stroke-opacity: 0.8"/>
     <use xlink:href="#mc7c01c1546" x="142.680449" y="64.724557" style="fill: #56b4e9; fill-opacity: 0.8; stroke: #56b4e9; stroke-opacity: 0.8"/>
     <use xlink:href="#mc7c01c1546" x="194.592927" y="69.957048" style="fill: #56b4e9; fill-opacity: 0.8; stroke: #56b4e9; stroke-opacity: 0.8"/>
    </g>
   </g>
   <g id="PathCollection_3">
    <defs>
     <path id="maffea6893f" d="M 0 2.738613 
C 0.726289 2.738613 1.422928 2.450055 1.936492 1.936492 
C 2.450055 1.422928 2.738613 0.726289 2.738613 0 
C 2.738613 -0.726289 2.450055 -1.422928 1.936492 -1.936492 
C 1.422928 -2.450055 0.726289 -2.738613 0 -2.738613 
C -0.726289 -2.738613 -1.422928 -2.450055 -1.936492 -1.936492 
C -2.450055 -1.422928 -2.738613 -0.726289 -2.738613 0 
C -2.738613 0.726289 -2.450055 1.422928 -1.936492 1.936492 
C -1.422928 2.450055 -0.726289 2.738613 0 2.738613 
z
" style="stroke: #e69f00; stroke-opacity: 0.8"/>
    </defs>
    <g clip-path="url(#p750f990597)">
     <use xlink:href="#maffea6893f" x="134.116718" y="143.027209" style="fill: #e69f00; fill-opacity: 0.8; stroke: #e69f00; stroke-opacity: 0.8"/>
     <use xlink:href="#maffea6893f" x="71.263409" y="95.182854" style="fill: #e69f00; fill-opacity: 0.8; stroke: #e69f00; stroke-opacity: 0.8"/>
     <use xlink:href="#maffea6893f" x="120.305095" y="99.949964" style="fill: #e69f00; fill-opacity: 0.8; stroke: #e69f00; stroke-opacity: 0.8"/>
     <use xlink:href="#maffea6893f" x="69.542415" y="102.162758" style="fill: #e69f00; fill-opacity: 0.8; stroke: #e69f00; stroke-opacity: 0.8"/>
     <use xlink:href="#maffea6893f" x="106.924455" y="99.363658" style="fill: #e69f00; fill-opacity: 0.8; stroke: #e69f00; stroke-opacity: 0.8"/>
     <use xlink:href="#maffea6893f" x="112.177534" y="114.444176" style="fill: #e69f00; fill-opacity: 0.8; stroke: #e69f00; stroke-opacity: 0.8"/>
     <use xlink:href="#maffea6893f" x="120.103682" y="87.763646" style="fill: #e69f00; fill-opacity: 0.8; stroke: #e69f00; stroke-opacity: 0.8"/>
     <use xlink:href="#maffea6893f" x="108.429879" y="120.264301" style="fill: #e69f00; fill-opacity: 0.8; stroke: #e69f00; stroke-opacity: 0.8"/>
     <use xlink:href="#maffea6893f" x="137.006695" y="92.729552" style="fill: #e69f00; fill-opacity: 0.8; stroke: #e69f00; stroke-opacity: 0.8"/>
     <use xlink:href="#maffea6893f" x="133.760975" y="90.347625" style="fill: #e69f00; fill-opacity: 0.8; stroke: #e69f00; stroke-opacity: 0.8"/>
     <use xlink:href="#maffea6893f" x="105.922222" y="107.297128" style="fill: #e69f00; fill-opacity: 0.8; stroke: #e69f00; stroke-opacity: 0.8"/>
     <use xlink:href="#maffea6893f" x="116.266636" y="88.160559" style="fill: #e69f00; fill-opacity: 0.8; stroke: #e69f00; stroke-opacity: 0.8"/>
     <use xlink:href="#maffea6893f" x="103.823173" y="143.979159" style="fill: #e69f00; fill-opacity: 0.8; stroke: #e69f00; stroke-opacity: 0.8"/>
     <use xlink:href="#maffea6893f" x="139.256688" y="91.744571" style="fill: #e69f00; fill-opacity: 0.8; stroke: #e69f00; stroke-opacity: 0.8"/>
     <use xlink:href="#maffea6893f" x="126.619701" y="108.73054" style="fill: #e69f00; fill-opacity: 0.8; stroke: #e69f00; stroke-opacity: 0.8"/>
     <use xlink:href="#maffea6893f" x="119.258791" y="99.283308" style="fill: #e69f00; fill-opacity: 0.8; stroke: #e69f00; stroke-opacity: 0.8"/>
     <use xlink:href="#maffea6893f" x="100.516625" y="103.9686" style="fill: #e69f00; fill-opacity: 0.8; stroke: #e69f00; stroke-opacity: 0.8"/>
     <use xlink:href="#maffea6893f" x="131.688444" y="125.702434" style="fill: #e69f00; fill-opacity: 0.8; stroke: #e69f00; stroke-opacity: 0.8"/>
     <use xlink:href="#maffea6893f" x="114.766132" y="89.893244" style="fill: #e69f00; fill-opacity: 0.8; stroke: #e69f00; stroke-opacity: 0.8"/>
     <use xlink:href="#maffea6893f" x="116.002985" y="86.045599" style="fill: #e69f00; fill-opacity: 0.8; stroke: #e69f00; stroke-opacity: 0.8"/>
     <use xlink:href="#maffea6893f" x="135.374584" y="94.66571" style="fill: #e69f00; fill-opacity: 0.8; stroke: #e69f00; stroke-opacity: 0.8"/>
     <use xlink:href="#maffea6893f" x="139.196373" y="107.704571" style="fill: #e69f00; fill-opacity: 0.8; stroke: #e69f00; stroke-opacity: 0.8"/>
     <use xlink:href="#maffea6893f" x="97.529767" y="117.197449" style="fill: #e69f00; fill-opacity: 0.8; stroke: #e69f00; stroke-opacity: 0.8"/>
    </g>
   </g>
   <g id="PathCollection_4">
    <defs>
     <path id="m442a602102" d="M 0 2.738613 
C 0.726289 2.738613 1.422928 2.450055 1.936492 1.936492 
C 2.450055 1.422928 2.738613 0.726289 2.738613 0 
C 2.738613 -0.726289 2.450055 -1.422928 1.936492 -1.936492 
C 1.422928 -2.450055 0.726289 -2.738613 0 -2.738613 
C -0.726289 -2.738613 -1.422928 -2.450055 -1.936492 -1.936492 
C -2.450055 -1.422928 -2.738613 -0.726289 -2.738613 0 
C -2.738613 0.726289 -2.450055 1.422928 -1.936492 1.936492 
C -1.422928 2.450055 -0.726289 2.738613 0 2.738613 
z
" style="stroke: #cc79a7; stroke-opacity: 0.8"/>
    </defs>
    <g clip-path="url(#p750f990597)">
     <use xlink:href="#m442a602102" x="174.352352" y="92.485854" style="fill: #cc79a7; fill-opacity: 0.8; stroke: #cc79a7; stroke-opacity: 0.8"/>
     <use xlink:href="#m442a602102" x="162.527087" y="98.489999" style="fill: #cc79a7; fill-opacity: 0.8; stroke: #cc79a7; stroke-opacity: 0.8"/>
     <use xlink:href="#m442a602102" x="179.543194" y="89.855728" style="fill: #cc79a7; fill-opacity: 0.8; stroke: #cc79a7; stroke-opacity: 0.8"/>
     <use xlink:href="#m442a602102" x="144.607456" y="106.489225" style="fill: #cc79a7; fill-opacity: 0.8; stroke: #cc79a7; stroke-opacity: 0.8"/>
     <use xlink:href="#m442a602102" x="144.282378" y="95.304129" style="fill: #cc79a7; fill-opacity: 0.8; stroke: #cc79a7; stroke-opacity: 0.8"/>
     <use xlink:href="#m442a602102" x="167.601639" y="127.961985" style="fill: #cc79a7; fill-opacity: 0.8; stroke: #cc79a7; stroke-opacity: 0.8"/>
     <use xlink:href="#m442a602102" x="173.331253" y="99.260618" style="fill: #cc79a7; fill-opacity: 0.8; stroke: #cc79a7; stroke-opacity: 0.8"/>
     <use xlink:href="#m442a602102" x="141.07555" y="105.852001" style="fill: #cc79a7; fill-opacity: 0.8; stroke: #cc79a7; stroke-opacity: 0.8"/>
     <use xlink:href="#m442a602102" x="168.619344" y="100.658851" style="fill: #cc79a7; fill-opacity: 0.8; stroke: #cc79a7; stroke-opacity: 0.8"/>
     <use xlink:href="#m442a602102" x="166.570319" y="104.401139" style="fill: #cc79a7; fill-opacity: 0.8; stroke: #cc79a7; stroke-opacity: 0.8"/>
     <use xlink:href="#m442a602102" x="189.146674" y="102.160916" style="fill: #cc79a7; fill-opacity: 0.8; stroke: #cc79a7; stroke-opacity: 0.8"/>
     <use xlink:href="#m442a602102" x="172.736944" y="93.187325" style="fill: #cc79a7; fill-opacity: 0.8; stroke: #cc79a7; stroke-opacity: 0.8"/>
     <use xlink:href="#m442a602102" x="179.068287" y="89.946551" style="fill: #cc79a7; fill-opacity: 0.8; stroke: #cc79a7; stroke-opacity: 0.8"/>
     <use xlink:href="#m442a602102" x="194.131682" y="97.071505" style="fill: #cc79a7; fill-opacity: 0.8; stroke: #cc79a7; stroke-opacity: 0.8"/>
     <use xlink:href="#m442a602102" x="162.613896" y="89.479129" style="fill: #cc79a7; fill-opacity: 0.8; stroke: #cc79a7; stroke-opacity: 0.8"/>
     <use xlink:href="#m442a602102" x="154.007359" y="87.386612" style="fill: #cc79a7; fill-opacity: 0.8; stroke: #cc79a7; stroke-opacity: 0.8"/>
     <use xlink:href="#m442a602102" x="199.560543" y="98.117267" style="fill: #cc79a7; fill-opacity: 0.8; stroke: #cc79a7; stroke-opacity: 0.8"/>
     <use xlink:href="#m442a602102" x="157.98328" y="102.44544" style="fill: #cc79a7; fill-opacity: 0.8; stroke: #cc79a7; stroke-opacity: 0.8"/>
     <use xlink:href="#m442a602102" x="146.607221" y="101.345056" style="fill: #cc79a7; fill-opacity: 0.8; stroke: #cc79a7; stroke-opacity: 0.8"/>
     <use xlink:href="#m442a602102" x="140.551484" y="126.15716" style="fill: #cc79a7; fill-opacity: 0.8; stroke: #cc79a7; stroke-opacity: 0.8"/>
     <use xlink:href="#m442a602102" x="152.99835" y="89.123358" style="fill: #cc79a7; fill-opacity: 0.8; stroke: #cc79a7; stroke-opacity: 0.8"/>
     <use xlink:href="#m442a602102" x="149.819768" y="112.711771" style="fill: #cc79a7; fill-opacity: 0.8; stroke: #cc79a7; stroke-opacity: 0.8"/>
     <use xlink:href="#m442a602102" x="145.341316" y="124.268861" style="fill: #cc79a7; fill-opacity: 0.8; stroke: #cc79a7; stroke-opacity: 0.8"/>
     <use xlink:href="#m442a602102" x="185.580695" y="107.007874" style="fill: #cc79a7; fill-opacity: 0.8; stroke: #cc79a7; stroke-opacity: 0.8"/>
     <use xlink:href="#m442a602102" x="195.813529" y="91.824346" style="fill: #cc79a7; fill-opacity: 0.8; stroke: #cc79a7; stroke-opacity: 0.8"/>
     <use xlink:href="#m442a602102" x="147.204737" y="135.78775" style="fill: #cc79a7; fill-opacity: 0.8; stroke: #cc79a7; stroke-opacity: 0.8"/>
     <use xlink:href="#m442a602102" x="204.99374" y="105.924656" style="fill: #cc79a7; fill-opacity: 0.8; stroke: #cc79a7; stroke-opacity: 0.8"/>
    </g>
   </g>
   <g id="matplotlib.axis_1">
    <g id="xtick_1">
     <g id="line2d_1">
      <defs>
       <path id="m199f3ffb6e" d="M 0 0 
L 0 3.5 
" style="stroke: #000000; stroke-width: 0.8"/>
      </defs>
      <g>
       <use xlink:href="#m199f3ffb6e" x="62.072187" y="166.84" style="stroke: #000000; stroke-width: 0.8"/>
      </g>
     </g>
     <g id="text_1">
      <!-- −2 -->
      <g transform="translate(56.371406 181.086875) scale(0.1 -0.1)">
       <defs>
        <path id="Arimo-Regular-2212" d="M 3425 2356 
L 3425 1900 
L 316 1900 
L 316 2356 
L 3425 2356 
z
" transform="scale(0.015625)"/>
        <path id="Arimo-Regular-32" d="M 3238 478 
L 3238 0 
L 322 0 
L 322 397 
Q 481 763 707 1044 
Q 934 1325 1190 1550 
Q 1447 1775 1697 1969 
Q 1822 2066 1933 2162 
Q 2044 2259 2144 2356 
Q 2344 2550 2467 2762 
Q 2591 2975 2591 3244 
Q 2591 3606 2378 3806 
Q 2166 4006 1788 4006 
Q 1428 4006 1195 3811 
Q 963 3616 922 3263 
L 347 3316 
Q 409 3844 795 4156 
Q 1181 4469 1788 4469 
Q 2453 4469 2811 4155 
Q 3169 3841 3169 3263 
Q 3169 3006 3051 2753 
Q 2934 2500 2703 2247 
Q 2588 2122 2366 1925 
Q 2144 1728 1819 1463 
Q 1459 1169 1246 933 
Q 1034 697 941 478 
L 3238 478 
z
" transform="scale(0.015625)"/>
       </defs>
       <use xlink:href="#Arimo-Regular-2212"/>
       <use xlink:href="#Arimo-Regular-32" transform="translate(58.398438 0)"/>
      </g>
     </g>
    </g>
    <g id="xtick_2">
     <g id="line2d_2">
      <g>
       <use xlink:href="#m199f3ffb6e" x="100.912187" y="166.84" style="stroke: #000000; stroke-width: 0.8"/>
      </g>
     </g>
     <g id="text_2">
      <!-- −1 -->
      <g transform="translate(95.211406 181.086875) scale(0.1 -0.1)">
       <defs>
        <path id="Arimo-Regular-31" d="M 3247 478 
L 3247 0 
L 488 0 
L 488 478 
L 1609 478 
L 1609 3866 
L 616 3156 
L 616 3688 
L 1656 4403 
L 2175 4403 
L 2175 478 
L 3247 478 
z
" transform="scale(0.015625)"/>
       </defs>
       <use xlink:href="#Arimo-Regular-2212"/>
       <use xlink:href="#Arimo-Regular-31" transform="translate(58.398438 0)"/>
      </g>
     </g>
    </g>
    <g id="xtick_3">
     <g id="line2d_3">
      <g>
       <use xlink:href="#m199f3ffb6e" x="139.752187" y="166.84" style="stroke: #000000; stroke-width: 0.8"/>
      </g>
     </g>
     <g id="text_3">
      <!-- 0 -->
      <g transform="translate(136.971719 181.086875) scale(0.1 -0.1)">
       <defs>
        <path id="Arimo-Regular-30" d="M 3309 2203 
Q 3309 1100 2920 518 
Q 2531 -63 1772 -63 
Q 1013 -63 631 515 
Q 250 1094 250 2203 
Q 250 3338 620 3903 
Q 991 4469 1791 4469 
Q 2569 4469 2939 3897 
Q 3309 3325 3309 2203 
z
M 2738 2203 
Q 2738 2841 2642 3239 
Q 2547 3638 2337 3825 
Q 2128 4013 1791 4013 
Q 1447 4013 1231 3828 
Q 1016 3644 917 3245 
Q 819 2847 819 2203 
Q 819 1578 920 1178 
Q 1022 778 1234 587 
Q 1447 397 1778 397 
Q 2275 397 2506 840 
Q 2738 1284 2738 2203 
z
" transform="scale(0.015625)"/>
       </defs>
       <use xlink:href="#Arimo-Regular-30"/>
      </g>
     </g>
    </g>
    <g id="xtick_4">
     <g id="line2d_4">
      <g>
       <use xlink:href="#m199f3ffb6e" x="178.592187" y="166.84" style="stroke: #000000; stroke-width: 0.8"/>
      </g>
     </g>
     <g id="text_4">
      <!-- 1 -->
      <g transform="translate(175.811719 181.086875) scale(0.1 -0.1)">
       <use xlink:href="#Arimo-Regular-31"/>
      </g>
     </g>
    </g>
    <g id="xtick_5">
     <g id="line2d_5">
      <g>
       <use xlink:href="#m199f3ffb6e" x="217.432187" y="166.84" style="stroke: #000000; stroke-width: 0.8"/>
      </g>
     </g>
     <g id="text_5">
      <!-- 2 -->
      <g transform="translate(214.651719 181.086875) scale(0.1 -0.1)">
       <use xlink:href="#Arimo-Regular-32"/>
      </g>
     </g>
    </g>
    <g id="text_6">
     <!-- Both Benefit (low &lt;-&gt; high) -->
     <g transform="translate(56.876562 197.3075) scale(0.14 -0.14)">
      <defs>
       <path id="Arimo-Regular-42" d="M 3931 1241 
Q 3931 653 3503 326 
Q 3075 0 2313 0 
L 525 0 
L 525 4403 
L 2125 4403 
Q 2900 4403 3287 4136 
Q 3675 3869 3675 3334 
Q 3675 2944 3456 2678 
Q 3238 2413 2838 2322 
Q 3363 2259 3647 1970 
Q 3931 1681 3931 1241 
z
M 3075 3263 
Q 3075 3619 2831 3772 
Q 2588 3925 2125 3925 
L 1122 3925 
L 1122 2531 
L 2125 2531 
Q 2603 2531 2839 2711 
Q 3075 2891 3075 3263 
z
M 3328 1288 
Q 3328 2066 2234 2066 
L 1122 2066 
L 1122 478 
L 2281 478 
Q 2828 478 3078 681 
Q 3328 884 3328 1288 
z
" transform="scale(0.015625)"/>
       <path id="Arimo-Regular-6f" d="M 3291 1694 
Q 3291 806 2900 371 
Q 2509 -63 1766 -63 
Q 1025 -63 647 389 
Q 269 841 269 1694 
Q 269 2569 648 3006 
Q 1028 3444 1784 3444 
Q 2559 3444 2925 3017 
Q 3291 2591 3291 1694 
z
M 2700 1694 
Q 2700 2394 2492 2711 
Q 2284 3028 1794 3028 
Q 1300 3028 1079 2704 
Q 859 2381 859 1694 
Q 859 1025 1076 689 
Q 1294 353 1759 353 
Q 2266 353 2483 678 
Q 2700 1003 2700 1694 
z
" transform="scale(0.015625)"/>
       <path id="Arimo-Regular-74" d="M 1731 25 
Q 1456 -50 1163 -50 
Q 825 -50 656 142 
Q 488 334 488 716 
L 488 2972 
L 97 2972 
L 97 3381 
L 509 3381 
L 675 4138 
L 1050 4138 
L 1050 3381 
L 1675 3381 
L 1675 2972 
L 1050 2972 
L 1050 838 
Q 1050 594 1129 495 
Q 1209 397 1406 397 
Q 1513 397 1731 441 
L 1731 25 
z
" transform="scale(0.015625)"/>
       <path id="Arimo-Regular-68" d="M 991 2803 
Q 1172 3134 1426 3289 
Q 1681 3444 2072 3444 
Q 2622 3444 2883 3158 
Q 3144 2872 3144 2253 
L 3144 0 
L 2578 0 
L 2578 2144 
Q 2578 2603 2417 2806 
Q 2256 3009 1881 3009 
Q 1484 3009 1245 2734 
Q 1006 2459 1006 1994 
L 1006 0 
L 444 0 
L 444 4638 
L 1006 4638 
L 1006 3431 
Q 1006 3306 1000 3167 
Q 994 3028 989 2926 
Q 984 2825 981 2803 
L 991 2803 
z
" transform="scale(0.015625)"/>
       <path id="Arimo-Regular-20" transform="scale(0.015625)"/>
       <path id="Arimo-Regular-65" d="M 863 1572 
Q 863 991 1103 675 
Q 1344 359 1806 359 
Q 2172 359 2392 506 
Q 2613 653 2691 878 
L 3184 738 
Q 2881 -63 1806 -63 
Q 1056 -63 664 384 
Q 272 831 272 1713 
Q 272 2550 664 2997 
Q 1056 3444 1784 3444 
Q 2531 3444 2903 2994 
Q 3275 2544 3275 1647 
L 3275 1572 
L 863 1572 
z
M 2694 2003 
Q 2647 2538 2422 2783 
Q 2197 3028 1775 3028 
Q 1366 3028 1127 2754 
Q 888 2481 869 2003 
L 2694 2003 
z
" transform="scale(0.015625)"/>
       <path id="Arimo-Regular-6e" d="M 1006 1959 
L 1006 0 
L 444 0 
L 444 2659 
Q 444 2956 439 3136 
Q 434 3316 425 3381 
L 956 3381 
Q 963 3322 967 3231 
Q 972 3141 975 3031 
Q 978 2922 981 2803 
L 991 2803 
Q 1184 3153 1439 3298 
Q 1694 3444 2072 3444 
Q 2628 3444 2886 3159 
Q 3144 2875 3144 2253 
L 3144 0 
L 2578 0 
L 2578 2144 
Q 2578 2628 2422 2818 
Q 2266 3009 1881 3009 
Q 1475 3009 1240 2731 
Q 1006 2453 1006 1959 
z
" transform="scale(0.015625)"/>
       <path id="Arimo-Regular-66" d="M 1128 2972 
L 1128 0 
L 566 0 
L 566 2972 
L 91 2972 
L 91 3381 
L 566 3381 
L 566 3763 
Q 566 4225 769 4428 
Q 972 4631 1391 4631 
Q 1625 4631 1788 4594 
L 1788 4166 
Q 1638 4191 1538 4191 
Q 1322 4191 1225 4081 
Q 1128 3972 1128 3684 
L 1128 3381 
L 1788 3381 
L 1788 2972 
L 1128 2972 
z
" transform="scale(0.015625)"/>
       <path id="Arimo-Regular-69" d="M 991 4638 
L 991 4100 
L 428 4100 
L 428 4638 
L 991 4638 
z
M 991 3381 
L 991 0 
L 428 0 
L 428 3381 
L 991 3381 
z
" transform="scale(0.015625)"/>
       <path id="Arimo-Regular-28" d="M 1550 -1325 
Q 1156 -900 900 -440 
Q 644 19 520 536 
Q 397 1053 397 1650 
Q 397 2259 522 2778 
Q 647 3297 903 3756 
Q 1159 4216 1550 4638 
L 2094 4638 
Q 1509 3988 1236 3256 
Q 963 2525 963 1656 
Q 963 1081 1081 565 
Q 1200 50 1450 -417 
Q 1700 -884 2094 -1325 
L 1550 -1325 
z
" transform="scale(0.015625)"/>
       <path id="Arimo-Regular-6c" d="M 994 4638 
L 994 0 
L 431 0 
L 431 4638 
L 994 4638 
z
" transform="scale(0.015625)"/>
       <path id="Arimo-Regular-77" d="M 2200 2391 
L 1588 0 
L 938 0 
L -9 3381 
L 547 3381 
L 1128 1041 
Q 1153 941 1187 787 
Q 1222 634 1253 466 
Q 1288 613 1323 759 
Q 1359 906 1397 1050 
L 2013 3381 
L 2616 3381 
L 3206 1059 
Q 3244 913 3280 763 
Q 3316 613 3350 466 
Q 3384 616 3420 780 
Q 3456 944 3488 1069 
L 4088 3381 
L 4638 3381 
L 3669 0 
L 3016 0 
L 2425 2391 
Q 2394 2522 2367 2655 
Q 2341 2788 2313 2919 
Q 2300 2850 2267 2686 
Q 2234 2522 2200 2391 
z
" transform="scale(0.015625)"/>
       <path id="Arimo-Regular-3c" d="M 3425 959 
L 3425 481 
L 316 1784 
L 316 2425 
L 3425 3731 
L 3425 3250 
L 744 2106 
L 3425 959 
z
" transform="scale(0.015625)"/>
       <path id="Arimo-Regular-2d" d="M 1847 1950 
L 1847 1450 
L 284 1450 
L 284 1950 
L 1847 1950 
z
" transform="scale(0.015625)"/>
       <path id="Arimo-Regular-3e" d="M 3425 1784 
L 316 481 
L 316 959 
L 2997 2106 
L 316 3250 
L 316 3731 
L 3425 2425 
L 3425 1784 
z
" transform="scale(0.015625)"/>
       <path id="Arimo-Regular-67" d="M 1713 -1328 
Q 1159 -1328 831 -1111 
Q 503 -894 409 -494 
L 975 -413 
Q 1031 -647 1223 -773 
Q 1416 -900 1728 -900 
Q 2147 -900 2358 -653 
Q 2569 -406 2569 84 
L 2569 628 
L 2563 628 
Q 2403 303 2125 139 
Q 1847 -25 1475 -25 
Q 853 -25 561 387 
Q 269 800 269 1684 
Q 269 2581 583 3007 
Q 897 3434 1538 3434 
Q 1897 3434 2161 3270 
Q 2425 3106 2569 2803 
L 2575 2803 
Q 2575 2866 2581 2998 
Q 2588 3131 2597 3250 
Q 2606 3369 2613 3381 
L 3147 3381 
Q 3128 3213 3128 2681 
L 3128 97 
Q 3128 -616 2775 -972 
Q 2422 -1328 1713 -1328 
z
M 2569 1691 
Q 2569 2306 2317 2661 
Q 2066 3016 1675 3016 
Q 1244 3016 1047 2703 
Q 850 2391 850 1691 
Q 850 997 1034 694 
Q 1219 391 1666 391 
Q 2066 391 2317 739 
Q 2569 1088 2569 1691 
z
" transform="scale(0.015625)"/>
       <path id="Arimo-Regular-29" d="M 38 -1325 
Q 431 -888 681 -420 
Q 931 47 1050 561 
Q 1169 1075 1169 1656 
Q 1169 2528 895 3256 
Q 622 3984 38 4638 
L 581 4638 
Q 975 4213 1229 3753 
Q 1484 3294 1609 2778 
Q 1734 2263 1734 1663 
Q 1734 1056 1609 536 
Q 1484 16 1229 -442 
Q 975 -900 581 -1325 
L 38 -1325 
z
" transform="scale(0.015625)"/>
      </defs>
      <use xlink:href="#Arimo-Regular-42"/>
      <use xlink:href="#Arimo-Regular-6f" transform="translate(66.699219 0)"/>
      <use xlink:href="#Arimo-Regular-74" transform="translate(122.314453 0)"/>
      <use xlink:href="#Arimo-Regular-68" transform="translate(150.097656 0)"/>
      <use xlink:href="#Arimo-Regular-20" transform="translate(205.712891 0)"/>
      <use xlink:href="#Arimo-Regular-42" transform="translate(233.496094 0)"/>
      <use xlink:href="#Arimo-Regular-65" transform="translate(300.195312 0)"/>
      <use xlink:href="#Arimo-Regular-6e" transform="translate(355.810547 0)"/>
      <use xlink:href="#Arimo-Regular-65" transform="translate(411.425781 0)"/>
      <use xlink:href="#Arimo-Regular-66" transform="translate(467.041016 0)"/>
      <use xlink:href="#Arimo-Regular-69" transform="translate(494.824219 0)"/>
      <use xlink:href="#Arimo-Regular-74" transform="translate(517.041016 0)"/>
      <use xlink:href="#Arimo-Regular-20" transform="translate(544.824219 0)"/>
      <use xlink:href="#Arimo-Regular-28" transform="translate(572.607422 0)"/>
      <use xlink:href="#Arimo-Regular-6c" transform="translate(605.908203 0)"/>
      <use xlink:href="#Arimo-Regular-6f" transform="translate(628.125 0)"/>
      <use xlink:href="#Arimo-Regular-77" transform="translate(683.740234 0)"/>
      <use xlink:href="#Arimo-Regular-20" transform="translate(755.957031 0)"/>
      <use xlink:href="#Arimo-Regular-3c" transform="translate(783.740234 0)"/>
      <use xlink:href="#Arimo-Regular-2d" transform="translate(842.138672 0)"/>
      <use xlink:href="#Arimo-Regular-3e" transform="translate(875.439453 0)"/>
      <use xlink:href="#Arimo-Regular-20" transform="translate(933.837891 0)"/>
      <use xlink:href="#Arimo-Regular-68" transform="translate(961.621094 0)"/>
      <use xlink:href="#Arimo-Regular-69" transform="translate(1017.236328 0)"/>
      <use xlink:href="#Arimo-Regular-67" transform="translate(1039.453125 0)"/>
      <use xlink:href="#Arimo-Regular-68" transform="translate(1095.068359 0)"/>
      <use xlink:href="#Arimo-Regular-29" transform="translate(1150.683594 0)"/>
     </g>
    </g>
   </g>
   <g id="matplotlib.axis_2">
    <g id="ytick_1">
     <g id="line2d_6">
      <defs>
       <path id="m7e0c76977a" d="M 0 0 
L -3.5 0 
" style="stroke: #000000; stroke-width: 0.8"/>
      </defs>
      <g>
       <use xlink:href="#m7e0c76977a" x="42.652188" y="155.437143" style="stroke: #000000; stroke-width: 0.8"/>
      </g>
     </g>
     <g id="text_7">
      <!-- −3 -->
      <g transform="translate(24.250625 159.06058) scale(0.1 -0.1)">
       <defs>
        <path id="Arimo-Regular-33" d="M 3278 1216 
Q 3278 606 2890 271 
Q 2503 -63 1784 -63 
Q 1116 -63 717 239 
Q 319 541 244 1131 
L 825 1184 
Q 938 403 1784 403 
Q 2209 403 2451 612 
Q 2694 822 2694 1234 
Q 2694 1594 2417 1795 
Q 2141 1997 1619 1997 
L 1300 1997 
L 1300 2484 
L 1606 2484 
Q 2069 2484 2323 2686 
Q 2578 2888 2578 3244 
Q 2578 3597 2370 3801 
Q 2163 4006 1753 4006 
Q 1381 4006 1151 3815 
Q 922 3625 884 3278 
L 319 3322 
Q 381 3863 767 4166 
Q 1153 4469 1759 4469 
Q 2422 4469 2789 4161 
Q 3156 3853 3156 3303 
Q 3156 2881 2920 2617 
Q 2684 2353 2234 2259 
L 2234 2247 
Q 2728 2194 3003 1916 
Q 3278 1638 3278 1216 
z
" transform="scale(0.015625)"/>
       </defs>
       <use xlink:href="#Arimo-Regular-2212"/>
       <use xlink:href="#Arimo-Regular-33" transform="translate(58.398438 0)"/>
      </g>
     </g>
    </g>
    <g id="ytick_2">
     <g id="line2d_7">
      <g>
       <use xlink:href="#m7e0c76977a" x="42.652188" y="132.631429" style="stroke: #000000; stroke-width: 0.8"/>
      </g>
     </g>
     <g id="text_8">
      <!-- −2 -->
      <g transform="translate(24.250625 136.254866) scale(0.1 -0.1)">
       <use xlink:href="#Arimo-Regular-2212"/>
       <use xlink:href="#Arimo-Regular-32" transform="translate(58.398438 0)"/>
      </g>
     </g>
    </g>
    <g id="ytick_3">
     <g id="line2d_8">
      <g>
       <use xlink:href="#m7e0c76977a" x="42.652188" y="109.825714" style="stroke: #000000; stroke-width: 0.8"/>
      </g>
     </g>
     <g id="text_9">
      <!-- −1 -->
      <g transform="translate(24.250625 113.449152) scale(0.1 -0.1)">
       <use xlink:href="#Arimo-Regular-2212"/>
       <use xlink:href="#Arimo-Regular-31" transform="translate(58.398438 0)"/>
      </g>
     </g>
    </g>
    <g id="ytick_4">
     <g id="line2d_9">
      <g>
       <use xlink:href="#m7e0c76977a" x="42.652188" y="87.02" style="stroke: #000000; stroke-width: 0.8"/>
      </g>
     </g>
     <g id="text_10">
      <!-- 0 -->
      <g transform="translate(30.09125 90.643437) scale(0.1 -0.1)">
       <use xlink:href="#Arimo-Regular-30"/>
      </g>
     </g>
    </g>
    <g id="ytick_5">
     <g id="line2d_10">
      <g>
       <use xlink:href="#m7e0c76977a" x="42.652188" y="64.214286" style="stroke: #000000; stroke-width: 0.8"/>
      </g>
     </g>
     <g id="text_11">
      <!-- 1 -->
      <g transform="translate(30.09125 67.837723) scale(0.1 -0.1)">
       <use xlink:href="#Arimo-Regular-31"/>
      </g>
     </g>
    </g>
    <g id="ytick_6">
     <g id="line2d_11">
      <g>
       <use xlink:href="#m7e0c76977a" x="42.652188" y="41.408571" style="stroke: #000000; stroke-width: 0.8"/>
      </g>
     </g>
     <g id="text_12">
      <!-- 2 -->
      <g transform="translate(30.09125 45.032009) scale(0.1 -0.1)">
       <use xlink:href="#Arimo-Regular-32"/>
      </g>
     </g>
    </g>
    <g id="ytick_7">
     <g id="line2d_12">
      <g>
       <use xlink:href="#m7e0c76977a" x="42.652188" y="18.602857" style="stroke: #000000; stroke-width: 0.8"/>
      </g>
     </g>
     <g id="text_13">
      <!-- 3 -->
      <g transform="translate(30.09125 22.226295) scale(0.1 -0.1)">
       <use xlink:href="#Arimo-Regular-33"/>
      </g>
     </g>
    </g>
    <g id="text_14">
     <!-- Self Cost (low &lt;-&gt; high) -->
     <g transform="translate(17.345625 160.159062) rotate(-90) scale(0.14 -0.14)">
      <defs>
       <path id="Arimo-Regular-53" d="M 3975 1216 
Q 3975 606 3498 271 
Q 3022 -63 2156 -63 
Q 547 -63 291 1056 
L 869 1172 
Q 969 775 1294 589 
Q 1619 403 2178 403 
Q 2756 403 3070 601 
Q 3384 800 3384 1184 
Q 3384 1400 3286 1534 
Q 3188 1669 3009 1756 
Q 2831 1844 2584 1903 
Q 2338 1963 2038 2031 
Q 1691 2109 1458 2184 
Q 1225 2259 1075 2342 
Q 925 2425 819 2519 
Q 663 2663 580 2853 
Q 497 3044 497 3291 
Q 497 3856 930 4162 
Q 1363 4469 2169 4469 
Q 2919 4469 3316 4239 
Q 3713 4009 3872 3456 
L 3284 3353 
Q 3188 3703 2916 3861 
Q 2644 4019 2163 4019 
Q 1634 4019 1356 3844 
Q 1078 3669 1078 3322 
Q 1078 3119 1186 2986 
Q 1294 2853 1497 2763 
Q 1688 2672 2306 2534 
Q 2559 2475 2806 2411 
Q 3053 2347 3272 2250 
Q 3400 2197 3517 2120 
Q 3634 2044 3722 1944 
Q 3841 1813 3908 1634 
Q 3975 1456 3975 1216 
z
" transform="scale(0.015625)"/>
       <path id="Arimo-Regular-43" d="M 2500 428 
Q 3425 428 3891 1344 
L 4378 1100 
Q 4106 531 3614 234 
Q 3122 -63 2472 -63 
Q 1803 -63 1322 215 
Q 841 494 583 1008 
Q 325 1522 325 2222 
Q 325 2925 581 3428 
Q 838 3931 1319 4200 
Q 1800 4469 2469 4469 
Q 3172 4469 3644 4194 
Q 4116 3919 4338 3378 
L 3772 3191 
Q 3619 3575 3280 3778 
Q 2941 3981 2475 3981 
Q 1744 3981 1337 3511 
Q 931 3041 931 2222 
Q 931 1684 1123 1279 
Q 1316 875 1667 651 
Q 2019 428 2500 428 
z
" transform="scale(0.015625)"/>
       <path id="Arimo-Regular-73" d="M 2969 934 
Q 2969 456 2608 196 
Q 2247 -63 1597 -63 
Q 966 -63 623 145 
Q 281 353 178 794 
L 675 891 
Q 747 619 972 492 
Q 1197 366 1597 366 
Q 2025 366 2223 497 
Q 2422 628 2422 891 
Q 2422 1091 2284 1216 
Q 2147 1341 1841 1422 
Q 1478 1519 1264 1581 
Q 1050 1644 934 1689 
Q 819 1734 750 1775 
Q 544 1894 428 2066 
Q 313 2238 313 2488 
Q 313 2950 642 3192 
Q 972 3434 1603 3434 
Q 2163 3434 2492 3237 
Q 2822 3041 2909 2606 
L 2403 2544 
Q 2356 2769 2151 2889 
Q 1947 3009 1603 3009 
Q 1222 3009 1040 2893 
Q 859 2778 859 2544 
Q 859 2372 962 2261 
Q 1066 2150 1356 2078 
Q 1747 1984 2100 1873 
Q 2453 1763 2606 1653 
Q 2784 1525 2876 1351 
Q 2969 1178 2969 934 
z
" transform="scale(0.015625)"/>
      </defs>
      <use xlink:href="#Arimo-Regular-53"/>
      <use xlink:href="#Arimo-Regular-65" transform="translate(66.699219 0)"/>
      <use xlink:href="#Arimo-Regular-6c" transform="translate(122.314453 0)"/>
      <use xlink:href="#Arimo-Regular-66" transform="translate(144.53125 0)"/>
      <use xlink:href="#Arimo-Regular-20" transform="translate(172.314453 0)"/>
      <use xlink:href="#Arimo-Regular-43" transform="translate(200.097656 0)"/>
      <use xlink:href="#Arimo-Regular-6f" transform="translate(272.314453 0)"/>
      <use xlink:href="#Arimo-Regular-73" transform="translate(327.929688 0)"/>
      <use xlink:href="#Arimo-Regular-74" transform="translate(377.929688 0)"/>
      <use xlink:href="#Arimo-Regular-20" transform="translate(405.712891 0)"/>
      <use xlink:href="#Arimo-Regular-28" transform="translate(433.496094 0)"/>
      <use xlink:href="#Arimo-Regular-6c" transform="translate(466.796875 0)"/>
      <use xlink:href="#Arimo-Regular-6f" transform="translate(489.013672 0)"/>
      <use xlink:href="#Arimo-Regular-77" transform="translate(544.628906 0)"/>
      <use xlink:href="#Arimo-Regular-20" transform="translate(616.845703 0)"/>
      <use xlink:href="#Arimo-Regular-3c" transform="translate(644.628906 0)"/>
      <use xlink:href="#Arimo-Regular-2d" transform="translate(703.027344 0)"/>
      <use xlink:href="#Arimo-Regular-3e" transform="translate(736.328125 0)"/>
      <use xlink:href="#Arimo-Regular-20" transform="translate(794.726562 0)"/>
      <use xlink:href="#Arimo-Regular-68" transform="translate(822.509766 0)"/>
      <use xlink:href="#Arimo-Regular-69" transform="translate(878.125 0)"/>
      <use xlink:href="#Arimo-Regular-67" transform="translate(900.341797 0)"/>
      <use xlink:href="#Arimo-Regular-68" transform="translate(955.957031 0)"/>
      <use xlink:href="#Arimo-Regular-29" transform="translate(1011.572266 0)"/>
     </g>
    </g>
   </g>
   <g id="line2d_13">
    <path d="M 140.323377 166.84 
L 140.323377 7.2 
" clip-path="url(#p750f990597)" style="fill: none; stroke-dasharray: 5.55,2.4; stroke-dashoffset: 0; stroke: #808080; stroke-width: 1.5"/>
   </g>
   <g id="line2d_14">
    <path d="M 42.652188 85.854827 
L 236.852188 85.854827 
" clip-path="url(#p750f990597)" style="fill: none; stroke-dasharray: 5.55,2.4; stroke-dashoffset: 0; stroke: #808080; stroke-width: 1.5"/>
   </g>
   <g id="patch_3">
    <path d="M 42.652188 166.84 
L 42.652188 7.2 
" style="fill: none; stroke: #000000; stroke-width: 0.8; stroke-linejoin: miter; stroke-linecap: square"/>
   </g>
   <g id="patch_4">
    <path d="M 42.652187 166.84 
L 236.852188 166.84 
" style="fill: none; stroke: #000000; stroke-width: 0.8; stroke-linejoin: miter; stroke-linecap: square"/>
   </g>
  </g>
 </g>
 <defs>
  <clipPath id="p750f990597">
   <rect x="42.652188" y="7.2" width="194.2" height="159.64"/>
  </clipPath>
 </defs>
</svg>
