<?xml version="1.0" encoding="utf-8" standalone="no"?>
<!DOCTYPE svg PUBLIC "-//W3C//DTD SVG 1.1//EN"
  "http://www.w3.org/Graphics/SVG/1.1/DTD/svg11.dtd">
<svg xmlns:xlink="http://www.w3.org/1999/xlink" width="244.232188pt" height="207.4125pt" viewBox="0 0 244.232188 207.4125" xmlns="http://www.w3.org/2000/svg" version="1.1">
 <metadata>
  <rdf:RDF xmlns:dc="http://purl.org/dc/elements/1.1/" xmlns:cc="http://creativecommons.org/ns#" xmlns:rdf="http://www.w3.org/1999/02/22-rdf-syntax-ns#">
   <cc:Work>
    <dc:type rdf:resource="http://purl.org/dc/dcmitype/StillImage"/>
    <dc:date>2025-11-03T23:40:35.796661</dc:date>
    <dc:format>image/svg+xml</dc:format>
    <dc:creator>
     <cc:Agent>
      <dc:title>Matplotlib v3.10.0, https://matplotlib.org/</dc:title>
     </cc:Agent>
    </dc:creator>
   </cc:Work>
  </rdf:RDF>
 </metadata>
 <defs>
  <style type="text/css">*{stroke-linejoin: round; stroke-linecap: butt}</style>
 </defs>
 <g id="figure_1">
  <g id="patch_1">
   <path d="M 0 207.4125 
L 244.232188 207.4125 
L 244.232188 0 
L 0 0 
z
" style="fill: #ffffff"/>
  </g>
  <g id="axes_1">
   <g id="patch_2">
    <path d="M 42.652188 166.84 
L 237.032188 166.84 
L 237.032188 7.2 
L 42.652188 7.2 
z
" style="fill: #ffffff"/>
   </g>
   <g id="PathCollection_1">
    <defs>
     <path id="C0_0_a2486d9ca9" d="M 0 3.354102 
C 0.889518 3.354102 1.742724 3.000693 2.371708 2.371708 
C 3.000693 1.742724 3.354102 0.889518 3.354102 -0 
C 3.354102 -0.889518 3.000693 -1.742724 2.371708 -2.371708 
C 1.742724 -3.000693 0.889518 -3.354102 0 -3.354102 
C -0.889518 -3.354102 -1.742724 -3.000693 -2.371708 -2.371708 
C -3.000693 -1.742724 -3.354102 -0.889518 -3.354102 0 
C -3.354102 0.889518 -3.000693 1.742724 -2.371708 2.371708 
C -1.742724 3.000693 -0.889518 3.354102 0 3.354102 
z
"/>
    </defs>
    <g clip-path="url(#p37967bc94b)">
     <use xlink:href="#C0_0_a2486d9ca9" x="62.627857" y="113.475962" style="fill: #ff7f0e; fill-opacity: 0.7"/>
    </g>
    <g clip-path="url(#p37967bc94b)">
     <use xlink:href="#C0_0_a2486d9ca9" x="204.62659" y="131.695632" style="fill: #c5b0d5; fill-opacity: 0.7"/>
    </g>
    <g clip-path="url(#p37967bc94b)">
     <use xlink:href="#C0_0_a2486d9ca9" x="161.247891" y="114.472054" style="fill: #98df8a; fill-opacity: 0.7"/>
    </g>
    <g clip-path="url(#p37967bc94b)">
     <use xlink:href="#C0_0_a2486d9ca9" x="131.303498" y="73.534531" style="fill: #e377c2; fill-opacity: 0.7"/>
    </g>
    <g clip-path="url(#p37967bc94b)">
     <use xlink:href="#C0_0_a2486d9ca9" x="144.850876" y="149.464262" style="fill: #ff9896; fill-opacity: 0.7"/>
    </g>
    <g clip-path="url(#p37967bc94b)">
     <use xlink:href="#C0_0_a2486d9ca9" x="141.130293" y="87.875103" style="fill: #e377c2; fill-opacity: 0.7"/>
    </g>
    <g clip-path="url(#p37967bc94b)">
     <use xlink:href="#C0_0_a2486d9ca9" x="161.158008" y="141.540276" style="fill: #f7b6d2; fill-opacity: 0.7"/>
    </g>
    <g clip-path="url(#p37967bc94b)">
     <use xlink:href="#C0_0_a2486d9ca9" x="116.172469" y="92.37305" style="fill: #e377c2; fill-opacity: 0.7"/>
    </g>
    <g clip-path="url(#p37967bc94b)">
     <use xlink:href="#C0_0_a2486d9ca9" x="228.196733" y="135.016003" style="fill: #c5b0d5; fill-opacity: 0.7"/>
    </g>
    <g clip-path="url(#p37967bc94b)">
     <use xlink:href="#C0_0_a2486d9ca9" x="181.132914" y="52.115715" style="fill: #ffbb78; fill-opacity: 0.7"/>
    </g>
    <g clip-path="url(#p37967bc94b)">
     <use xlink:href="#C0_0_a2486d9ca9" x="96.88534" y="49.954228" style="fill: #c49c94; fill-opacity: 0.7"/>
    </g>
    <g clip-path="url(#p37967bc94b)">
     <use xlink:href="#C0_0_a2486d9ca9" x="172.768185" y="75.696559" style="fill: #d62728; fill-opacity: 0.7"/>
    </g>
    <g clip-path="url(#p37967bc94b)">
     <use xlink:href="#C0_0_a2486d9ca9" x="100.242563" y="133.935569" style="fill: #1f77b4; fill-opacity: 0.7"/>
    </g>
    <g clip-path="url(#p37967bc94b)">
     <use xlink:href="#C0_0_a2486d9ca9" x="65.81742" y="80.580312" style="fill: #ff7f0e; fill-opacity: 0.7"/>
    </g>
    <g clip-path="url(#p37967bc94b)">
     <use xlink:href="#C0_0_a2486d9ca9" x="145.397372" y="19.60018" style="fill: #2ca02c; fill-opacity: 0.7"/>
    </g>
    <g clip-path="url(#p37967bc94b)">
     <use xlink:href="#C0_0_a2486d9ca9" x="197.770711" y="65.18794" style="fill: #aec7e8; fill-opacity: 0.7"/>
    </g>
    <g clip-path="url(#p37967bc94b)">
     <use xlink:href="#C0_0_a2486d9ca9" x="88.422921" y="119.048998" style="fill: #c5b0d5; fill-opacity: 0.7"/>
    </g>
    <g clip-path="url(#p37967bc94b)">
     <use xlink:href="#C0_0_a2486d9ca9" x="191.027681" y="113.89108" style="fill: #98df8a; fill-opacity: 0.7"/>
    </g>
    <g clip-path="url(#p37967bc94b)">
     <use xlink:href="#C0_0_a2486d9ca9" x="71.863325" y="102.298574" style="fill: #ff7f0e; fill-opacity: 0.7"/>
    </g>
    <g clip-path="url(#p37967bc94b)">
     <use xlink:href="#C0_0_a2486d9ca9" x="93.313495" y="60.547199" style="fill: #c49c94; fill-opacity: 0.7"/>
    </g>
    <g clip-path="url(#p37967bc94b)">
     <use xlink:href="#C0_0_a2486d9ca9" x="150.060316" y="94.524441" style="fill: #8c564b; fill-opacity: 0.7"/>
    </g>
    <g clip-path="url(#p37967bc94b)">
     <use xlink:href="#C0_0_a2486d9ca9" x="186.387629" y="72.647341" style="fill: #aec7e8; fill-opacity: 0.7"/>
    </g>
    <g clip-path="url(#p37967bc94b)">
     <use xlink:href="#C0_0_a2486d9ca9" x="97.932502" y="142.257409" style="fill: #1f77b4; fill-opacity: 0.7"/>
    </g>
    <g clip-path="url(#p37967bc94b)">
     <use xlink:href="#C0_0_a2486d9ca9" x="157.470549" y="103.714673" style="fill: #8c564b; fill-opacity: 0.7"/>
    </g>
    <g clip-path="url(#p37967bc94b)">
     <use xlink:href="#C0_0_a2486d9ca9" x="135.97245" y="36.388074" style="fill: #2ca02c; fill-opacity: 0.7"/>
    </g>
    <g clip-path="url(#p37967bc94b)">
     <use xlink:href="#C0_0_a2486d9ca9" x="161.759172" y="60.600713" style="fill: #9467bd; fill-opacity: 0.7"/>
    </g>
    <g clip-path="url(#p37967bc94b)">
     <use xlink:href="#C0_0_a2486d9ca9" x="72.246889" y="110.786617" style="fill: #ff7f0e; fill-opacity: 0.7"/>
    </g>
    <g clip-path="url(#p37967bc94b)">
     <use xlink:href="#C0_0_a2486d9ca9" x="144.790029" y="130.078949" style="fill: #f7b6d2; fill-opacity: 0.7"/>
    </g>
    <g clip-path="url(#p37967bc94b)">
     <use xlink:href="#C0_0_a2486d9ca9" x="80.009986" y="102.734894" style="fill: #ff7f0e; fill-opacity: 0.7"/>
    </g>
    <g clip-path="url(#p37967bc94b)">
     <use xlink:href="#C0_0_a2486d9ca9" x="158.435815" y="80.52655" style="fill: #d62728; fill-opacity: 0.7"/>
    </g>
    <g clip-path="url(#p37967bc94b)">
     <use xlink:href="#C0_0_a2486d9ca9" x="95.72884" y="56.4113" style="fill: #c49c94; fill-opacity: 0.7"/>
    </g>
    <g clip-path="url(#p37967bc94b)">
     <use xlink:href="#C0_0_a2486d9ca9" x="219.378694" y="123.023339" style="fill: #c5b0d5; fill-opacity: 0.7"/>
    </g>
    <g clip-path="url(#p37967bc94b)">
     <use xlink:href="#C0_0_a2486d9ca9" x="219.321643" y="117.784092" style="fill: #c5b0d5; fill-opacity: 0.7"/>
    </g>
    <g clip-path="url(#p37967bc94b)">
     <use xlink:href="#C0_0_a2486d9ca9" x="181.817144" y="96.025464" style="fill: #8c564b; fill-opacity: 0.7"/>
    </g>
    <g clip-path="url(#p37967bc94b)">
     <use xlink:href="#C0_0_a2486d9ca9" x="186.040086" y="150.478119" style="fill: #ff9896; fill-opacity: 0.7"/>
    </g>
    <g clip-path="url(#p37967bc94b)">
     <use xlink:href="#C0_0_a2486d9ca9" x="194.751617" y="148.74803" style="fill: #c5b0d5; fill-opacity: 0.7"/>
    </g>
    <g clip-path="url(#p37967bc94b)">
     <use xlink:href="#C0_0_a2486d9ca9" x="226.110334" y="147.746472" style="fill: #c5b0d5; fill-opacity: 0.7"/>
    </g>
    <g clip-path="url(#p37967bc94b)">
     <use xlink:href="#C0_0_a2486d9ca9" x="139.350453" y="26.4948" style="fill: #2ca02c; fill-opacity: 0.7"/>
    </g>
    <g clip-path="url(#p37967bc94b)">
     <use xlink:href="#C0_0_a2486d9ca9" x="172.985595" y="114.056885" style="fill: #98df8a; fill-opacity: 0.7"/>
    </g>
    <g clip-path="url(#p37967bc94b)">
     <use xlink:href="#C0_0_a2486d9ca9" x="152.817505" y="154.322796" style="fill: #ff9896; fill-opacity: 0.7"/>
    </g>
    <g clip-path="url(#p37967bc94b)">
     <use xlink:href="#C0_0_a2486d9ca9" x="151.159672" y="158.031128" style="fill: #ff9896; fill-opacity: 0.7"/>
    </g>
    <g clip-path="url(#p37967bc94b)">
     <use xlink:href="#C0_0_a2486d9ca9" x="197.289039" y="138.676213" style="fill: #c5b0d5; fill-opacity: 0.7"/>
    </g>
    <g clip-path="url(#p37967bc94b)">
     <use xlink:href="#C0_0_a2486d9ca9" x="127.809835" y="102.394088" style="fill: #8c564b; fill-opacity: 0.7"/>
    </g>
    <g clip-path="url(#p37967bc94b)">
     <use xlink:href="#C0_0_a2486d9ca9" x="184.693884" y="77.726496" style="fill: #d62728; fill-opacity: 0.7"/>
    </g>
    <g clip-path="url(#p37967bc94b)">
     <use xlink:href="#C0_0_a2486d9ca9" x="77.51699" y="70.229616" style="fill: #ff7f0e; fill-opacity: 0.7"/>
    </g>
    <g clip-path="url(#p37967bc94b)">
     <use xlink:href="#C0_0_a2486d9ca9" x="160.196009" y="25.919544" style="fill: #ffbb78; fill-opacity: 0.7"/>
    </g>
    <g clip-path="url(#p37967bc94b)">
     <use xlink:href="#C0_0_a2486d9ca9" x="213.88729" y="115.895972" style="fill: #c5b0d5; fill-opacity: 0.7"/>
    </g>
    <g clip-path="url(#p37967bc94b)">
     <use xlink:href="#C0_0_a2486d9ca9" x="139.096617" y="49.753761" style="fill: #9467bd; fill-opacity: 0.7"/>
    </g>
    <g clip-path="url(#p37967bc94b)">
     <use xlink:href="#C0_0_a2486d9ca9" x="106.984326" y="128.39425" style="fill: #1f77b4; fill-opacity: 0.7"/>
    </g>
    <g clip-path="url(#p37967bc94b)">
     <use xlink:href="#C0_0_a2486d9ca9" x="168.393967" y="84.802996" style="fill: #d62728; fill-opacity: 0.7"/>
    </g>
    <g clip-path="url(#p37967bc94b)">
     <use xlink:href="#C0_0_a2486d9ca9" x="128.889923" y="22.526021" style="fill: #2ca02c; fill-opacity: 0.7"/>
    </g>
    <g clip-path="url(#p37967bc94b)">
     <use xlink:href="#C0_0_a2486d9ca9" x="115.355962" y="63.398361" style="fill: #c49c94; fill-opacity: 0.7"/>
    </g>
    <g clip-path="url(#p37967bc94b)">
     <use xlink:href="#C0_0_a2486d9ca9" x="132.152706" y="78.595237" style="fill: #e377c2; fill-opacity: 0.7"/>
    </g>
    <g clip-path="url(#p37967bc94b)">
     <use xlink:href="#C0_0_a2486d9ca9" x="134.006767" y="15.615491" style="fill: #2ca02c; fill-opacity: 0.7"/>
    </g>
    <g clip-path="url(#p37967bc94b)">
     <use xlink:href="#C0_0_a2486d9ca9" x="191.598562" y="128.609435" style="fill: #c5b0d5; fill-opacity: 0.7"/>
    </g>
    <g clip-path="url(#p37967bc94b)">
     <use xlink:href="#C0_0_a2486d9ca9" x="212.4746" y="107.468609" style="fill: #98df8a; fill-opacity: 0.7"/>
    </g>
    <g clip-path="url(#p37967bc94b)">
     <use xlink:href="#C0_0_a2486d9ca9" x="86.364794" y="89.81308" style="fill: #e377c2; fill-opacity: 0.7"/>
    </g>
    <g clip-path="url(#p37967bc94b)">
     <use xlink:href="#C0_0_a2486d9ca9" x="93.891065" y="101.486772" style="fill: #ff7f0e; fill-opacity: 0.7"/>
    </g>
    <g clip-path="url(#p37967bc94b)">
     <use xlink:href="#C0_0_a2486d9ca9" x="51.487642" y="102.079636" style="fill: #ff7f0e; fill-opacity: 0.7"/>
    </g>
    <g clip-path="url(#p37967bc94b)">
     <use xlink:href="#C0_0_a2486d9ca9" x="201.803253" y="87.326897" style="fill: #d62728; fill-opacity: 0.7"/>
    </g>
    <g clip-path="url(#p37967bc94b)">
     <use xlink:href="#C0_0_a2486d9ca9" x="122.767598" y="83.958595" style="fill: #e377c2; fill-opacity: 0.7"/>
    </g>
    <g clip-path="url(#p37967bc94b)">
     <use xlink:href="#C0_0_a2486d9ca9" x="192.222526" y="91.521625" style="fill: #8c564b; fill-opacity: 0.7"/>
    </g>
    <g clip-path="url(#p37967bc94b)">
     <use xlink:href="#C0_0_a2486d9ca9" x="111.297327" y="74.747258" style="fill: #c49c94; fill-opacity: 0.7"/>
    </g>
    <g clip-path="url(#p37967bc94b)">
     <use xlink:href="#C0_0_a2486d9ca9" x="195.01245" y="55.974162" style="fill: #aec7e8; fill-opacity: 0.7"/>
    </g>
    <g clip-path="url(#p37967bc94b)">
     <use xlink:href="#C0_0_a2486d9ca9" x="149.670325" y="57.403082" style="fill: #9467bd; fill-opacity: 0.7"/>
    </g>
    <g clip-path="url(#p37967bc94b)">
     <use xlink:href="#C0_0_a2486d9ca9" x="182.378023" y="143.609633" style="fill: #c5b0d5; fill-opacity: 0.7"/>
    </g>
    <g clip-path="url(#p37967bc94b)">
     <use xlink:href="#C0_0_a2486d9ca9" x="137.40104" y="122.719766" style="fill: #98df8a; fill-opacity: 0.7"/>
    </g>
    <g clip-path="url(#p37967bc94b)">
     <use xlink:href="#C0_0_a2486d9ca9" x="169.631081" y="34.047709" style="fill: #ffbb78; fill-opacity: 0.7"/>
    </g>
    <g clip-path="url(#p37967bc94b)">
     <use xlink:href="#C0_0_a2486d9ca9" x="72.520238" y="68.054757" style="fill: #ff7f0e; fill-opacity: 0.7"/>
    </g>
    <g clip-path="url(#p37967bc94b)">
     <use xlink:href="#C0_0_a2486d9ca9" x="75.315569" y="138.093189" style="fill: #1f77b4; fill-opacity: 0.7"/>
    </g>
    <g clip-path="url(#p37967bc94b)">
     <use xlink:href="#C0_0_a2486d9ca9" x="173.798009" y="89.114438" style="fill: #d62728; fill-opacity: 0.7"/>
    </g>
    <g clip-path="url(#p37967bc94b)">
     <use xlink:href="#C0_0_a2486d9ca9" x="120.762569" y="28.067454" style="fill: #2ca02c; fill-opacity: 0.7"/>
    </g>
    <g clip-path="url(#p37967bc94b)">
     <use xlink:href="#C0_0_a2486d9ca9" x="105.11136" y="51.631723" style="fill: #c49c94; fill-opacity: 0.7"/>
    </g>
    <g clip-path="url(#p37967bc94b)">
     <use xlink:href="#C0_0_a2486d9ca9" x="163.065011" y="125.686597" style="fill: #f7b6d2; fill-opacity: 0.7"/>
    </g>
    <g clip-path="url(#p37967bc94b)">
     <use xlink:href="#C0_0_a2486d9ca9" x="109.792758" y="109.929836" style="fill: #8c564b; fill-opacity: 0.7"/>
    </g>
    <g clip-path="url(#p37967bc94b)">
     <use xlink:href="#C0_0_a2486d9ca9" x="105.864798" y="94.963983" style="fill: #e377c2; fill-opacity: 0.7"/>
    </g>
    <g clip-path="url(#p37967bc94b)">
     <use xlink:href="#C0_0_a2486d9ca9" x="149.560503" y="14.456364" style="fill: #2ca02c; fill-opacity: 0.7"/>
    </g>
    <g clip-path="url(#p37967bc94b)">
     <use xlink:href="#C0_0_a2486d9ca9" x="114.489249" y="95.576653" style="fill: #8c564b; fill-opacity: 0.7"/>
    </g>
    <g clip-path="url(#p37967bc94b)">
     <use xlink:href="#C0_0_a2486d9ca9" x="117.147647" y="142.332631" style="fill: #1f77b4; fill-opacity: 0.7"/>
    </g>
    <g clip-path="url(#p37967bc94b)">
     <use xlink:href="#C0_0_a2486d9ca9" x="125.110137" y="89.855638" style="fill: #e377c2; fill-opacity: 0.7"/>
    </g>
    <g clip-path="url(#p37967bc94b)">
     <use xlink:href="#C0_0_a2486d9ca9" x="188.175924" y="159.583636" style="fill: #ff9896; fill-opacity: 0.7"/>
    </g>
    <g clip-path="url(#p37967bc94b)">
     <use xlink:href="#C0_0_a2486d9ca9" x="162.362812" y="41.662046" style="fill: #ffbb78; fill-opacity: 0.7"/>
    </g>
    <g clip-path="url(#p37967bc94b)">
     <use xlink:href="#C0_0_a2486d9ca9" x="183.899657" y="105.946062" style="fill: #98df8a; fill-opacity: 0.7"/>
    </g>
    <g clip-path="url(#p37967bc94b)">
     <use xlink:href="#C0_0_a2486d9ca9" x="80.784243" y="135.612228" style="fill: #1f77b4; fill-opacity: 0.7"/>
    </g>
    <g clip-path="url(#p37967bc94b)">
     <use xlink:href="#C0_0_a2486d9ca9" x="172.629656" y="131.388284" style="fill: #f7b6d2; fill-opacity: 0.7"/>
    </g>
    <g clip-path="url(#p37967bc94b)">
     <use xlink:href="#C0_0_a2486d9ca9" x="185.819968" y="107.436317" style="fill: #98df8a; fill-opacity: 0.7"/>
    </g>
    <g clip-path="url(#p37967bc94b)">
     <use xlink:href="#C0_0_a2486d9ca9" x="54.321769" y="89.424433" style="fill: #ff7f0e; fill-opacity: 0.7"/>
    </g>
    <g clip-path="url(#p37967bc94b)">
     <use xlink:href="#C0_0_a2486d9ca9" x="176.839232" y="141.979883" style="fill: #c5b0d5; fill-opacity: 0.7"/>
    </g>
    <g clip-path="url(#p37967bc94b)">
     <use xlink:href="#C0_0_a2486d9ca9" x="203.272159" y="156.213547" style="fill: #ff9896; fill-opacity: 0.7"/>
    </g>
    <g clip-path="url(#p37967bc94b)">
     <use xlink:href="#C0_0_a2486d9ca9" x="224.209591" y="128.477473" style="fill: #c5b0d5; fill-opacity: 0.7"/>
    </g>
    <g clip-path="url(#p37967bc94b)">
     <use xlink:href="#C0_0_a2486d9ca9" x="76.247222" y="79.252709" style="fill: #ff7f0e; fill-opacity: 0.7"/>
    </g>
    <g clip-path="url(#p37967bc94b)">
     <use xlink:href="#C0_0_a2486d9ca9" x="147.079329" y="141.826517" style="fill: #f7b6d2; fill-opacity: 0.7"/>
    </g>
    <g clip-path="url(#p37967bc94b)">
     <use xlink:href="#C0_0_a2486d9ca9" x="128.58838" y="14.921335" style="fill: #2ca02c; fill-opacity: 0.7"/>
    </g>
    <g clip-path="url(#p37967bc94b)">
     <use xlink:href="#C0_0_a2486d9ca9" x="127.159767" y="17.154433" style="fill: #2ca02c; fill-opacity: 0.7"/>
    </g>
    <g clip-path="url(#p37967bc94b)">
     <use xlink:href="#C0_0_a2486d9ca9" x="150.475879" y="64.573591" style="fill: #9467bd; fill-opacity: 0.7"/>
    </g>
    <g clip-path="url(#p37967bc94b)">
     <use xlink:href="#C0_0_a2486d9ca9" x="83.088072" y="124.525135" style="fill: #1f77b4; fill-opacity: 0.7"/>
    </g>
    <g clip-path="url(#p37967bc94b)">
     <use xlink:href="#C0_0_a2486d9ca9" x="92.98165" y="150.03553" style="fill: #1f77b4; fill-opacity: 0.7"/>
    </g>
    <g clip-path="url(#p37967bc94b)">
     <use xlink:href="#C0_0_a2486d9ca9" x="74.62131" y="119.201165" style="fill: #e377c2; fill-opacity: 0.7"/>
    </g>
    <g clip-path="url(#p37967bc94b)">
     <use xlink:href="#C0_0_a2486d9ca9" x="216.765044" y="155.022765" style="fill: #c5b0d5; fill-opacity: 0.7"/>
    </g>
    <g clip-path="url(#p37967bc94b)">
     <use xlink:href="#C0_0_a2486d9ca9" x="133.912409" y="117.480415" style="fill: #98df8a; fill-opacity: 0.7"/>
    </g>
   </g>
   <g id="matplotlib.axis_1">
    <g id="xtick_1">
     <g id="line2d_1">
      <defs>
       <path id="m3787c2db70" d="M 0 0 
L 0 3.5 
" style="stroke: #000000; stroke-width: 0.8"/>
      </defs>
      <g>
       <use xlink:href="#m3787c2db70" x="56.627959" y="166.84" style="stroke: #000000; stroke-width: 0.8"/>
      </g>
     </g>
     <g id="text_1">
      <!-- −1 -->
      <g transform="translate(50.927178 181.086875) scale(0.1 -0.1)">
       <defs>
        <path id="Arimo-Regular-2212" d="M 3425 2356 
L 3425 1900 
L 316 1900 
L 316 2356 
L 3425 2356 
z
" transform="scale(0.015625)"/>
        <path id="Arimo-Regular-31" d="M 3247 478 
L 3247 0 
L 488 0 
L 488 478 
L 1609 478 
L 1609 3866 
L 616 3156 
L 616 3688 
L 1656 4403 
L 2175 4403 
L 2175 478 
L 3247 478 
z
" transform="scale(0.015625)"/>
       </defs>
       <use xlink:href="#Arimo-Regular-2212"/>
       <use xlink:href="#Arimo-Regular-31" transform="translate(58.398438 0)"/>
      </g>
     </g>
    </g>
    <g id="xtick_2">
     <g id="line2d_2">
      <g>
       <use xlink:href="#m3787c2db70" x="95.607645" y="166.84" style="stroke: #000000; stroke-width: 0.8"/>
      </g>
     </g>
     <g id="text_2">
      <!-- 0 -->
      <g transform="translate(92.827176 181.086875) scale(0.1 -0.1)">
       <defs>
        <path id="Arimo-Regular-30" d="M 3309 2203 
Q 3309 1100 2920 518 
Q 2531 -63 1772 -63 
Q 1013 -63 631 515 
Q 250 1094 250 2203 
Q 250 3338 620 3903 
Q 991 4469 1791 4469 
Q 2569 4469 2939 3897 
Q 3309 3325 3309 2203 
z
M 2738 2203 
Q 2738 2841 2642 3239 
Q 2547 3638 2337 3825 
Q 2128 4013 1791 4013 
Q 1447 4013 1231 3828 
Q 1016 3644 917 3245 
Q 819 2847 819 2203 
Q 819 1578 920 1178 
Q 1022 778 1234 587 
Q 1447 397 1778 397 
Q 2275 397 2506 840 
Q 2738 1284 2738 2203 
z
" transform="scale(0.015625)"/>
       </defs>
       <use xlink:href="#Arimo-Regular-30"/>
      </g>
     </g>
    </g>
    <g id="xtick_3">
     <g id="line2d_3">
      <g>
       <use xlink:href="#m3787c2db70" x="134.58733" y="166.84" style="stroke: #000000; stroke-width: 0.8"/>
      </g>
     </g>
     <g id="text_3">
      <!-- 1 -->
      <g transform="translate(131.806862 181.086875) scale(0.1 -0.1)">
       <use xlink:href="#Arimo-Regular-31"/>
      </g>
     </g>
    </g>
    <g id="xtick_4">
     <g id="line2d_4">
      <g>
       <use xlink:href="#m3787c2db70" x="173.567016" y="166.84" style="stroke: #000000; stroke-width: 0.8"/>
      </g>
     </g>
     <g id="text_4">
      <!-- 2 -->
      <g transform="translate(170.786547 181.086875) scale(0.1 -0.1)">
       <defs>
        <path id="Arimo-Regular-32" d="M 3238 478 
L 3238 0 
L 322 0 
L 322 397 
Q 481 763 707 1044 
Q 934 1325 1190 1550 
Q 1447 1775 1697 1969 
Q 1822 2066 1933 2162 
Q 2044 2259 2144 2356 
Q 2344 2550 2467 2762 
Q 2591 2975 2591 3244 
Q 2591 3606 2378 3806 
Q 2166 4006 1788 4006 
Q 1428 4006 1195 3811 
Q 963 3616 922 3263 
L 347 3316 
Q 409 3844 795 4156 
Q 1181 4469 1788 4469 
Q 2453 4469 2811 4155 
Q 3169 3841 3169 3263 
Q 3169 3006 3051 2753 
Q 2934 2500 2703 2247 
Q 2588 2122 2366 1925 
Q 2144 1728 1819 1463 
Q 1459 1169 1246 933 
Q 1034 697 941 478 
L 3238 478 
z
" transform="scale(0.015625)"/>
       </defs>
       <use xlink:href="#Arimo-Regular-32"/>
      </g>
     </g>
    </g>
    <g id="xtick_5">
     <g id="line2d_5">
      <g>
       <use xlink:href="#m3787c2db70" x="212.546701" y="166.84" style="stroke: #000000; stroke-width: 0.8"/>
      </g>
     </g>
     <g id="text_5">
      <!-- 3 -->
      <g transform="translate(209.766232 181.086875) scale(0.1 -0.1)">
       <defs>
        <path id="Arimo-Regular-33" d="M 3278 1216 
Q 3278 606 2890 271 
Q 2503 -63 1784 -63 
Q 1116 -63 717 239 
Q 319 541 244 1131 
L 825 1184 
Q 938 403 1784 403 
Q 2209 403 2451 612 
Q 2694 822 2694 1234 
Q 2694 1594 2417 1795 
Q 2141 1997 1619 1997 
L 1300 1997 
L 1300 2484 
L 1606 2484 
Q 2069 2484 2323 2686 
Q 2578 2888 2578 3244 
Q 2578 3597 2370 3801 
Q 2163 4006 1753 4006 
Q 1381 4006 1151 3815 
Q 922 3625 884 3278 
L 319 3322 
Q 381 3863 767 4166 
Q 1153 4469 1759 4469 
Q 2422 4469 2789 4161 
Q 3156 3853 3156 3303 
Q 3156 2881 2920 2617 
Q 2684 2353 2234 2259 
L 2234 2247 
Q 2728 2194 3003 1916 
Q 3278 1638 3278 1216 
z
" transform="scale(0.015625)"/>
       </defs>
       <use xlink:href="#Arimo-Regular-33"/>
      </g>
     </g>
    </g>
    <g id="text_6">
     <!-- UMAP Dimension 1 -->
     <g transform="translate(78.768281 197.3075) scale(0.14 -0.14)">
      <defs>
       <path id="Arimo-Regular-55" d="M 2284 -63 
Q 1744 -63 1341 137 
Q 938 338 716 709 
Q 494 1081 494 1600 
L 494 4403 
L 1091 4403 
L 1091 1650 
Q 1091 1047 1397 734 
Q 1703 422 2281 422 
Q 2875 422 3204 745 
Q 3534 1069 3534 1691 
L 3534 4403 
L 4128 4403 
L 4128 1656 
Q 4128 1122 3901 737 
Q 3675 353 3261 145 
Q 2847 -63 2284 -63 
z
" transform="scale(0.015625)"/>
       <path id="Arimo-Regular-4d" d="M 1056 2938 
L 1056 0 
L 525 0 
L 525 4403 
L 1309 4403 
L 2481 1350 
Q 2544 1166 2601 955 
Q 2659 744 2678 650 
Q 2697 734 2740 882 
Q 2784 1031 2828 1168 
Q 2872 1306 2891 1350 
L 4041 4403 
L 4806 4403 
L 4806 0 
L 4269 0 
L 4269 2938 
Q 4269 3181 4276 3415 
Q 4284 3650 4297 3875 
Q 4219 3597 4151 3376 
Q 4084 3156 4022 3000 
L 2884 0 
L 2466 0 
L 1313 3000 
L 1034 3875 
Q 1041 3641 1048 3406 
Q 1056 3172 1056 2938 
z
" transform="scale(0.015625)"/>
       <path id="Arimo-Regular-41" d="M 1138 1288 
L 631 0 
L 13 0 
L 1809 4403 
L 2488 4403 
L 4256 0 
L 3647 0 
L 3144 1288 
L 1138 1288 
z
M 2141 3953 
Q 2088 3778 2014 3564 
Q 1941 3350 1878 3188 
L 1319 1753 
L 2966 1753 
L 2400 3206 
Q 2356 3316 2284 3516 
Q 2213 3716 2141 3953 
z
" transform="scale(0.015625)"/>
       <path id="Arimo-Regular-50" d="M 3931 3078 
Q 3931 2663 3747 2356 
Q 3563 2050 3223 1883 
Q 2884 1716 2416 1716 
L 1122 1716 
L 1122 0 
L 525 0 
L 525 4403 
L 2378 4403 
Q 3119 4403 3525 4056 
Q 3931 3709 3931 3078 
z
M 3331 3072 
Q 3331 3925 2306 3925 
L 1122 3925 
L 1122 2188 
L 2331 2188 
Q 2831 2188 3081 2408 
Q 3331 2628 3331 3072 
z
" transform="scale(0.015625)"/>
       <path id="Arimo-Regular-20" transform="scale(0.015625)"/>
       <path id="Arimo-Regular-44" d="M 4316 2247 
Q 4316 1550 4045 1047 
Q 3775 544 3292 272 
Q 2809 0 2172 0 
L 525 0 
L 525 4403 
L 1981 4403 
Q 3100 4403 3708 3842 
Q 4316 3281 4316 2247 
z
M 3716 2247 
Q 3716 3066 3267 3495 
Q 2819 3925 1969 3925 
L 1122 3925 
L 1122 478 
L 2103 478 
Q 2594 478 2955 693 
Q 3316 909 3516 1306 
Q 3716 1703 3716 2247 
z
" transform="scale(0.015625)"/>
       <path id="Arimo-Regular-69" d="M 991 4638 
L 991 4100 
L 428 4100 
L 428 4638 
L 991 4638 
z
M 991 3381 
L 991 0 
L 428 0 
L 428 3381 
L 991 3381 
z
" transform="scale(0.015625)"/>
       <path id="Arimo-Regular-6d" d="M 1003 1959 
L 1003 0 
L 444 0 
L 444 2659 
Q 444 2956 439 3136 
Q 434 3316 425 3381 
L 956 3381 
Q 963 3313 969 3213 
Q 975 3113 978 3005 
Q 981 2897 981 2803 
L 991 2803 
Q 1172 3163 1406 3303 
Q 1641 3444 1978 3444 
Q 2363 3444 2586 3291 
Q 2809 3138 2897 2803 
L 2906 2803 
Q 3081 3144 3329 3294 
Q 3578 3444 3931 3444 
Q 4444 3444 4676 3166 
Q 4909 2888 4909 2253 
L 4909 0 
L 4353 0 
L 4353 2144 
Q 4353 2634 4218 2821 
Q 4084 3009 3734 3009 
Q 3366 3009 3161 2736 
Q 2956 2463 2956 1959 
L 2956 0 
L 2400 0 
L 2400 2144 
Q 2400 2634 2265 2821 
Q 2131 3009 1781 3009 
Q 1422 3009 1212 2734 
Q 1003 2459 1003 1959 
z
" transform="scale(0.015625)"/>
       <path id="Arimo-Regular-65" d="M 863 1572 
Q 863 991 1103 675 
Q 1344 359 1806 359 
Q 2172 359 2392 506 
Q 2613 653 2691 878 
L 3184 738 
Q 2881 -63 1806 -63 
Q 1056 -63 664 384 
Q 272 831 272 1713 
Q 272 2550 664 2997 
Q 1056 3444 1784 3444 
Q 2531 3444 2903 2994 
Q 3275 2544 3275 1647 
L 3275 1572 
L 863 1572 
z
M 2694 2003 
Q 2647 2538 2422 2783 
Q 2197 3028 1775 3028 
Q 1366 3028 1127 2754 
Q 888 2481 869 2003 
L 2694 2003 
z
" transform="scale(0.015625)"/>
       <path id="Arimo-Regular-6e" d="M 1006 1959 
L 1006 0 
L 444 0 
L 444 2659 
Q 444 2956 439 3136 
Q 434 3316 425 3381 
L 956 3381 
Q 963 3322 967 3231 
Q 972 3141 975 3031 
Q 978 2922 981 2803 
L 991 2803 
Q 1184 3153 1439 3298 
Q 1694 3444 2072 3444 
Q 2628 3444 2886 3159 
Q 3144 2875 3144 2253 
L 3144 0 
L 2578 0 
L 2578 2144 
Q 2578 2628 2422 2818 
Q 2266 3009 1881 3009 
Q 1475 3009 1240 2731 
Q 1006 2453 1006 1959 
z
" transform="scale(0.015625)"/>
       <path id="Arimo-Regular-73" d="M 2969 934 
Q 2969 456 2608 196 
Q 2247 -63 1597 -63 
Q 966 -63 623 145 
Q 281 353 178 794 
L 675 891 
Q 747 619 972 492 
Q 1197 366 1597 366 
Q 2025 366 2223 497 
Q 2422 628 2422 891 
Q 2422 1091 2284 1216 
Q 2147 1341 1841 1422 
Q 1478 1519 1264 1581 
Q 1050 1644 934 1689 
Q 819 1734 750 1775 
Q 544 1894 428 2066 
Q 313 2238 313 2488 
Q 313 2950 642 3192 
Q 972 3434 1603 3434 
Q 2163 3434 2492 3237 
Q 2822 3041 2909 2606 
L 2403 2544 
Q 2356 2769 2151 2889 
Q 1947 3009 1603 3009 
Q 1222 3009 1040 2893 
Q 859 2778 859 2544 
Q 859 2372 962 2261 
Q 1066 2150 1356 2078 
Q 1747 1984 2100 1873 
Q 2453 1763 2606 1653 
Q 2784 1525 2876 1351 
Q 2969 1178 2969 934 
z
" transform="scale(0.015625)"/>
       <path id="Arimo-Regular-6f" d="M 3291 1694 
Q 3291 806 2900 371 
Q 2509 -63 1766 -63 
Q 1025 -63 647 389 
Q 269 841 269 1694 
Q 269 2569 648 3006 
Q 1028 3444 1784 3444 
Q 2559 3444 2925 3017 
Q 3291 2591 3291 1694 
z
M 2700 1694 
Q 2700 2394 2492 2711 
Q 2284 3028 1794 3028 
Q 1300 3028 1079 2704 
Q 859 2381 859 1694 
Q 859 1025 1076 689 
Q 1294 353 1759 353 
Q 2266 353 2483 678 
Q 2700 1003 2700 1694 
z
" transform="scale(0.015625)"/>
      </defs>
      <use xlink:href="#Arimo-Regular-55"/>
      <use xlink:href="#Arimo-Regular-4d" transform="translate(72.216797 0)"/>
      <use xlink:href="#Arimo-Regular-41" transform="translate(155.517578 0)"/>
      <use xlink:href="#Arimo-Regular-50" transform="translate(222.216797 0)"/>
      <use xlink:href="#Arimo-Regular-20" transform="translate(288.916016 0)"/>
      <use xlink:href="#Arimo-Regular-44" transform="translate(316.699219 0)"/>
      <use xlink:href="#Arimo-Regular-69" transform="translate(388.916016 0)"/>
      <use xlink:href="#Arimo-Regular-6d" transform="translate(411.132812 0)"/>
      <use xlink:href="#Arimo-Regular-65" transform="translate(494.433594 0)"/>
      <use xlink:href="#Arimo-Regular-6e" transform="translate(550.048828 0)"/>
      <use xlink:href="#Arimo-Regular-73" transform="translate(605.664062 0)"/>
      <use xlink:href="#Arimo-Regular-69" transform="translate(655.664062 0)"/>
      <use xlink:href="#Arimo-Regular-6f" transform="translate(677.880859 0)"/>
      <use xlink:href="#Arimo-Regular-6e" transform="translate(733.496094 0)"/>
      <use xlink:href="#Arimo-Regular-20" transform="translate(789.111328 0)"/>
      <use xlink:href="#Arimo-Regular-31" transform="translate(816.894531 0)"/>
     </g>
    </g>
   </g>
   <g id="matplotlib.axis_2">
    <g id="ytick_1">
     <g id="line2d_6">
      <defs>
       <path id="m6bc55232a1" d="M 0 0 
L -3.5 0 
" style="stroke: #000000; stroke-width: 0.8"/>
      </defs>
      <g>
       <use xlink:href="#m6bc55232a1" x="42.652188" y="163.440022" style="stroke: #000000; stroke-width: 0.8"/>
      </g>
     </g>
     <g id="text_7">
      <!-- −1 -->
      <g transform="translate(24.250625 167.06346) scale(0.1 -0.1)">
       <use xlink:href="#Arimo-Regular-2212"/>
       <use xlink:href="#Arimo-Regular-31" transform="translate(58.398438 0)"/>
      </g>
     </g>
    </g>
    <g id="ytick_2">
     <g id="line2d_7">
      <g>
       <use xlink:href="#m6bc55232a1" x="42.652188" y="140.280633" style="stroke: #000000; stroke-width: 0.8"/>
      </g>
     </g>
     <g id="text_8">
      <!-- 0 -->
      <g transform="translate(30.09125 143.90407) scale(0.1 -0.1)">
       <use xlink:href="#Arimo-Regular-30"/>
      </g>
     </g>
    </g>
    <g id="ytick_3">
     <g id="line2d_8">
      <g>
       <use xlink:href="#m6bc55232a1" x="42.652188" y="117.121243" style="stroke: #000000; stroke-width: 0.8"/>
      </g>
     </g>
     <g id="text_9">
      <!-- 1 -->
      <g transform="translate(30.09125 120.74468) scale(0.1 -0.1)">
       <use xlink:href="#Arimo-Regular-31"/>
      </g>
     </g>
    </g>
    <g id="ytick_4">
     <g id="line2d_9">
      <g>
       <use xlink:href="#m6bc55232a1" x="42.652188" y="93.961853" style="stroke: #000000; stroke-width: 0.8"/>
      </g>
     </g>
     <g id="text_10">
      <!-- 2 -->
      <g transform="translate(30.09125 97.585291) scale(0.1 -0.1)">
       <use xlink:href="#Arimo-Regular-32"/>
      </g>
     </g>
    </g>
    <g id="ytick_5">
     <g id="line2d_10">
      <g>
       <use xlink:href="#m6bc55232a1" x="42.652188" y="70.802464" style="stroke: #000000; stroke-width: 0.8"/>
      </g>
     </g>
     <g id="text_11">
      <!-- 3 -->
      <g transform="translate(30.09125 74.425901) scale(0.1 -0.1)">
       <use xlink:href="#Arimo-Regular-33"/>
      </g>
     </g>
    </g>
    <g id="ytick_6">
     <g id="line2d_11">
      <g>
       <use xlink:href="#m6bc55232a1" x="42.652188" y="47.643074" style="stroke: #000000; stroke-width: 0.8"/>
      </g>
     </g>
     <g id="text_12">
      <!-- 4 -->
      <g transform="translate(30.09125 51.266512) scale(0.1 -0.1)">
       <defs>
        <path id="Arimo-Regular-34" d="M 2753 997 
L 2753 0 
L 2222 0 
L 2222 997 
L 147 997 
L 147 1434 
L 2163 4403 
L 2753 4403 
L 2753 1441 
L 3372 1441 
L 3372 997 
L 2753 997 
z
M 666 1441 
L 2222 1441 
L 2222 3197 
Q 2222 3341 2223 3483 
Q 2225 3625 2234 3769 
Q 2163 3631 2109 3545 
Q 2056 3459 2013 3397 
L 666 1441 
z
" transform="scale(0.015625)"/>
       </defs>
       <use xlink:href="#Arimo-Regular-34"/>
      </g>
     </g>
    </g>
    <g id="ytick_7">
     <g id="line2d_12">
      <g>
       <use xlink:href="#m6bc55232a1" x="42.652188" y="24.483685" style="stroke: #000000; stroke-width: 0.8"/>
      </g>
     </g>
     <g id="text_13">
      <!-- 5 -->
      <g transform="translate(30.09125 28.107122) scale(0.1 -0.1)">
       <defs>
        <path id="Arimo-Regular-35" d="M 3291 1434 
Q 3291 738 2877 337 
Q 2463 -63 1728 -63 
Q 1113 -63 734 206 
Q 356 475 256 984 
L 825 1050 
Q 916 725 1144 561 
Q 1372 397 1741 397 
Q 2194 397 2450 670 
Q 2706 944 2706 1422 
Q 2706 1838 2448 2094 
Q 2191 2350 1753 2350 
Q 1525 2350 1328 2278 
Q 1131 2206 934 2034 
L 384 2034 
L 531 4403 
L 3034 4403 
L 3034 3925 
L 1044 3925 
L 959 2528 
Q 1325 2809 1869 2809 
Q 2303 2809 2622 2636 
Q 2941 2463 3116 2153 
Q 3291 1844 3291 1434 
z
" transform="scale(0.015625)"/>
       </defs>
       <use xlink:href="#Arimo-Regular-35"/>
      </g>
     </g>
    </g>
    <g id="text_14">
     <!-- UMAP Dimension 2 -->
     <g transform="translate(17.345625 148.093906) rotate(-90) scale(0.14 -0.14)">
      <use xlink:href="#Arimo-Regular-55"/>
      <use xlink:href="#Arimo-Regular-4d" transform="translate(72.216797 0)"/>
      <use xlink:href="#Arimo-Regular-41" transform="translate(155.517578 0)"/>
      <use xlink:href="#Arimo-Regular-50" transform="translate(222.216797 0)"/>
      <use xlink:href="#Arimo-Regular-20" transform="translate(288.916016 0)"/>
      <use xlink:href="#Arimo-Regular-44" transform="translate(316.699219 0)"/>
      <use xlink:href="#Arimo-Regular-69" transform="translate(388.916016 0)"/>
      <use xlink:href="#Arimo-Regular-6d" transform="translate(411.132812 0)"/>
      <use xlink:href="#Arimo-Regular-65" transform="translate(494.433594 0)"/>
      <use xlink:href="#Arimo-Regular-6e" transform="translate(550.048828 0)"/>
      <use xlink:href="#Arimo-Regular-73" transform="translate(605.664062 0)"/>
      <use xlink:href="#Arimo-Regular-69" transform="translate(655.664062 0)"/>
      <use xlink:href="#Arimo-Regular-6f" transform="translate(677.880859 0)"/>
      <use xlink:href="#Arimo-Regular-6e" transform="translate(733.496094 0)"/>
      <use xlink:href="#Arimo-Regular-20" transform="translate(789.111328 0)"/>
      <use xlink:href="#Arimo-Regular-32" transform="translate(816.894531 0)"/>
     </g>
    </g>
   </g>
   <g id="patch_3">
    <path d="M 42.652188 166.84 
L 42.652188 7.2 
" style="fill: none; stroke: #000000; stroke-width: 0.8; stroke-linejoin: miter; stroke-linecap: square"/>
   </g>
   <g id="patch_4">
    <path d="M 42.652188 166.84 
L 237.032187 166.84 
" style="fill: none; stroke: #000000; stroke-width: 0.8; stroke-linejoin: miter; stroke-linecap: square"/>
   </g>
  </g>
 </g>
 <defs>
  <clipPath id="p37967bc94b">
   <rect x="42.652188" y="7.2" width="194.38" height="159.64"/>
  </clipPath>
 </defs>
</svg>
