<?xml version="1.0" encoding="utf-8" standalone="no"?>
<!DOCTYPE svg PUBLIC "-//W3C//DTD SVG 1.1//EN"
  "http://www.w3.org/Graphics/SVG/1.1/DTD/svg11.dtd">
<svg xmlns:xlink="http://www.w3.org/1999/xlink" width="244.052188pt" height="207.4125pt" viewBox="0 0 244.052188 207.4125" xmlns="http://www.w3.org/2000/svg" version="1.1">
 <metadata>
  <rdf:RDF xmlns:dc="http://purl.org/dc/elements/1.1/" xmlns:cc="http://creativecommons.org/ns#" xmlns:rdf="http://www.w3.org/1999/02/22-rdf-syntax-ns#">
   <cc:Work>
    <dc:type rdf:resource="http://purl.org/dc/dcmitype/StillImage"/>
    <dc:date>2025-10-31T00:48:51.294311</dc:date>
    <dc:format>image/svg+xml</dc:format>
    <dc:creator>
     <cc:Agent>
      <dc:title>Matplotlib v3.10.0, https://matplotlib.org/</dc:title>
     </cc:Agent>
    </dc:creator>
   </cc:Work>
  </rdf:RDF>
 </metadata>
 <defs>
  <style type="text/css">*{stroke-linejoin: round; stroke-linecap: butt}</style>
 </defs>
 <g id="figure_1">
  <g id="patch_1">
   <path d="M 0 207.4125 
L 244.052188 207.4125 
L 244.052188 0 
L 0 0 
z
" style="fill: #ffffff"/>
  </g>
  <g id="axes_1">
   <g id="patch_2">
    <path d="M 42.652188 166.84 
L 236.852188 166.84 
L 236.852188 7.2 
L 42.652188 7.2 
z
" style="fill: #ffffff"/>
   </g>
   <g id="PathCollection_1">
    <defs>
     <path id="C0_0_277f1f91a9" d="M 0 2.738613 
C 0.726289 2.738613 1.422928 2.450055 1.936492 1.936492 
C 2.450055 1.422928 2.738613 0.726289 2.738613 -0 
C 2.738613 -0.726289 2.450055 -1.422928 1.936492 -1.936492 
C 1.422928 -2.450055 0.726289 -2.738613 0 -2.738613 
C -0.726289 -2.738613 -1.422928 -2.450055 -1.936492 -1.936492 
C -2.450055 -1.422928 -2.738613 -0.726289 -2.738613 0 
C -2.738613 0.726289 -2.450055 1.422928 -1.936492 1.936492 
C -1.422928 2.450055 -0.726289 2.738613 0 2.738613 
z
"/>
    </defs>
    <g clip-path="url(#p8443ba1ddb)">
     <use xlink:href="#C0_0_277f1f91a9" x="51.47946" y="37.042967" style="fill: #541546; stroke: #541546"/>
    </g>
    <g clip-path="url(#p8443ba1ddb)">
     <use xlink:href="#C0_0_277f1f91a9" x="181.941981" y="95.557709" style="fill: #8cafc5; stroke: #8cafc5"/>
    </g>
    <g clip-path="url(#p8443ba1ddb)">
     <use xlink:href="#C0_0_277f1f91a9" x="140.775872" y="38.947279" style="fill: #c48065; stroke: #c48065"/>
    </g>
    <g clip-path="url(#p8443ba1ddb)">
     <use xlink:href="#C0_0_277f1f91a9" x="212.855036" y="150.187436" style="fill: #301437; stroke: #301437"/>
    </g>
    <g clip-path="url(#p8443ba1ddb)">
     <use xlink:href="#C0_0_277f1f91a9" x="115.066961" y="31.60457" style="fill: #922f50; stroke: #922f50"/>
    </g>
    <g clip-path="url(#p8443ba1ddb)">
     <use xlink:href="#C0_0_277f1f91a9" x="87.430201" y="62.211645" style="fill: #c48166; stroke: #c48166"/>
    </g>
    <g clip-path="url(#p8443ba1ddb)">
     <use xlink:href="#C0_0_277f1f91a9" x="99.750364" y="55.53661" style="fill: #ad4e51; stroke: #ad4e51"/>
    </g>
    <g clip-path="url(#p8443ba1ddb)">
     <use xlink:href="#C0_0_277f1f91a9" x="203.326432" y="102.891147" style="fill: #6989be; stroke: #6989be"/>
    </g>
    <g clip-path="url(#p8443ba1ddb)">
     <use xlink:href="#C0_0_277f1f91a9" x="76.16848" y="41.96549" style="fill: #912f50; stroke: #912f50"/>
    </g>
    <g clip-path="url(#p8443ba1ddb)">
     <use xlink:href="#C0_0_277f1f91a9" x="228.024915" y="112.123123" style="fill: #5e49a9; stroke: #5e49a9"/>
    </g>
    <g clip-path="url(#p8443ba1ddb)">
     <use xlink:href="#C0_0_277f1f91a9" x="145.784963" y="125.74462" style="fill: #6786be; stroke: #6786be"/>
    </g>
    <g clip-path="url(#p8443ba1ddb)">
     <use xlink:href="#C0_0_277f1f91a9" x="83.376485" y="41.015712" style="fill: #802350; stroke: #802350"/>
    </g>
    <g clip-path="url(#p8443ba1ddb)">
     <use xlink:href="#C0_0_277f1f91a9" x="87.548769" y="49.406702" style="fill: #aa4a50; stroke: #aa4a50"/>
    </g>
    <g clip-path="url(#p8443ba1ddb)">
     <use xlink:href="#C0_0_277f1f91a9" x="175.915774" y="62.158906" style="fill: #e0d6da; stroke: #e0d6da"/>
    </g>
    <g clip-path="url(#p8443ba1ddb)">
     <use xlink:href="#C0_0_277f1f91a9" x="124.161698" y="122.830206" style="fill: #87abc4; stroke: #87abc4"/>
    </g>
    <g clip-path="url(#p8443ba1ddb)">
     <use xlink:href="#C0_0_277f1f91a9" x="159.144439" y="94.49886" style="fill: #beccd2; stroke: #beccd2"/>
    </g>
    <g clip-path="url(#p8443ba1ddb)">
     <use xlink:href="#C0_0_277f1f91a9" x="125.802625" y="98.005191" style="fill: #c2ced4; stroke: #c2ced4"/>
    </g>
    <g clip-path="url(#p8443ba1ddb)">
     <use xlink:href="#C0_0_277f1f91a9" x="65.046906" y="46.349672" style="fill: #912f50; stroke: #912f50"/>
    </g>
    <g clip-path="url(#p8443ba1ddb)">
     <use xlink:href="#C0_0_277f1f91a9" x="160.982985" y="118.956532" style="fill: #6989be; stroke: #6989be"/>
    </g>
    <g clip-path="url(#p8443ba1ddb)">
     <use xlink:href="#C0_0_277f1f91a9" x="179.941704" y="72.120109" style="fill: #dcd9e0; stroke: #dcd9e0"/>
    </g>
    <g clip-path="url(#p8443ba1ddb)">
     <use xlink:href="#C0_0_277f1f91a9" x="212.085279" y="126.675114" style="fill: #5c369b; stroke: #5c369b"/>
    </g>
    <g clip-path="url(#p8443ba1ddb)">
     <use xlink:href="#C0_0_277f1f91a9" x="83.353809" y="64.068277" style="fill: #c0755e; stroke: #c0755e"/>
    </g>
    <g clip-path="url(#p8443ba1ddb)">
     <use xlink:href="#C0_0_277f1f91a9" x="66.924052" y="42.675775" style="fill: #761f4f; stroke: #761f4f"/>
    </g>
    <g clip-path="url(#p8443ba1ddb)">
     <use xlink:href="#C0_0_277f1f91a9" x="97.200564" y="43.182511" style="fill: #a44250; stroke: #a44250"/>
    </g>
    <g clip-path="url(#p8443ba1ddb)">
     <use xlink:href="#C0_0_277f1f91a9" x="136.979699" y="113.561233" style="fill: #95b5c7; stroke: #95b5c7"/>
    </g>
    <g clip-path="url(#p8443ba1ddb)">
     <use xlink:href="#C0_0_277f1f91a9" x="118.078711" y="102.028948" style="fill: #c5cfd5; stroke: #c5cfd5"/>
    </g>
    <g clip-path="url(#p8443ba1ddb)">
     <use xlink:href="#C0_0_277f1f91a9" x="61.576977" y="68.051335" style="fill: #c0765f; stroke: #c0765f"/>
    </g>
    <g clip-path="url(#p8443ba1ddb)">
     <use xlink:href="#C0_0_277f1f91a9" x="75.858602" y="20.72615" style="fill: #4b1342; stroke: #4b1342"/>
    </g>
    <g clip-path="url(#p8443ba1ddb)">
     <use xlink:href="#C0_0_277f1f91a9" x="217.40443" y="97.003326" style="fill: #6887be; stroke: #6887be"/>
    </g>
    <g clip-path="url(#p8443ba1ddb)">
     <use xlink:href="#C0_0_277f1f91a9" x="219.309638" y="127.500587" style="fill: #5a2d92; stroke: #5a2d92"/>
    </g>
    <g clip-path="url(#p8443ba1ddb)">
     <use xlink:href="#C0_0_277f1f91a9" x="157.542796" y="111.24554" style="fill: #85a9c4; stroke: #85a9c4"/>
    </g>
    <g clip-path="url(#p8443ba1ddb)">
     <use xlink:href="#C0_0_277f1f91a9" x="121.431423" y="45.272091" style="fill: #bb6857; stroke: #bb6857"/>
    </g>
    <g clip-path="url(#p8443ba1ddb)">
     <use xlink:href="#C0_0_277f1f91a9" x="189.635045" y="104.006423" style="fill: #769cc1; stroke: #769cc1"/>
    </g>
    <g clip-path="url(#p8443ba1ddb)">
     <use xlink:href="#C0_0_277f1f91a9" x="59.207849" y="29.202632" style="fill: #60184a; stroke: #60184a"/>
    </g>
    <g clip-path="url(#p8443ba1ddb)">
     <use xlink:href="#C0_0_277f1f91a9" x="159.473075" y="80.852413" style="fill: #dbd8df; stroke: #dbd8df"/>
    </g>
    <g clip-path="url(#p8443ba1ddb)">
     <use xlink:href="#C0_0_277f1f91a9" x="150.606367" y="52.812033" style="fill: #cb9d82; stroke: #cb9d82"/>
    </g>
    <g clip-path="url(#p8443ba1ddb)">
     <use xlink:href="#C0_0_277f1f91a9" x="89.111421" y="45.815459" style="fill: #9e3b50; stroke: #9e3b50"/>
    </g>
    <g clip-path="url(#p8443ba1ddb)">
     <use xlink:href="#C0_0_277f1f91a9" x="112.615997" y="83.090298" style="fill: #d7c4b9; stroke: #d7c4b9"/>
    </g>
    <g clip-path="url(#p8443ba1ddb)">
     <use xlink:href="#C0_0_277f1f91a9" x="194.16413" y="93.03611" style="fill: #87abc4; stroke: #87abc4"/>
    </g>
    <g clip-path="url(#p8443ba1ddb)">
     <use xlink:href="#C0_0_277f1f91a9" x="200.633449" y="72.660757" style="fill: #afc4cd; stroke: #afc4cd"/>
    </g>
    <g clip-path="url(#p8443ba1ddb)">
     <use xlink:href="#C0_0_277f1f91a9" x="96.57918" y="81.61225" style="fill: #d1b6a3; stroke: #d1b6a3"/>
    </g>
    <g clip-path="url(#p8443ba1ddb)">
     <use xlink:href="#C0_0_277f1f91a9" x="101.817243" y="30.263702" style="fill: #7f2350; stroke: #7f2350"/>
    </g>
    <g clip-path="url(#p8443ba1ddb)">
     <use xlink:href="#C0_0_277f1f91a9" x="148.428487" y="98.527913" style="fill: #afc4cd; stroke: #afc4cd"/>
    </g>
    <g clip-path="url(#p8443ba1ddb)">
     <use xlink:href="#C0_0_277f1f91a9" x="116.750748" y="59.268212" style="fill: #c6876b; stroke: #c6876b"/>
    </g>
    <g clip-path="url(#p8443ba1ddb)">
     <use xlink:href="#C0_0_277f1f91a9" x="107.344472" y="53.761543" style="fill: #be6f5b; stroke: #be6f5b"/>
    </g>
    <g clip-path="url(#p8443ba1ddb)">
     <use xlink:href="#C0_0_277f1f91a9" x="183.399103" y="144.153386" style="fill: #531e7c; stroke: #531e7c"/>
    </g>
    <g clip-path="url(#p8443ba1ddb)">
     <use xlink:href="#C0_0_277f1f91a9" x="99.402459" y="73.97682" style="fill: #c99578; stroke: #c99578"/>
    </g>
    <g clip-path="url(#p8443ba1ddb)">
     <use xlink:href="#C0_0_277f1f91a9" x="188.222771" y="86.615299" style="fill: #97b7c7; stroke: #97b7c7"/>
    </g>
    <g clip-path="url(#p8443ba1ddb)">
     <use xlink:href="#C0_0_277f1f91a9" x="82.2744" y="82.987548" style="fill: #d3b9a8; stroke: #d3b9a8"/>
    </g>
    <g clip-path="url(#p8443ba1ddb)">
     <use xlink:href="#C0_0_277f1f91a9" x="174.630685" y="125.805794" style="fill: #6067b6; stroke: #6067b6"/>
    </g>
    <g clip-path="url(#p8443ba1ddb)">
     <use xlink:href="#C0_0_277f1f91a9" x="174.842117" y="136.709043" style="fill: #5e4ba9; stroke: #5e4ba9"/>
    </g>
    <g clip-path="url(#p8443ba1ddb)">
     <use xlink:href="#C0_0_277f1f91a9" x="95.230798" y="88.272844" style="fill: #d8c6bd; stroke: #d8c6bd"/>
    </g>
    <g clip-path="url(#p8443ba1ddb)">
     <use xlink:href="#C0_0_277f1f91a9" x="57.842232" y="50.407472" style="fill: #983550; stroke: #983550"/>
    </g>
    <g clip-path="url(#p8443ba1ddb)">
     <use xlink:href="#C0_0_277f1f91a9" x="138.545608" y="119.412914" style="fill: #87abc4; stroke: #87abc4"/>
    </g>
    <g clip-path="url(#p8443ba1ddb)">
     <use xlink:href="#C0_0_277f1f91a9" x="79.248817" y="84.808959" style="fill: #d0b09b; stroke: #d0b09b"/>
    </g>
    <g clip-path="url(#p8443ba1ddb)">
     <use xlink:href="#C0_0_277f1f91a9" x="67.185358" y="71.180368" style="fill: #c17960; stroke: #c17960"/>
    </g>
    <g clip-path="url(#p8443ba1ddb)">
     <use xlink:href="#C0_0_277f1f91a9" x="127.264011" y="55.854771" style="fill: #c6876b; stroke: #c6876b"/>
    </g>
    <g clip-path="url(#p8443ba1ddb)">
     <use xlink:href="#C0_0_277f1f91a9" x="84.200901" y="36.657229" style="fill: #7e2250; stroke: #7e2250"/>
    </g>
    <g clip-path="url(#p8443ba1ddb)">
     <use xlink:href="#C0_0_277f1f91a9" x="72.541914" y="76.255714" style="fill: #cca186; stroke: #cca186"/>
    </g>
    <g clip-path="url(#p8443ba1ddb)">
     <use xlink:href="#C0_0_277f1f91a9" x="62.80467" y="22.63345" style="fill: #321237; stroke: #321237"/>
    </g>
    <g clip-path="url(#p8443ba1ddb)">
     <use xlink:href="#C0_0_277f1f91a9" x="221.549425" y="122.782042" style="fill: #5d3b9f; stroke: #5d3b9f"/>
    </g>
    <g clip-path="url(#p8443ba1ddb)">
     <use xlink:href="#C0_0_277f1f91a9" x="85.805537" y="91.463029" style="fill: #d4beaf; stroke: #d4beaf"/>
    </g>
    <g clip-path="url(#p8443ba1ddb)">
     <use xlink:href="#C0_0_277f1f91a9" x="104.241755" y="98.685337" style="fill: #e2d9e1; stroke: #e2d9e1"/>
    </g>
    <g clip-path="url(#p8443ba1ddb)">
     <use xlink:href="#C0_0_277f1f91a9" x="185.580212" y="120.120729" style="fill: #6173ba; stroke: #6173ba"/>
    </g>
    <g clip-path="url(#p8443ba1ddb)">
     <use xlink:href="#C0_0_277f1f91a9" x="139.861703" y="42.55429" style="fill: #c1775f; stroke: #c1775f"/>
    </g>
    <g clip-path="url(#p8443ba1ddb)">
     <use xlink:href="#C0_0_277f1f91a9" x="56.218781" y="32.779277" style="fill: #3f123d; stroke: #3f123d"/>
    </g>
    <g clip-path="url(#p8443ba1ddb)">
     <use xlink:href="#C0_0_277f1f91a9" x="74.656673" y="52.021067" style="fill: #a24050; stroke: #a24050"/>
    </g>
    <g clip-path="url(#p8443ba1ddb)">
     <use xlink:href="#C0_0_277f1f91a9" x="130.758893" y="32.623319" style="fill: #b55b53; stroke: #b55b53"/>
    </g>
    <g clip-path="url(#p8443ba1ddb)">
     <use xlink:href="#C0_0_277f1f91a9" x="128.058183" y="67.059794" style="fill: #cda68c; stroke: #cda68c"/>
    </g>
    <g clip-path="url(#p8443ba1ddb)">
     <use xlink:href="#C0_0_277f1f91a9" x="76.80862" y="35.306304" style="fill: #701c4e; stroke: #701c4e"/>
    </g>
    <g clip-path="url(#p8443ba1ddb)">
     <use xlink:href="#C0_0_277f1f91a9" x="185.387375" y="159.583636" style="fill: #351140; stroke: #351140"/>
    </g>
    <g clip-path="url(#p8443ba1ddb)">
     <use xlink:href="#C0_0_277f1f91a9" x="194.461521" y="129.252988" style="fill: #5d3da1; stroke: #5d3da1"/>
    </g>
    <g clip-path="url(#p8443ba1ddb)">
     <use xlink:href="#C0_0_277f1f91a9" x="118.840408" y="68.758718" style="fill: #ca9c80; stroke: #ca9c80"/>
    </g>
    <g clip-path="url(#p8443ba1ddb)">
     <use xlink:href="#C0_0_277f1f91a9" x="112.586069" y="69.299022" style="fill: #cca287; stroke: #cca287"/>
    </g>
    <g clip-path="url(#p8443ba1ddb)">
     <use xlink:href="#C0_0_277f1f91a9" x="60.854273" y="31.049753" style="fill: #531545; stroke: #531545"/>
    </g>
    <g clip-path="url(#p8443ba1ddb)">
     <use xlink:href="#C0_0_277f1f91a9" x="96.262871" y="37.204327" style="fill: #a03e50; stroke: #a03e50"/>
    </g>
    <g clip-path="url(#p8443ba1ddb)">
     <use xlink:href="#C0_0_277f1f91a9" x="127.012754" y="120.424316" style="fill: #87abc4; stroke: #87abc4"/>
    </g>
    <g clip-path="url(#p8443ba1ddb)">
     <use xlink:href="#C0_0_277f1f91a9" x="209.82902" y="84.451115" style="fill: #95b5c7; stroke: #95b5c7"/>
    </g>
    <g clip-path="url(#p8443ba1ddb)">
     <use xlink:href="#C0_0_277f1f91a9" x="73.143567" y="59.475564" style="fill: #b65d54; stroke: #b65d54"/>
    </g>
    <g clip-path="url(#p8443ba1ddb)">
     <use xlink:href="#C0_0_277f1f91a9" x="136.395266" y="65.753295" style="fill: #ceab92; stroke: #ceab92"/>
    </g>
    <g clip-path="url(#p8443ba1ddb)">
     <use xlink:href="#C0_0_277f1f91a9" x="106.328324" y="69.657904" style="fill: #c6876b; stroke: #c6876b"/>
    </g>
    <g clip-path="url(#p8443ba1ddb)">
     <use xlink:href="#C0_0_277f1f91a9" x="174.956588" y="83.134277" style="fill: #beccd2; stroke: #beccd2"/>
    </g>
    <g clip-path="url(#p8443ba1ddb)">
     <use xlink:href="#C0_0_277f1f91a9" x="145.116327" y="50.211499" style="fill: #c6876b; stroke: #c6876b"/>
    </g>
    <g clip-path="url(#p8443ba1ddb)">
     <use xlink:href="#C0_0_277f1f91a9" x="126.688978" y="80.722576" style="fill: #d9c9c2; stroke: #d9c9c2"/>
    </g>
    <g clip-path="url(#p8443ba1ddb)">
     <use xlink:href="#C0_0_277f1f91a9" x="136.565339" y="55.95195" style="fill: #c68b6e; stroke: #c68b6e"/>
    </g>
    <g clip-path="url(#p8443ba1ddb)">
     <use xlink:href="#C0_0_277f1f91a9" x="117.497277" y="45.260316" style="fill: #b96356; stroke: #b96356"/>
    </g>
    <g clip-path="url(#p8443ba1ddb)">
     <use xlink:href="#C0_0_277f1f91a9" x="157.694418" y="55.801383" style="fill: #cfaf99; stroke: #cfaf99"/>
    </g>
    <g clip-path="url(#p8443ba1ddb)">
     <use xlink:href="#C0_0_277f1f91a9" x="78.486149" y="22.319045" style="fill: #41123d; stroke: #41123d"/>
    </g>
    <g clip-path="url(#p8443ba1ddb)">
     <use xlink:href="#C0_0_277f1f91a9" x="180.765101" y="110.369622" style="fill: #769bc1; stroke: #769bc1"/>
    </g>
    <g clip-path="url(#p8443ba1ddb)">
     <use xlink:href="#C0_0_277f1f91a9" x="70.192694" y="28.825486" style="fill: #5f174a; stroke: #5f174a"/>
    </g>
    <g clip-path="url(#p8443ba1ddb)">
     <use xlink:href="#C0_0_277f1f91a9" x="113.691266" y="73.949549" style="fill: #d0b09b; stroke: #d0b09b"/>
    </g>
    <g clip-path="url(#p8443ba1ddb)">
     <use xlink:href="#C0_0_277f1f91a9" x="107.879418" y="34.481942" style="fill: #ad4e51; stroke: #ad4e51"/>
    </g>
    <g clip-path="url(#p8443ba1ddb)">
     <use xlink:href="#C0_0_277f1f91a9" x="139.061745" y="96.244655" style="fill: #cdd3d8; stroke: #cdd3d8"/>
    </g>
    <g clip-path="url(#p8443ba1ddb)">
     <use xlink:href="#C0_0_277f1f91a9" x="161.067147" y="88.405447" style="fill: #c1cdd3; stroke: #c1cdd3"/>
    </g>
    <g clip-path="url(#p8443ba1ddb)">
     <use xlink:href="#C0_0_277f1f91a9" x="92.963896" y="26.511259" style="fill: #691a4d; stroke: #691a4d"/>
    </g>
    <g clip-path="url(#p8443ba1ddb)">
     <use xlink:href="#C0_0_277f1f91a9" x="82.755481" y="69.103689" style="fill: #c9977b; stroke: #c9977b"/>
    </g>
    <g clip-path="url(#p8443ba1ddb)">
     <use xlink:href="#C0_0_277f1f91a9" x="54.368586" y="18.83684" style="fill: #361138; stroke: #361138"/>
    </g>
    <g clip-path="url(#p8443ba1ddb)">
     <use xlink:href="#C0_0_277f1f91a9" x="131.791086" y="51.54652" style="fill: #c58569; stroke: #c58569"/>
    </g>
    <g clip-path="url(#p8443ba1ddb)">
     <use xlink:href="#C0_0_277f1f91a9" x="88.993961" y="26.101823" style="fill: #711d4f; stroke: #711d4f"/>
    </g>
    <g clip-path="url(#p8443ba1ddb)">
     <use xlink:href="#C0_0_277f1f91a9" x="69.643348" y="14.456364" style="fill: #2f1436; stroke: #2f1436"/>
    </g>
   </g>
   <g id="matplotlib.axis_1">
    <g id="xtick_1">
     <g id="line2d_1">
      <defs>
       <path id="mc77fa073c5" d="M 0 0 
L 0 3.5 
" style="stroke: #000000; stroke-width: 0.8"/>
      </defs>
      <g>
       <use xlink:href="#mc77fa073c5" x="83.524495" y="166.84" style="stroke: #000000; stroke-width: 0.8"/>
      </g>
     </g>
     <g id="text_1">
      <!-- −1 -->
      <g transform="translate(77.823714 181.086875) scale(0.1 -0.1)">
       <defs>
        <path id="Arimo-Regular-2212" d="M 3425 2356 
L 3425 1900 
L 316 1900 
L 316 2356 
L 3425 2356 
z
" transform="scale(0.015625)"/>
        <path id="Arimo-Regular-31" d="M 3247 478 
L 3247 0 
L 488 0 
L 488 478 
L 1609 478 
L 1609 3866 
L 616 3156 
L 616 3688 
L 1656 4403 
L 2175 4403 
L 2175 478 
L 3247 478 
z
" transform="scale(0.015625)"/>
       </defs>
       <use xlink:href="#Arimo-Regular-2212"/>
       <use xlink:href="#Arimo-Regular-31" transform="translate(58.398438 0)"/>
      </g>
     </g>
    </g>
    <g id="xtick_2">
     <g id="line2d_2">
      <g>
       <use xlink:href="#mc77fa073c5" x="125.410954" y="166.84" style="stroke: #000000; stroke-width: 0.8"/>
      </g>
     </g>
     <g id="text_2">
      <!-- 0 -->
      <g transform="translate(122.630485 181.086875) scale(0.1 -0.1)">
       <defs>
        <path id="Arimo-Regular-30" d="M 3309 2203 
Q 3309 1100 2920 518 
Q 2531 -63 1772 -63 
Q 1013 -63 631 515 
Q 250 1094 250 2203 
Q 250 3338 620 3903 
Q 991 4469 1791 4469 
Q 2569 4469 2939 3897 
Q 3309 3325 3309 2203 
z
M 2738 2203 
Q 2738 2841 2642 3239 
Q 2547 3638 2337 3825 
Q 2128 4013 1791 4013 
Q 1447 4013 1231 3828 
Q 1016 3644 917 3245 
Q 819 2847 819 2203 
Q 819 1578 920 1178 
Q 1022 778 1234 587 
Q 1447 397 1778 397 
Q 2275 397 2506 840 
Q 2738 1284 2738 2203 
z
" transform="scale(0.015625)"/>
       </defs>
       <use xlink:href="#Arimo-Regular-30"/>
      </g>
     </g>
    </g>
    <g id="xtick_3">
     <g id="line2d_3">
      <g>
       <use xlink:href="#mc77fa073c5" x="167.297413" y="166.84" style="stroke: #000000; stroke-width: 0.8"/>
      </g>
     </g>
     <g id="text_3">
      <!-- 1 -->
      <g transform="translate(164.516944 181.086875) scale(0.1 -0.1)">
       <use xlink:href="#Arimo-Regular-31"/>
      </g>
     </g>
    </g>
    <g id="xtick_4">
     <g id="line2d_4">
      <g>
       <use xlink:href="#mc77fa073c5" x="209.183871" y="166.84" style="stroke: #000000; stroke-width: 0.8"/>
      </g>
     </g>
     <g id="text_4">
      <!-- 2 -->
      <g transform="translate(206.403403 181.086875) scale(0.1 -0.1)">
       <defs>
        <path id="Arimo-Regular-32" d="M 3238 478 
L 3238 0 
L 322 0 
L 322 397 
Q 481 763 707 1044 
Q 934 1325 1190 1550 
Q 1447 1775 1697 1969 
Q 1822 2066 1933 2162 
Q 2044 2259 2144 2356 
Q 2344 2550 2467 2762 
Q 2591 2975 2591 3244 
Q 2591 3606 2378 3806 
Q 2166 4006 1788 4006 
Q 1428 4006 1195 3811 
Q 963 3616 922 3263 
L 347 3316 
Q 409 3844 795 4156 
Q 1181 4469 1788 4469 
Q 2453 4469 2811 4155 
Q 3169 3841 3169 3263 
Q 3169 3006 3051 2753 
Q 2934 2500 2703 2247 
Q 2588 2122 2366 1925 
Q 2144 1728 1819 1463 
Q 1459 1169 1246 933 
Q 1034 697 941 478 
L 3238 478 
z
" transform="scale(0.015625)"/>
       </defs>
       <use xlink:href="#Arimo-Regular-32"/>
      </g>
     </g>
    </g>
    <g id="text_5">
     <!-- MDS Dimension 1 -->
     <g transform="translate(83.3475 197.3075) scale(0.14 -0.14)">
      <defs>
       <path id="Arimo-Regular-4d" d="M 1056 2938 
L 1056 0 
L 525 0 
L 525 4403 
L 1309 4403 
L 2481 1350 
Q 2544 1166 2601 955 
Q 2659 744 2678 650 
Q 2697 734 2740 882 
Q 2784 1031 2828 1168 
Q 2872 1306 2891 1350 
L 4041 4403 
L 4806 4403 
L 4806 0 
L 4269 0 
L 4269 2938 
Q 4269 3181 4276 3415 
Q 4284 3650 4297 3875 
Q 4219 3597 4151 3376 
Q 4084 3156 4022 3000 
L 2884 0 
L 2466 0 
L 1313 3000 
L 1034 3875 
Q 1041 3641 1048 3406 
Q 1056 3172 1056 2938 
z
" transform="scale(0.015625)"/>
       <path id="Arimo-Regular-44" d="M 4316 2247 
Q 4316 1550 4045 1047 
Q 3775 544 3292 272 
Q 2809 0 2172 0 
L 525 0 
L 525 4403 
L 1981 4403 
Q 3100 4403 3708 3842 
Q 4316 3281 4316 2247 
z
M 3716 2247 
Q 3716 3066 3267 3495 
Q 2819 3925 1969 3925 
L 1122 3925 
L 1122 478 
L 2103 478 
Q 2594 478 2955 693 
Q 3316 909 3516 1306 
Q 3716 1703 3716 2247 
z
" transform="scale(0.015625)"/>
       <path id="Arimo-Regular-53" d="M 3975 1216 
Q 3975 606 3498 271 
Q 3022 -63 2156 -63 
Q 547 -63 291 1056 
L 869 1172 
Q 969 775 1294 589 
Q 1619 403 2178 403 
Q 2756 403 3070 601 
Q 3384 800 3384 1184 
Q 3384 1400 3286 1534 
Q 3188 1669 3009 1756 
Q 2831 1844 2584 1903 
Q 2338 1963 2038 2031 
Q 1691 2109 1458 2184 
Q 1225 2259 1075 2342 
Q 925 2425 819 2519 
Q 663 2663 580 2853 
Q 497 3044 497 3291 
Q 497 3856 930 4162 
Q 1363 4469 2169 4469 
Q 2919 4469 3316 4239 
Q 3713 4009 3872 3456 
L 3284 3353 
Q 3188 3703 2916 3861 
Q 2644 4019 2163 4019 
Q 1634 4019 1356 3844 
Q 1078 3669 1078 3322 
Q 1078 3119 1186 2986 
Q 1294 2853 1497 2763 
Q 1688 2672 2306 2534 
Q 2559 2475 2806 2411 
Q 3053 2347 3272 2250 
Q 3400 2197 3517 2120 
Q 3634 2044 3722 1944 
Q 3841 1813 3908 1634 
Q 3975 1456 3975 1216 
z
" transform="scale(0.015625)"/>
       <path id="Arimo-Regular-20" transform="scale(0.015625)"/>
       <path id="Arimo-Regular-69" d="M 991 4638 
L 991 4100 
L 428 4100 
L 428 4638 
L 991 4638 
z
M 991 3381 
L 991 0 
L 428 0 
L 428 3381 
L 991 3381 
z
" transform="scale(0.015625)"/>
       <path id="Arimo-Regular-6d" d="M 1003 1959 
L 1003 0 
L 444 0 
L 444 2659 
Q 444 2956 439 3136 
Q 434 3316 425 3381 
L 956 3381 
Q 963 3313 969 3213 
Q 975 3113 978 3005 
Q 981 2897 981 2803 
L 991 2803 
Q 1172 3163 1406 3303 
Q 1641 3444 1978 3444 
Q 2363 3444 2586 3291 
Q 2809 3138 2897 2803 
L 2906 2803 
Q 3081 3144 3329 3294 
Q 3578 3444 3931 3444 
Q 4444 3444 4676 3166 
Q 4909 2888 4909 2253 
L 4909 0 
L 4353 0 
L 4353 2144 
Q 4353 2634 4218 2821 
Q 4084 3009 3734 3009 
Q 3366 3009 3161 2736 
Q 2956 2463 2956 1959 
L 2956 0 
L 2400 0 
L 2400 2144 
Q 2400 2634 2265 2821 
Q 2131 3009 1781 3009 
Q 1422 3009 1212 2734 
Q 1003 2459 1003 1959 
z
" transform="scale(0.015625)"/>
       <path id="Arimo-Regular-65" d="M 863 1572 
Q 863 991 1103 675 
Q 1344 359 1806 359 
Q 2172 359 2392 506 
Q 2613 653 2691 878 
L 3184 738 
Q 2881 -63 1806 -63 
Q 1056 -63 664 384 
Q 272 831 272 1713 
Q 272 2550 664 2997 
Q 1056 3444 1784 3444 
Q 2531 3444 2903 2994 
Q 3275 2544 3275 1647 
L 3275 1572 
L 863 1572 
z
M 2694 2003 
Q 2647 2538 2422 2783 
Q 2197 3028 1775 3028 
Q 1366 3028 1127 2754 
Q 888 2481 869 2003 
L 2694 2003 
z
" transform="scale(0.015625)"/>
       <path id="Arimo-Regular-6e" d="M 1006 1959 
L 1006 0 
L 444 0 
L 444 2659 
Q 444 2956 439 3136 
Q 434 3316 425 3381 
L 956 3381 
Q 963 3322 967 3231 
Q 972 3141 975 3031 
Q 978 2922 981 2803 
L 991 2803 
Q 1184 3153 1439 3298 
Q 1694 3444 2072 3444 
Q 2628 3444 2886 3159 
Q 3144 2875 3144 2253 
L 3144 0 
L 2578 0 
L 2578 2144 
Q 2578 2628 2422 2818 
Q 2266 3009 1881 3009 
Q 1475 3009 1240 2731 
Q 1006 2453 1006 1959 
z
" transform="scale(0.015625)"/>
       <path id="Arimo-Regular-73" d="M 2969 934 
Q 2969 456 2608 196 
Q 2247 -63 1597 -63 
Q 966 -63 623 145 
Q 281 353 178 794 
L 675 891 
Q 747 619 972 492 
Q 1197 366 1597 366 
Q 2025 366 2223 497 
Q 2422 628 2422 891 
Q 2422 1091 2284 1216 
Q 2147 1341 1841 1422 
Q 1478 1519 1264 1581 
Q 1050 1644 934 1689 
Q 819 1734 750 1775 
Q 544 1894 428 2066 
Q 313 2238 313 2488 
Q 313 2950 642 3192 
Q 972 3434 1603 3434 
Q 2163 3434 2492 3237 
Q 2822 3041 2909 2606 
L 2403 2544 
Q 2356 2769 2151 2889 
Q 1947 3009 1603 3009 
Q 1222 3009 1040 2893 
Q 859 2778 859 2544 
Q 859 2372 962 2261 
Q 1066 2150 1356 2078 
Q 1747 1984 2100 1873 
Q 2453 1763 2606 1653 
Q 2784 1525 2876 1351 
Q 2969 1178 2969 934 
z
" transform="scale(0.015625)"/>
       <path id="Arimo-Regular-6f" d="M 3291 1694 
Q 3291 806 2900 371 
Q 2509 -63 1766 -63 
Q 1025 -63 647 389 
Q 269 841 269 1694 
Q 269 2569 648 3006 
Q 1028 3444 1784 3444 
Q 2559 3444 2925 3017 
Q 3291 2591 3291 1694 
z
M 2700 1694 
Q 2700 2394 2492 2711 
Q 2284 3028 1794 3028 
Q 1300 3028 1079 2704 
Q 859 2381 859 1694 
Q 859 1025 1076 689 
Q 1294 353 1759 353 
Q 2266 353 2483 678 
Q 2700 1003 2700 1694 
z
" transform="scale(0.015625)"/>
      </defs>
      <use xlink:href="#Arimo-Regular-4d"/>
      <use xlink:href="#Arimo-Regular-44" transform="translate(83.300781 0)"/>
      <use xlink:href="#Arimo-Regular-53" transform="translate(155.517578 0)"/>
      <use xlink:href="#Arimo-Regular-20" transform="translate(222.216797 0)"/>
      <use xlink:href="#Arimo-Regular-44" transform="translate(250 0)"/>
      <use xlink:href="#Arimo-Regular-69" transform="translate(322.216797 0)"/>
      <use xlink:href="#Arimo-Regular-6d" transform="translate(344.433594 0)"/>
      <use xlink:href="#Arimo-Regular-65" transform="translate(427.734375 0)"/>
      <use xlink:href="#Arimo-Regular-6e" transform="translate(483.349609 0)"/>
      <use xlink:href="#Arimo-Regular-73" transform="translate(538.964844 0)"/>
      <use xlink:href="#Arimo-Regular-69" transform="translate(588.964844 0)"/>
      <use xlink:href="#Arimo-Regular-6f" transform="translate(611.181641 0)"/>
      <use xlink:href="#Arimo-Regular-6e" transform="translate(666.796875 0)"/>
      <use xlink:href="#Arimo-Regular-20" transform="translate(722.412109 0)"/>
      <use xlink:href="#Arimo-Regular-31" transform="translate(750.195312 0)"/>
     </g>
    </g>
   </g>
   <g id="matplotlib.axis_2">
    <g id="ytick_1">
     <g id="line2d_5">
      <defs>
       <path id="m5c12a038a6" d="M 0 0 
L -3.5 0 
" style="stroke: #000000; stroke-width: 0.8"/>
      </defs>
      <g>
       <use xlink:href="#m5c12a038a6" x="42.652188" y="143.745711" style="stroke: #000000; stroke-width: 0.8"/>
      </g>
     </g>
     <g id="text_6">
      <!-- −3 -->
      <g transform="translate(24.250625 147.369148) scale(0.1 -0.1)">
       <defs>
        <path id="Arimo-Regular-33" d="M 3278 1216 
Q 3278 606 2890 271 
Q 2503 -63 1784 -63 
Q 1116 -63 717 239 
Q 319 541 244 1131 
L 825 1184 
Q 938 403 1784 403 
Q 2209 403 2451 612 
Q 2694 822 2694 1234 
Q 2694 1594 2417 1795 
Q 2141 1997 1619 1997 
L 1300 1997 
L 1300 2484 
L 1606 2484 
Q 2069 2484 2323 2686 
Q 2578 2888 2578 3244 
Q 2578 3597 2370 3801 
Q 2163 4006 1753 4006 
Q 1381 4006 1151 3815 
Q 922 3625 884 3278 
L 319 3322 
Q 381 3863 767 4166 
Q 1153 4469 1759 4469 
Q 2422 4469 2789 4161 
Q 3156 3853 3156 3303 
Q 3156 2881 2920 2617 
Q 2684 2353 2234 2259 
L 2234 2247 
Q 2728 2194 3003 1916 
Q 3278 1638 3278 1216 
z
" transform="scale(0.015625)"/>
       </defs>
       <use xlink:href="#Arimo-Regular-2212"/>
       <use xlink:href="#Arimo-Regular-33" transform="translate(58.398438 0)"/>
      </g>
     </g>
    </g>
    <g id="ytick_2">
     <g id="line2d_6">
      <g>
       <use xlink:href="#m5c12a038a6" x="42.652188" y="120.111563" style="stroke: #000000; stroke-width: 0.8"/>
      </g>
     </g>
     <g id="text_7">
      <!-- −2 -->
      <g transform="translate(24.250625 123.735001) scale(0.1 -0.1)">
       <use xlink:href="#Arimo-Regular-2212"/>
       <use xlink:href="#Arimo-Regular-32" transform="translate(58.398438 0)"/>
      </g>
     </g>
    </g>
    <g id="ytick_3">
     <g id="line2d_7">
      <g>
       <use xlink:href="#m5c12a038a6" x="42.652188" y="96.477416" style="stroke: #000000; stroke-width: 0.8"/>
      </g>
     </g>
     <g id="text_8">
      <!-- −1 -->
      <g transform="translate(24.250625 100.100853) scale(0.1 -0.1)">
       <use xlink:href="#Arimo-Regular-2212"/>
       <use xlink:href="#Arimo-Regular-31" transform="translate(58.398438 0)"/>
      </g>
     </g>
    </g>
    <g id="ytick_4">
     <g id="line2d_8">
      <g>
       <use xlink:href="#m5c12a038a6" x="42.652188" y="72.843268" style="stroke: #000000; stroke-width: 0.8"/>
      </g>
     </g>
     <g id="text_9">
      <!-- 0 -->
      <g transform="translate(30.09125 76.466705) scale(0.1 -0.1)">
       <use xlink:href="#Arimo-Regular-30"/>
      </g>
     </g>
    </g>
    <g id="ytick_5">
     <g id="line2d_9">
      <g>
       <use xlink:href="#m5c12a038a6" x="42.652188" y="49.20912" style="stroke: #000000; stroke-width: 0.8"/>
      </g>
     </g>
     <g id="text_10">
      <!-- 1 -->
      <g transform="translate(30.09125 52.832558) scale(0.1 -0.1)">
       <use xlink:href="#Arimo-Regular-31"/>
      </g>
     </g>
    </g>
    <g id="ytick_6">
     <g id="line2d_10">
      <g>
       <use xlink:href="#m5c12a038a6" x="42.652188" y="25.574973" style="stroke: #000000; stroke-width: 0.8"/>
      </g>
     </g>
     <g id="text_11">
      <!-- 2 -->
      <g transform="translate(30.09125 29.19841) scale(0.1 -0.1)">
       <use xlink:href="#Arimo-Regular-32"/>
      </g>
     </g>
    </g>
    <g id="text_12">
     <!-- MDS Dimension 2 -->
     <g transform="translate(17.345625 143.424687) rotate(-90) scale(0.14 -0.14)">
      <use xlink:href="#Arimo-Regular-4d"/>
      <use xlink:href="#Arimo-Regular-44" transform="translate(83.300781 0)"/>
      <use xlink:href="#Arimo-Regular-53" transform="translate(155.517578 0)"/>
      <use xlink:href="#Arimo-Regular-20" transform="translate(222.216797 0)"/>
      <use xlink:href="#Arimo-Regular-44" transform="translate(250 0)"/>
      <use xlink:href="#Arimo-Regular-69" transform="translate(322.216797 0)"/>
      <use xlink:href="#Arimo-Regular-6d" transform="translate(344.433594 0)"/>
      <use xlink:href="#Arimo-Regular-65" transform="translate(427.734375 0)"/>
      <use xlink:href="#Arimo-Regular-6e" transform="translate(483.349609 0)"/>
      <use xlink:href="#Arimo-Regular-73" transform="translate(538.964844 0)"/>
      <use xlink:href="#Arimo-Regular-69" transform="translate(588.964844 0)"/>
      <use xlink:href="#Arimo-Regular-6f" transform="translate(611.181641 0)"/>
      <use xlink:href="#Arimo-Regular-6e" transform="translate(666.796875 0)"/>
      <use xlink:href="#Arimo-Regular-20" transform="translate(722.412109 0)"/>
      <use xlink:href="#Arimo-Regular-32" transform="translate(750.195312 0)"/>
     </g>
    </g>
   </g>
   <g id="patch_3">
    <path d="M 42.652188 166.84 
L 42.652188 7.2 
" style="fill: none; stroke: #000000; stroke-width: 0.8; stroke-linejoin: miter; stroke-linecap: square"/>
   </g>
   <g id="patch_4">
    <path d="M 42.652188 166.84 
L 236.852188 166.84 
" style="fill: none; stroke: #000000; stroke-width: 0.8; stroke-linejoin: miter; stroke-linecap: square"/>
   </g>
  </g>
 </g>
 <defs>
  <clipPath id="p8443ba1ddb">
   <rect x="42.652188" y="7.2" width="194.2" height="159.64"/>
  </clipPath>
 </defs>
</svg>
