<?xml version="1.0" encoding="utf-8" standalone="no"?>
<!DOCTYPE svg PUBLIC "-//W3C//DTD SVG 1.1//EN"
  "http://www.w3.org/Graphics/SVG/1.1/DTD/svg11.dtd">
<svg xmlns:xlink="http://www.w3.org/1999/xlink" width="300.952187pt" height="287.576011pt" viewBox="0 0 300.952187 287.576011" xmlns="http://www.w3.org/2000/svg" version="1.1">
 <metadata>
  <rdf:RDF xmlns:dc="http://purl.org/dc/elements/1.1/" xmlns:cc="http://creativecommons.org/ns#" xmlns:rdf="http://www.w3.org/1999/02/22-rdf-syntax-ns#">
   <cc:Work>
    <dc:type rdf:resource="http://purl.org/dc/dcmitype/StillImage"/>
    <dc:date>2025-11-04T01:23:28.979595</dc:date>
    <dc:format>image/svg+xml</dc:format>
    <dc:creator>
     <cc:Agent>
      <dc:title>Matplotlib v3.10.0, https://matplotlib.org/</dc:title>
     </cc:Agent>
    </dc:creator>
   </cc:Work>
  </rdf:RDF>
 </metadata>
 <defs>
  <style type="text/css">*{stroke-linejoin: round; stroke-linecap: butt}</style>
 </defs>
 <g id="figure_1">
  <g id="patch_1">
   <path d="M 0 287.576011 
L 300.952187 287.576011 
L 300.952187 0 
L 0 0 
z
" style="fill: #ffffff"/>
  </g>
  <g id="axes_1">
   <g id="patch_2">
    <path d="M 42.652188 201.24 
L 293.752188 201.24 
L 293.752188 7.2 
L 42.652188 7.2 
z
" style="fill: #ffffff"/>
   </g>
   <g id="FillBetweenPolyCollection_1">
    <defs>
     <path id="m25ad045a0a" d="M 63.70513 -115.712893 
L 63.449245 -115.712893 
L 63.415163 -117.21604 
L 63.374876 -118.719187 
L 63.328084 -120.222335 
L 63.2747 -121.725482 
L 63.21489 -123.228629 
L 63.149103 -124.731776 
L 63.078087 -126.234923 
L 63.002875 -127.738071 
L 62.924753 -129.241218 
L 62.845198 -130.744365 
L 62.765796 -132.247512 
L 62.688145 -133.750659 
L 62.61375 -135.253807 
L 62.543914 -136.756954 
L 62.47965 -138.260101 
L 62.421605 -139.763248 
L 62.370011 -141.266395 
L 62.324665 -142.769543 
L 62.284937 -144.27269 
L 62.249789 -145.775837 
L 62.217814 -147.278984 
L 62.187269 -148.782131 
L 62.1561 -150.285279 
L 62.121948 -151.788426 
L 62.082145 -153.291573 
L 62.033678 -154.79472 
L 61.97317 -156.297867 
L 61.896852 -157.801015 
L 61.800575 -159.304162 
L 61.679866 -160.807309 
L 61.530048 -162.310456 
L 61.346432 -163.813604 
L 61.124584 -165.316751 
L 60.860654 -166.819898 
L 60.551738 -168.323045 
L 60.196264 -169.826192 
L 59.794332 -171.32934 
L 59.347994 -172.832487 
L 58.861416 -174.335634 
L 58.340914 -175.838781 
L 57.794818 -177.341928 
L 57.23319 -178.845076 
L 56.667387 -180.348223 
L 56.109522 -181.85137 
L 55.571838 -183.354517 
L 55.066083 -184.857664 
L 54.602896 -186.360812 
L 54.191299 -187.863959 
L 53.838297 -189.367106 
L 53.548641 -190.870253 
L 53.324748 -192.3734 
L 53.166788 -193.876548 
L 53.072906 -195.379695 
L 53.039555 -196.882842 
L 53.06191 -198.385989 
L 53.134302 -199.889136 
L 53.250659 -201.392284 
L 53.404896 -202.895431 
L 53.591239 -204.398578 
L 53.804472 -205.901725 
L 54.040082 -207.404872 
L 54.294316 -208.90802 
L 54.564157 -210.411167 
L 54.847238 -211.914314 
L 55.141704 -213.417461 
L 55.446059 -214.920608 
L 55.759007 -216.423756 
L 56.079319 -217.926903 
L 56.405723 -219.43005 
L 56.73685 -220.933197 
L 57.071216 -222.436345 
L 57.407244 -223.939492 
L 57.743324 -225.442639 
L 58.077877 -226.945786 
L 58.409434 -228.448933 
L 58.736694 -229.952081 
L 59.058559 -231.455228 
L 59.374139 -232.958375 
L 59.682732 -234.461522 
L 59.983767 -235.964669 
L 60.276742 -237.467817 
L 60.561149 -238.970964 
L 60.83641 -240.474111 
L 61.10183 -241.977258 
L 61.356581 -243.480405 
L 61.599709 -244.983553 
L 61.830176 -246.4867 
L 62.046921 -247.989847 
L 62.248939 -249.492994 
L 62.435362 -250.996141 
L 62.605532 -252.499289 
L 62.759066 -254.002436 
L 62.895894 -255.505583 
L 63.016271 -257.00873 
L 63.120769 -258.511877 
L 63.210246 -260.015025 
L 63.28579 -261.518172 
L 63.348667 -263.021319 
L 63.400248 -264.524466 
L 63.754127 -264.524466 
L 63.754127 -264.524466 
L 63.805708 -263.021319 
L 63.868585 -261.518172 
L 63.944129 -260.015025 
L 64.033606 -258.511877 
L 64.138104 -257.00873 
L 64.258481 -255.505583 
L 64.395309 -254.002436 
L 64.548843 -252.499289 
L 64.719013 -250.996141 
L 64.905436 -249.492994 
L 65.107454 -247.989847 
L 65.324199 -246.4867 
L 65.554666 -244.983553 
L 65.797794 -243.480405 
L 66.052545 -241.977258 
L 66.317965 -240.474111 
L 66.593226 -238.970964 
L 66.877633 -237.467817 
L 67.170608 -235.964669 
L 67.471643 -234.461522 
L 67.780236 -232.958375 
L 68.095816 -231.455228 
L 68.417681 -229.952081 
L 68.744941 -228.448933 
L 69.076498 -226.945786 
L 69.411051 -225.442639 
L 69.747131 -223.939492 
L 70.083159 -222.436345 
L 70.417525 -220.933197 
L 70.748652 -219.43005 
L 71.075056 -217.926903 
L 71.395368 -216.423756 
L 71.708316 -214.920608 
L 72.012671 -213.417461 
L 72.307137 -211.914314 
L 72.590218 -210.411167 
L 72.860059 -208.90802 
L 73.114293 -207.404872 
L 73.349903 -205.901725 
L 73.563136 -204.398578 
L 73.749479 -202.895431 
L 73.903716 -201.392284 
L 74.020073 -199.889136 
L 74.092465 -198.385989 
L 74.11482 -196.882842 
L 74.081469 -195.379695 
L 73.987587 -193.876548 
L 73.829627 -192.3734 
L 73.605734 -190.870253 
L 73.316078 -189.367106 
L 72.963076 -187.863959 
L 72.551479 -186.360812 
L 72.088292 -184.857664 
L 71.582537 -183.354517 
L 71.044853 -181.85137 
L 70.486988 -180.348223 
L 69.921185 -178.845076 
L 69.359557 -177.341928 
L 68.813461 -175.838781 
L 68.292959 -174.335634 
L 67.806381 -172.832487 
L 67.360043 -171.32934 
L 66.958111 -169.826192 
L 66.602637 -168.323045 
L 66.293721 -166.819898 
L 66.029791 -165.316751 
L 65.807943 -163.813604 
L 65.624327 -162.310456 
L 65.474509 -160.807309 
L 65.3538 -159.304162 
L 65.257523 -157.801015 
L 65.181205 -156.297867 
L 65.120697 -154.79472 
L 65.07223 -153.291573 
L 65.032427 -151.788426 
L 64.998275 -150.285279 
L 64.967106 -148.782131 
L 64.936561 -147.278984 
L 64.904586 -145.775837 
L 64.869438 -144.27269 
L 64.82971 -142.769543 
L 64.784364 -141.266395 
L 64.73277 -139.763248 
L 64.674725 -138.260101 
L 64.610461 -136.756954 
L 64.540625 -135.253807 
L 64.46623 -133.750659 
L 64.388579 -132.247512 
L 64.309177 -130.744365 
L 64.229622 -129.241218 
L 64.1515 -127.738071 
L 64.076288 -126.234923 
L 64.005272 -124.731776 
L 63.939485 -123.228629 
L 63.879675 -121.725482 
L 63.826291 -120.222335 
L 63.779499 -118.719187 
L 63.739212 -117.21604 
L 63.70513 -115.712893 
z
" style="stroke: #717171"/>
    </defs>
    <g clip-path="url(#p4275d37da1)">
     <use xlink:href="#m25ad045a0a" x="0" y="287.576011" style="fill: #c6d99e; stroke: #717171"/>
    </g>
   </g>
   <g id="FillBetweenPolyCollection_2">
    <defs>
     <path id="md102b2b283" d="M 105.550763 -140.108217 
L 105.303612 -140.108217 
L 105.267438 -141.291834 
L 105.223546 -142.475451 
L 105.171161 -143.659068 
L 105.109663 -144.842685 
L 105.038646 -146.026303 
L 104.957972 -147.20992 
L 104.86781 -148.393537 
L 104.768656 -149.577154 
L 104.661328 -150.760771 
L 104.546929 -151.944389 
L 104.426786 -153.128006 
L 104.302352 -154.311623 
L 104.175094 -155.49524 
L 104.046361 -156.678857 
L 103.917249 -157.862475 
L 103.788479 -159.046092 
L 103.660286 -160.229709 
L 103.532342 -161.413326 
L 103.403716 -162.596943 
L 103.272868 -163.780561 
L 103.137682 -164.964178 
L 102.995533 -166.147795 
L 102.84338 -167.331412 
L 102.677871 -168.515029 
L 102.495462 -169.698646 
L 102.292535 -170.882264 
L 102.065521 -172.065881 
L 101.811021 -173.249498 
L 101.525936 -174.433115 
L 101.207611 -175.616732 
L 100.853997 -176.80035 
L 100.463841 -177.983967 
L 100.036896 -179.167584 
L 99.574145 -180.351201 
L 99.078027 -181.534818 
L 98.552635 -182.718436 
L 98.003857 -183.902053 
L 97.439434 -185.08567 
L 96.868898 -186.269287 
L 96.30337 -187.452904 
L 95.755208 -188.636522 
L 95.237507 -189.820139 
L 94.763467 -191.003756 
L 94.34568 -192.187373 
L 93.995372 -193.37099 
L 93.721669 -194.554608 
L 93.530957 -195.738225 
L 93.426388 -196.921842 
L 93.407594 -198.105459 
L 93.470634 -199.289076 
L 93.608194 -200.472694 
L 93.810025 -201.656311 
L 94.063592 -202.839928 
L 94.354876 -204.023545 
L 94.669264 -205.207162 
L 94.992462 -206.39078 
L 95.311346 -207.574397 
L 95.614704 -208.758014 
L 95.893797 -209.941631 
L 96.142732 -211.125248 
L 96.35861 -212.308866 
L 96.541473 -213.492483 
L 96.694055 -214.6761 
L 96.82139 -215.859717 
L 96.930299 -217.043334 
L 97.028818 -218.226952 
L 97.125602 -219.410569 
L 97.229339 -220.594186 
L 97.348225 -221.777803 
L 97.489499 -222.96142 
L 97.659083 -224.145038 
L 97.861318 -225.328655 
L 98.098798 -226.512272 
L 98.372324 -227.695889 
L 98.680944 -228.879506 
L 99.022083 -230.063124 
L 99.391751 -231.246741 
L 99.784804 -232.430358 
L 100.195254 -233.613975 
L 100.616584 -234.797592 
L 101.042077 -235.98121 
L 101.465122 -237.164827 
L 101.879483 -238.348444 
L 102.279531 -239.532061 
L 102.660414 -240.715678 
L 103.018173 -241.899296 
L 103.349803 -243.082913 
L 103.653261 -244.26653 
L 103.927427 -245.450147 
L 104.172032 -246.633764 
L 104.387554 -247.817382 
L 104.575102 -249.000999 
L 104.736288 -250.184616 
L 104.873098 -251.368233 
L 104.987767 -252.55185 
L 105.082667 -253.735468 
L 105.160204 -254.919085 
L 105.222739 -256.102702 
L 105.272514 -257.286319 
L 105.581861 -257.286319 
L 105.581861 -257.286319 
L 105.631636 -256.102702 
L 105.694171 -254.919085 
L 105.771708 -253.735468 
L 105.866608 -252.55185 
L 105.981277 -251.368233 
L 106.118087 -250.184616 
L 106.279273 -249.000999 
L 106.466821 -247.817382 
L 106.682343 -246.633764 
L 106.926948 -245.450147 
L 107.201114 -244.26653 
L 107.504572 -243.082913 
L 107.836202 -241.899296 
L 108.193961 -240.715678 
L 108.574844 -239.532061 
L 108.974892 -238.348444 
L 109.389253 -237.164827 
L 109.812298 -235.98121 
L 110.237791 -234.797592 
L 110.659121 -233.613975 
L 111.069571 -232.430358 
L 111.462624 -231.246741 
L 111.832292 -230.063124 
L 112.173431 -228.879506 
L 112.482051 -227.695889 
L 112.755577 -226.512272 
L 112.993057 -225.328655 
L 113.195292 -224.145038 
L 113.364876 -222.96142 
L 113.50615 -221.777803 
L 113.625036 -220.594186 
L 113.728773 -219.410569 
L 113.825557 -218.226952 
L 113.924076 -217.043334 
L 114.032985 -215.859717 
L 114.16032 -214.6761 
L 114.312902 -213.492483 
L 114.495765 -212.308866 
L 114.711643 -211.125248 
L 114.960578 -209.941631 
L 115.239671 -208.758014 
L 115.543029 -207.574397 
L 115.861913 -206.39078 
L 116.185111 -205.207162 
L 116.499499 -204.023545 
L 116.790783 -202.839928 
L 117.04435 -201.656311 
L 117.246181 -200.472694 
L 117.383741 -199.289076 
L 117.446781 -198.105459 
L 117.427987 -196.921842 
L 117.323418 -195.738225 
L 117.132706 -194.554608 
L 116.859003 -193.37099 
L 116.508695 -192.187373 
L 116.090908 -191.003756 
L 115.616868 -189.820139 
L 115.099167 -188.636522 
L 114.551005 -187.452904 
L 113.985477 -186.269287 
L 113.414941 -185.08567 
L 112.850518 -183.902053 
L 112.30174 -182.718436 
L 111.776348 -181.534818 
L 111.28023 -180.351201 
L 110.817479 -179.167584 
L 110.390534 -177.983967 
L 110.000378 -176.80035 
L 109.646764 -175.616732 
L 109.328439 -174.433115 
L 109.043354 -173.249498 
L 108.788854 -172.065881 
L 108.56184 -170.882264 
L 108.358913 -169.698646 
L 108.176504 -168.515029 
L 108.010995 -167.331412 
L 107.858842 -166.147795 
L 107.716693 -164.964178 
L 107.581507 -163.780561 
L 107.450659 -162.596943 
L 107.322033 -161.413326 
L 107.194089 -160.229709 
L 107.065896 -159.046092 
L 106.937126 -157.862475 
L 106.808014 -156.678857 
L 106.679281 -155.49524 
L 106.552023 -154.311623 
L 106.427589 -153.128006 
L 106.307446 -151.944389 
L 106.193047 -150.760771 
L 106.085719 -149.577154 
L 105.986565 -148.393537 
L 105.896403 -147.20992 
L 105.815729 -146.026303 
L 105.744712 -144.842685 
L 105.683214 -143.659068 
L 105.630829 -142.475451 
L 105.586937 -141.291834 
L 105.550763 -140.108217 
z
" style="stroke: #717171"/>
    </defs>
    <g clip-path="url(#p4275d37da1)">
     <use xlink:href="#md102b2b283" x="0" y="287.576011" style="fill: #c6d99e; stroke: #717171"/>
    </g>
   </g>
   <g id="FillBetweenPolyCollection_3">
    <defs>
     <path id="m7fdbfc363b" d="M 147.43569 -114.616098 
L 147.118685 -114.616098 
L 147.070226 -116.081412 
L 147.011647 -117.546727 
L 146.942405 -119.012041 
L 146.862437 -120.477356 
L 146.772291 -121.942671 
L 146.673223 -123.407985 
L 146.567256 -124.8733 
L 146.457176 -126.338614 
L 146.346452 -127.803929 
L 146.239079 -129.269243 
L 146.139353 -130.734558 
L 146.051581 -132.199872 
L 145.979758 -133.665187 
L 145.927249 -135.130502 
L 145.896484 -136.595816 
L 145.88873 -138.061131 
L 145.90394 -139.526445 
L 145.940703 -140.99176 
L 145.996307 -142.457074 
L 146.066895 -143.922389 
L 146.147694 -145.387703 
L 146.23331 -146.853018 
L 146.318022 -148.318333 
L 146.396084 -149.783647 
L 146.461983 -151.248962 
L 146.510647 -152.714276 
L 146.537587 -154.179591 
L 146.538984 -155.644905 
L 146.511708 -157.11022 
L 146.453303 -158.575534 
L 146.361927 -160.040849 
L 146.236277 -161.506164 
L 146.075505 -162.971478 
L 145.879128 -164.436793 
L 145.646946 -165.902107 
L 145.378969 -167.367422 
L 145.075353 -168.832736 
L 144.73636 -170.298051 
L 144.36233 -171.763365 
L 143.953681 -173.22868 
L 143.510946 -174.693995 
L 143.034841 -176.159309 
L 142.52639 -177.624624 
L 141.987084 -179.089938 
L 141.419101 -180.555253 
L 140.825556 -182.020567 
L 140.210768 -183.485882 
L 139.580522 -184.951196 
L 138.942285 -186.416511 
L 138.305324 -187.881826 
L 137.680696 -189.34714 
L 137.081058 -190.812455 
L 136.520285 -192.277769 
L 136.012873 -193.743084 
L 135.573171 -195.208398 
L 135.214481 -196.673713 
L 134.948101 -198.139027 
L 134.782426 -199.604342 
L 134.722188 -201.069657 
L 134.767949 -202.534971 
L 134.915928 -204.000286 
L 135.158181 -205.4656 
L 135.48316 -206.930915 
L 135.876586 -208.396229 
L 136.322552 -209.861544 
L 136.804748 -211.326858 
L 137.307656 -212.792173 
L 137.817606 -214.257488 
L 138.323571 -215.722802 
L 138.817634 -217.188117 
L 139.295093 -218.653431 
L 139.754229 -220.118746 
L 140.195787 -221.58406 
L 140.622262 -223.049375 
L 141.037097 -224.514689 
L 141.443898 -225.980004 
L 141.845757 -227.445319 
L 142.244753 -228.910633 
L 142.641666 -230.375948 
L 143.035905 -231.841262 
L 143.425627 -233.306577 
L 143.808006 -234.771891 
L 144.179581 -236.237206 
L 144.536639 -237.70252 
L 144.87558 -239.167835 
L 145.193215 -240.63315 
L 145.486987 -242.098464 
L 145.755102 -243.563779 
L 145.996574 -245.029093 
L 146.211199 -246.494408 
L 146.39948 -247.959722 
L 146.562512 -249.425037 
L 146.701858 -250.890351 
L 146.819416 -252.355666 
L 146.917298 -253.820981 
L 146.997719 -255.286295 
L 147.062904 -256.75161 
L 147.115014 -258.216924 
L 147.156086 -259.682239 
L 147.398289 -259.682239 
L 147.398289 -259.682239 
L 147.439361 -258.216924 
L 147.491471 -256.75161 
L 147.556656 -255.286295 
L 147.637077 -253.820981 
L 147.734959 -252.355666 
L 147.852517 -250.890351 
L 147.991863 -249.425037 
L 148.154895 -247.959722 
L 148.343176 -246.494408 
L 148.557801 -245.029093 
L 148.799273 -243.563779 
L 149.067388 -242.098464 
L 149.36116 -240.63315 
L 149.678795 -239.167835 
L 150.017736 -237.70252 
L 150.374794 -236.237206 
L 150.746369 -234.771891 
L 151.128748 -233.306577 
L 151.51847 -231.841262 
L 151.912709 -230.375948 
L 152.309622 -228.910633 
L 152.708618 -227.445319 
L 153.110477 -225.980004 
L 153.517278 -224.514689 
L 153.932113 -223.049375 
L 154.358588 -221.58406 
L 154.800146 -220.118746 
L 155.259282 -218.653431 
L 155.736741 -217.188117 
L 156.230804 -215.722802 
L 156.736769 -214.257488 
L 157.246719 -212.792173 
L 157.749627 -211.326858 
L 158.231823 -209.861544 
L 158.677789 -208.396229 
L 159.071215 -206.930915 
L 159.396194 -205.4656 
L 159.638447 -204.000286 
L 159.786426 -202.534971 
L 159.832188 -201.069657 
L 159.771949 -199.604342 
L 159.606274 -198.139027 
L 159.339894 -196.673713 
L 158.981204 -195.208398 
L 158.541502 -193.743084 
L 158.03409 -192.277769 
L 157.473317 -190.812455 
L 156.873679 -189.34714 
L 156.249051 -187.881826 
L 155.61209 -186.416511 
L 154.973853 -184.951196 
L 154.343607 -183.485882 
L 153.728819 -182.020567 
L 153.135274 -180.555253 
L 152.567291 -179.089938 
L 152.027985 -177.624624 
L 151.519534 -176.159309 
L 151.043429 -174.693995 
L 150.600694 -173.22868 
L 150.192045 -171.763365 
L 149.818015 -170.298051 
L 149.479022 -168.832736 
L 149.175406 -167.367422 
L 148.907429 -165.902107 
L 148.675247 -164.436793 
L 148.47887 -162.971478 
L 148.318098 -161.506164 
L 148.192448 -160.040849 
L 148.101072 -158.575534 
L 148.042667 -157.11022 
L 148.015391 -155.644905 
L 148.016788 -154.179591 
L 148.043728 -152.714276 
L 148.092392 -151.248962 
L 148.158291 -149.783647 
L 148.236353 -148.318333 
L 148.321065 -146.853018 
L 148.406681 -145.387703 
L 148.48748 -143.922389 
L 148.558068 -142.457074 
L 148.613672 -140.99176 
L 148.650435 -139.526445 
L 148.665645 -138.061131 
L 148.657891 -136.595816 
L 148.627126 -135.130502 
L 148.574617 -133.665187 
L 148.502794 -132.199872 
L 148.415022 -130.734558 
L 148.315296 -129.269243 
L 148.207923 -127.803929 
L 148.097199 -126.338614 
L 147.987119 -124.8733 
L 147.881152 -123.407985 
L 147.782084 -121.942671 
L 147.691938 -120.477356 
L 147.61197 -119.012041 
L 147.542728 -117.546727 
L 147.484149 -116.081412 
L 147.43569 -114.616098 
z
" style="stroke: #717171"/>
    </defs>
    <g clip-path="url(#p4275d37da1)">
     <use xlink:href="#m7fdbfc363b" x="0" y="287.576011" style="fill: #c6d99e; stroke: #717171"/>
    </g>
   </g>
   <g id="FillBetweenPolyCollection_4">
    <defs>
     <path id="mac66765419" d="M 189.2384 -129.277866 
L 189.015975 -129.277866 
L 188.978147 -130.600291 
L 188.930482 -131.922716 
L 188.871475 -133.245142 
L 188.79971 -134.567567 
L 188.71397 -135.889992 
L 188.613353 -137.212417 
L 188.497383 -138.534843 
L 188.366116 -139.857268 
L 188.22022 -141.179693 
L 188.061013 -142.502119 
L 187.890464 -143.824544 
L 187.711137 -145.146969 
L 187.526087 -146.469395 
L 187.338709 -147.79182 
L 187.152558 -149.114245 
L 186.971151 -150.436671 
L 186.797768 -151.759096 
L 186.635286 -153.081521 
L 186.486042 -154.403947 
L 186.351747 -155.726372 
L 186.233457 -157.048797 
L 186.131575 -158.371223 
L 186.0459 -159.693648 
L 185.975669 -161.016073 
L 185.919607 -162.338499 
L 185.875946 -163.660924 
L 185.842406 -164.983349 
L 185.816164 -166.305775 
L 185.793785 -167.6282 
L 185.771173 -168.950625 
L 185.743556 -170.273051 
L 185.705535 -171.595476 
L 185.651212 -172.917901 
L 185.574436 -174.240327 
L 185.469125 -175.562752 
L 185.329672 -176.885177 
L 185.15138 -178.207603 
L 184.930889 -179.530028 
L 184.666526 -180.852453 
L 184.358546 -182.174879 
L 184.00922 -183.497304 
L 183.622743 -184.819729 
L 183.204979 -186.142155 
L 182.763066 -187.46458 
L 182.304919 -188.787005 
L 181.838699 -190.109431 
L 181.372306 -191.431856 
L 180.91296 -192.754281 
L 180.466912 -194.076707 
L 180.039317 -195.399132 
L 179.634274 -196.721557 
L 179.255008 -198.043983 
L 178.904164 -199.366408 
L 178.584158 -200.688833 
L 178.297521 -202.011259 
L 178.047179 -203.333684 
L 177.836626 -204.656109 
L 177.669948 -205.978535 
L 177.551699 -207.30096 
L 177.486627 -208.623385 
L 177.479288 -209.945811 
L 177.533602 -211.268236 
L 177.652385 -212.590661 
L 177.836949 -213.913087 
L 178.086798 -215.235512 
L 178.399467 -216.557937 
L 178.770529 -217.880363 
L 179.193773 -219.202788 
L 179.661519 -220.525213 
L 180.165052 -221.847639 
L 180.695105 -223.170064 
L 181.242358 -224.492489 
L 181.797887 -225.814915 
L 182.353529 -227.13734 
L 182.902139 -228.459765 
L 183.43773 -229.782191 
L 183.955492 -231.104616 
L 184.451732 -232.427041 
L 184.923742 -233.749467 
L 185.369629 -235.071892 
L 185.788155 -236.394317 
L 186.178574 -237.716743 
L 186.540517 -239.039168 
L 186.873904 -240.361593 
L 187.178894 -241.684019 
L 187.455861 -243.006444 
L 187.705393 -244.328869 
L 187.928294 -245.651295 
L 188.12559 -246.97372 
L 188.298525 -248.296145 
L 188.448544 -249.618571 
L 188.577272 -250.940996 
L 188.686476 -252.263421 
L 188.778017 -253.585847 
L 188.853806 -254.908272 
L 188.915753 -256.230697 
L 188.965718 -257.553123 
L 189.00547 -258.875548 
L 189.036654 -260.197973 
L 189.217721 -260.197973 
L 189.217721 -260.197973 
L 189.248905 -258.875548 
L 189.288657 -257.553123 
L 189.338622 -256.230697 
L 189.400569 -254.908272 
L 189.476358 -253.585847 
L 189.567899 -252.263421 
L 189.677103 -250.940996 
L 189.805831 -249.618571 
L 189.95585 -248.296145 
L 190.128785 -246.97372 
L 190.326081 -245.651295 
L 190.548982 -244.328869 
L 190.798514 -243.006444 
L 191.075481 -241.684019 
L 191.380471 -240.361593 
L 191.713858 -239.039168 
L 192.075801 -237.716743 
L 192.46622 -236.394317 
L 192.884746 -235.071892 
L 193.330633 -233.749467 
L 193.802643 -232.427041 
L 194.298883 -231.104616 
L 194.816645 -229.782191 
L 195.352236 -228.459765 
L 195.900846 -227.13734 
L 196.456488 -225.814915 
L 197.012017 -224.492489 
L 197.55927 -223.170064 
L 198.089323 -221.847639 
L 198.592856 -220.525213 
L 199.060602 -219.202788 
L 199.483846 -217.880363 
L 199.854908 -216.557937 
L 200.167577 -215.235512 
L 200.417426 -213.913087 
L 200.60199 -212.590661 
L 200.720773 -211.268236 
L 200.775087 -209.945811 
L 200.767748 -208.623385 
L 200.702676 -207.30096 
L 200.584427 -205.978535 
L 200.417749 -204.656109 
L 200.207196 -203.333684 
L 199.956854 -202.011259 
L 199.670217 -200.688833 
L 199.350211 -199.366408 
L 198.999367 -198.043983 
L 198.620101 -196.721557 
L 198.215058 -195.399132 
L 197.787463 -194.076707 
L 197.341415 -192.754281 
L 196.882069 -191.431856 
L 196.415676 -190.109431 
L 195.949456 -188.787005 
L 195.491309 -187.46458 
L 195.049396 -186.142155 
L 194.631632 -184.819729 
L 194.245155 -183.497304 
L 193.895829 -182.174879 
L 193.587849 -180.852453 
L 193.323486 -179.530028 
L 193.102995 -178.207603 
L 192.924703 -176.885177 
L 192.78525 -175.562752 
L 192.679939 -174.240327 
L 192.603163 -172.917901 
L 192.54884 -171.595476 
L 192.510819 -170.273051 
L 192.483202 -168.950625 
L 192.46059 -167.6282 
L 192.438211 -166.305775 
L 192.411969 -164.983349 
L 192.378429 -163.660924 
L 192.334768 -162.338499 
L 192.278706 -161.016073 
L 192.208475 -159.693648 
L 192.1228 -158.371223 
L 192.020918 -157.048797 
L 191.902628 -155.726372 
L 191.768333 -154.403947 
L 191.619089 -153.081521 
L 191.456607 -151.759096 
L 191.283224 -150.436671 
L 191.101817 -149.114245 
L 190.915666 -147.79182 
L 190.728288 -146.469395 
L 190.543238 -145.146969 
L 190.363911 -143.824544 
L 190.193362 -142.502119 
L 190.034155 -141.179693 
L 189.888259 -139.857268 
L 189.756992 -138.534843 
L 189.641022 -137.212417 
L 189.540405 -135.889992 
L 189.454665 -134.567567 
L 189.3829 -133.245142 
L 189.323893 -131.922716 
L 189.276228 -130.600291 
L 189.2384 -129.277866 
z
" style="stroke: #717171"/>
    </defs>
    <g clip-path="url(#p4275d37da1)">
     <use xlink:href="#mac66765419" x="0" y="287.576011" style="fill: #c6d99e; stroke: #717171"/>
    </g>
   </g>
   <g id="FillBetweenPolyCollection_5">
    <defs>
     <path id="m7609d0eb8c" d="M 231.049453 -95.156011 
L 230.904922 -95.156011 
L 230.881572 -96.781164 
L 230.853318 -98.406316 
L 230.820067 -100.031469 
L 230.78205 -101.656622 
L 230.739893 -103.281774 
L 230.694649 -104.906927 
L 230.647793 -106.53208 
L 230.601168 -108.157232 
L 230.556873 -109.782385 
L 230.517108 -111.407538 
L 230.483985 -113.032691 
L 230.459319 -114.657843 
L 230.444434 -116.282996 
L 230.439988 -117.908149 
L 230.445863 -119.533301 
L 230.461099 -121.158454 
L 230.483914 -122.783607 
L 230.511766 -124.408759 
L 230.541474 -126.033912 
L 230.569371 -127.659065 
L 230.59147 -129.284217 
L 230.603638 -130.90937 
L 230.601778 -132.534523 
L 230.582003 -134.159675 
L 230.540833 -135.784828 
L 230.475397 -137.409981 
L 230.383658 -139.035133 
L 230.264653 -140.660286 
L 230.11872 -142.285439 
L 229.947687 -143.910591 
L 229.754997 -145.535744 
L 229.545697 -147.160897 
L 229.326294 -148.786049 
L 229.104418 -150.411202 
L 228.888325 -152.036355 
L 228.686245 -153.661508 
L 228.505644 -155.28666 
L 228.352453 -156.911813 
L 228.23038 -158.536966 
L 228.140354 -160.162118 
L 228.080202 -161.787271 
L 228.044584 -163.412424 
L 228.025216 -165.037576 
L 228.011346 -166.662729 
L 227.990456 -168.287882 
L 227.949107 -169.913034 
L 227.873849 -171.538187 
L 227.752123 -173.16334 
L 227.573088 -174.788492 
L 227.328301 -176.413645 
L 227.012235 -178.038798 
L 226.622608 -179.66395 
L 226.160518 -181.289103 
L 225.630417 -182.914256 
L 225.039926 -184.539408 
L 224.39954 -186.164561 
L 223.722247 -187.789714 
L 223.0231 -189.414866 
L 222.318752 -191.040019 
L 221.626985 -192.665172 
L 220.966211 -194.290325 
L 220.354962 -195.915477 
L 219.811311 -197.54063 
L 219.352246 -199.165783 
L 218.992957 -200.790935 
L 218.746075 -202.416088 
L 218.620892 -204.041241 
L 218.62264 -205.666393 
L 218.751922 -207.291546 
L 219.004395 -208.916699 
L 219.370796 -210.541851 
L 219.837372 -212.167004 
L 220.386703 -213.792157 
L 220.998883 -215.417309 
L 221.65294 -217.042462 
L 222.328328 -218.667615 
L 223.006338 -220.292767 
L 223.671237 -221.91792 
L 224.311028 -223.543073 
L 224.917735 -225.168225 
L 225.487231 -226.793378 
L 226.018664 -228.418531 
L 226.513602 -230.043684 
L 226.975053 -231.668836 
L 227.406507 -233.293989 
L 227.811135 -234.919142 
L 228.191242 -236.544294 
L 228.548003 -238.169447 
L 228.88147 -239.7946 
L 229.190812 -241.419752 
L 229.474681 -243.044905 
L 229.731638 -244.670058 
L 229.960542 -246.29521 
L 230.160855 -247.920363 
L 230.332814 -249.545516 
L 230.477479 -251.170668 
L 230.596663 -252.795821 
L 230.692771 -254.420974 
L 230.768603 -256.046126 
L 231.185772 -256.046126 
L 231.185772 -256.046126 
L 231.261604 -254.420974 
L 231.357712 -252.795821 
L 231.476896 -251.170668 
L 231.621561 -249.545516 
L 231.79352 -247.920363 
L 231.993833 -246.29521 
L 232.222737 -244.670058 
L 232.479694 -243.044905 
L 232.763563 -241.419752 
L 233.072905 -239.7946 
L 233.406372 -238.169447 
L 233.763133 -236.544294 
L 234.14324 -234.919142 
L 234.547868 -233.293989 
L 234.979322 -231.668836 
L 235.440773 -230.043684 
L 235.935711 -228.418531 
L 236.467144 -226.793378 
L 237.03664 -225.168225 
L 237.643347 -223.543073 
L 238.283138 -221.91792 
L 238.948037 -220.292767 
L 239.626047 -218.667615 
L 240.301435 -217.042462 
L 240.955492 -215.417309 
L 241.567672 -213.792157 
L 242.117003 -212.167004 
L 242.583579 -210.541851 
L 242.94998 -208.916699 
L 243.202453 -207.291546 
L 243.331735 -205.666393 
L 243.333483 -204.041241 
L 243.2083 -202.416088 
L 242.961418 -200.790935 
L 242.602129 -199.165783 
L 242.143064 -197.54063 
L 241.599413 -195.915477 
L 240.988164 -194.290325 
L 240.32739 -192.665172 
L 239.635623 -191.040019 
L 238.931275 -189.414866 
L 238.232128 -187.789714 
L 237.554835 -186.164561 
L 236.914449 -184.539408 
L 236.323958 -182.914256 
L 235.793857 -181.289103 
L 235.331767 -179.66395 
L 234.94214 -178.038798 
L 234.626074 -176.413645 
L 234.381287 -174.788492 
L 234.202252 -173.16334 
L 234.080526 -171.538187 
L 234.005268 -169.913034 
L 233.963919 -168.287882 
L 233.943029 -166.662729 
L 233.929159 -165.037576 
L 233.909791 -163.412424 
L 233.874173 -161.787271 
L 233.814021 -160.162118 
L 233.723995 -158.536966 
L 233.601922 -156.911813 
L 233.448731 -155.28666 
L 233.26813 -153.661508 
L 233.06605 -152.036355 
L 232.849957 -150.411202 
L 232.628081 -148.786049 
L 232.408678 -147.160897 
L 232.199378 -145.535744 
L 232.006688 -143.910591 
L 231.835655 -142.285439 
L 231.689722 -140.660286 
L 231.570717 -139.035133 
L 231.478978 -137.409981 
L 231.413542 -135.784828 
L 231.372372 -134.159675 
L 231.352597 -132.534523 
L 231.350737 -130.90937 
L 231.362905 -129.284217 
L 231.385004 -127.659065 
L 231.412901 -126.033912 
L 231.442609 -124.408759 
L 231.470461 -122.783607 
L 231.493276 -121.158454 
L 231.508512 -119.533301 
L 231.514387 -117.908149 
L 231.509941 -116.282996 
L 231.495056 -114.657843 
L 231.47039 -113.032691 
L 231.437267 -111.407538 
L 231.397502 -109.782385 
L 231.353207 -108.157232 
L 231.306582 -106.53208 
L 231.259726 -104.906927 
L 231.214482 -103.281774 
L 231.172325 -101.656622 
L 231.134308 -100.031469 
L 231.101057 -98.406316 
L 231.072803 -96.781164 
L 231.049453 -95.156011 
z
" style="stroke: #717171"/>
    </defs>
    <g clip-path="url(#p4275d37da1)">
     <use xlink:href="#m7609d0eb8c" x="0" y="287.576011" style="fill: #c6d99e; stroke: #717171"/>
    </g>
   </g>
   <g id="FillBetweenPolyCollection_6">
    <defs>
     <path id="m952fa5f16f" d="M 272.975066 -113.300588 
L 272.679309 -113.300588 
L 272.63717 -114.899128 
L 272.586222 -116.497667 
L 272.525578 -118.096207 
L 272.454513 -119.694746 
L 272.372534 -121.293286 
L 272.27944 -122.891826 
L 272.175378 -124.490365 
L 272.060875 -126.088905 
L 271.93685 -127.687445 
L 271.804606 -129.285984 
L 271.665778 -130.884524 
L 271.522269 -132.483064 
L 271.376147 -134.081603 
L 271.229534 -135.680143 
L 271.084479 -137.278682 
L 270.942833 -138.877222 
L 270.806131 -140.475762 
L 270.675497 -142.074301 
L 270.551576 -143.672841 
L 270.434501 -145.271381 
L 270.323886 -146.86992 
L 270.218865 -148.46846 
L 270.118159 -150.066999 
L 270.020159 -151.665539 
L 269.923036 -153.264079 
L 269.824852 -154.862618 
L 269.723668 -156.461158 
L 269.617647 -158.059698 
L 269.505135 -159.658237 
L 269.384721 -161.256777 
L 269.255272 -162.855316 
L 269.115943 -164.453856 
L 268.966162 -166.052396 
L 268.805592 -167.650935 
L 268.634085 -169.249475 
L 268.451625 -170.848015 
L 268.258271 -172.446554 
L 268.054118 -174.045094 
L 267.839268 -175.643633 
L 267.613834 -177.242173 
L 267.37797 -178.840713 
L 267.131935 -180.439252 
L 266.876185 -182.037792 
L 266.611489 -183.636332 
L 266.339052 -185.234871 
L 266.060637 -186.833411 
L 265.778669 -188.43195 
L 265.496303 -190.03049 
L 265.217434 -191.62903 
L 264.946659 -193.227569 
L 264.689165 -194.826109 
L 264.45056 -196.424649 
L 264.236643 -198.023188 
L 264.053143 -199.621728 
L 263.90544 -201.220267 
L 263.79829 -202.818807 
L 263.735583 -204.417347 
L 263.720145 -206.015886 
L 263.753606 -207.614426 
L 263.836349 -209.212966 
L 263.967516 -210.811505 
L 264.145095 -212.410045 
L 264.366052 -214.008584 
L 264.626507 -215.607124 
L 264.92193 -217.205664 
L 265.247338 -218.804203 
L 265.597491 -220.402743 
L 265.967058 -222.001283 
L 266.350771 -223.599822 
L 266.74354 -225.198362 
L 267.140553 -226.796901 
L 267.537347 -228.395441 
L 267.929867 -229.993981 
L 268.314501 -231.59252 
L 268.688118 -233.19106 
L 269.048076 -234.7896 
L 269.392234 -236.388139 
L 269.718946 -237.986679 
L 270.02704 -239.585218 
L 270.315785 -241.183758 
L 270.58485 -242.782298 
L 270.834246 -244.380837 
L 271.064263 -245.979377 
L 271.275415 -247.577917 
L 271.46837 -249.176456 
L 271.643901 -250.774996 
L 271.802843 -252.373536 
L 271.946056 -253.972075 
L 272.074409 -255.570615 
L 272.188768 -257.169154 
L 272.289992 -258.767694 
L 272.37894 -260.366234 
L 272.456477 -261.964773 
L 272.523473 -263.563313 
L 272.580812 -265.161853 
L 272.629384 -266.760392 
L 272.670084 -268.358932 
L 272.703795 -269.957471 
L 272.731385 -271.556011 
L 272.92299 -271.556011 
L 272.92299 -271.556011 
L 272.95058 -269.957471 
L 272.984291 -268.358932 
L 273.024991 -266.760392 
L 273.073563 -265.161853 
L 273.130902 -263.563313 
L 273.197898 -261.964773 
L 273.275435 -260.366234 
L 273.364383 -258.767694 
L 273.465607 -257.169154 
L 273.579966 -255.570615 
L 273.708319 -253.972075 
L 273.851532 -252.373536 
L 274.010474 -250.774996 
L 274.186005 -249.176456 
L 274.37896 -247.577917 
L 274.590112 -245.979377 
L 274.820129 -244.380837 
L 275.069525 -242.782298 
L 275.33859 -241.183758 
L 275.627335 -239.585218 
L 275.935429 -237.986679 
L 276.262141 -236.388139 
L 276.606299 -234.7896 
L 276.966257 -233.19106 
L 277.339874 -231.59252 
L 277.724508 -229.993981 
L 278.117028 -228.395441 
L 278.513822 -226.796901 
L 278.910835 -225.198362 
L 279.303604 -223.599822 
L 279.687317 -222.001283 
L 280.056884 -220.402743 
L 280.407037 -218.804203 
L 280.732445 -217.205664 
L 281.027868 -215.607124 
L 281.288323 -214.008584 
L 281.50928 -212.410045 
L 281.686859 -210.811505 
L 281.818026 -209.212966 
L 281.900769 -207.614426 
L 281.93423 -206.015886 
L 281.918792 -204.417347 
L 281.856085 -202.818807 
L 281.748935 -201.220267 
L 281.601232 -199.621728 
L 281.417732 -198.023188 
L 281.203815 -196.424649 
L 280.96521 -194.826109 
L 280.707716 -193.227569 
L 280.436941 -191.62903 
L 280.158072 -190.03049 
L 279.875706 -188.43195 
L 279.593738 -186.833411 
L 279.315323 -185.234871 
L 279.042886 -183.636332 
L 278.77819 -182.037792 
L 278.52244 -180.439252 
L 278.276405 -178.840713 
L 278.040541 -177.242173 
L 277.815107 -175.643633 
L 277.600257 -174.045094 
L 277.396104 -172.446554 
L 277.20275 -170.848015 
L 277.02029 -169.249475 
L 276.848783 -167.650935 
L 276.688213 -166.052396 
L 276.538432 -164.453856 
L 276.399103 -162.855316 
L 276.269654 -161.256777 
L 276.14924 -159.658237 
L 276.036728 -158.059698 
L 275.930707 -156.461158 
L 275.829523 -154.862618 
L 275.731339 -153.264079 
L 275.634216 -151.665539 
L 275.536216 -150.066999 
L 275.43551 -148.46846 
L 275.330489 -146.86992 
L 275.219874 -145.271381 
L 275.102799 -143.672841 
L 274.978878 -142.074301 
L 274.848244 -140.475762 
L 274.711542 -138.877222 
L 274.569896 -137.278682 
L 274.424841 -135.680143 
L 274.278228 -134.081603 
L 274.132106 -132.483064 
L 273.988597 -130.884524 
L 273.849769 -129.285984 
L 273.717525 -127.687445 
L 273.5935 -126.088905 
L 273.478997 -124.490365 
L 273.374935 -122.891826 
L 273.281841 -121.293286 
L 273.199862 -119.694746 
L 273.128797 -118.096207 
L 273.068153 -116.497667 
L 273.017205 -114.899128 
L 272.975066 -113.300588 
z
" style="stroke: #717171"/>
    </defs>
    <g clip-path="url(#p4275d37da1)">
     <use xlink:href="#m952fa5f16f" x="0" y="287.576011" style="fill: #c6d99e; stroke: #717171"/>
    </g>
   </g>
   <g id="matplotlib.axis_1">
    <g id="xtick_1">
     <g id="line2d_1">
      <defs>
       <path id="m09339401a3" d="M 0 0 
L 0 3.5 
" style="stroke: #000000; stroke-width: 0.8"/>
      </defs>
      <g>
       <use xlink:href="#m09339401a3" x="63.577188" y="201.24" style="stroke: #000000; stroke-width: 0.8"/>
      </g>
     </g>
     <g id="text_1">
      <!-- $150K+ -->
      <g transform="translate(32.326161 243.879508) rotate(-45) scale(0.12 -0.12)">
       <defs>
        <path id="Arimo-Regular-24" d="M 1619 63 
Q 953 91 565 372 
Q 178 653 69 1184 
L 600 1300 
Q 678 928 926 740 
Q 1175 553 1619 525 
L 1619 2075 
Q 1434 2122 1289 2164 
Q 1144 2206 1036 2247 
Q 928 2288 856 2322 
Q 541 2488 405 2708 
Q 269 2928 269 3269 
Q 269 3753 620 4026 
Q 972 4300 1619 4328 
L 1619 4738 
L 2006 4738 
L 2006 4328 
Q 2397 4309 2665 4200 
Q 2934 4091 3103 3877 
Q 3272 3663 3359 3328 
L 2816 3225 
Q 2753 3519 2562 3683 
Q 2372 3847 2006 3881 
L 2006 2491 
Q 2284 2425 2484 2364 
Q 2684 2303 2803 2250 
Q 3159 2084 3307 1850 
Q 3456 1616 3456 1238 
Q 3456 722 3078 409 
Q 2700 97 2006 63 
L 2006 -444 
L 1619 -444 
L 1619 63 
z
M 806 3275 
Q 806 3088 884 2963 
Q 963 2834 1117 2746 
Q 1272 2659 1619 2572 
L 1619 3888 
Q 806 3844 806 3275 
z
M 2919 1231 
Q 2919 1434 2837 1565 
Q 2756 1697 2603 1784 
Q 2450 1869 2006 1984 
L 2006 522 
Q 2447 550 2683 731 
Q 2919 913 2919 1231 
z
" transform="scale(0.015625)"/>
        <path id="Arimo-Regular-31" d="M 3247 478 
L 3247 0 
L 488 0 
L 488 478 
L 1609 478 
L 1609 3866 
L 616 3156 
L 616 3688 
L 1656 4403 
L 2175 4403 
L 2175 478 
L 3247 478 
z
" transform="scale(0.015625)"/>
        <path id="Arimo-Regular-35" d="M 3291 1434 
Q 3291 738 2877 337 
Q 2463 -63 1728 -63 
Q 1113 -63 734 206 
Q 356 475 256 984 
L 825 1050 
Q 916 725 1144 561 
Q 1372 397 1741 397 
Q 2194 397 2450 670 
Q 2706 944 2706 1422 
Q 2706 1838 2448 2094 
Q 2191 2350 1753 2350 
Q 1525 2350 1328 2278 
Q 1131 2206 934 2034 
L 384 2034 
L 531 4403 
L 3034 4403 
L 3034 3925 
L 1044 3925 
L 959 2528 
Q 1325 2809 1869 2809 
Q 2303 2809 2622 2636 
Q 2941 2463 3116 2153 
Q 3291 1844 3291 1434 
z
" transform="scale(0.015625)"/>
        <path id="Arimo-Regular-30" d="M 3309 2203 
Q 3309 1100 2920 518 
Q 2531 -63 1772 -63 
Q 1013 -63 631 515 
Q 250 1094 250 2203 
Q 250 3338 620 3903 
Q 991 4469 1791 4469 
Q 2569 4469 2939 3897 
Q 3309 3325 3309 2203 
z
M 2738 2203 
Q 2738 2841 2642 3239 
Q 2547 3638 2337 3825 
Q 2128 4013 1791 4013 
Q 1447 4013 1231 3828 
Q 1016 3644 917 3245 
Q 819 2847 819 2203 
Q 819 1578 920 1178 
Q 1022 778 1234 587 
Q 1447 397 1778 397 
Q 2275 397 2506 840 
Q 2738 1284 2738 2203 
z
" transform="scale(0.015625)"/>
        <path id="Arimo-Regular-4b" d="M 1122 1688 
L 1122 0 
L 525 0 
L 525 4403 
L 1122 4403 
L 1122 2197 
L 3244 4403 
L 3947 4403 
L 2072 2491 
L 4197 0 
L 3456 0 
L 1697 2125 
L 1122 1688 
z
" transform="scale(0.015625)"/>
        <path id="Arimo-Regular-2b" d="M 2097 1900 
L 2097 563 
L 1638 563 
L 1638 1900 
L 313 1900 
L 313 2356 
L 1638 2356 
L 1638 3694 
L 2097 3694 
L 2097 2356 
L 3422 2356 
L 3422 1900 
L 2097 1900 
z
" transform="scale(0.015625)"/>
       </defs>
       <use xlink:href="#Arimo-Regular-24"/>
       <use xlink:href="#Arimo-Regular-31" transform="translate(55.615234 0)"/>
       <use xlink:href="#Arimo-Regular-35" transform="translate(111.230469 0)"/>
       <use xlink:href="#Arimo-Regular-30" transform="translate(166.845703 0)"/>
       <use xlink:href="#Arimo-Regular-4b" transform="translate(222.460938 0)"/>
       <use xlink:href="#Arimo-Regular-2b" transform="translate(289.160156 0)"/>
      </g>
     </g>
    </g>
    <g id="xtick_2">
     <g id="line2d_2">
      <g>
       <use xlink:href="#m09339401a3" x="105.427188" y="201.24" style="stroke: #000000; stroke-width: 0.8"/>
      </g>
     </g>
     <g id="text_2">
      <!-- $100K-149K -->
      <g transform="translate(56.490979 261.56469) rotate(-45) scale(0.12 -0.12)">
       <defs>
        <path id="Arimo-Regular-2d" d="M 1847 1950 
L 1847 1450 
L 284 1450 
L 284 1950 
L 1847 1950 
z
" transform="scale(0.015625)"/>
        <path id="Arimo-Regular-34" d="M 2753 997 
L 2753 0 
L 2222 0 
L 2222 997 
L 147 997 
L 147 1434 
L 2163 4403 
L 2753 4403 
L 2753 1441 
L 3372 1441 
L 3372 997 
L 2753 997 
z
M 666 1441 
L 2222 1441 
L 2222 3197 
Q 2222 3341 2223 3483 
Q 2225 3625 2234 3769 
Q 2163 3631 2109 3545 
Q 2056 3459 2013 3397 
L 666 1441 
z
" transform="scale(0.015625)"/>
        <path id="Arimo-Regular-39" d="M 3256 2291 
Q 3256 1156 2842 546 
Q 2428 -63 1663 -63 
Q 1147 -63 836 154 
Q 525 372 391 856 
L 928 941 
Q 1097 391 1672 391 
Q 2156 391 2422 841 
Q 2688 1291 2700 2125 
Q 2575 1844 2272 1673 
Q 1969 1503 1606 1503 
Q 1213 1503 919 1687 
Q 625 1872 462 2206 
Q 300 2541 300 2988 
Q 300 3678 687 4073 
Q 1075 4469 1766 4469 
Q 2500 4469 2878 3925 
Q 3256 3381 3256 2291 
z
M 2644 2834 
Q 2644 3366 2400 3689 
Q 2156 4013 1747 4013 
Q 1341 4013 1106 3736 
Q 872 3459 872 2988 
Q 872 2506 1106 2226 
Q 1341 1947 1741 1947 
Q 1984 1947 2189 2059 
Q 2394 2172 2519 2373 
Q 2644 2575 2644 2834 
z
" transform="scale(0.015625)"/>
       </defs>
       <use xlink:href="#Arimo-Regular-24"/>
       <use xlink:href="#Arimo-Regular-31" transform="translate(55.615234 0)"/>
       <use xlink:href="#Arimo-Regular-30" transform="translate(111.230469 0)"/>
       <use xlink:href="#Arimo-Regular-30" transform="translate(166.845703 0)"/>
       <use xlink:href="#Arimo-Regular-4b" transform="translate(222.460938 0)"/>
       <use xlink:href="#Arimo-Regular-2d" transform="translate(289.160156 0)"/>
       <use xlink:href="#Arimo-Regular-31" transform="translate(322.460938 0)"/>
       <use xlink:href="#Arimo-Regular-34" transform="translate(378.076172 0)"/>
       <use xlink:href="#Arimo-Regular-39" transform="translate(433.691406 0)"/>
       <use xlink:href="#Arimo-Regular-4b" transform="translate(489.306641 0)"/>
      </g>
     </g>
    </g>
    <g id="xtick_3">
     <g id="line2d_3">
      <g>
       <use xlink:href="#m09339401a3" x="147.277188" y="201.24" style="stroke: #000000; stroke-width: 0.8"/>
      </g>
     </g>
     <g id="text_3">
      <!-- $75K-99K -->
      <g transform="translate(107.778203 252.127466) rotate(-45) scale(0.12 -0.12)">
       <defs>
        <path id="Arimo-Regular-37" d="M 3238 3947 
Q 2900 3431 2661 3028 
Q 2422 2625 2284 2331 
Q 2006 1747 1867 1178 
Q 1728 609 1728 0 
L 1141 0 
Q 1141 438 1231 889 
Q 1322 1341 1522 1838 
Q 1709 2303 1998 2820 
Q 2288 3338 2694 3925 
L 328 3925 
L 328 4403 
L 3238 4403 
L 3238 3947 
z
" transform="scale(0.015625)"/>
       </defs>
       <use xlink:href="#Arimo-Regular-24"/>
       <use xlink:href="#Arimo-Regular-37" transform="translate(55.615234 0)"/>
       <use xlink:href="#Arimo-Regular-35" transform="translate(111.230469 0)"/>
       <use xlink:href="#Arimo-Regular-4b" transform="translate(166.845703 0)"/>
       <use xlink:href="#Arimo-Regular-2d" transform="translate(233.544922 0)"/>
       <use xlink:href="#Arimo-Regular-39" transform="translate(266.845703 0)"/>
       <use xlink:href="#Arimo-Regular-39" transform="translate(322.460938 0)"/>
       <use xlink:href="#Arimo-Regular-4b" transform="translate(378.076172 0)"/>
      </g>
     </g>
    </g>
    <g id="xtick_4">
     <g id="line2d_4">
      <g>
       <use xlink:href="#m09339401a3" x="189.127188" y="201.24" style="stroke: #000000; stroke-width: 0.8"/>
      </g>
     </g>
     <g id="text_4">
      <!-- $50K-74K -->
      <g transform="translate(149.628203 252.127466) rotate(-45) scale(0.12 -0.12)">
       <use xlink:href="#Arimo-Regular-24"/>
       <use xlink:href="#Arimo-Regular-35" transform="translate(55.615234 0)"/>
       <use xlink:href="#Arimo-Regular-30" transform="translate(111.230469 0)"/>
       <use xlink:href="#Arimo-Regular-4b" transform="translate(166.845703 0)"/>
       <use xlink:href="#Arimo-Regular-2d" transform="translate(233.544922 0)"/>
       <use xlink:href="#Arimo-Regular-37" transform="translate(266.845703 0)"/>
       <use xlink:href="#Arimo-Regular-34" transform="translate(322.460938 0)"/>
       <use xlink:href="#Arimo-Regular-4b" transform="translate(378.076172 0)"/>
      </g>
     </g>
    </g>
    <g id="xtick_5">
     <g id="line2d_5">
      <g>
       <use xlink:href="#m09339401a3" x="230.977188" y="201.24" style="stroke: #000000; stroke-width: 0.8"/>
      </g>
     </g>
     <g id="text_5">
      <!-- $25K-49K -->
      <g transform="translate(191.478203 252.127466) rotate(-45) scale(0.12 -0.12)">
       <defs>
        <path id="Arimo-Regular-32" d="M 3238 478 
L 3238 0 
L 322 0 
L 322 397 
Q 481 763 707 1044 
Q 934 1325 1190 1550 
Q 1447 1775 1697 1969 
Q 1822 2066 1933 2162 
Q 2044 2259 2144 2356 
Q 2344 2550 2467 2762 
Q 2591 2975 2591 3244 
Q 2591 3606 2378 3806 
Q 2166 4006 1788 4006 
Q 1428 4006 1195 3811 
Q 963 3616 922 3263 
L 347 3316 
Q 409 3844 795 4156 
Q 1181 4469 1788 4469 
Q 2453 4469 2811 4155 
Q 3169 3841 3169 3263 
Q 3169 3006 3051 2753 
Q 2934 2500 2703 2247 
Q 2588 2122 2366 1925 
Q 2144 1728 1819 1463 
Q 1459 1169 1246 933 
Q 1034 697 941 478 
L 3238 478 
z
" transform="scale(0.015625)"/>
       </defs>
       <use xlink:href="#Arimo-Regular-24"/>
       <use xlink:href="#Arimo-Regular-32" transform="translate(55.615234 0)"/>
       <use xlink:href="#Arimo-Regular-35" transform="translate(111.230469 0)"/>
       <use xlink:href="#Arimo-Regular-4b" transform="translate(166.845703 0)"/>
       <use xlink:href="#Arimo-Regular-2d" transform="translate(233.544922 0)"/>
       <use xlink:href="#Arimo-Regular-34" transform="translate(266.845703 0)"/>
       <use xlink:href="#Arimo-Regular-39" transform="translate(322.460938 0)"/>
       <use xlink:href="#Arimo-Regular-4b" transform="translate(378.076172 0)"/>
      </g>
     </g>
    </g>
    <g id="xtick_6">
     <g id="line2d_6">
      <g>
       <use xlink:href="#m09339401a3" x="272.827188" y="201.24" style="stroke: #000000; stroke-width: 0.8"/>
      </g>
     </g>
     <g id="text_6">
      <!-- &lt;$25K -->
      <g transform="translate(246.294773 239.160896) rotate(-45) scale(0.12 -0.12)">
       <defs>
        <path id="Arimo-Regular-3c" d="M 3425 959 
L 3425 481 
L 316 1784 
L 316 2425 
L 3425 3731 
L 3425 3250 
L 744 2106 
L 3425 959 
z
" transform="scale(0.015625)"/>
       </defs>
       <use xlink:href="#Arimo-Regular-3c"/>
       <use xlink:href="#Arimo-Regular-24" transform="translate(58.398438 0)"/>
       <use xlink:href="#Arimo-Regular-32" transform="translate(114.013672 0)"/>
       <use xlink:href="#Arimo-Regular-35" transform="translate(169.628906 0)"/>
       <use xlink:href="#Arimo-Regular-4b" transform="translate(225.244141 0)"/>
      </g>
     </g>
    </g>
    <g id="text_7">
     <!-- Income -->
     <g transform="translate(145.24875 277.471011) scale(0.14 -0.14)">
      <defs>
       <path id="Arimo-Regular-49" d="M 1188 4403 
L 1188 0 
L 591 0 
L 591 4403 
L 1188 4403 
z
" transform="scale(0.015625)"/>
       <path id="Arimo-Regular-6e" d="M 1006 1959 
L 1006 0 
L 444 0 
L 444 2659 
Q 444 2956 439 3136 
Q 434 3316 425 3381 
L 956 3381 
Q 963 3322 967 3231 
Q 972 3141 975 3031 
Q 978 2922 981 2803 
L 991 2803 
Q 1184 3153 1439 3298 
Q 1694 3444 2072 3444 
Q 2628 3444 2886 3159 
Q 3144 2875 3144 2253 
L 3144 0 
L 2578 0 
L 2578 2144 
Q 2578 2628 2422 2818 
Q 2266 3009 1881 3009 
Q 1475 3009 1240 2731 
Q 1006 2453 1006 1959 
z
" transform="scale(0.015625)"/>
       <path id="Arimo-Regular-63" d="M 1728 -63 
Q 1019 -63 645 385 
Q 272 834 272 1694 
Q 272 2547 647 2995 
Q 1022 3444 1722 3444 
Q 2241 3444 2583 3175 
Q 2925 2906 3013 2434 
L 2434 2391 
Q 2391 2672 2212 2837 
Q 2034 3003 1706 3003 
Q 1259 3003 1059 2706 
Q 859 2409 859 1706 
Q 859 1031 1071 706 
Q 1284 381 1713 381 
Q 2013 381 2214 543 
Q 2416 706 2463 1044 
L 3031 1006 
Q 2988 681 2814 440 
Q 2641 200 2364 68 
Q 2088 -63 1728 -63 
z
" transform="scale(0.015625)"/>
       <path id="Arimo-Regular-6f" d="M 3291 1694 
Q 3291 806 2900 371 
Q 2509 -63 1766 -63 
Q 1025 -63 647 389 
Q 269 841 269 1694 
Q 269 2569 648 3006 
Q 1028 3444 1784 3444 
Q 2559 3444 2925 3017 
Q 3291 2591 3291 1694 
z
M 2700 1694 
Q 2700 2394 2492 2711 
Q 2284 3028 1794 3028 
Q 1300 3028 1079 2704 
Q 859 2381 859 1694 
Q 859 1025 1076 689 
Q 1294 353 1759 353 
Q 2266 353 2483 678 
Q 2700 1003 2700 1694 
z
" transform="scale(0.015625)"/>
       <path id="Arimo-Regular-6d" d="M 1003 1959 
L 1003 0 
L 444 0 
L 444 2659 
Q 444 2956 439 3136 
Q 434 3316 425 3381 
L 956 3381 
Q 963 3313 969 3213 
Q 975 3113 978 3005 
Q 981 2897 981 2803 
L 991 2803 
Q 1172 3163 1406 3303 
Q 1641 3444 1978 3444 
Q 2363 3444 2586 3291 
Q 2809 3138 2897 2803 
L 2906 2803 
Q 3081 3144 3329 3294 
Q 3578 3444 3931 3444 
Q 4444 3444 4676 3166 
Q 4909 2888 4909 2253 
L 4909 0 
L 4353 0 
L 4353 2144 
Q 4353 2634 4218 2821 
Q 4084 3009 3734 3009 
Q 3366 3009 3161 2736 
Q 2956 2463 2956 1959 
L 2956 0 
L 2400 0 
L 2400 2144 
Q 2400 2634 2265 2821 
Q 2131 3009 1781 3009 
Q 1422 3009 1212 2734 
Q 1003 2459 1003 1959 
z
" transform="scale(0.015625)"/>
       <path id="Arimo-Regular-65" d="M 863 1572 
Q 863 991 1103 675 
Q 1344 359 1806 359 
Q 2172 359 2392 506 
Q 2613 653 2691 878 
L 3184 738 
Q 2881 -63 1806 -63 
Q 1056 -63 664 384 
Q 272 831 272 1713 
Q 272 2550 664 2997 
Q 1056 3444 1784 3444 
Q 2531 3444 2903 2994 
Q 3275 2544 3275 1647 
L 3275 1572 
L 863 1572 
z
M 2694 2003 
Q 2647 2538 2422 2783 
Q 2197 3028 1775 3028 
Q 1366 3028 1127 2754 
Q 888 2481 869 2003 
L 2694 2003 
z
" transform="scale(0.015625)"/>
      </defs>
      <use xlink:href="#Arimo-Regular-49"/>
      <use xlink:href="#Arimo-Regular-6e" transform="translate(27.783203 0)"/>
      <use xlink:href="#Arimo-Regular-63" transform="translate(83.398438 0)"/>
      <use xlink:href="#Arimo-Regular-6f" transform="translate(133.398438 0)"/>
      <use xlink:href="#Arimo-Regular-6d" transform="translate(189.013672 0)"/>
      <use xlink:href="#Arimo-Regular-65" transform="translate(272.314453 0)"/>
     </g>
    </g>
   </g>
   <g id="matplotlib.axis_2">
    <g id="ytick_1">
     <g id="line2d_7">
      <defs>
       <path id="me7acc7f1b1" d="M 0 0 
L -3.5 0 
" style="stroke: #000000; stroke-width: 0.8"/>
      </defs>
      <g>
       <use xlink:href="#me7acc7f1b1" x="42.652188" y="178.623974" style="stroke: #000000; stroke-width: 0.8"/>
      </g>
     </g>
     <g id="text_8">
      <!-- −4 -->
      <g transform="translate(24.250625 182.247412) scale(0.1 -0.1)">
       <defs>
        <path id="Arimo-Regular-2212" d="M 3425 2356 
L 3425 1900 
L 316 1900 
L 316 2356 
L 3425 2356 
z
" transform="scale(0.015625)"/>
       </defs>
       <use xlink:href="#Arimo-Regular-2212"/>
       <use xlink:href="#Arimo-Regular-34" transform="translate(58.398438 0)"/>
      </g>
     </g>
    </g>
    <g id="ytick_2">
     <g id="line2d_8">
      <g>
       <use xlink:href="#me7acc7f1b1" x="42.652188" y="145.629404" style="stroke: #000000; stroke-width: 0.8"/>
      </g>
     </g>
     <g id="text_9">
      <!-- −2 -->
      <g transform="translate(24.250625 149.252841) scale(0.1 -0.1)">
       <use xlink:href="#Arimo-Regular-2212"/>
       <use xlink:href="#Arimo-Regular-32" transform="translate(58.398438 0)"/>
      </g>
     </g>
    </g>
    <g id="ytick_3">
     <g id="line2d_9">
      <g>
       <use xlink:href="#me7acc7f1b1" x="42.652188" y="112.634834" style="stroke: #000000; stroke-width: 0.8"/>
      </g>
     </g>
     <g id="text_10">
      <!-- 0 -->
      <g transform="translate(30.09125 116.258271) scale(0.1 -0.1)">
       <use xlink:href="#Arimo-Regular-30"/>
      </g>
     </g>
    </g>
    <g id="ytick_4">
     <g id="line2d_10">
      <g>
       <use xlink:href="#me7acc7f1b1" x="42.652188" y="79.640264" style="stroke: #000000; stroke-width: 0.8"/>
      </g>
     </g>
     <g id="text_11">
      <!-- 2 -->
      <g transform="translate(30.09125 83.263701) scale(0.1 -0.1)">
       <use xlink:href="#Arimo-Regular-32"/>
      </g>
     </g>
    </g>
    <g id="ytick_5">
     <g id="line2d_11">
      <g>
       <use xlink:href="#me7acc7f1b1" x="42.652188" y="46.645693" style="stroke: #000000; stroke-width: 0.8"/>
      </g>
     </g>
     <g id="text_12">
      <!-- 4 -->
      <g transform="translate(30.09125 50.269131) scale(0.1 -0.1)">
       <use xlink:href="#Arimo-Regular-34"/>
      </g>
     </g>
    </g>
    <g id="ytick_6">
     <g id="line2d_12">
      <g>
       <use xlink:href="#me7acc7f1b1" x="42.652188" y="13.651123" style="stroke: #000000; stroke-width: 0.8"/>
      </g>
     </g>
     <g id="text_13">
      <!-- 6 -->
      <g transform="translate(30.09125 17.274561) scale(0.1 -0.1)">
       <defs>
        <path id="Arimo-Regular-36" d="M 3278 1441 
Q 3278 744 2900 340 
Q 2522 -63 1856 -63 
Q 1113 -63 719 490 
Q 325 1044 325 2100 
Q 325 3244 734 3856 
Q 1144 4469 1900 4469 
Q 2400 4469 2714 4244 
Q 3028 4019 3156 3572 
L 2619 3475 
Q 2456 4013 1894 4013 
Q 1413 4013 1148 3564 
Q 884 3116 884 2266 
Q 1038 2550 1316 2698 
Q 1594 2847 1953 2847 
Q 2563 2847 2920 2465 
Q 3278 2084 3278 1441 
z
M 2706 1416 
Q 2706 1894 2472 2153 
Q 2238 2413 1819 2413 
Q 1425 2413 1183 2183 
Q 941 1953 941 1550 
Q 941 1213 1056 950 
Q 1172 688 1373 539 
Q 1575 391 1838 391 
Q 2244 391 2475 664 
Q 2706 938 2706 1416 
z
" transform="scale(0.015625)"/>
       </defs>
       <use xlink:href="#Arimo-Regular-36"/>
      </g>
     </g>
    </g>
    <g id="text_14">
     <!-- Willingness To Help -->
     <g transform="translate(17.345625 166.072656) rotate(-90) scale(0.14 -0.14)">
      <defs>
       <path id="Arimo-Regular-57" d="M 2803 2781 
L 2038 0 
L 1325 0 
L 28 4403 
L 650 4403 
L 1441 1606 
Q 1513 1344 1577 1073 
Q 1641 803 1700 525 
Q 1725 641 1767 830 
Q 1809 1019 1856 1216 
Q 1903 1413 1941 1547 
L 2741 4403 
L 3313 4403 
L 4078 1663 
Q 4166 1328 4234 1042 
Q 4303 756 4353 525 
Q 4400 709 4451 923 
Q 4503 1138 4548 1314 
Q 4594 1491 4613 1566 
L 5397 4403 
L 6019 4403 
L 4722 0 
L 4009 0 
L 3247 2797 
Q 3209 2928 3154 3162 
Q 3100 3397 3028 3738 
Q 3000 3572 2954 3380 
Q 2909 3188 2867 3025 
Q 2825 2863 2803 2781 
z
" transform="scale(0.015625)"/>
       <path id="Arimo-Regular-69" d="M 991 4638 
L 991 4100 
L 428 4100 
L 428 4638 
L 991 4638 
z
M 991 3381 
L 991 0 
L 428 0 
L 428 3381 
L 991 3381 
z
" transform="scale(0.015625)"/>
       <path id="Arimo-Regular-6c" d="M 994 4638 
L 994 0 
L 431 0 
L 431 4638 
L 994 4638 
z
" transform="scale(0.015625)"/>
       <path id="Arimo-Regular-67" d="M 1713 -1328 
Q 1159 -1328 831 -1111 
Q 503 -894 409 -494 
L 975 -413 
Q 1031 -647 1223 -773 
Q 1416 -900 1728 -900 
Q 2147 -900 2358 -653 
Q 2569 -406 2569 84 
L 2569 628 
L 2563 628 
Q 2403 303 2125 139 
Q 1847 -25 1475 -25 
Q 853 -25 561 387 
Q 269 800 269 1684 
Q 269 2581 583 3007 
Q 897 3434 1538 3434 
Q 1897 3434 2161 3270 
Q 2425 3106 2569 2803 
L 2575 2803 
Q 2575 2866 2581 2998 
Q 2588 3131 2597 3250 
Q 2606 3369 2613 3381 
L 3147 3381 
Q 3128 3213 3128 2681 
L 3128 97 
Q 3128 -616 2775 -972 
Q 2422 -1328 1713 -1328 
z
M 2569 1691 
Q 2569 2306 2317 2661 
Q 2066 3016 1675 3016 
Q 1244 3016 1047 2703 
Q 850 2391 850 1691 
Q 850 997 1034 694 
Q 1219 391 1666 391 
Q 2066 391 2317 739 
Q 2569 1088 2569 1691 
z
" transform="scale(0.015625)"/>
       <path id="Arimo-Regular-73" d="M 2969 934 
Q 2969 456 2608 196 
Q 2247 -63 1597 -63 
Q 966 -63 623 145 
Q 281 353 178 794 
L 675 891 
Q 747 619 972 492 
Q 1197 366 1597 366 
Q 2025 366 2223 497 
Q 2422 628 2422 891 
Q 2422 1091 2284 1216 
Q 2147 1341 1841 1422 
Q 1478 1519 1264 1581 
Q 1050 1644 934 1689 
Q 819 1734 750 1775 
Q 544 1894 428 2066 
Q 313 2238 313 2488 
Q 313 2950 642 3192 
Q 972 3434 1603 3434 
Q 2163 3434 2492 3237 
Q 2822 3041 2909 2606 
L 2403 2544 
Q 2356 2769 2151 2889 
Q 1947 3009 1603 3009 
Q 1222 3009 1040 2893 
Q 859 2778 859 2544 
Q 859 2372 962 2261 
Q 1066 2150 1356 2078 
Q 1747 1984 2100 1873 
Q 2453 1763 2606 1653 
Q 2784 1525 2876 1351 
Q 2969 1178 2969 934 
z
" transform="scale(0.015625)"/>
       <path id="Arimo-Regular-20" transform="scale(0.015625)"/>
       <path id="Arimo-Regular-54" d="M 2250 3916 
L 2250 0 
L 1656 0 
L 1656 3916 
L 144 3916 
L 144 4403 
L 3763 4403 
L 3763 3916 
L 2250 3916 
z
" transform="scale(0.015625)"/>
       <path id="Arimo-Regular-48" d="M 1122 2041 
L 1122 0 
L 525 0 
L 525 4403 
L 1122 4403 
L 1122 2541 
L 3503 2541 
L 3503 4403 
L 4100 4403 
L 4100 0 
L 3503 0 
L 3503 2041 
L 1122 2041 
z
" transform="scale(0.015625)"/>
       <path id="Arimo-Regular-70" d="M 3291 1706 
Q 3291 822 2980 379 
Q 2669 -63 2047 -63 
Q 1266 -63 997 525 
L 981 525 
Q 994 503 994 -6 
L 994 -1328 
L 431 -1328 
L 431 2691 
Q 431 2950 426 3123 
Q 422 3297 413 3381 
L 956 3381 
Q 959 3369 967 3259 
Q 975 3150 981 3023 
Q 988 2897 988 2838 
L 1000 2838 
Q 1150 3150 1397 3295 
Q 1644 3441 2047 3441 
Q 2672 3441 2981 3022 
Q 3291 2603 3291 1706 
z
M 2700 1694 
Q 2700 2400 2509 2703 
Q 2319 3006 1903 3006 
Q 1441 3006 1217 2686 
Q 994 2366 994 1650 
Q 994 984 1206 668 
Q 1419 353 1897 353 
Q 2316 353 2508 661 
Q 2700 969 2700 1694 
z
" transform="scale(0.015625)"/>
      </defs>
      <use xlink:href="#Arimo-Regular-57"/>
      <use xlink:href="#Arimo-Regular-69" transform="translate(94.384766 0)"/>
      <use xlink:href="#Arimo-Regular-6c" transform="translate(116.601562 0)"/>
      <use xlink:href="#Arimo-Regular-6c" transform="translate(138.818359 0)"/>
      <use xlink:href="#Arimo-Regular-69" transform="translate(161.035156 0)"/>
      <use xlink:href="#Arimo-Regular-6e" transform="translate(183.251953 0)"/>
      <use xlink:href="#Arimo-Regular-67" transform="translate(238.867188 0)"/>
      <use xlink:href="#Arimo-Regular-6e" transform="translate(294.482422 0)"/>
      <use xlink:href="#Arimo-Regular-65" transform="translate(350.097656 0)"/>
      <use xlink:href="#Arimo-Regular-73" transform="translate(405.712891 0)"/>
      <use xlink:href="#Arimo-Regular-73" transform="translate(455.712891 0)"/>
      <use xlink:href="#Arimo-Regular-20" transform="translate(505.712891 0)"/>
      <use xlink:href="#Arimo-Regular-54" transform="translate(533.496094 0)"/>
      <use xlink:href="#Arimo-Regular-6f" transform="translate(594.580078 0)"/>
      <use xlink:href="#Arimo-Regular-20" transform="translate(650.195312 0)"/>
      <use xlink:href="#Arimo-Regular-48" transform="translate(677.978516 0)"/>
      <use xlink:href="#Arimo-Regular-65" transform="translate(750.195312 0)"/>
      <use xlink:href="#Arimo-Regular-6c" transform="translate(805.810547 0)"/>
      <use xlink:href="#Arimo-Regular-70" transform="translate(828.027344 0)"/>
     </g>
    </g>
   </g>
   <g id="line2d_13">
    <path d="M 63.577188 126.492553 
L 63.577188 47.965476 
" clip-path="url(#p4275d37da1)" style="fill: none; stroke: #717171; stroke-width: 1.5; stroke-linecap: square"/>
   </g>
   <g id="line2d_14">
    <path d="M 63.577188 100.756788 
L 63.577188 73.041349 
" clip-path="url(#p4275d37da1)" style="fill: none; stroke: #717171; stroke-width: 4.5; stroke-linecap: square"/>
   </g>
   <g id="line2d_15">
    <path d="M 63.577188 87.55896 
" clip-path="url(#p4275d37da1)" style="fill: none; stroke: #717171; stroke-width: 1.5; stroke-linecap: square"/>
    <defs>
     <path id="mf8bcfc8396" d="M 1.875 0 
L -1.875 -0 
" style="stroke: #ffffff; stroke-width: 0.9"/>
    </defs>
    <g clip-path="url(#p4275d37da1)">
     <use xlink:href="#mf8bcfc8396" x="63.577188" y="87.55896" style="fill: #ffffff; stroke: #ffffff; stroke-width: 0.9"/>
    </g>
   </g>
   <g id="line2d_16">
    <path d="M 105.427188 128.472227 
L 105.427188 49.285259 
" clip-path="url(#p4275d37da1)" style="fill: none; stroke: #717171; stroke-width: 1.5; stroke-linecap: square"/>
   </g>
   <g id="line2d_17">
    <path d="M 105.427188 93.497983 
L 105.427188 69.876564 
" clip-path="url(#p4275d37da1)" style="fill: none; stroke: #717171; stroke-width: 4.5; stroke-linecap: square"/>
   </g>
   <g id="line2d_18">
    <path d="M 105.427188 88.218852 
" clip-path="url(#p4275d37da1)" style="fill: none; stroke: #717171; stroke-width: 1.5; stroke-linecap: square"/>
    <g clip-path="url(#p4275d37da1)">
     <use xlink:href="#mf8bcfc8396" x="105.427188" y="88.218852" style="fill: #ffffff; stroke: #ffffff; stroke-width: 0.9"/>
    </g>
   </g>
   <g id="line2d_19">
    <path d="M 147.277188 115.274399 
L 147.277188 49.94515 
" clip-path="url(#p4275d37da1)" style="fill: none; stroke: #717171; stroke-width: 1.5; stroke-linecap: square"/>
   </g>
   <g id="line2d_20">
    <path d="M 147.277188 96.962413 
L 147.277188 75.680915 
" clip-path="url(#p4275d37da1)" style="fill: none; stroke: #717171; stroke-width: 4.5; stroke-linecap: square"/>
   </g>
   <g id="line2d_21">
    <path d="M 147.277188 86.373849 
" clip-path="url(#p4275d37da1)" style="fill: none; stroke: #717171; stroke-width: 1.5; stroke-linecap: square"/>
    <g clip-path="url(#p4275d37da1)">
     <use xlink:href="#mf8bcfc8396" x="147.277188" y="86.373849" style="fill: #ffffff; stroke: #ffffff; stroke-width: 0.9"/>
    </g>
   </g>
   <g id="line2d_22">
    <path d="M 189.127188 133.751359 
L 189.127188 47.305585 
" clip-path="url(#p4275d37da1)" style="fill: none; stroke: #717171; stroke-width: 1.5; stroke-linecap: square"/>
   </g>
   <g id="line2d_23">
    <path d="M 189.127188 96.79744 
L 189.127188 71.391621 
" clip-path="url(#p4275d37da1)" style="fill: none; stroke: #717171; stroke-width: 4.5; stroke-linecap: square"/>
   </g>
   <g id="line2d_24">
    <path d="M 189.127188 80.960046 
" clip-path="url(#p4275d37da1)" style="fill: none; stroke: #717171; stroke-width: 1.5; stroke-linecap: square"/>
    <g clip-path="url(#p4275d37da1)">
     <use xlink:href="#mf8bcfc8396" x="189.127188" y="80.960046" style="fill: #ffffff; stroke: #ffffff; stroke-width: 0.9"/>
    </g>
   </g>
   <g id="line2d_25">
    <path d="M 230.977188 122.533205 
L 230.977188 53.904499 
" clip-path="url(#p4275d37da1)" style="fill: none; stroke: #717171; stroke-width: 1.5; stroke-linecap: square"/>
   </g>
   <g id="line2d_26">
    <path d="M 230.977188 95.477657 
L 230.977188 77.000698 
" clip-path="url(#p4275d37da1)" style="fill: none; stroke: #717171; stroke-width: 4.5; stroke-linecap: square"/>
   </g>
   <g id="line2d_27">
    <path d="M 230.977188 84.259503 
" clip-path="url(#p4275d37da1)" style="fill: none; stroke: #717171; stroke-width: 1.5; stroke-linecap: square"/>
    <g clip-path="url(#p4275d37da1)">
     <use xlink:href="#mf8bcfc8396" x="230.977188" y="84.259503" style="fill: #ffffff; stroke: #ffffff; stroke-width: 0.9"/>
    </g>
   </g>
   <g id="line2d_28">
    <path d="M 272.827188 147.609078 
L 272.827188 42.686345 
" clip-path="url(#p4275d37da1)" style="fill: none; stroke: #717171; stroke-width: 1.5; stroke-linecap: square"/>
   </g>
   <g id="line2d_29">
    <path d="M 272.827188 105.046083 
L 272.827188 72.876377 
" clip-path="url(#p4275d37da1)" style="fill: none; stroke: #717171; stroke-width: 4.5; stroke-linecap: square"/>
   </g>
   <g id="line2d_30">
    <path d="M 272.827188 84.919395 
" clip-path="url(#p4275d37da1)" style="fill: none; stroke: #717171; stroke-width: 1.5; stroke-linecap: square"/>
    <g clip-path="url(#p4275d37da1)">
     <use xlink:href="#mf8bcfc8396" x="272.827188" y="84.919395" style="fill: #ffffff; stroke: #ffffff; stroke-width: 0.9"/>
    </g>
   </g>
   <g id="patch_3">
    <path d="M 42.652188 201.24 
L 42.652188 7.2 
" style="fill: none; stroke: #000000; stroke-width: 0.8; stroke-linejoin: miter; stroke-linecap: square"/>
   </g>
   <g id="patch_4">
    <path d="M 42.652188 201.24 
L 293.752187 201.24 
" style="fill: none; stroke: #000000; stroke-width: 0.8; stroke-linejoin: miter; stroke-linecap: square"/>
   </g>
  </g>
 </g>
 <defs>
  <clipPath id="p4275d37da1">
   <rect x="42.652188" y="7.2" width="251.1" height="194.04"/>
  </clipPath>
 </defs>
</svg>
