<?xml version="1.0" encoding="utf-8" standalone="no"?>
<!DOCTYPE svg PUBLIC "-//W3C//DTD SVG 1.1//EN"
  "http://www.w3.org/Graphics/SVG/1.1/DTD/svg11.dtd">
<svg xmlns:xlink="http://www.w3.org/1999/xlink" width="244.0825pt" height="208.556875pt" viewBox="0 0 244.0825 208.556875" xmlns="http://www.w3.org/2000/svg" version="1.1">
 <metadata>
  <rdf:RDF xmlns:dc="http://purl.org/dc/elements/1.1/" xmlns:cc="http://creativecommons.org/ns#" xmlns:rdf="http://www.w3.org/1999/02/22-rdf-syntax-ns#">
   <cc:Work>
    <dc:type rdf:resource="http://purl.org/dc/dcmitype/StillImage"/>
    <dc:date>2025-11-04T01:04:52.388344</dc:date>
    <dc:format>image/svg+xml</dc:format>
    <dc:creator>
     <cc:Agent>
      <dc:title>Matplotlib v3.10.0, https://matplotlib.org/</dc:title>
     </cc:Agent>
    </dc:creator>
   </cc:Work>
  </rdf:RDF>
 </metadata>
 <defs>
  <style type="text/css">*{stroke-linejoin: round; stroke-linecap: butt}</style>
 </defs>
 <g id="figure_1">
  <g id="patch_1">
   <path d="M 0 208.556875 
L 244.0825 208.556875 
L 244.0825 0 
L 0 0 
z
" style="fill: #ffffff"/>
  </g>
  <g id="axes_1">
   <g id="patch_2">
    <path d="M 44.9325 166.12 
L 236.8825 166.12 
L 236.8825 7.2 
L 44.9325 7.2 
z
" style="fill: #ffffff"/>
   </g>
   <g id="FillBetweenPolyCollection_1">
    <defs>
     <path id="m5a5927f2ca" d="M 76.975778 -47.8693 
L 76.872556 -47.8693 
L 76.85167 -49.329783 
L 76.825374 -50.790266 
L 76.793503 -52.250749 
L 76.756331 -53.711232 
L 76.714605 -55.171715 
L 76.669475 -56.632197 
L 76.622297 -58.09268 
L 76.574324 -59.553163 
L 76.52631 -61.013646 
L 76.478106 -62.474129 
L 76.428362 -63.934612 
L 76.374415 -65.395095 
L 76.31247 -66.855578 
L 76.238096 -68.31606 
L 76.146999 -69.776543 
L 76.035972 -71.237026 
L 75.903824 -72.697509 
L 75.752095 -74.157992 
L 75.585346 -75.618475 
L 75.410898 -77.078958 
L 75.237995 -78.53944 
L 75.076505 -79.999923 
L 74.935385 -81.460406 
L 74.821227 -82.920889 
L 74.737204 -84.381372 
L 74.682649 -85.841855 
L 74.653389 -87.302338 
L 74.642745 -88.762821 
L 74.642966 -90.223303 
L 74.646767 -91.683786 
L 74.648599 -93.144269 
L 74.645374 -94.604752 
L 74.636505 -96.065235 
L 74.623288 -97.525718 
L 74.607807 -98.986201 
L 74.591637 -100.446684 
L 74.574622 -101.907166 
L 74.55397 -103.367649 
L 74.52379 -104.828132 
L 74.475101 -106.288615 
L 74.396258 -107.749098 
L 74.273682 -109.209581 
L 74.092784 -110.670064 
L 73.838988 -112.130546 
L 73.498791 -113.591029 
L 73.060797 -115.051512 
L 72.516696 -116.511995 
L 71.86211 -117.972478 
L 71.097238 -119.432961 
L 70.22722 -120.893444 
L 69.262147 -122.353927 
L 68.216721 -123.814409 
L 67.109592 -125.274892 
L 65.962502 -126.735375 
L 64.79936 -128.195858 
L 63.645402 -129.656341 
L 62.526502 -131.116824 
L 61.468659 -132.577307 
L 60.497566 -134.03779 
L 59.638136 -135.498272 
L 58.913844 -136.958755 
L 58.345801 -138.419238 
L 57.95157 -139.879721 
L 57.743841 -141.340204 
L 57.729167 -142.800687 
L 57.907019 -144.26117 
L 58.269379 -145.721652 
L 58.801016 -147.182135 
L 59.480497 -148.642618 
L 60.281827 -150.103101 
L 61.176514 -151.563584 
L 62.135793 -153.024067 
L 63.132682 -154.48455 
L 64.143625 -155.945033 
L 65.149515 -157.405515 
L 66.136025 -158.865998 
L 67.093296 -160.326481 
L 68.015137 -161.786964 
L 68.897956 -163.247447 
L 69.739665 -164.70793 
L 70.538754 -166.168413 
L 71.293675 -167.628896 
L 72.002562 -169.089378 
L 72.663253 -170.549861 
L 73.273528 -172.010344 
L 73.831427 -173.470827 
L 74.33557 -174.93131 
L 74.785404 -176.391793 
L 75.181337 -177.852276 
L 75.524774 -179.312758 
L 75.818067 -180.773241 
L 76.064408 -182.233724 
L 76.267671 -183.694207 
L 76.432242 -185.15469 
L 76.562827 -186.615173 
L 76.664249 -188.075656 
L 76.741262 -189.536139 
L 76.798368 -190.996621 
L 76.839676 -192.457104 
L 77.008657 -192.457104 
L 77.008657 -192.457104 
L 77.049965 -190.996621 
L 77.107071 -189.536139 
L 77.184084 -188.075656 
L 77.285507 -186.615173 
L 77.416091 -185.15469 
L 77.580663 -183.694207 
L 77.783926 -182.233724 
L 78.030266 -180.773241 
L 78.32356 -179.312758 
L 78.666997 -177.852276 
L 79.062929 -176.391793 
L 79.512763 -174.93131 
L 80.016907 -173.470827 
L 80.574805 -172.010344 
L 81.18508 -170.549861 
L 81.845772 -169.089378 
L 82.554658 -167.628896 
L 83.309579 -166.168413 
L 84.108669 -164.70793 
L 84.950377 -163.247447 
L 85.833196 -161.786964 
L 86.755037 -160.326481 
L 87.712308 -158.865998 
L 88.698818 -157.405515 
L 89.704708 -155.945033 
L 90.715652 -154.48455 
L 91.71254 -153.024067 
L 92.671819 -151.563584 
L 93.566506 -150.103101 
L 94.367836 -148.642618 
L 95.047317 -147.182135 
L 95.578954 -145.721652 
L 95.941314 -144.26117 
L 96.119167 -142.800687 
L 96.104492 -141.340204 
L 95.896763 -139.879721 
L 95.502532 -138.419238 
L 94.934489 -136.958755 
L 94.210197 -135.498272 
L 93.350767 -134.03779 
L 92.379675 -132.577307 
L 91.321832 -131.116824 
L 90.202931 -129.656341 
L 89.048973 -128.195858 
L 87.885832 -126.735375 
L 86.738741 -125.274892 
L 85.631613 -123.814409 
L 84.586186 -122.353927 
L 83.621114 -120.893444 
L 82.751095 -119.432961 
L 81.986224 -117.972478 
L 81.331637 -116.511995 
L 80.787536 -115.051512 
L 80.349543 -113.591029 
L 80.009345 -112.130546 
L 79.75555 -110.670064 
L 79.574651 -109.209581 
L 79.452075 -107.749098 
L 79.373232 -106.288615 
L 79.324544 -104.828132 
L 79.294364 -103.367649 
L 79.273712 -101.907166 
L 79.256697 -100.446684 
L 79.240526 -98.986201 
L 79.225045 -97.525718 
L 79.211828 -96.065235 
L 79.202959 -94.604752 
L 79.199734 -93.144269 
L 79.201567 -91.683786 
L 79.205368 -90.223303 
L 79.205589 -88.762821 
L 79.194944 -87.302338 
L 79.165684 -85.841855 
L 79.11113 -84.381372 
L 79.027106 -82.920889 
L 78.912948 -81.460406 
L 78.771828 -79.999923 
L 78.610338 -78.53944 
L 78.437436 -77.078958 
L 78.262987 -75.618475 
L 78.096238 -74.157992 
L 77.944509 -72.697509 
L 77.812361 -71.237026 
L 77.701334 -69.776543 
L 77.610238 -68.31606 
L 77.535863 -66.855578 
L 77.473919 -65.395095 
L 77.419972 -63.934612 
L 77.370227 -62.474129 
L 77.322024 -61.013646 
L 77.274009 -59.553163 
L 77.226036 -58.09268 
L 77.178859 -56.632197 
L 77.133728 -55.171715 
L 77.092002 -53.711232 
L 77.05483 -52.250749 
L 77.022959 -50.790266 
L 76.996663 -49.329783 
L 76.975778 -47.8693 
z
" style="stroke: #717171"/>
    </defs>
    <g clip-path="url(#p6c58adeb20)">
     <use xlink:href="#m5a5927f2ca" x="0" y="208.556875" style="fill: #c6d99e; stroke: #717171"/>
    </g>
   </g>
   <g id="FillBetweenPolyCollection_2">
    <defs>
     <path id="m6e1aa7dafa" d="M 141.018494 -77.728498 
L 140.796506 -77.728498 
L 140.751183 -78.825093 
L 140.691507 -79.921688 
L 140.614575 -81.018284 
L 140.517453 -82.114879 
L 140.397358 -83.211474 
L 140.251876 -84.30807 
L 140.079188 -85.404665 
L 139.878307 -86.50126 
L 139.64927 -87.597856 
L 139.3933 -88.694451 
L 139.112876 -89.791046 
L 138.811731 -90.887641 
L 138.494738 -91.984237 
L 138.167699 -93.080832 
L 137.837034 -94.177427 
L 137.509404 -95.274023 
L 137.191279 -96.370618 
L 136.888505 -97.467213 
L 136.605904 -98.563809 
L 136.346948 -99.660404 
L 136.113539 -100.756999 
L 135.905904 -101.853595 
L 135.722602 -102.95019 
L 135.560632 -104.046785 
L 135.41558 -105.143381 
L 135.281796 -106.239976 
L 135.152554 -107.336571 
L 135.020184 -108.433167 
L 134.876206 -109.529762 
L 134.711472 -110.626357 
L 134.516392 -111.722953 
L 134.281271 -112.819548 
L 133.996783 -113.916143 
L 133.654572 -115.012738 
L 133.247943 -116.109334 
L 132.772552 -117.205929 
L 132.227011 -118.302524 
L 131.61331 -119.39912 
L 130.936998 -120.495715 
L 130.207096 -121.59231 
L 129.435764 -122.688906 
L 128.637781 -123.785501 
L 127.829912 -124.882096 
L 127.030237 -125.978692 
L 126.257505 -127.075287 
L 125.530511 -128.171882 
L 124.867501 -129.268478 
L 124.285556 -130.365073 
L 123.799932 -131.461668 
L 123.423337 -132.558264 
L 123.165173 -133.654859 
L 123.030817 -134.751454 
L 123.021037 -135.84805 
L 123.131672 -136.944645 
L 123.353665 -138.04124 
L 123.673513 -139.137835 
L 124.074142 -140.234431 
L 124.53612 -141.331026 
L 125.039105 -142.427621 
L 125.563345 -143.524217 
L 126.091072 -144.620812 
L 126.607641 -145.717407 
L 127.102298 -146.814003 
L 127.568541 -147.910598 
L 128.004075 -149.007193 
L 128.410424 -150.103789 
L 128.792284 -151.200384 
L 129.156718 -152.296979 
L 129.512291 -153.393575 
L 129.868215 -154.49017 
L 130.233562 -155.586765 
L 130.616571 -156.683361 
L 131.024078 -157.779956 
L 131.461063 -158.876551 
L 131.930331 -159.973147 
L 132.432332 -161.069742 
L 132.965133 -162.166337 
L 133.52454 -163.262932 
L 134.10438 -164.359528 
L 134.696909 -165.456123 
L 135.293336 -166.552718 
L 135.884393 -167.649314 
L 136.460923 -168.745909 
L 137.01441 -169.842504 
L 137.537427 -170.9391 
L 138.023954 -172.035695 
L 138.46956 -173.13229 
L 138.871459 -174.228886 
L 139.228445 -175.325481 
L 139.540748 -176.422076 
L 139.809818 -177.518672 
L 140.038092 -178.615267 
L 140.228745 -179.711862 
L 140.385446 -180.808458 
L 140.512141 -181.905053 
L 140.612856 -183.001648 
L 140.691532 -184.098243 
L 140.751893 -185.194839 
L 140.797351 -186.291434 
L 141.017649 -186.291434 
L 141.017649 -186.291434 
L 141.063107 -185.194839 
L 141.123468 -184.098243 
L 141.202144 -183.001648 
L 141.302859 -181.905053 
L 141.429554 -180.808458 
L 141.586255 -179.711862 
L 141.776908 -178.615267 
L 142.005182 -177.518672 
L 142.274252 -176.422076 
L 142.586555 -175.325481 
L 142.943541 -174.228886 
L 143.34544 -173.13229 
L 143.791046 -172.035695 
L 144.277573 -170.9391 
L 144.80059 -169.842504 
L 145.354077 -168.745909 
L 145.930607 -167.649314 
L 146.521664 -166.552718 
L 147.118091 -165.456123 
L 147.71062 -164.359528 
L 148.29046 -163.262932 
L 148.849867 -162.166337 
L 149.382668 -161.069742 
L 149.884669 -159.973147 
L 150.353937 -158.876551 
L 150.790922 -157.779956 
L 151.198429 -156.683361 
L 151.581438 -155.586765 
L 151.946785 -154.49017 
L 152.302709 -153.393575 
L 152.658282 -152.296979 
L 153.022716 -151.200384 
L 153.404576 -150.103789 
L 153.810925 -149.007193 
L 154.246459 -147.910598 
L 154.712702 -146.814003 
L 155.207359 -145.717407 
L 155.723928 -144.620812 
L 156.251655 -143.524217 
L 156.775895 -142.427621 
L 157.27888 -141.331026 
L 157.740858 -140.234431 
L 158.141487 -139.137835 
L 158.461335 -138.04124 
L 158.683328 -136.944645 
L 158.793963 -135.84805 
L 158.784183 -134.751454 
L 158.649827 -133.654859 
L 158.391663 -132.558264 
L 158.015068 -131.461668 
L 157.529444 -130.365073 
L 156.947499 -129.268478 
L 156.284489 -128.171882 
L 155.557495 -127.075287 
L 154.784763 -125.978692 
L 153.985088 -124.882096 
L 153.177219 -123.785501 
L 152.379236 -122.688906 
L 151.607904 -121.59231 
L 150.878002 -120.495715 
L 150.20169 -119.39912 
L 149.587989 -118.302524 
L 149.042448 -117.205929 
L 148.567057 -116.109334 
L 148.160428 -115.012738 
L 147.818217 -113.916143 
L 147.533729 -112.819548 
L 147.298608 -111.722953 
L 147.103528 -110.626357 
L 146.938794 -109.529762 
L 146.794816 -108.433167 
L 146.662446 -107.336571 
L 146.533204 -106.239976 
L 146.39942 -105.143381 
L 146.254368 -104.046785 
L 146.092398 -102.95019 
L 145.909096 -101.853595 
L 145.701461 -100.756999 
L 145.468052 -99.660404 
L 145.209096 -98.563809 
L 144.926495 -97.467213 
L 144.623721 -96.370618 
L 144.305596 -95.274023 
L 143.977966 -94.177427 
L 143.647301 -93.080832 
L 143.320262 -91.984237 
L 143.003269 -90.887641 
L 142.702124 -89.791046 
L 142.4217 -88.694451 
L 142.16573 -87.597856 
L 141.936693 -86.50126 
L 141.735812 -85.404665 
L 141.563124 -84.30807 
L 141.417642 -83.211474 
L 141.297547 -82.114879 
L 141.200425 -81.018284 
L 141.123493 -79.921688 
L 141.063817 -78.825093 
L 141.018494 -77.728498 
z
" style="stroke: #717171"/>
    </defs>
    <g clip-path="url(#p6c58adeb20)">
     <use xlink:href="#m6e1aa7dafa" x="0" y="208.556875" style="fill: #c6d99e; stroke: #717171"/>
    </g>
   </g>
   <g id="FillBetweenPolyCollection_3">
    <defs>
     <path id="m56c22964b0" d="M 206.093199 -91.080825 
L 203.688468 -91.080825 
L 203.530699 -91.847358 
L 203.358131 -92.61389 
L 203.170281 -93.380423 
L 202.966786 -94.146956 
L 202.74742 -94.913489 
L 202.512113 -95.680021 
L 202.260967 -96.446554 
L 201.994267 -97.213087 
L 201.712495 -97.97962 
L 201.416335 -98.746152 
L 201.106678 -99.512685 
L 200.784618 -100.279218 
L 200.451448 -101.045751 
L 200.108649 -101.812283 
L 199.757868 -102.578816 
L 199.400901 -103.345349 
L 199.039661 -104.111882 
L 198.676145 -104.878414 
L 198.312399 -105.644947 
L 197.950473 -106.41148 
L 197.592375 -107.178013 
L 197.240031 -107.944545 
L 196.89523 -108.711078 
L 196.559581 -109.477611 
L 196.23447 -110.244144 
L 195.921013 -111.010676 
L 195.620027 -111.777209 
L 195.331995 -112.543742 
L 195.057045 -113.310275 
L 194.794939 -114.076807 
L 194.545065 -114.84334 
L 194.30645 -115.609873 
L 194.077771 -116.376406 
L 193.857392 -117.142939 
L 193.643396 -117.909471 
L 193.433641 -118.676004 
L 193.225815 -119.442537 
L 193.017507 -120.20907 
L 192.80628 -120.975602 
L 192.589748 -121.742135 
L 192.365659 -122.508668 
L 192.131976 -123.275201 
L 191.886957 -124.041733 
L 191.629229 -124.808266 
L 191.357856 -125.574799 
L 191.0724 -126.341332 
L 190.772969 -127.107864 
L 190.46025 -127.874397 
L 190.135532 -128.64093 
L 189.800711 -129.407463 
L 189.458279 -130.173995 
L 189.111297 -130.940528 
L 188.763352 -131.707061 
L 188.418502 -132.473594 
L 188.081197 -133.240126 
L 187.756201 -134.006659 
L 187.448494 -134.773192 
L 187.163172 -135.539725 
L 186.905335 -136.306257 
L 186.67998 -137.07279 
L 186.491888 -137.839323 
L 186.345521 -138.605856 
L 186.244921 -139.372388 
L 186.193614 -140.138921 
L 186.194537 -140.905454 
L 186.249965 -141.671987 
L 186.36146 -142.438519 
L 186.52984 -143.205052 
L 186.755154 -143.971585 
L 187.036682 -144.738118 
L 187.372952 -145.50465 
L 187.76177 -146.271183 
L 188.200266 -147.037716 
L 188.684953 -147.804249 
L 189.211802 -148.570781 
L 189.77632 -149.337314 
L 190.373637 -150.103847 
L 190.998602 -150.87038 
L 191.645879 -151.636912 
L 192.310036 -152.403445 
L 192.985646 -153.169978 
L 193.667368 -153.936511 
L 194.350033 -154.703043 
L 195.028717 -155.469576 
L 195.698805 -156.236109 
L 196.356045 -157.002642 
L 196.996595 -157.769175 
L 197.61705 -158.535707 
L 198.214469 -159.30224 
L 198.786382 -160.068773 
L 199.330796 -160.835306 
L 199.846181 -161.601838 
L 200.331457 -162.368371 
L 200.78597 -163.134904 
L 201.209461 -163.901437 
L 201.602035 -164.667969 
L 201.96412 -165.434502 
L 202.296429 -166.201035 
L 202.599919 -166.967568 
L 207.181748 -166.967568 
L 207.181748 -166.967568 
L 207.485237 -166.201035 
L 207.817546 -165.434502 
L 208.179631 -164.667969 
L 208.572205 -163.901437 
L 208.995697 -163.134904 
L 209.450209 -162.368371 
L 209.935485 -161.601838 
L 210.45087 -160.835306 
L 210.995284 -160.068773 
L 211.567198 -159.30224 
L 212.164617 -158.535707 
L 212.785072 -157.769175 
L 213.425621 -157.002642 
L 214.082862 -156.236109 
L 214.75295 -155.469576 
L 215.431634 -154.703043 
L 216.114299 -153.936511 
L 216.796021 -153.169978 
L 217.471631 -152.403445 
L 218.135788 -151.636912 
L 218.783064 -150.87038 
L 219.40803 -150.103847 
L 220.005347 -149.337314 
L 220.569864 -148.570781 
L 221.096713 -147.804249 
L 221.581401 -147.037716 
L 222.019897 -146.271183 
L 222.408715 -145.50465 
L 222.744985 -144.738118 
L 223.026513 -143.971585 
L 223.251826 -143.205052 
L 223.420206 -142.438519 
L 223.531702 -141.671987 
L 223.587129 -140.905454 
L 223.588052 -140.138921 
L 223.536746 -139.372388 
L 223.436145 -138.605856 
L 223.289779 -137.839323 
L 223.101687 -137.07279 
L 222.876331 -136.306257 
L 222.618494 -135.539725 
L 222.333172 -134.773192 
L 222.025466 -134.006659 
L 221.70047 -133.240126 
L 221.363165 -132.473594 
L 221.018314 -131.707061 
L 220.67037 -130.940528 
L 220.323388 -130.173995 
L 219.980956 -129.407463 
L 219.646135 -128.64093 
L 219.321417 -127.874397 
L 219.008698 -127.107864 
L 218.709267 -126.341332 
L 218.423811 -125.574799 
L 218.152438 -124.808266 
L 217.894709 -124.041733 
L 217.64969 -123.275201 
L 217.416008 -122.508668 
L 217.191919 -121.742135 
L 216.975387 -120.975602 
L 216.76416 -120.20907 
L 216.555852 -119.442537 
L 216.348026 -118.676004 
L 216.138271 -117.909471 
L 215.924275 -117.142939 
L 215.703895 -116.376406 
L 215.475217 -115.609873 
L 215.236601 -114.84334 
L 214.986728 -114.076807 
L 214.724621 -113.310275 
L 214.449671 -112.543742 
L 214.161639 -111.777209 
L 213.860653 -111.010676 
L 213.547197 -110.244144 
L 213.222085 -109.477611 
L 212.886437 -108.711078 
L 212.541636 -107.944545 
L 212.189291 -107.178013 
L 211.831194 -106.41148 
L 211.469267 -105.644947 
L 211.105521 -104.878414 
L 210.742006 -104.111882 
L 210.380766 -103.345349 
L 210.023799 -102.578816 
L 209.673018 -101.812283 
L 209.330219 -101.045751 
L 208.997049 -100.279218 
L 208.674989 -99.512685 
L 208.365332 -98.746152 
L 208.069172 -97.97962 
L 207.7874 -97.213087 
L 207.5207 -96.446554 
L 207.269554 -95.680021 
L 207.034247 -94.913489 
L 206.814881 -94.146956 
L 206.611386 -93.380423 
L 206.423536 -92.61389 
L 206.250968 -91.847358 
L 206.093199 -91.080825 
z
" style="stroke: #717171"/>
    </defs>
    <g clip-path="url(#p6c58adeb20)">
     <use xlink:href="#m56c22964b0" x="0" y="208.556875" style="fill: #c6d99e; stroke: #717171"/>
    </g>
   </g>
   <g id="matplotlib.axis_1">
    <g id="xtick_1">
     <g id="line2d_1">
      <defs>
       <path id="m6f7936f0cf" d="M 0 0 
L 0 3.5 
" style="stroke: #000000; stroke-width: 0.8"/>
      </defs>
      <g>
       <use xlink:href="#m6f7936f0cf" x="76.924167" y="166.12" style="stroke: #000000; stroke-width: 0.8"/>
      </g>
     </g>
     <g id="text_1">
      <!-- Man -->
      <g transform="translate(65.253229 181.81625) scale(0.12 -0.12)">
       <defs>
        <path id="Arimo-Regular-4d" d="M 1056 2938 
L 1056 0 
L 525 0 
L 525 4403 
L 1309 4403 
L 2481 1350 
Q 2544 1166 2601 955 
Q 2659 744 2678 650 
Q 2697 734 2740 882 
Q 2784 1031 2828 1168 
Q 2872 1306 2891 1350 
L 4041 4403 
L 4806 4403 
L 4806 0 
L 4269 0 
L 4269 2938 
Q 4269 3181 4276 3415 
Q 4284 3650 4297 3875 
Q 4219 3597 4151 3376 
Q 4084 3156 4022 3000 
L 2884 0 
L 2466 0 
L 1313 3000 
L 1034 3875 
Q 1041 3641 1048 3406 
Q 1056 3172 1056 2938 
z
" transform="scale(0.015625)"/>
        <path id="Arimo-Regular-61" d="M 1294 -63 
Q 784 -63 528 206 
Q 272 475 272 944 
Q 272 1469 617 1750 
Q 963 2031 1731 2050 
L 2491 2063 
L 2491 2247 
Q 2491 2659 2316 2837 
Q 2141 3016 1766 3016 
Q 1388 3016 1216 2887 
Q 1044 2759 1009 2478 
L 422 2531 
Q 566 3444 1778 3444 
Q 2416 3444 2737 3151 
Q 3059 2859 3059 2306 
L 3059 850 
Q 3059 600 3125 473 
Q 3191 347 3375 347 
Q 3463 347 3559 369 
L 3559 19 
Q 3453 -6 3343 -18 
Q 3234 -31 3125 -31 
Q 2813 -31 2670 133 
Q 2528 297 2509 647 
L 2491 647 
Q 2275 259 1989 98 
Q 1703 -63 1294 -63 
z
M 2491 1669 
L 1875 1656 
Q 1481 1653 1275 1575 
Q 1069 1500 959 1344 
Q 850 1188 850 934 
Q 850 659 998 509 
Q 1147 359 1422 359 
Q 1734 359 1972 500 
Q 2213 641 2352 886 
Q 2491 1131 2491 1391 
L 2491 1669 
z
" transform="scale(0.015625)"/>
        <path id="Arimo-Regular-6e" d="M 1006 1959 
L 1006 0 
L 444 0 
L 444 2659 
Q 444 2956 439 3136 
Q 434 3316 425 3381 
L 956 3381 
Q 963 3322 967 3231 
Q 972 3141 975 3031 
Q 978 2922 981 2803 
L 991 2803 
Q 1184 3153 1439 3298 
Q 1694 3444 2072 3444 
Q 2628 3444 2886 3159 
Q 3144 2875 3144 2253 
L 3144 0 
L 2578 0 
L 2578 2144 
Q 2578 2628 2422 2818 
Q 2266 3009 1881 3009 
Q 1475 3009 1240 2731 
Q 1006 2453 1006 1959 
z
" transform="scale(0.015625)"/>
       </defs>
       <use xlink:href="#Arimo-Regular-4d"/>
       <use xlink:href="#Arimo-Regular-61" transform="translate(83.300781 0)"/>
       <use xlink:href="#Arimo-Regular-6e" transform="translate(138.916016 0)"/>
      </g>
     </g>
    </g>
    <g id="xtick_2">
     <g id="line2d_2">
      <g>
       <use xlink:href="#m6f7936f0cf" x="140.9075" y="166.12" style="stroke: #000000; stroke-width: 0.8"/>
      </g>
     </g>
     <g id="text_2">
      <!-- Woman -->
      <g transform="translate(120.236562 181.81625) scale(0.12 -0.12)">
       <defs>
        <path id="Arimo-Regular-57" d="M 2803 2781 
L 2038 0 
L 1325 0 
L 28 4403 
L 650 4403 
L 1441 1606 
Q 1513 1344 1577 1073 
Q 1641 803 1700 525 
Q 1725 641 1767 830 
Q 1809 1019 1856 1216 
Q 1903 1413 1941 1547 
L 2741 4403 
L 3313 4403 
L 4078 1663 
Q 4166 1328 4234 1042 
Q 4303 756 4353 525 
Q 4400 709 4451 923 
Q 4503 1138 4548 1314 
Q 4594 1491 4613 1566 
L 5397 4403 
L 6019 4403 
L 4722 0 
L 4009 0 
L 3247 2797 
Q 3209 2928 3154 3162 
Q 3100 3397 3028 3738 
Q 3000 3572 2954 3380 
Q 2909 3188 2867 3025 
Q 2825 2863 2803 2781 
z
" transform="scale(0.015625)"/>
        <path id="Arimo-Regular-6f" d="M 3291 1694 
Q 3291 806 2900 371 
Q 2509 -63 1766 -63 
Q 1025 -63 647 389 
Q 269 841 269 1694 
Q 269 2569 648 3006 
Q 1028 3444 1784 3444 
Q 2559 3444 2925 3017 
Q 3291 2591 3291 1694 
z
M 2700 1694 
Q 2700 2394 2492 2711 
Q 2284 3028 1794 3028 
Q 1300 3028 1079 2704 
Q 859 2381 859 1694 
Q 859 1025 1076 689 
Q 1294 353 1759 353 
Q 2266 353 2483 678 
Q 2700 1003 2700 1694 
z
" transform="scale(0.015625)"/>
        <path id="Arimo-Regular-6d" d="M 1003 1959 
L 1003 0 
L 444 0 
L 444 2659 
Q 444 2956 439 3136 
Q 434 3316 425 3381 
L 956 3381 
Q 963 3313 969 3213 
Q 975 3113 978 3005 
Q 981 2897 981 2803 
L 991 2803 
Q 1172 3163 1406 3303 
Q 1641 3444 1978 3444 
Q 2363 3444 2586 3291 
Q 2809 3138 2897 2803 
L 2906 2803 
Q 3081 3144 3329 3294 
Q 3578 3444 3931 3444 
Q 4444 3444 4676 3166 
Q 4909 2888 4909 2253 
L 4909 0 
L 4353 0 
L 4353 2144 
Q 4353 2634 4218 2821 
Q 4084 3009 3734 3009 
Q 3366 3009 3161 2736 
Q 2956 2463 2956 1959 
L 2956 0 
L 2400 0 
L 2400 2144 
Q 2400 2634 2265 2821 
Q 2131 3009 1781 3009 
Q 1422 3009 1212 2734 
Q 1003 2459 1003 1959 
z
" transform="scale(0.015625)"/>
       </defs>
       <use xlink:href="#Arimo-Regular-57"/>
       <use xlink:href="#Arimo-Regular-6f" transform="translate(94.384766 0)"/>
       <use xlink:href="#Arimo-Regular-6d" transform="translate(150 0)"/>
       <use xlink:href="#Arimo-Regular-61" transform="translate(233.300781 0)"/>
       <use xlink:href="#Arimo-Regular-6e" transform="translate(288.916016 0)"/>
      </g>
     </g>
    </g>
    <g id="xtick_3">
     <g id="line2d_3">
      <g>
       <use xlink:href="#m6f7936f0cf" x="204.890833" y="166.12" style="stroke: #000000; stroke-width: 0.8"/>
      </g>
     </g>
     <g id="text_3">
      <!-- Nonbinary -->
      <g transform="translate(177.543958 181.81625) scale(0.12 -0.12)">
       <defs>
        <path id="Arimo-Regular-4e" d="M 1056 2925 
L 1056 0 
L 525 0 
L 525 4403 
L 1219 4403 
L 3600 628 
Q 3563 1244 3563 1516 
L 3563 4403 
L 4100 4403 
L 4100 0 
L 3381 0 
L 1025 3750 
Q 1031 3544 1043 3337 
Q 1056 3131 1056 2925 
z
" transform="scale(0.015625)"/>
        <path id="Arimo-Regular-62" d="M 3291 1706 
Q 3291 822 2980 379 
Q 2669 -63 2047 -63 
Q 1663 -63 1408 76 
Q 1153 216 994 525 
L 988 525 
Q 988 463 981 344 
Q 975 225 969 123 
Q 963 22 956 0 
L 413 0 
Q 422 84 426 257 
Q 431 431 431 697 
L 431 4638 
L 994 4638 
L 994 3316 
Q 994 3216 991 3095 
Q 988 2975 981 2838 
L 994 2838 
Q 1150 3163 1408 3303 
Q 1666 3444 2047 3444 
Q 2688 3444 2989 3012 
Q 3291 2581 3291 1706 
z
M 2700 1688 
Q 2700 2397 2512 2703 
Q 2325 3009 1903 3009 
Q 1428 3009 1211 2684 
Q 994 2359 994 1653 
Q 994 988 1206 670 
Q 1419 353 1897 353 
Q 2322 353 2511 667 
Q 2700 981 2700 1688 
z
" transform="scale(0.015625)"/>
        <path id="Arimo-Regular-69" d="M 991 4638 
L 991 4100 
L 428 4100 
L 428 4638 
L 991 4638 
z
M 991 3381 
L 991 0 
L 428 0 
L 428 3381 
L 991 3381 
z
" transform="scale(0.015625)"/>
        <path id="Arimo-Regular-72" d="M 1006 1763 
L 1006 0 
L 444 0 
L 444 2594 
Q 444 2772 439 2969 
Q 434 3166 425 3381 
L 956 3381 
Q 963 3238 967 3122 
Q 972 3006 975 2920 
Q 978 2834 979 2776 
Q 981 2719 981 2691 
L 994 2691 
Q 1088 2997 1200 3166 
Q 1309 3322 1450 3383 
Q 1591 3444 1797 3444 
Q 1913 3444 2025 3413 
L 2025 2897 
Q 1919 2928 1725 2928 
Q 1375 2928 1190 2626 
Q 1006 2325 1006 1763 
z
" transform="scale(0.015625)"/>
        <path id="Arimo-Regular-79" d="M 597 -1328 
Q 372 -1328 209 -1294 
L 209 -872 
Q 328 -891 472 -891 
Q 734 -891 957 -695 
Q 1181 -500 1356 16 
L 16 3381 
L 616 3381 
L 1328 1513 
Q 1406 1313 1495 1059 
Q 1584 806 1634 613 
Q 1713 834 1792 1053 
Q 1872 1272 1947 1491 
L 2594 3381 
L 3188 3381 
L 1888 0 
Q 1781 -269 1684 -470 
Q 1588 -672 1497 -803 
Q 1316 -1069 1095 -1198 
Q 875 -1328 597 -1328 
z
" transform="scale(0.015625)"/>
       </defs>
       <use xlink:href="#Arimo-Regular-4e"/>
       <use xlink:href="#Arimo-Regular-6f" transform="translate(72.216797 0)"/>
       <use xlink:href="#Arimo-Regular-6e" transform="translate(127.832031 0)"/>
       <use xlink:href="#Arimo-Regular-62" transform="translate(183.447266 0)"/>
       <use xlink:href="#Arimo-Regular-69" transform="translate(239.0625 0)"/>
       <use xlink:href="#Arimo-Regular-6e" transform="translate(261.279297 0)"/>
       <use xlink:href="#Arimo-Regular-61" transform="translate(316.894531 0)"/>
       <use xlink:href="#Arimo-Regular-72" transform="translate(372.509766 0)"/>
       <use xlink:href="#Arimo-Regular-79" transform="translate(405.810547 0)"/>
      </g>
     </g>
    </g>
    <g id="text_4">
     <!-- Gender -->
     <g transform="translate(117.561406 198.451875) scale(0.14 -0.14)">
      <defs>
       <path id="Arimo-Regular-47" d="M 2541 422 
Q 2972 422 3345 553 
Q 3719 684 3950 909 
L 3950 1703 
L 2634 1703 
L 2634 2203 
L 4500 2203 
L 4500 684 
Q 4150 328 3642 132 
Q 3134 -63 2541 -63 
Q 1853 -63 1356 215 
Q 859 494 590 1008 
Q 322 1522 322 2222 
Q 322 3294 897 3881 
Q 1472 4469 2513 4469 
Q 3244 4469 3700 4222 
Q 4156 3975 4403 3431 
L 3834 3263 
Q 3647 3638 3317 3809 
Q 2988 3981 2497 3981 
Q 1734 3981 1331 3520 
Q 928 3059 928 2222 
Q 928 1388 1356 905 
Q 1784 422 2541 422 
z
" transform="scale(0.015625)"/>
       <path id="Arimo-Regular-65" d="M 863 1572 
Q 863 991 1103 675 
Q 1344 359 1806 359 
Q 2172 359 2392 506 
Q 2613 653 2691 878 
L 3184 738 
Q 2881 -63 1806 -63 
Q 1056 -63 664 384 
Q 272 831 272 1713 
Q 272 2550 664 2997 
Q 1056 3444 1784 3444 
Q 2531 3444 2903 2994 
Q 3275 2544 3275 1647 
L 3275 1572 
L 863 1572 
z
M 2694 2003 
Q 2647 2538 2422 2783 
Q 2197 3028 1775 3028 
Q 1366 3028 1127 2754 
Q 888 2481 869 2003 
L 2694 2003 
z
" transform="scale(0.015625)"/>
       <path id="Arimo-Regular-64" d="M 2609 0 
Q 2603 34 2595 129 
Q 2588 225 2583 340 
Q 2578 456 2578 544 
L 2566 544 
Q 2409 219 2151 78 
Q 1894 -63 1513 -63 
Q 872 -63 570 368 
Q 269 800 269 1675 
Q 269 2559 580 3001 
Q 891 3444 1513 3444 
Q 1897 3444 2153 3303 
Q 2409 3163 2566 2856 
L 2572 2856 
L 2566 3234 
L 2566 4638 
L 3128 4638 
L 3128 697 
Q 3128 431 3133 257 
Q 3138 84 3147 0 
L 2609 0 
z
M 859 1694 
Q 859 984 1046 678 
Q 1234 372 1656 372 
Q 2134 372 2350 703 
Q 2566 1034 2566 1731 
Q 2566 2403 2350 2715 
Q 2134 3028 1663 3028 
Q 1238 3028 1048 2714 
Q 859 2400 859 1694 
z
" transform="scale(0.015625)"/>
      </defs>
      <use xlink:href="#Arimo-Regular-47"/>
      <use xlink:href="#Arimo-Regular-65" transform="translate(77.783203 0)"/>
      <use xlink:href="#Arimo-Regular-6e" transform="translate(133.398438 0)"/>
      <use xlink:href="#Arimo-Regular-64" transform="translate(189.013672 0)"/>
      <use xlink:href="#Arimo-Regular-65" transform="translate(244.628906 0)"/>
      <use xlink:href="#Arimo-Regular-72" transform="translate(300.244141 0)"/>
     </g>
    </g>
   </g>
   <g id="matplotlib.axis_2">
    <g id="ytick_1">
     <g id="line2d_4">
      <defs>
       <path id="mf4f2d74c07" d="M 0 0 
L -3.5 0 
" style="stroke: #000000; stroke-width: 0.8"/>
      </defs>
      <g>
       <use xlink:href="#mf4f2d74c07" x="44.9325" y="166.12" style="stroke: #000000; stroke-width: 0.8"/>
      </g>
     </g>
     <g id="text_5">
      <!-- −5 -->
      <g transform="translate(24.250625 170.468125) scale(0.12 -0.12)">
       <defs>
        <path id="Arimo-Regular-2212" d="M 3425 2356 
L 3425 1900 
L 316 1900 
L 316 2356 
L 3425 2356 
z
" transform="scale(0.015625)"/>
        <path id="Arimo-Regular-35" d="M 3291 1434 
Q 3291 738 2877 337 
Q 2463 -63 1728 -63 
Q 1113 -63 734 206 
Q 356 475 256 984 
L 825 1050 
Q 916 725 1144 561 
Q 1372 397 1741 397 
Q 2194 397 2450 670 
Q 2706 944 2706 1422 
Q 2706 1838 2448 2094 
Q 2191 2350 1753 2350 
Q 1525 2350 1328 2278 
Q 1131 2206 934 2034 
L 384 2034 
L 531 4403 
L 3034 4403 
L 3034 3925 
L 1044 3925 
L 959 2528 
Q 1325 2809 1869 2809 
Q 2303 2809 2622 2636 
Q 2941 2463 3116 2153 
Q 3291 1844 3291 1434 
z
" transform="scale(0.015625)"/>
       </defs>
       <use xlink:href="#Arimo-Regular-2212"/>
       <use xlink:href="#Arimo-Regular-35" transform="translate(58.398438 0)"/>
      </g>
     </g>
    </g>
    <g id="ytick_2">
     <g id="line2d_5">
      <g>
       <use xlink:href="#mf4f2d74c07" x="44.9325" y="137.225455" style="stroke: #000000; stroke-width: 0.8"/>
      </g>
     </g>
     <g id="text_6">
      <!-- −3 -->
      <g transform="translate(24.250625 141.57358) scale(0.12 -0.12)">
       <defs>
        <path id="Arimo-Regular-33" d="M 3278 1216 
Q 3278 606 2890 271 
Q 2503 -63 1784 -63 
Q 1116 -63 717 239 
Q 319 541 244 1131 
L 825 1184 
Q 938 403 1784 403 
Q 2209 403 2451 612 
Q 2694 822 2694 1234 
Q 2694 1594 2417 1795 
Q 2141 1997 1619 1997 
L 1300 1997 
L 1300 2484 
L 1606 2484 
Q 2069 2484 2323 2686 
Q 2578 2888 2578 3244 
Q 2578 3597 2370 3801 
Q 2163 4006 1753 4006 
Q 1381 4006 1151 3815 
Q 922 3625 884 3278 
L 319 3322 
Q 381 3863 767 4166 
Q 1153 4469 1759 4469 
Q 2422 4469 2789 4161 
Q 3156 3853 3156 3303 
Q 3156 2881 2920 2617 
Q 2684 2353 2234 2259 
L 2234 2247 
Q 2728 2194 3003 1916 
Q 3278 1638 3278 1216 
z
" transform="scale(0.015625)"/>
       </defs>
       <use xlink:href="#Arimo-Regular-2212"/>
       <use xlink:href="#Arimo-Regular-33" transform="translate(58.398438 0)"/>
      </g>
     </g>
    </g>
    <g id="ytick_3">
     <g id="line2d_6">
      <g>
       <use xlink:href="#mf4f2d74c07" x="44.9325" y="108.330909" style="stroke: #000000; stroke-width: 0.8"/>
      </g>
     </g>
     <g id="text_7">
      <!-- −1 -->
      <g transform="translate(24.250625 112.679034) scale(0.12 -0.12)">
       <defs>
        <path id="Arimo-Regular-31" d="M 3247 478 
L 3247 0 
L 488 0 
L 488 478 
L 1609 478 
L 1609 3866 
L 616 3156 
L 616 3688 
L 1656 4403 
L 2175 4403 
L 2175 478 
L 3247 478 
z
" transform="scale(0.015625)"/>
       </defs>
       <use xlink:href="#Arimo-Regular-2212"/>
       <use xlink:href="#Arimo-Regular-31" transform="translate(58.398438 0)"/>
      </g>
     </g>
    </g>
    <g id="ytick_4">
     <g id="line2d_7">
      <g>
       <use xlink:href="#mf4f2d74c07" x="44.9325" y="79.436364" style="stroke: #000000; stroke-width: 0.8"/>
      </g>
     </g>
     <g id="text_8">
      <!-- 1 -->
      <g transform="translate(31.259375 83.784489) scale(0.12 -0.12)">
       <use xlink:href="#Arimo-Regular-31"/>
      </g>
     </g>
    </g>
    <g id="ytick_5">
     <g id="line2d_8">
      <g>
       <use xlink:href="#mf4f2d74c07" x="44.9325" y="50.541818" style="stroke: #000000; stroke-width: 0.8"/>
      </g>
     </g>
     <g id="text_9">
      <!-- 3 -->
      <g transform="translate(31.259375 54.889943) scale(0.12 -0.12)">
       <use xlink:href="#Arimo-Regular-33"/>
      </g>
     </g>
    </g>
    <g id="ytick_6">
     <g id="line2d_9">
      <g>
       <use xlink:href="#mf4f2d74c07" x="44.9325" y="21.647273" style="stroke: #000000; stroke-width: 0.8"/>
      </g>
     </g>
     <g id="text_10">
      <!-- 5 -->
      <g transform="translate(31.259375 25.995398) scale(0.12 -0.12)">
       <use xlink:href="#Arimo-Regular-35"/>
      </g>
     </g>
    </g>
    <g id="text_11">
     <!-- Willingness To Help -->
     <g transform="translate(17.345625 148.512656) rotate(-90) scale(0.14 -0.14)">
      <defs>
       <path id="Arimo-Regular-6c" d="M 994 4638 
L 994 0 
L 431 0 
L 431 4638 
L 994 4638 
z
" transform="scale(0.015625)"/>
       <path id="Arimo-Regular-67" d="M 1713 -1328 
Q 1159 -1328 831 -1111 
Q 503 -894 409 -494 
L 975 -413 
Q 1031 -647 1223 -773 
Q 1416 -900 1728 -900 
Q 2147 -900 2358 -653 
Q 2569 -406 2569 84 
L 2569 628 
L 2563 628 
Q 2403 303 2125 139 
Q 1847 -25 1475 -25 
Q 853 -25 561 387 
Q 269 800 269 1684 
Q 269 2581 583 3007 
Q 897 3434 1538 3434 
Q 1897 3434 2161 3270 
Q 2425 3106 2569 2803 
L 2575 2803 
Q 2575 2866 2581 2998 
Q 2588 3131 2597 3250 
Q 2606 3369 2613 3381 
L 3147 3381 
Q 3128 3213 3128 2681 
L 3128 97 
Q 3128 -616 2775 -972 
Q 2422 -1328 1713 -1328 
z
M 2569 1691 
Q 2569 2306 2317 2661 
Q 2066 3016 1675 3016 
Q 1244 3016 1047 2703 
Q 850 2391 850 1691 
Q 850 997 1034 694 
Q 1219 391 1666 391 
Q 2066 391 2317 739 
Q 2569 1088 2569 1691 
z
" transform="scale(0.015625)"/>
       <path id="Arimo-Regular-73" d="M 2969 934 
Q 2969 456 2608 196 
Q 2247 -63 1597 -63 
Q 966 -63 623 145 
Q 281 353 178 794 
L 675 891 
Q 747 619 972 492 
Q 1197 366 1597 366 
Q 2025 366 2223 497 
Q 2422 628 2422 891 
Q 2422 1091 2284 1216 
Q 2147 1341 1841 1422 
Q 1478 1519 1264 1581 
Q 1050 1644 934 1689 
Q 819 1734 750 1775 
Q 544 1894 428 2066 
Q 313 2238 313 2488 
Q 313 2950 642 3192 
Q 972 3434 1603 3434 
Q 2163 3434 2492 3237 
Q 2822 3041 2909 2606 
L 2403 2544 
Q 2356 2769 2151 2889 
Q 1947 3009 1603 3009 
Q 1222 3009 1040 2893 
Q 859 2778 859 2544 
Q 859 2372 962 2261 
Q 1066 2150 1356 2078 
Q 1747 1984 2100 1873 
Q 2453 1763 2606 1653 
Q 2784 1525 2876 1351 
Q 2969 1178 2969 934 
z
" transform="scale(0.015625)"/>
       <path id="Arimo-Regular-20" transform="scale(0.015625)"/>
       <path id="Arimo-Regular-54" d="M 2250 3916 
L 2250 0 
L 1656 0 
L 1656 3916 
L 144 3916 
L 144 4403 
L 3763 4403 
L 3763 3916 
L 2250 3916 
z
" transform="scale(0.015625)"/>
       <path id="Arimo-Regular-48" d="M 1122 2041 
L 1122 0 
L 525 0 
L 525 4403 
L 1122 4403 
L 1122 2541 
L 3503 2541 
L 3503 4403 
L 4100 4403 
L 4100 0 
L 3503 0 
L 3503 2041 
L 1122 2041 
z
" transform="scale(0.015625)"/>
       <path id="Arimo-Regular-70" d="M 3291 1706 
Q 3291 822 2980 379 
Q 2669 -63 2047 -63 
Q 1266 -63 997 525 
L 981 525 
Q 994 503 994 -6 
L 994 -1328 
L 431 -1328 
L 431 2691 
Q 431 2950 426 3123 
Q 422 3297 413 3381 
L 956 3381 
Q 959 3369 967 3259 
Q 975 3150 981 3023 
Q 988 2897 988 2838 
L 1000 2838 
Q 1150 3150 1397 3295 
Q 1644 3441 2047 3441 
Q 2672 3441 2981 3022 
Q 3291 2603 3291 1706 
z
M 2700 1694 
Q 2700 2400 2509 2703 
Q 2319 3006 1903 3006 
Q 1441 3006 1217 2686 
Q 994 2366 994 1650 
Q 994 984 1206 668 
Q 1419 353 1897 353 
Q 2316 353 2508 661 
Q 2700 969 2700 1694 
z
" transform="scale(0.015625)"/>
      </defs>
      <use xlink:href="#Arimo-Regular-57"/>
      <use xlink:href="#Arimo-Regular-69" transform="translate(94.384766 0)"/>
      <use xlink:href="#Arimo-Regular-6c" transform="translate(116.601562 0)"/>
      <use xlink:href="#Arimo-Regular-6c" transform="translate(138.818359 0)"/>
      <use xlink:href="#Arimo-Regular-69" transform="translate(161.035156 0)"/>
      <use xlink:href="#Arimo-Regular-6e" transform="translate(183.251953 0)"/>
      <use xlink:href="#Arimo-Regular-67" transform="translate(238.867188 0)"/>
      <use xlink:href="#Arimo-Regular-6e" transform="translate(294.482422 0)"/>
      <use xlink:href="#Arimo-Regular-65" transform="translate(350.097656 0)"/>
      <use xlink:href="#Arimo-Regular-73" transform="translate(405.712891 0)"/>
      <use xlink:href="#Arimo-Regular-73" transform="translate(455.712891 0)"/>
      <use xlink:href="#Arimo-Regular-20" transform="translate(505.712891 0)"/>
      <use xlink:href="#Arimo-Regular-54" transform="translate(533.496094 0)"/>
      <use xlink:href="#Arimo-Regular-6f" transform="translate(594.580078 0)"/>
      <use xlink:href="#Arimo-Regular-20" transform="translate(650.195312 0)"/>
      <use xlink:href="#Arimo-Regular-48" transform="translate(677.978516 0)"/>
      <use xlink:href="#Arimo-Regular-65" transform="translate(750.195312 0)"/>
      <use xlink:href="#Arimo-Regular-6c" transform="translate(805.810547 0)"/>
      <use xlink:href="#Arimo-Regular-70" transform="translate(828.027344 0)"/>
     </g>
    </g>
   </g>
   <g id="line2d_10">
    <path d="M 76.924167 108.9088 
L 76.924167 32.6272 
" clip-path="url(#p6c58adeb20)" style="fill: none; stroke: #717171; stroke-width: 1.5; stroke-linecap: square"/>
   </g>
   <g id="line2d_11">
    <path d="M 76.924167 78.425055 
L 76.924167 58.0544 
" clip-path="url(#p6c58adeb20)" style="fill: none; stroke: #717171; stroke-width: 4.5; stroke-linecap: square"/>
   </g>
   <g id="line2d_12">
    <path d="M 76.924167 67.300655 
" clip-path="url(#p6c58adeb20)" style="fill: none; stroke: #717171; stroke-width: 1.5; stroke-linecap: square"/>
    <defs>
     <path id="m2f77932edd" d="M 1.875 0 
L -1.875 -0 
" style="stroke: #ffffff; stroke-width: 0.9"/>
    </defs>
    <g clip-path="url(#p6c58adeb20)">
     <use xlink:href="#m2f77932edd" x="76.924167" y="67.300655" style="fill: #ffffff; stroke: #ffffff; stroke-width: 0.9"/>
    </g>
   </g>
   <g id="line2d_13">
    <path d="M 140.9075 116.421382 
L 140.9075 36.672436 
" clip-path="url(#p6c58adeb20)" style="fill: none; stroke: #717171; stroke-width: 1.5; stroke-linecap: square"/>
   </g>
   <g id="line2d_14">
    <path d="M 140.9075 83.915018 
L 140.9075 60.365964 
" clip-path="url(#p6c58adeb20)" style="fill: none; stroke: #717171; stroke-width: 4.5; stroke-linecap: square"/>
   </g>
   <g id="line2d_15">
    <path d="M 140.9075 72.212727 
" clip-path="url(#p6c58adeb20)" style="fill: none; stroke: #717171; stroke-width: 1.5; stroke-linecap: square"/>
    <g clip-path="url(#p6c58adeb20)">
     <use xlink:href="#m2f77932edd" x="140.9075" y="72.212727" style="fill: #ffffff; stroke: #ffffff; stroke-width: 0.9"/>
    </g>
   </g>
   <g id="line2d_16">
    <path d="M 204.890833 92.920485 
L 204.890833 66.144873 
" clip-path="url(#p6c58adeb20)" style="fill: none; stroke: #717171; stroke-width: 1.5; stroke-linecap: square"/>
   </g>
   <g id="line2d_17">
    <path d="M 204.890833 79.821624 
L 204.890833 66.433818 
" clip-path="url(#p6c58adeb20)" style="fill: none; stroke: #717171; stroke-width: 4.5; stroke-linecap: square"/>
   </g>
   <g id="line2d_18">
    <path d="M 204.890833 66.722764 
" clip-path="url(#p6c58adeb20)" style="fill: none; stroke: #717171; stroke-width: 1.5; stroke-linecap: square"/>
    <g clip-path="url(#p6c58adeb20)">
     <use xlink:href="#m2f77932edd" x="204.890833" y="66.722764" style="fill: #ffffff; stroke: #ffffff; stroke-width: 0.9"/>
    </g>
   </g>
   <g id="patch_3">
    <path d="M 44.9325 166.12 
L 44.9325 7.2 
" style="fill: none; stroke: #000000; stroke-width: 0.8; stroke-linejoin: miter; stroke-linecap: square"/>
   </g>
   <g id="patch_4">
    <path d="M 44.9325 166.12 
L 236.8825 166.12 
" style="fill: none; stroke: #000000; stroke-width: 0.8; stroke-linejoin: miter; stroke-linecap: square"/>
   </g>
  </g>
 </g>
 <defs>
  <clipPath id="p6c58adeb20">
   <rect x="44.9325" y="7.2" width="191.95" height="158.92"/>
  </clipPath>
 </defs>
</svg>
