<?xml version="1.0" encoding="utf-8" standalone="no"?>
<!DOCTYPE svg PUBLIC "-//W3C//DTD SVG 1.1//EN"
  "http://www.w3.org/Graphics/SVG/1.1/DTD/svg11.dtd">
<svg xmlns:xlink="http://www.w3.org/1999/xlink" width="303.2325pt" height="287.73458pt" viewBox="0 0 303.2325 287.73458" xmlns="http://www.w3.org/2000/svg" version="1.1">
 <metadata>
  <rdf:RDF xmlns:dc="http://purl.org/dc/elements/1.1/" xmlns:cc="http://creativecommons.org/ns#" xmlns:rdf="http://www.w3.org/1999/02/22-rdf-syntax-ns#">
   <cc:Work>
    <dc:type rdf:resource="http://purl.org/dc/dcmitype/StillImage"/>
    <dc:date>2025-11-04T01:22:55.834306</dc:date>
    <dc:format>image/svg+xml</dc:format>
    <dc:creator>
     <cc:Agent>
      <dc:title>Matplotlib v3.10.0, https://matplotlib.org/</dc:title>
     </cc:Agent>
    </dc:creator>
   </cc:Work>
  </rdf:RDF>
 </metadata>
 <defs>
  <style type="text/css">*{stroke-linejoin: round; stroke-linecap: butt}</style>
 </defs>
 <g id="figure_1">
  <g id="patch_1">
   <path d="M 0 287.73458 
L 303.2325 287.73458 
L 303.2325 0 
L 0 0 
z
" style="fill: #ffffff"/>
  </g>
  <g id="axes_1">
   <g id="patch_2">
    <path d="M 44.9325 201.24 
L 296.0325 201.24 
L 296.0325 7.2 
L 44.9325 7.2 
z
" style="fill: #ffffff"/>
   </g>
   <g id="FillBetweenPolyCollection_1">
    <defs>
     <path id="m0107ff126b" d="M 70.121798 -116.649316 
L 69.963202 -116.649316 
L 69.93635 -118.199694 
L 69.903452 -119.750071 
L 69.86421 -121.300448 
L 69.818642 -122.850825 
L 69.767122 -124.401202 
L 69.710384 -125.951579 
L 69.649455 -127.501956 
L 69.585537 -129.052333 
L 69.519819 -130.60271 
L 69.453264 -132.153087 
L 69.386384 -133.703464 
L 69.319055 -135.253841 
L 69.250418 -136.804218 
L 69.178885 -138.354595 
L 69.102293 -139.904972 
L 69.018178 -141.455349 
L 68.924166 -143.005726 
L 68.818405 -144.556103 
L 68.699998 -146.10648 
L 68.569341 -147.656857 
L 68.428322 -149.207234 
L 68.280334 -150.757611 
L 68.130085 -152.307988 
L 67.983222 -153.858365 
L 67.845819 -155.408742 
L 67.723779 -156.959119 
L 67.622217 -158.509496 
L 67.544894 -160.059873 
L 67.493736 -161.610251 
L 67.468464 -163.160628 
L 67.46637 -164.711005 
L 67.482206 -166.261382 
L 67.508219 -167.811759 
L 67.534313 -169.362136 
L 67.548344 -170.912513 
L 67.536576 -172.46289 
L 67.484272 -174.013267 
L 67.376454 -175.563644 
L 67.198779 -177.114021 
L 66.93852 -178.664398 
L 66.58556 -180.214775 
L 66.133354 -181.765152 
L 65.579743 -183.315529 
L 64.927545 -184.865906 
L 64.184844 -186.416283 
L 63.364923 -187.96666 
L 62.485802 -189.517037 
L 61.569399 -191.067414 
L 60.640364 -192.617791 
L 59.724651 -194.168168 
L 58.84798 -195.718545 
L 58.034304 -197.268922 
L 57.304452 -198.819299 
L 56.67509 -200.369676 
L 56.158091 -201.920053 
L 55.760397 -203.47043 
L 55.484326 -205.020807 
L 55.328278 -206.571185 
L 55.287682 -208.121562 
L 55.356011 -209.671939 
L 55.525711 -211.222316 
L 55.788889 -212.772693 
L 56.137671 -214.32307 
L 56.56425 -215.873447 
L 57.06066 -217.423824 
L 57.618417 -218.974201 
L 58.228164 -220.524578 
L 58.879466 -222.074955 
L 59.560839 -223.625332 
L 60.260052 -225.175709 
L 60.964665 -226.726086 
L 61.662716 -228.276463 
L 62.34344 -229.82684 
L 62.997879 -231.377217 
L 63.619308 -232.927594 
L 64.203403 -234.477971 
L 64.748148 -236.028348 
L 65.253523 -237.578725 
L 65.721048 -239.129102 
L 66.153244 -240.679479 
L 66.553122 -242.229856 
L 66.923736 -243.780233 
L 67.267842 -245.33061 
L 67.587692 -246.880987 
L 67.88494 -248.431364 
L 68.160654 -249.981741 
L 68.415395 -251.532119 
L 68.649357 -253.082496 
L 68.86252 -254.632873 
L 69.054817 -256.18325 
L 69.226276 -257.733627 
L 69.377142 -259.284004 
L 69.507953 -260.834381 
L 69.619584 -262.384758 
L 69.71324 -263.935135 
L 69.790417 -265.485512 
L 69.85283 -267.035889 
L 69.90233 -268.586266 
L 69.940806 -270.136643 
L 70.144194 -270.136643 
L 70.144194 -270.136643 
L 70.18267 -268.586266 
L 70.23217 -267.035889 
L 70.294583 -265.485512 
L 70.37176 -263.935135 
L 70.465416 -262.384758 
L 70.577047 -260.834381 
L 70.707858 -259.284004 
L 70.858724 -257.733627 
L 71.030183 -256.18325 
L 71.22248 -254.632873 
L 71.435643 -253.082496 
L 71.669605 -251.532119 
L 71.924346 -249.981741 
L 72.20006 -248.431364 
L 72.497308 -246.880987 
L 72.817158 -245.33061 
L 73.161264 -243.780233 
L 73.531878 -242.229856 
L 73.931756 -240.679479 
L 74.363952 -239.129102 
L 74.831477 -237.578725 
L 75.336852 -236.028348 
L 75.881597 -234.477971 
L 76.465692 -232.927594 
L 77.087121 -231.377217 
L 77.74156 -229.82684 
L 78.422284 -228.276463 
L 79.120335 -226.726086 
L 79.824948 -225.175709 
L 80.524161 -223.625332 
L 81.205534 -222.074955 
L 81.856836 -220.524578 
L 82.466583 -218.974201 
L 83.02434 -217.423824 
L 83.52075 -215.873447 
L 83.947329 -214.32307 
L 84.296111 -212.772693 
L 84.559289 -211.222316 
L 84.728989 -209.671939 
L 84.797318 -208.121562 
L 84.756722 -206.571185 
L 84.600674 -205.020807 
L 84.324603 -203.47043 
L 83.926909 -201.920053 
L 83.40991 -200.369676 
L 82.780548 -198.819299 
L 82.050696 -197.268922 
L 81.23702 -195.718545 
L 80.360349 -194.168168 
L 79.444636 -192.617791 
L 78.515601 -191.067414 
L 77.599198 -189.517037 
L 76.720077 -187.96666 
L 75.900156 -186.416283 
L 75.157455 -184.865906 
L 74.505257 -183.315529 
L 73.951646 -181.765152 
L 73.49944 -180.214775 
L 73.14648 -178.664398 
L 72.886221 -177.114021 
L 72.708546 -175.563644 
L 72.600728 -174.013267 
L 72.548424 -172.46289 
L 72.536656 -170.912513 
L 72.550687 -169.362136 
L 72.576781 -167.811759 
L 72.602794 -166.261382 
L 72.61863 -164.711005 
L 72.616536 -163.160628 
L 72.591264 -161.610251 
L 72.540106 -160.059873 
L 72.462783 -158.509496 
L 72.361221 -156.959119 
L 72.239181 -155.408742 
L 72.101778 -153.858365 
L 71.954915 -152.307988 
L 71.804666 -150.757611 
L 71.656678 -149.207234 
L 71.515659 -147.656857 
L 71.385002 -146.10648 
L 71.266595 -144.556103 
L 71.160834 -143.005726 
L 71.066822 -141.455349 
L 70.982707 -139.904972 
L 70.906115 -138.354595 
L 70.834582 -136.804218 
L 70.765945 -135.253841 
L 70.698616 -133.703464 
L 70.631736 -132.153087 
L 70.565181 -130.60271 
L 70.499463 -129.052333 
L 70.435545 -127.501956 
L 70.374616 -125.951579 
L 70.317878 -124.401202 
L 70.266358 -122.850825 
L 70.22079 -121.300448 
L 70.181548 -119.750071 
L 70.14865 -118.199694 
L 70.121798 -116.649316 
z
" style="stroke: #717171"/>
    </defs>
    <g clip-path="url(#pa98e5e797f)">
     <use xlink:href="#m0107ff126b" x="0" y="287.73458" style="fill: #c6d99e; stroke: #717171"/>
    </g>
   </g>
   <g id="FillBetweenPolyCollection_2">
    <defs>
     <path id="md2773609e5" d="M 120.296916 -94.465291 
L 120.228084 -94.465291 
L 120.213821 -96.171612 
L 120.19584 -97.877933 
L 120.174102 -99.584254 
L 120.148944 -101.290575 
L 120.121116 -102.996896 
L 120.091755 -104.703217 
L 120.062259 -106.409538 
L 120.034069 -108.115859 
L 120.008388 -109.82218 
L 119.985883 -111.528501 
L 119.966434 -113.234822 
L 119.94901 -114.941143 
L 119.931706 -116.647464 
L 119.911976 -118.353785 
L 119.887022 -120.060106 
L 119.854283 -121.766427 
L 119.811918 -123.472748 
L 119.75917 -125.179069 
L 119.696534 -126.88539 
L 119.625651 -128.591711 
L 119.548964 -130.298032 
L 119.469191 -132.004353 
L 119.388743 -133.710674 
L 119.309234 -135.416995 
L 119.231216 -137.123316 
L 119.154193 -138.829637 
L 119.076938 -140.535958 
L 118.99799 -142.242279 
L 118.916192 -143.9486 
L 118.831096 -145.654921 
L 118.74308 -147.361242 
L 118.65314 -149.067563 
L 118.562374 -150.773884 
L 118.471323 -152.480205 
L 118.379345 -154.186526 
L 118.284222 -155.892847 
L 118.182123 -157.599168 
L 118.067951 -159.305489 
L 117.935992 -161.011809 
L 117.780702 -162.71813 
L 117.597429 -164.424451 
L 117.382909 -166.130772 
L 117.135422 -167.837093 
L 116.854604 -169.543414 
L 116.540999 -171.249735 
L 116.19548 -172.956056 
L 115.818716 -174.662377 
L 115.410816 -176.368698 
L 114.971237 -178.075019 
L 114.498997 -179.78134 
L 113.993153 -181.487661 
L 113.453468 -183.193982 
L 112.881178 -184.900303 
L 112.279745 -186.606624 
L 111.655496 -188.312945 
L 111.018042 -190.019266 
L 110.380395 -191.725587 
L 109.758708 -193.431908 
L 109.171584 -195.138229 
L 108.638975 -196.84455 
L 108.180718 -198.550871 
L 107.81486 -200.257192 
L 107.555948 -201.963513 
L 107.413496 -203.669834 
L 107.390865 -205.376155 
L 107.484696 -207.082476 
L 107.685029 -208.788797 
L 107.976125 -210.495118 
L 108.337943 -212.201439 
L 108.748143 -213.90776 
L 109.184421 -215.614081 
L 109.626904 -217.320402 
L 110.060302 -219.026723 
L 110.475502 -220.733044 
L 110.870321 -222.439365 
L 111.249257 -224.145686 
L 111.622223 -225.852007 
L 112.002441 -227.558328 
L 112.40383 -229.264648 
L 112.838363 -230.970969 
L 113.31383 -232.67729 
L 113.832398 -234.383611 
L 114.39017 -236.089932 
L 114.977735 -237.796253 
L 115.581512 -239.502574 
L 116.185583 -241.208895 
L 116.773638 -242.915216 
L 117.330714 -244.621537 
L 117.844511 -246.327858 
L 118.306165 -248.034179 
L 118.71051 -249.7405 
L 119.055895 -251.446821 
L 119.343699 -253.153142 
L 119.577675 -254.859463 
L 119.763229 -256.565784 
L 119.906732 -258.272105 
L 120.01491 -259.978426 
L 120.094352 -261.684747 
L 120.151146 -263.391068 
L 120.373854 -263.391068 
L 120.373854 -263.391068 
L 120.430648 -261.684747 
L 120.51009 -259.978426 
L 120.618268 -258.272105 
L 120.761771 -256.565784 
L 120.947325 -254.859463 
L 121.181301 -253.153142 
L 121.469105 -251.446821 
L 121.81449 -249.7405 
L 122.218835 -248.034179 
L 122.680489 -246.327858 
L 123.194286 -244.621537 
L 123.751362 -242.915216 
L 124.339417 -241.208895 
L 124.943488 -239.502574 
L 125.547265 -237.796253 
L 126.13483 -236.089932 
L 126.692602 -234.383611 
L 127.21117 -232.67729 
L 127.686637 -230.970969 
L 128.12117 -229.264648 
L 128.522559 -227.558328 
L 128.902777 -225.852007 
L 129.275743 -224.145686 
L 129.654679 -222.439365 
L 130.049498 -220.733044 
L 130.464698 -219.026723 
L 130.898096 -217.320402 
L 131.340579 -215.614081 
L 131.776857 -213.90776 
L 132.187057 -212.201439 
L 132.548875 -210.495118 
L 132.839971 -208.788797 
L 133.040304 -207.082476 
L 133.134135 -205.376155 
L 133.111504 -203.669834 
L 132.969052 -201.963513 
L 132.71014 -200.257192 
L 132.344282 -198.550871 
L 131.886025 -196.84455 
L 131.353416 -195.138229 
L 130.766292 -193.431908 
L 130.144605 -191.725587 
L 129.506958 -190.019266 
L 128.869504 -188.312945 
L 128.245255 -186.606624 
L 127.643822 -184.900303 
L 127.071532 -183.193982 
L 126.531847 -181.487661 
L 126.026003 -179.78134 
L 125.553763 -178.075019 
L 125.114184 -176.368698 
L 124.706284 -174.662377 
L 124.32952 -172.956056 
L 123.984001 -171.249735 
L 123.670396 -169.543414 
L 123.389578 -167.837093 
L 123.142091 -166.130772 
L 122.927571 -164.424451 
L 122.744298 -162.71813 
L 122.589008 -161.011809 
L 122.457049 -159.305489 
L 122.342877 -157.599168 
L 122.240778 -155.892847 
L 122.145655 -154.186526 
L 122.053677 -152.480205 
L 121.962626 -150.773884 
L 121.87186 -149.067563 
L 121.78192 -147.361242 
L 121.693904 -145.654921 
L 121.608808 -143.9486 
L 121.52701 -142.242279 
L 121.448062 -140.535958 
L 121.370807 -138.829637 
L 121.293784 -137.123316 
L 121.215766 -135.416995 
L 121.136257 -133.710674 
L 121.055809 -132.004353 
L 120.976036 -130.298032 
L 120.899349 -128.591711 
L 120.828466 -126.88539 
L 120.76583 -125.179069 
L 120.713082 -123.472748 
L 120.670717 -121.766427 
L 120.637978 -120.060106 
L 120.613024 -118.353785 
L 120.593294 -116.647464 
L 120.57599 -114.941143 
L 120.558566 -113.234822 
L 120.539117 -111.528501 
L 120.516612 -109.82218 
L 120.490931 -108.115859 
L 120.462741 -106.409538 
L 120.433245 -104.703217 
L 120.403884 -102.996896 
L 120.376056 -101.290575 
L 120.350898 -99.584254 
L 120.32916 -97.877933 
L 120.311179 -96.171612 
L 120.296916 -94.465291 
z
" style="stroke: #717171"/>
    </defs>
    <g clip-path="url(#pa98e5e797f)">
     <use xlink:href="#md2773609e5" x="0" y="287.73458" style="fill: #c6d99e; stroke: #717171"/>
    </g>
   </g>
   <g id="FillBetweenPolyCollection_3">
    <defs>
     <path id="mdd83d925ab" d="M 170.682996 -115.132085 
L 170.282004 -115.132085 
L 170.233676 -116.328241 
L 170.17673 -117.524396 
L 170.110402 -118.720552 
L 170.034034 -119.916707 
L 169.947116 -121.112863 
L 169.849324 -122.309018 
L 169.740549 -123.505173 
L 169.620927 -124.701329 
L 169.490849 -125.897484 
L 169.350964 -127.09364 
L 169.202163 -128.289795 
L 169.045554 -129.485951 
L 168.882412 -130.682106 
L 168.714132 -131.878262 
L 168.542158 -133.074417 
L 168.367922 -134.270572 
L 168.192771 -135.466728 
L 168.017916 -136.662883 
L 167.844379 -137.859039 
L 167.672972 -139.055194 
L 167.504286 -140.25135 
L 167.338706 -141.447505 
L 167.176452 -142.643661 
L 167.017632 -143.839816 
L 166.862307 -145.035971 
L 166.710567 -146.232127 
L 166.562597 -147.428282 
L 166.418724 -148.624438 
L 166.27945 -149.820593 
L 166.145444 -151.016749 
L 166.017498 -152.212904 
L 165.896449 -153.409059 
L 165.783052 -154.605215 
L 165.677839 -155.80137 
L 165.580943 -156.997526 
L 165.491928 -158.193681 
L 165.409626 -159.389837 
L 165.332007 -160.585992 
L 165.256096 -161.782148 
L 165.177953 -162.978303 
L 165.092726 -164.174458 
L 164.994784 -165.370614 
L 164.877931 -166.566769 
L 164.735685 -167.762925 
L 164.561615 -168.95908 
L 164.34972 -170.155236 
L 164.094815 -171.351391 
L 163.792903 -172.547547 
L 163.441508 -173.743702 
L 163.039949 -174.939857 
L 162.58952 -176.136013 
L 162.093578 -177.332168 
L 161.557518 -178.528324 
L 160.988651 -179.724479 
L 160.395979 -180.920635 
L 159.789881 -182.11679 
L 159.181742 -183.312946 
L 158.583546 -184.509101 
L 158.007438 -185.705256 
L 157.465317 -186.901412 
L 156.96844 -188.097567 
L 156.527091 -189.293723 
L 156.150308 -190.489878 
L 155.845676 -191.686034 
L 155.6192 -192.882189 
L 155.475238 -194.078344 
L 155.4165 -195.2745 
L 155.44409 -196.470655 
L 155.557591 -197.666811 
L 155.755175 -198.862966 
L 156.033721 -200.059122 
L 156.388946 -201.255277 
L 156.815535 -202.451433 
L 157.307267 -203.647588 
L 157.857137 -204.843743 
L 158.457486 -206.039899 
L 159.100124 -207.236054 
L 159.776467 -208.43221 
L 160.477679 -209.628365 
L 161.194822 -210.824521 
L 161.919027 -212.020676 
L 162.641655 -213.216832 
L 163.354475 -214.412987 
L 164.049828 -215.609142 
L 164.720787 -216.805298 
L 165.361284 -218.001453 
L 165.966227 -219.197609 
L 166.531571 -220.393764 
L 167.054358 -221.58992 
L 167.532715 -222.786075 
L 167.965819 -223.982231 
L 168.353825 -225.178386 
L 168.697761 -226.374541 
L 168.999411 -227.570697 
L 169.261167 -228.766852 
L 169.485891 -229.963008 
L 169.676764 -231.159163 
L 169.837154 -232.355319 
L 169.970484 -233.551474 
L 170.994516 -233.551474 
L 170.994516 -233.551474 
L 171.127846 -232.355319 
L 171.288236 -231.159163 
L 171.479109 -229.963008 
L 171.703833 -228.766852 
L 171.965589 -227.570697 
L 172.267239 -226.374541 
L 172.611175 -225.178386 
L 172.999181 -223.982231 
L 173.432285 -222.786075 
L 173.910642 -221.58992 
L 174.433429 -220.393764 
L 174.998773 -219.197609 
L 175.603716 -218.001453 
L 176.244213 -216.805298 
L 176.915172 -215.609142 
L 177.610525 -214.412987 
L 178.323345 -213.216832 
L 179.045973 -212.020676 
L 179.770178 -210.824521 
L 180.487321 -209.628365 
L 181.188533 -208.43221 
L 181.864876 -207.236054 
L 182.507514 -206.039899 
L 183.107863 -204.843743 
L 183.657733 -203.647588 
L 184.149465 -202.451433 
L 184.576054 -201.255277 
L 184.931279 -200.059122 
L 185.209825 -198.862966 
L 185.407409 -197.666811 
L 185.52091 -196.470655 
L 185.5485 -195.2745 
L 185.489762 -194.078344 
L 185.3458 -192.882189 
L 185.119324 -191.686034 
L 184.814692 -190.489878 
L 184.437909 -189.293723 
L 183.99656 -188.097567 
L 183.499683 -186.901412 
L 182.957562 -185.705256 
L 182.381454 -184.509101 
L 181.783258 -183.312946 
L 181.175119 -182.11679 
L 180.569021 -180.920635 
L 179.976349 -179.724479 
L 179.407482 -178.528324 
L 178.871422 -177.332168 
L 178.37548 -176.136013 
L 177.925051 -174.939857 
L 177.523492 -173.743702 
L 177.172097 -172.547547 
L 176.870185 -171.351391 
L 176.61528 -170.155236 
L 176.403385 -168.95908 
L 176.229315 -167.762925 
L 176.087069 -166.566769 
L 175.970216 -165.370614 
L 175.872274 -164.174458 
L 175.787047 -162.978303 
L 175.708904 -161.782148 
L 175.632993 -160.585992 
L 175.555374 -159.389837 
L 175.473072 -158.193681 
L 175.384057 -156.997526 
L 175.287161 -155.80137 
L 175.181948 -154.605215 
L 175.068551 -153.409059 
L 174.947502 -152.212904 
L 174.819556 -151.016749 
L 174.68555 -149.820593 
L 174.546276 -148.624438 
L 174.402403 -147.428282 
L 174.254433 -146.232127 
L 174.102693 -145.035971 
L 173.947368 -143.839816 
L 173.788548 -142.643661 
L 173.626294 -141.447505 
L 173.460714 -140.25135 
L 173.292028 -139.055194 
L 173.120621 -137.859039 
L 172.947084 -136.662883 
L 172.772229 -135.466728 
L 172.597078 -134.270572 
L 172.422842 -133.074417 
L 172.250868 -131.878262 
L 172.082588 -130.682106 
L 171.919446 -129.485951 
L 171.762837 -128.289795 
L 171.614036 -127.09364 
L 171.474151 -125.897484 
L 171.344073 -124.701329 
L 171.224451 -123.505173 
L 171.115676 -122.309018 
L 171.017884 -121.112863 
L 170.930966 -119.916707 
L 170.854598 -118.720552 
L 170.78827 -117.524396 
L 170.731324 -116.328241 
L 170.682996 -115.132085 
z
" style="stroke: #717171"/>
    </defs>
    <g clip-path="url(#pa98e5e797f)">
     <use xlink:href="#mdd83d925ab" x="0" y="287.73458" style="fill: #c6d99e; stroke: #717171"/>
    </g>
   </g>
   <g id="FillBetweenPolyCollection_4">
    <defs>
     <path id="ma0f9489d72" d="M 221.105358 -130.273328 
L 220.299642 -130.273328 
L 220.217511 -131.462946 
L 220.12328 -132.652563 
L 220.01622 -133.84218 
L 219.89578 -135.031797 
L 219.761636 -136.221414 
L 219.613732 -137.411032 
L 219.452322 -138.600649 
L 219.277997 -139.790266 
L 219.091705 -140.979883 
L 218.894758 -142.1695 
L 218.688822 -143.359118 
L 218.475894 -144.548735 
L 218.258254 -145.738352 
L 218.03841 -146.927969 
L 217.819026 -148.117586 
L 217.602831 -149.307204 
L 217.392528 -150.496821 
L 217.190694 -151.686438 
L 216.999681 -152.876055 
L 216.821521 -154.065672 
L 216.657843 -155.25529 
L 216.509803 -156.444907 
L 216.378029 -157.634524 
L 216.262589 -158.824141 
L 216.162982 -160.013758 
L 216.078151 -161.203376 
L 216.006512 -162.392993 
L 215.946013 -163.58261 
L 215.894201 -164.772227 
L 215.848305 -165.961844 
L 215.805332 -167.151462 
L 215.76216 -168.341079 
L 215.715638 -169.530696 
L 215.662679 -170.720313 
L 215.600344 -171.90993 
L 215.525915 -173.099548 
L 215.436958 -174.289165 
L 215.331362 -175.478782 
L 215.207376 -176.668399 
L 215.063617 -177.858016 
L 214.899068 -179.047634 
L 214.713075 -180.237251 
L 214.505314 -181.426868 
L 214.275776 -182.616485 
L 214.024732 -183.806102 
L 213.752708 -184.99572 
L 213.460471 -186.185337 
L 213.149014 -187.374954 
L 212.819556 -188.564571 
L 212.473562 -189.754188 
L 212.112764 -190.943806 
L 211.7392 -192.133423 
L 211.355259 -193.32304 
L 210.963729 -194.512657 
L 210.567843 -195.702274 
L 210.171322 -196.891891 
L 209.778393 -198.081509 
L 209.393794 -199.271126 
L 209.022752 -200.460743 
L 208.670929 -201.65036 
L 208.344334 -202.839977 
L 208.049205 -204.029595 
L 207.79186 -205.219212 
L 207.578517 -206.408829 
L 207.415104 -207.598446 
L 207.307047 -208.788063 
L 207.259068 -209.977681 
L 207.274989 -211.167298 
L 207.357551 -212.356915 
L 207.508278 -213.546532 
L 207.727366 -214.736149 
L 208.013629 -215.925767 
L 208.364492 -217.115384 
L 208.776036 -218.305001 
L 209.243095 -219.494618 
L 209.759399 -220.684235 
L 210.317755 -221.873853 
L 210.910266 -223.06347 
L 211.528564 -224.253087 
L 212.164054 -225.442704 
L 212.808166 -226.632321 
L 213.452581 -227.821939 
L 214.089449 -229.011556 
L 214.711573 -230.201173 
L 215.312557 -231.39079 
L 215.886919 -232.580407 
L 216.430163 -233.770025 
L 216.938807 -234.959642 
L 217.410382 -236.149259 
L 217.84339 -237.338876 
L 218.237234 -238.528493 
L 218.592135 -239.718111 
L 218.909017 -240.907728 
L 219.189401 -242.097345 
L 219.435273 -243.286962 
L 219.648975 -244.476579 
L 219.833089 -245.666197 
L 219.990331 -246.855814 
L 220.123463 -248.045431 
L 221.281537 -248.045431 
L 221.281537 -248.045431 
L 221.414669 -246.855814 
L 221.571911 -245.666197 
L 221.756025 -244.476579 
L 221.969727 -243.286962 
L 222.215599 -242.097345 
L 222.495983 -240.907728 
L 222.812865 -239.718111 
L 223.167766 -238.528493 
L 223.56161 -237.338876 
L 223.994618 -236.149259 
L 224.466193 -234.959642 
L 224.974837 -233.770025 
L 225.518081 -232.580407 
L 226.092443 -231.39079 
L 226.693427 -230.201173 
L 227.315551 -229.011556 
L 227.952419 -227.821939 
L 228.596834 -226.632321 
L 229.240946 -225.442704 
L 229.876436 -224.253087 
L 230.494734 -223.06347 
L 231.087245 -221.873853 
L 231.645601 -220.684235 
L 232.161905 -219.494618 
L 232.628964 -218.305001 
L 233.040508 -217.115384 
L 233.391371 -215.925767 
L 233.677634 -214.736149 
L 233.896722 -213.546532 
L 234.047449 -212.356915 
L 234.130011 -211.167298 
L 234.145932 -209.977681 
L 234.097953 -208.788063 
L 233.989896 -207.598446 
L 233.826483 -206.408829 
L 233.61314 -205.219212 
L 233.355795 -204.029595 
L 233.060666 -202.839977 
L 232.734071 -201.65036 
L 232.382248 -200.460743 
L 232.011206 -199.271126 
L 231.626607 -198.081509 
L 231.233678 -196.891891 
L 230.837157 -195.702274 
L 230.441271 -194.512657 
L 230.049741 -193.32304 
L 229.6658 -192.133423 
L 229.292236 -190.943806 
L 228.931438 -189.754188 
L 228.585444 -188.564571 
L 228.255986 -187.374954 
L 227.944529 -186.185337 
L 227.652292 -184.99572 
L 227.380268 -183.806102 
L 227.129224 -182.616485 
L 226.899686 -181.426868 
L 226.691925 -180.237251 
L 226.505932 -179.047634 
L 226.341383 -177.858016 
L 226.197624 -176.668399 
L 226.073638 -175.478782 
L 225.968042 -174.289165 
L 225.879085 -173.099548 
L 225.804656 -171.90993 
L 225.742321 -170.720313 
L 225.689362 -169.530696 
L 225.64284 -168.341079 
L 225.599668 -167.151462 
L 225.556695 -165.961844 
L 225.510799 -164.772227 
L 225.458987 -163.58261 
L 225.398488 -162.392993 
L 225.326849 -161.203376 
L 225.242018 -160.013758 
L 225.142411 -158.824141 
L 225.026971 -157.634524 
L 224.895197 -156.444907 
L 224.747157 -155.25529 
L 224.583479 -154.065672 
L 224.405319 -152.876055 
L 224.214306 -151.686438 
L 224.012472 -150.496821 
L 223.802169 -149.307204 
L 223.585974 -148.117586 
L 223.36659 -146.927969 
L 223.146746 -145.738352 
L 222.929106 -144.548735 
L 222.716178 -143.359118 
L 222.510242 -142.1695 
L 222.313295 -140.979883 
L 222.127003 -139.790266 
L 221.952678 -138.600649 
L 221.791268 -137.411032 
L 221.643364 -136.221414 
L 221.50922 -135.031797 
L 221.38878 -133.84218 
L 221.28172 -132.652563 
L 221.187489 -131.462946 
L 221.105358 -130.273328 
z
" style="stroke: #717171"/>
    </defs>
    <g clip-path="url(#pa98e5e797f)">
     <use xlink:href="#ma0f9489d72" x="0" y="287.73458" style="fill: #c6d99e; stroke: #717171"/>
    </g>
   </g>
   <g id="FillBetweenPolyCollection_5">
    <defs>
     <path id="m5aa5eb79c7" d="M 271.830427 -146.619909 
L 270.014573 -146.619909 
L 269.905951 -147.87842 
L 269.787895 -149.13693 
L 269.660077 -150.395441 
L 269.522228 -151.653951 
L 269.37414 -152.912462 
L 269.215677 -154.170972 
L 269.04678 -155.429483 
L 268.86748 -156.687993 
L 268.677898 -157.946504 
L 268.478254 -159.205014 
L 268.26887 -160.463525 
L 268.05017 -161.722035 
L 267.822686 -162.980546 
L 267.587051 -164.239057 
L 267.344 -165.497567 
L 267.094365 -166.756078 
L 266.839066 -168.014588 
L 266.579105 -169.273099 
L 266.315555 -170.531609 
L 266.049545 -171.79012 
L 265.782252 -173.04863 
L 265.514883 -174.307141 
L 265.248658 -175.565651 
L 264.984799 -176.824162 
L 264.724509 -178.082672 
L 264.468959 -179.341183 
L 264.219271 -180.599693 
L 263.976503 -181.858204 
L 263.74164 -183.116714 
L 263.515577 -184.375225 
L 263.299114 -185.633735 
L 263.092947 -186.892246 
L 262.897665 -188.150756 
L 262.713745 -189.409267 
L 262.541557 -190.667777 
L 262.381363 -191.926288 
L 262.233326 -193.184798 
L 262.097517 -194.443309 
L 261.973924 -195.701819 
L 261.862469 -196.96033 
L 261.763013 -198.21884 
L 261.675377 -199.477351 
L 261.599355 -200.735861 
L 261.534725 -201.994372 
L 261.481271 -203.252882 
L 261.438787 -204.511393 
L 261.407093 -205.769903 
L 261.386048 -207.028414 
L 261.375551 -208.286924 
L 261.375551 -209.545435 
L 261.386048 -210.803945 
L 261.407093 -212.062456 
L 261.438787 -213.320967 
L 261.481271 -214.579477 
L 261.534725 -215.837988 
L 261.599355 -217.096498 
L 261.675377 -218.355009 
L 261.763013 -219.613519 
L 261.862469 -220.87203 
L 261.973924 -222.13054 
L 262.097517 -223.389051 
L 262.233326 -224.647561 
L 262.381363 -225.906072 
L 262.541557 -227.164582 
L 262.713745 -228.423093 
L 262.897665 -229.681603 
L 263.092947 -230.940114 
L 263.299114 -232.198624 
L 263.515577 -233.457135 
L 263.74164 -234.715645 
L 263.976503 -235.974156 
L 264.219271 -237.232666 
L 264.468959 -238.491177 
L 264.724509 -239.749687 
L 264.984799 -241.008198 
L 265.248658 -242.266708 
L 265.514883 -243.525219 
L 265.782252 -244.783729 
L 266.049545 -246.04224 
L 266.315555 -247.30075 
L 266.579105 -248.559261 
L 266.839066 -249.817771 
L 267.094365 -251.076282 
L 267.344 -252.334792 
L 267.587051 -253.593303 
L 267.822686 -254.851813 
L 268.05017 -256.110324 
L 268.26887 -257.368834 
L 268.478254 -258.627345 
L 268.677898 -259.885855 
L 268.86748 -261.144366 
L 269.04678 -262.402877 
L 269.215677 -263.661387 
L 269.37414 -264.919898 
L 269.522228 -266.178408 
L 269.660077 -267.436919 
L 269.787895 -268.695429 
L 269.905951 -269.95394 
L 270.014573 -271.21245 
L 271.830427 -271.21245 
L 271.830427 -271.21245 
L 271.939049 -269.95394 
L 272.057105 -268.695429 
L 272.184923 -267.436919 
L 272.322772 -266.178408 
L 272.47086 -264.919898 
L 272.629323 -263.661387 
L 272.79822 -262.402877 
L 272.97752 -261.144366 
L 273.167102 -259.885855 
L 273.366746 -258.627345 
L 273.57613 -257.368834 
L 273.79483 -256.110324 
L 274.022314 -254.851813 
L 274.257949 -253.593303 
L 274.501 -252.334792 
L 274.750635 -251.076282 
L 275.005934 -249.817771 
L 275.265895 -248.559261 
L 275.529445 -247.30075 
L 275.795455 -246.04224 
L 276.062748 -244.783729 
L 276.330117 -243.525219 
L 276.596342 -242.266708 
L 276.860201 -241.008198 
L 277.120491 -239.749687 
L 277.376041 -238.491177 
L 277.625729 -237.232666 
L 277.868497 -235.974156 
L 278.10336 -234.715645 
L 278.329423 -233.457135 
L 278.545886 -232.198624 
L 278.752053 -230.940114 
L 278.947335 -229.681603 
L 279.131255 -228.423093 
L 279.303443 -227.164582 
L 279.463637 -225.906072 
L 279.611674 -224.647561 
L 279.747483 -223.389051 
L 279.871076 -222.13054 
L 279.982531 -220.87203 
L 280.081987 -219.613519 
L 280.169623 -218.355009 
L 280.245645 -217.096498 
L 280.310275 -215.837988 
L 280.363729 -214.579477 
L 280.406213 -213.320967 
L 280.437907 -212.062456 
L 280.458952 -210.803945 
L 280.469449 -209.545435 
L 280.469449 -208.286924 
L 280.458952 -207.028414 
L 280.437907 -205.769903 
L 280.406213 -204.511393 
L 280.363729 -203.252882 
L 280.310275 -201.994372 
L 280.245645 -200.735861 
L 280.169623 -199.477351 
L 280.081987 -198.21884 
L 279.982531 -196.96033 
L 279.871076 -195.701819 
L 279.747483 -194.443309 
L 279.611674 -193.184798 
L 279.463637 -191.926288 
L 279.303443 -190.667777 
L 279.131255 -189.409267 
L 278.947335 -188.150756 
L 278.752053 -186.892246 
L 278.545886 -185.633735 
L 278.329423 -184.375225 
L 278.10336 -183.116714 
L 277.868497 -181.858204 
L 277.625729 -180.599693 
L 277.376041 -179.341183 
L 277.120491 -178.082672 
L 276.860201 -176.824162 
L 276.596342 -175.565651 
L 276.330117 -174.307141 
L 276.062748 -173.04863 
L 275.795455 -171.79012 
L 275.529445 -170.531609 
L 275.265895 -169.273099 
L 275.005934 -168.014588 
L 274.750635 -166.756078 
L 274.501 -165.497567 
L 274.257949 -164.239057 
L 274.022314 -162.980546 
L 273.79483 -161.722035 
L 273.57613 -160.463525 
L 273.366746 -159.205014 
L 273.167102 -157.946504 
L 272.97752 -156.687993 
L 272.79822 -155.429483 
L 272.629323 -154.170972 
L 272.47086 -152.912462 
L 272.322772 -151.653951 
L 272.184923 -150.395441 
L 272.057105 -149.13693 
L 271.939049 -147.87842 
L 271.830427 -146.619909 
z
" style="stroke: #717171"/>
    </defs>
    <g clip-path="url(#pa98e5e797f)">
     <use xlink:href="#m5aa5eb79c7" x="0" y="287.73458" style="fill: #c6d99e; stroke: #717171"/>
    </g>
   </g>
   <g id="matplotlib.axis_1">
    <g id="xtick_1">
     <g id="line2d_1">
      <defs>
       <path id="m22d8daee20" d="M 0 0 
L 0 3.5 
" style="stroke: #000000; stroke-width: 0.8"/>
      </defs>
      <g>
       <use xlink:href="#m22d8daee20" x="70.0425" y="201.24" style="stroke: #000000; stroke-width: 0.8"/>
      </g>
     </g>
     <g id="text_1">
      <!-- Black -->
      <g transform="translate(47.53264 235.138342) rotate(-45) scale(0.12 -0.12)">
       <defs>
        <path id="Arimo-Regular-42" d="M 3931 1241 
Q 3931 653 3503 326 
Q 3075 0 2313 0 
L 525 0 
L 525 4403 
L 2125 4403 
Q 2900 4403 3287 4136 
Q 3675 3869 3675 3334 
Q 3675 2944 3456 2678 
Q 3238 2413 2838 2322 
Q 3363 2259 3647 1970 
Q 3931 1681 3931 1241 
z
M 3075 3263 
Q 3075 3619 2831 3772 
Q 2588 3925 2125 3925 
L 1122 3925 
L 1122 2531 
L 2125 2531 
Q 2603 2531 2839 2711 
Q 3075 2891 3075 3263 
z
M 3328 1288 
Q 3328 2066 2234 2066 
L 1122 2066 
L 1122 478 
L 2281 478 
Q 2828 478 3078 681 
Q 3328 884 3328 1288 
z
" transform="scale(0.015625)"/>
        <path id="Arimo-Regular-6c" d="M 994 4638 
L 994 0 
L 431 0 
L 431 4638 
L 994 4638 
z
" transform="scale(0.015625)"/>
        <path id="Arimo-Regular-61" d="M 1294 -63 
Q 784 -63 528 206 
Q 272 475 272 944 
Q 272 1469 617 1750 
Q 963 2031 1731 2050 
L 2491 2063 
L 2491 2247 
Q 2491 2659 2316 2837 
Q 2141 3016 1766 3016 
Q 1388 3016 1216 2887 
Q 1044 2759 1009 2478 
L 422 2531 
Q 566 3444 1778 3444 
Q 2416 3444 2737 3151 
Q 3059 2859 3059 2306 
L 3059 850 
Q 3059 600 3125 473 
Q 3191 347 3375 347 
Q 3463 347 3559 369 
L 3559 19 
Q 3453 -6 3343 -18 
Q 3234 -31 3125 -31 
Q 2813 -31 2670 133 
Q 2528 297 2509 647 
L 2491 647 
Q 2275 259 1989 98 
Q 1703 -63 1294 -63 
z
M 2491 1669 
L 1875 1656 
Q 1481 1653 1275 1575 
Q 1069 1500 959 1344 
Q 850 1188 850 934 
Q 850 659 998 509 
Q 1147 359 1422 359 
Q 1734 359 1972 500 
Q 2213 641 2352 886 
Q 2491 1131 2491 1391 
L 2491 1669 
z
" transform="scale(0.015625)"/>
        <path id="Arimo-Regular-63" d="M 1728 -63 
Q 1019 -63 645 385 
Q 272 834 272 1694 
Q 272 2547 647 2995 
Q 1022 3444 1722 3444 
Q 2241 3444 2583 3175 
Q 2925 2906 3013 2434 
L 2434 2391 
Q 2391 2672 2212 2837 
Q 2034 3003 1706 3003 
Q 1259 3003 1059 2706 
Q 859 2409 859 1706 
Q 859 1031 1071 706 
Q 1284 381 1713 381 
Q 2013 381 2214 543 
Q 2416 706 2463 1044 
L 3031 1006 
Q 2988 681 2814 440 
Q 2641 200 2364 68 
Q 2088 -63 1728 -63 
z
" transform="scale(0.015625)"/>
        <path id="Arimo-Regular-6b" d="M 994 1203 
L 994 0 
L 431 0 
L 431 4638 
L 994 4638 
L 994 1741 
L 2478 3381 
L 3138 3381 
L 1766 1928 
L 3209 0 
L 2550 0 
L 1406 1544 
L 994 1203 
z
" transform="scale(0.015625)"/>
       </defs>
       <use xlink:href="#Arimo-Regular-42"/>
       <use xlink:href="#Arimo-Regular-6c" transform="translate(66.699219 0)"/>
       <use xlink:href="#Arimo-Regular-61" transform="translate(88.916016 0)"/>
       <use xlink:href="#Arimo-Regular-63" transform="translate(144.53125 0)"/>
       <use xlink:href="#Arimo-Regular-6b" transform="translate(194.53125 0)"/>
      </g>
     </g>
    </g>
    <g id="xtick_2">
     <g id="line2d_2">
      <g>
       <use xlink:href="#m22d8daee20" x="120.2625" y="201.24" style="stroke: #000000; stroke-width: 0.8"/>
      </g>
     </g>
     <g id="text_2">
      <!-- White -->
      <g transform="translate(96.812629 236.078352) rotate(-45) scale(0.12 -0.12)">
       <defs>
        <path id="Arimo-Regular-57" d="M 2803 2781 
L 2038 0 
L 1325 0 
L 28 4403 
L 650 4403 
L 1441 1606 
Q 1513 1344 1577 1073 
Q 1641 803 1700 525 
Q 1725 641 1767 830 
Q 1809 1019 1856 1216 
Q 1903 1413 1941 1547 
L 2741 4403 
L 3313 4403 
L 4078 1663 
Q 4166 1328 4234 1042 
Q 4303 756 4353 525 
Q 4400 709 4451 923 
Q 4503 1138 4548 1314 
Q 4594 1491 4613 1566 
L 5397 4403 
L 6019 4403 
L 4722 0 
L 4009 0 
L 3247 2797 
Q 3209 2928 3154 3162 
Q 3100 3397 3028 3738 
Q 3000 3572 2954 3380 
Q 2909 3188 2867 3025 
Q 2825 2863 2803 2781 
z
" transform="scale(0.015625)"/>
        <path id="Arimo-Regular-68" d="M 991 2803 
Q 1172 3134 1426 3289 
Q 1681 3444 2072 3444 
Q 2622 3444 2883 3158 
Q 3144 2872 3144 2253 
L 3144 0 
L 2578 0 
L 2578 2144 
Q 2578 2603 2417 2806 
Q 2256 3009 1881 3009 
Q 1484 3009 1245 2734 
Q 1006 2459 1006 1994 
L 1006 0 
L 444 0 
L 444 4638 
L 1006 4638 
L 1006 3431 
Q 1006 3306 1000 3167 
Q 994 3028 989 2926 
Q 984 2825 981 2803 
L 991 2803 
z
" transform="scale(0.015625)"/>
        <path id="Arimo-Regular-69" d="M 991 4638 
L 991 4100 
L 428 4100 
L 428 4638 
L 991 4638 
z
M 991 3381 
L 991 0 
L 428 0 
L 428 3381 
L 991 3381 
z
" transform="scale(0.015625)"/>
        <path id="Arimo-Regular-74" d="M 1731 25 
Q 1456 -50 1163 -50 
Q 825 -50 656 142 
Q 488 334 488 716 
L 488 2972 
L 97 2972 
L 97 3381 
L 509 3381 
L 675 4138 
L 1050 4138 
L 1050 3381 
L 1675 3381 
L 1675 2972 
L 1050 2972 
L 1050 838 
Q 1050 594 1129 495 
Q 1209 397 1406 397 
Q 1513 397 1731 441 
L 1731 25 
z
" transform="scale(0.015625)"/>
        <path id="Arimo-Regular-65" d="M 863 1572 
Q 863 991 1103 675 
Q 1344 359 1806 359 
Q 2172 359 2392 506 
Q 2613 653 2691 878 
L 3184 738 
Q 2881 -63 1806 -63 
Q 1056 -63 664 384 
Q 272 831 272 1713 
Q 272 2550 664 2997 
Q 1056 3444 1784 3444 
Q 2531 3444 2903 2994 
Q 3275 2544 3275 1647 
L 3275 1572 
L 863 1572 
z
M 2694 2003 
Q 2647 2538 2422 2783 
Q 2197 3028 1775 3028 
Q 1366 3028 1127 2754 
Q 888 2481 869 2003 
L 2694 2003 
z
" transform="scale(0.015625)"/>
       </defs>
       <use xlink:href="#Arimo-Regular-57"/>
       <use xlink:href="#Arimo-Regular-68" transform="translate(94.384766 0)"/>
       <use xlink:href="#Arimo-Regular-69" transform="translate(150 0)"/>
       <use xlink:href="#Arimo-Regular-74" transform="translate(172.216797 0)"/>
       <use xlink:href="#Arimo-Regular-65" transform="translate(200 0)"/>
      </g>
     </g>
    </g>
    <g id="xtick_3">
     <g id="line2d_3">
      <g>
       <use xlink:href="#m22d8daee20" x="170.4825" y="201.24" style="stroke: #000000; stroke-width: 0.8"/>
      </g>
     </g>
     <g id="text_3">
      <!-- Asian -->
      <g transform="translate(147.496668 235.614313) rotate(-45) scale(0.12 -0.12)">
       <defs>
        <path id="Arimo-Regular-41" d="M 1138 1288 
L 631 0 
L 13 0 
L 1809 4403 
L 2488 4403 
L 4256 0 
L 3647 0 
L 3144 1288 
L 1138 1288 
z
M 2141 3953 
Q 2088 3778 2014 3564 
Q 1941 3350 1878 3188 
L 1319 1753 
L 2966 1753 
L 2400 3206 
Q 2356 3316 2284 3516 
Q 2213 3716 2141 3953 
z
" transform="scale(0.015625)"/>
        <path id="Arimo-Regular-73" d="M 2969 934 
Q 2969 456 2608 196 
Q 2247 -63 1597 -63 
Q 966 -63 623 145 
Q 281 353 178 794 
L 675 891 
Q 747 619 972 492 
Q 1197 366 1597 366 
Q 2025 366 2223 497 
Q 2422 628 2422 891 
Q 2422 1091 2284 1216 
Q 2147 1341 1841 1422 
Q 1478 1519 1264 1581 
Q 1050 1644 934 1689 
Q 819 1734 750 1775 
Q 544 1894 428 2066 
Q 313 2238 313 2488 
Q 313 2950 642 3192 
Q 972 3434 1603 3434 
Q 2163 3434 2492 3237 
Q 2822 3041 2909 2606 
L 2403 2544 
Q 2356 2769 2151 2889 
Q 1947 3009 1603 3009 
Q 1222 3009 1040 2893 
Q 859 2778 859 2544 
Q 859 2372 962 2261 
Q 1066 2150 1356 2078 
Q 1747 1984 2100 1873 
Q 2453 1763 2606 1653 
Q 2784 1525 2876 1351 
Q 2969 1178 2969 934 
z
" transform="scale(0.015625)"/>
        <path id="Arimo-Regular-6e" d="M 1006 1959 
L 1006 0 
L 444 0 
L 444 2659 
Q 444 2956 439 3136 
Q 434 3316 425 3381 
L 956 3381 
Q 963 3322 967 3231 
Q 972 3141 975 3031 
Q 978 2922 981 2803 
L 991 2803 
Q 1184 3153 1439 3298 
Q 1694 3444 2072 3444 
Q 2628 3444 2886 3159 
Q 3144 2875 3144 2253 
L 3144 0 
L 2578 0 
L 2578 2144 
Q 2578 2628 2422 2818 
Q 2266 3009 1881 3009 
Q 1475 3009 1240 2731 
Q 1006 2453 1006 1959 
z
" transform="scale(0.015625)"/>
       </defs>
       <use xlink:href="#Arimo-Regular-41"/>
       <use xlink:href="#Arimo-Regular-73" transform="translate(66.699219 0)"/>
       <use xlink:href="#Arimo-Regular-69" transform="translate(116.699219 0)"/>
       <use xlink:href="#Arimo-Regular-61" transform="translate(138.916016 0)"/>
       <use xlink:href="#Arimo-Regular-6e" transform="translate(194.53125 0)"/>
      </g>
     </g>
    </g>
    <g id="xtick_4">
     <g id="line2d_4">
      <g>
       <use xlink:href="#m22d8daee20" x="220.7025" y="201.24" style="stroke: #000000; stroke-width: 0.8"/>
      </g>
     </g>
     <g id="text_4">
      <!-- Multiracial -->
      <g transform="translate(180.751409 252.579573) rotate(-45) scale(0.12 -0.12)">
       <defs>
        <path id="Arimo-Regular-4d" d="M 1056 2938 
L 1056 0 
L 525 0 
L 525 4403 
L 1309 4403 
L 2481 1350 
Q 2544 1166 2601 955 
Q 2659 744 2678 650 
Q 2697 734 2740 882 
Q 2784 1031 2828 1168 
Q 2872 1306 2891 1350 
L 4041 4403 
L 4806 4403 
L 4806 0 
L 4269 0 
L 4269 2938 
Q 4269 3181 4276 3415 
Q 4284 3650 4297 3875 
Q 4219 3597 4151 3376 
Q 4084 3156 4022 3000 
L 2884 0 
L 2466 0 
L 1313 3000 
L 1034 3875 
Q 1041 3641 1048 3406 
Q 1056 3172 1056 2938 
z
" transform="scale(0.015625)"/>
        <path id="Arimo-Regular-75" d="M 2569 578 
Q 2375 228 2120 82 
Q 1866 -63 1488 -63 
Q 931 -63 673 214 
Q 416 491 416 1128 
L 416 3381 
L 981 3381 
L 981 1238 
Q 981 731 1139 551 
Q 1297 372 1678 372 
Q 2084 372 2318 650 
Q 2553 928 2553 1422 
L 2553 3381 
L 3116 3381 
L 3116 722 
Q 3116 428 3120 247 
Q 3125 66 3134 0 
L 2603 0 
Q 2600 16 2592 147 
Q 2584 278 2578 578 
L 2569 578 
z
" transform="scale(0.015625)"/>
        <path id="Arimo-Regular-72" d="M 1006 1763 
L 1006 0 
L 444 0 
L 444 2594 
Q 444 2772 439 2969 
Q 434 3166 425 3381 
L 956 3381 
Q 963 3238 967 3122 
Q 972 3006 975 2920 
Q 978 2834 979 2776 
Q 981 2719 981 2691 
L 994 2691 
Q 1088 2997 1200 3166 
Q 1309 3322 1450 3383 
Q 1591 3444 1797 3444 
Q 1913 3444 2025 3413 
L 2025 2897 
Q 1919 2928 1725 2928 
Q 1375 2928 1190 2626 
Q 1006 2325 1006 1763 
z
" transform="scale(0.015625)"/>
       </defs>
       <use xlink:href="#Arimo-Regular-4d"/>
       <use xlink:href="#Arimo-Regular-75" transform="translate(83.300781 0)"/>
       <use xlink:href="#Arimo-Regular-6c" transform="translate(138.916016 0)"/>
       <use xlink:href="#Arimo-Regular-74" transform="translate(161.132812 0)"/>
       <use xlink:href="#Arimo-Regular-69" transform="translate(188.916016 0)"/>
       <use xlink:href="#Arimo-Regular-72" transform="translate(211.132812 0)"/>
       <use xlink:href="#Arimo-Regular-61" transform="translate(244.433594 0)"/>
       <use xlink:href="#Arimo-Regular-63" transform="translate(300.048828 0)"/>
       <use xlink:href="#Arimo-Regular-69" transform="translate(350.048828 0)"/>
       <use xlink:href="#Arimo-Regular-61" transform="translate(372.265625 0)"/>
       <use xlink:href="#Arimo-Regular-6c" transform="translate(427.880859 0)"/>
      </g>
     </g>
    </g>
    <g id="xtick_5">
     <g id="line2d_5">
      <g>
       <use xlink:href="#m22d8daee20" x="270.9225" y="201.24" style="stroke: #000000; stroke-width: 0.8"/>
      </g>
     </g>
     <g id="text_5">
      <!-- Native -->
      <g transform="translate(235.971626 238.439647) rotate(-45) scale(0.12 -0.12)">
       <defs>
        <path id="Arimo-Regular-4e" d="M 1056 2925 
L 1056 0 
L 525 0 
L 525 4403 
L 1219 4403 
L 3600 628 
Q 3563 1244 3563 1516 
L 3563 4403 
L 4100 4403 
L 4100 0 
L 3381 0 
L 1025 3750 
Q 1031 3544 1043 3337 
Q 1056 3131 1056 2925 
z
" transform="scale(0.015625)"/>
        <path id="Arimo-Regular-76" d="M 3178 3381 
L 1916 0 
L 1250 0 
L 22 3381 
L 622 3381 
L 1366 1181 
Q 1388 1119 1441 933 
Q 1494 747 1581 441 
Q 1622 563 1661 695 
Q 1700 828 1739 953 
Q 1778 1078 1813 1175 
L 2581 3381 
L 3178 3381 
z
" transform="scale(0.015625)"/>
       </defs>
       <use xlink:href="#Arimo-Regular-4e"/>
       <use xlink:href="#Arimo-Regular-61" transform="translate(72.216797 0)"/>
       <use xlink:href="#Arimo-Regular-74" transform="translate(127.832031 0)"/>
       <use xlink:href="#Arimo-Regular-69" transform="translate(155.615234 0)"/>
       <use xlink:href="#Arimo-Regular-76" transform="translate(177.832031 0)"/>
       <use xlink:href="#Arimo-Regular-65" transform="translate(227.832031 0)"/>
      </g>
      <!--  American -->
      <g transform="translate(230.967431 261.723259) rotate(-45) scale(0.12 -0.12)">
       <defs>
        <path id="Arimo-Regular-20" transform="scale(0.015625)"/>
        <path id="Arimo-Regular-6d" d="M 1003 1959 
L 1003 0 
L 444 0 
L 444 2659 
Q 444 2956 439 3136 
Q 434 3316 425 3381 
L 956 3381 
Q 963 3313 969 3213 
Q 975 3113 978 3005 
Q 981 2897 981 2803 
L 991 2803 
Q 1172 3163 1406 3303 
Q 1641 3444 1978 3444 
Q 2363 3444 2586 3291 
Q 2809 3138 2897 2803 
L 2906 2803 
Q 3081 3144 3329 3294 
Q 3578 3444 3931 3444 
Q 4444 3444 4676 3166 
Q 4909 2888 4909 2253 
L 4909 0 
L 4353 0 
L 4353 2144 
Q 4353 2634 4218 2821 
Q 4084 3009 3734 3009 
Q 3366 3009 3161 2736 
Q 2956 2463 2956 1959 
L 2956 0 
L 2400 0 
L 2400 2144 
Q 2400 2634 2265 2821 
Q 2131 3009 1781 3009 
Q 1422 3009 1212 2734 
Q 1003 2459 1003 1959 
z
" transform="scale(0.015625)"/>
       </defs>
       <use xlink:href="#Arimo-Regular-20"/>
       <use xlink:href="#Arimo-Regular-41" transform="translate(27.783203 0)"/>
       <use xlink:href="#Arimo-Regular-6d" transform="translate(94.482422 0)"/>
       <use xlink:href="#Arimo-Regular-65" transform="translate(177.783203 0)"/>
       <use xlink:href="#Arimo-Regular-72" transform="translate(233.398438 0)"/>
       <use xlink:href="#Arimo-Regular-69" transform="translate(266.699219 0)"/>
       <use xlink:href="#Arimo-Regular-63" transform="translate(288.916016 0)"/>
       <use xlink:href="#Arimo-Regular-61" transform="translate(338.916016 0)"/>
       <use xlink:href="#Arimo-Regular-6e" transform="translate(394.53125 0)"/>
      </g>
     </g>
    </g>
    <g id="text_6">
     <!-- Race -->
     <g transform="translate(154.141875 277.62958) scale(0.14 -0.14)">
      <defs>
       <path id="Arimo-Regular-52" d="M 1122 1828 
L 1122 0 
L 525 0 
L 525 4403 
L 2597 4403 
Q 3341 4403 3745 4070 
Q 4150 3738 4150 3144 
Q 4150 2653 3864 2318 
Q 3578 1984 3075 1897 
L 4325 0 
L 3638 0 
L 2494 1828 
L 1122 1828 
z
M 3550 3138 
Q 3550 3522 3289 3723 
Q 3028 3925 2538 3925 
L 1122 3925 
L 1122 2300 
L 2563 2300 
Q 3034 2300 3292 2520 
Q 3550 2741 3550 3138 
z
" transform="scale(0.015625)"/>
      </defs>
      <use xlink:href="#Arimo-Regular-52"/>
      <use xlink:href="#Arimo-Regular-61" transform="translate(72.216797 0)"/>
      <use xlink:href="#Arimo-Regular-63" transform="translate(127.832031 0)"/>
      <use xlink:href="#Arimo-Regular-65" transform="translate(177.832031 0)"/>
     </g>
    </g>
   </g>
   <g id="matplotlib.axis_2">
    <g id="ytick_1">
     <g id="line2d_6">
      <defs>
       <path id="ma07c7ceb17" d="M 0 0 
L -3.5 0 
" style="stroke: #000000; stroke-width: 0.8"/>
      </defs>
      <g>
       <use xlink:href="#ma07c7ceb17" x="44.9325" y="201.24" style="stroke: #000000; stroke-width: 0.8"/>
      </g>
     </g>
     <g id="text_7">
      <!-- −5 -->
      <g transform="translate(24.250625 205.588125) scale(0.12 -0.12)">
       <defs>
        <path id="Arimo-Regular-2212" d="M 3425 2356 
L 3425 1900 
L 316 1900 
L 316 2356 
L 3425 2356 
z
" transform="scale(0.015625)"/>
        <path id="Arimo-Regular-35" d="M 3291 1434 
Q 3291 738 2877 337 
Q 2463 -63 1728 -63 
Q 1113 -63 734 206 
Q 356 475 256 984 
L 825 1050 
Q 916 725 1144 561 
Q 1372 397 1741 397 
Q 2194 397 2450 670 
Q 2706 944 2706 1422 
Q 2706 1838 2448 2094 
Q 2191 2350 1753 2350 
Q 1525 2350 1328 2278 
Q 1131 2206 934 2034 
L 384 2034 
L 531 4403 
L 3034 4403 
L 3034 3925 
L 1044 3925 
L 959 2528 
Q 1325 2809 1869 2809 
Q 2303 2809 2622 2636 
Q 2941 2463 3116 2153 
Q 3291 1844 3291 1434 
z
" transform="scale(0.015625)"/>
       </defs>
       <use xlink:href="#Arimo-Regular-2212"/>
       <use xlink:href="#Arimo-Regular-35" transform="translate(58.398438 0)"/>
      </g>
     </g>
    </g>
    <g id="ytick_2">
     <g id="line2d_7">
      <g>
       <use xlink:href="#ma07c7ceb17" x="44.9325" y="165.96" style="stroke: #000000; stroke-width: 0.8"/>
      </g>
     </g>
     <g id="text_8">
      <!-- −3 -->
      <g transform="translate(24.250625 170.308125) scale(0.12 -0.12)">
       <defs>
        <path id="Arimo-Regular-33" d="M 3278 1216 
Q 3278 606 2890 271 
Q 2503 -63 1784 -63 
Q 1116 -63 717 239 
Q 319 541 244 1131 
L 825 1184 
Q 938 403 1784 403 
Q 2209 403 2451 612 
Q 2694 822 2694 1234 
Q 2694 1594 2417 1795 
Q 2141 1997 1619 1997 
L 1300 1997 
L 1300 2484 
L 1606 2484 
Q 2069 2484 2323 2686 
Q 2578 2888 2578 3244 
Q 2578 3597 2370 3801 
Q 2163 4006 1753 4006 
Q 1381 4006 1151 3815 
Q 922 3625 884 3278 
L 319 3322 
Q 381 3863 767 4166 
Q 1153 4469 1759 4469 
Q 2422 4469 2789 4161 
Q 3156 3853 3156 3303 
Q 3156 2881 2920 2617 
Q 2684 2353 2234 2259 
L 2234 2247 
Q 2728 2194 3003 1916 
Q 3278 1638 3278 1216 
z
" transform="scale(0.015625)"/>
       </defs>
       <use xlink:href="#Arimo-Regular-2212"/>
       <use xlink:href="#Arimo-Regular-33" transform="translate(58.398438 0)"/>
      </g>
     </g>
    </g>
    <g id="ytick_3">
     <g id="line2d_8">
      <g>
       <use xlink:href="#ma07c7ceb17" x="44.9325" y="130.68" style="stroke: #000000; stroke-width: 0.8"/>
      </g>
     </g>
     <g id="text_9">
      <!-- −1 -->
      <g transform="translate(24.250625 135.028125) scale(0.12 -0.12)">
       <defs>
        <path id="Arimo-Regular-31" d="M 3247 478 
L 3247 0 
L 488 0 
L 488 478 
L 1609 478 
L 1609 3866 
L 616 3156 
L 616 3688 
L 1656 4403 
L 2175 4403 
L 2175 478 
L 3247 478 
z
" transform="scale(0.015625)"/>
       </defs>
       <use xlink:href="#Arimo-Regular-2212"/>
       <use xlink:href="#Arimo-Regular-31" transform="translate(58.398438 0)"/>
      </g>
     </g>
    </g>
    <g id="ytick_4">
     <g id="line2d_9">
      <g>
       <use xlink:href="#ma07c7ceb17" x="44.9325" y="95.4" style="stroke: #000000; stroke-width: 0.8"/>
      </g>
     </g>
     <g id="text_10">
      <!-- 1 -->
      <g transform="translate(31.259375 99.748125) scale(0.12 -0.12)">
       <use xlink:href="#Arimo-Regular-31"/>
      </g>
     </g>
    </g>
    <g id="ytick_5">
     <g id="line2d_10">
      <g>
       <use xlink:href="#ma07c7ceb17" x="44.9325" y="60.12" style="stroke: #000000; stroke-width: 0.8"/>
      </g>
     </g>
     <g id="text_11">
      <!-- 3 -->
      <g transform="translate(31.259375 64.468125) scale(0.12 -0.12)">
       <use xlink:href="#Arimo-Regular-33"/>
      </g>
     </g>
    </g>
    <g id="ytick_6">
     <g id="line2d_11">
      <g>
       <use xlink:href="#ma07c7ceb17" x="44.9325" y="24.84" style="stroke: #000000; stroke-width: 0.8"/>
      </g>
     </g>
     <g id="text_12">
      <!-- 5 -->
      <g transform="translate(31.259375 29.188125) scale(0.12 -0.12)">
       <use xlink:href="#Arimo-Regular-35"/>
      </g>
     </g>
    </g>
    <g id="text_13">
     <!-- Willingness To Help -->
     <g transform="translate(17.345625 166.072656) rotate(-90) scale(0.14 -0.14)">
      <defs>
       <path id="Arimo-Regular-67" d="M 1713 -1328 
Q 1159 -1328 831 -1111 
Q 503 -894 409 -494 
L 975 -413 
Q 1031 -647 1223 -773 
Q 1416 -900 1728 -900 
Q 2147 -900 2358 -653 
Q 2569 -406 2569 84 
L 2569 628 
L 2563 628 
Q 2403 303 2125 139 
Q 1847 -25 1475 -25 
Q 853 -25 561 387 
Q 269 800 269 1684 
Q 269 2581 583 3007 
Q 897 3434 1538 3434 
Q 1897 3434 2161 3270 
Q 2425 3106 2569 2803 
L 2575 2803 
Q 2575 2866 2581 2998 
Q 2588 3131 2597 3250 
Q 2606 3369 2613 3381 
L 3147 3381 
Q 3128 3213 3128 2681 
L 3128 97 
Q 3128 -616 2775 -972 
Q 2422 -1328 1713 -1328 
z
M 2569 1691 
Q 2569 2306 2317 2661 
Q 2066 3016 1675 3016 
Q 1244 3016 1047 2703 
Q 850 2391 850 1691 
Q 850 997 1034 694 
Q 1219 391 1666 391 
Q 2066 391 2317 739 
Q 2569 1088 2569 1691 
z
" transform="scale(0.015625)"/>
       <path id="Arimo-Regular-54" d="M 2250 3916 
L 2250 0 
L 1656 0 
L 1656 3916 
L 144 3916 
L 144 4403 
L 3763 4403 
L 3763 3916 
L 2250 3916 
z
" transform="scale(0.015625)"/>
       <path id="Arimo-Regular-6f" d="M 3291 1694 
Q 3291 806 2900 371 
Q 2509 -63 1766 -63 
Q 1025 -63 647 389 
Q 269 841 269 1694 
Q 269 2569 648 3006 
Q 1028 3444 1784 3444 
Q 2559 3444 2925 3017 
Q 3291 2591 3291 1694 
z
M 2700 1694 
Q 2700 2394 2492 2711 
Q 2284 3028 1794 3028 
Q 1300 3028 1079 2704 
Q 859 2381 859 1694 
Q 859 1025 1076 689 
Q 1294 353 1759 353 
Q 2266 353 2483 678 
Q 2700 1003 2700 1694 
z
" transform="scale(0.015625)"/>
       <path id="Arimo-Regular-48" d="M 1122 2041 
L 1122 0 
L 525 0 
L 525 4403 
L 1122 4403 
L 1122 2541 
L 3503 2541 
L 3503 4403 
L 4100 4403 
L 4100 0 
L 3503 0 
L 3503 2041 
L 1122 2041 
z
" transform="scale(0.015625)"/>
       <path id="Arimo-Regular-70" d="M 3291 1706 
Q 3291 822 2980 379 
Q 2669 -63 2047 -63 
Q 1266 -63 997 525 
L 981 525 
Q 994 503 994 -6 
L 994 -1328 
L 431 -1328 
L 431 2691 
Q 431 2950 426 3123 
Q 422 3297 413 3381 
L 956 3381 
Q 959 3369 967 3259 
Q 975 3150 981 3023 
Q 988 2897 988 2838 
L 1000 2838 
Q 1150 3150 1397 3295 
Q 1644 3441 2047 3441 
Q 2672 3441 2981 3022 
Q 3291 2603 3291 1706 
z
M 2700 1694 
Q 2700 2400 2509 2703 
Q 2319 3006 1903 3006 
Q 1441 3006 1217 2686 
Q 994 2366 994 1650 
Q 994 984 1206 668 
Q 1419 353 1897 353 
Q 2316 353 2508 661 
Q 2700 969 2700 1694 
z
" transform="scale(0.015625)"/>
      </defs>
      <use xlink:href="#Arimo-Regular-57"/>
      <use xlink:href="#Arimo-Regular-69" transform="translate(94.384766 0)"/>
      <use xlink:href="#Arimo-Regular-6c" transform="translate(116.601562 0)"/>
      <use xlink:href="#Arimo-Regular-6c" transform="translate(138.818359 0)"/>
      <use xlink:href="#Arimo-Regular-69" transform="translate(161.035156 0)"/>
      <use xlink:href="#Arimo-Regular-6e" transform="translate(183.251953 0)"/>
      <use xlink:href="#Arimo-Regular-67" transform="translate(238.867188 0)"/>
      <use xlink:href="#Arimo-Regular-6e" transform="translate(294.482422 0)"/>
      <use xlink:href="#Arimo-Regular-65" transform="translate(350.097656 0)"/>
      <use xlink:href="#Arimo-Regular-73" transform="translate(405.712891 0)"/>
      <use xlink:href="#Arimo-Regular-73" transform="translate(455.712891 0)"/>
      <use xlink:href="#Arimo-Regular-20" transform="translate(505.712891 0)"/>
      <use xlink:href="#Arimo-Regular-54" transform="translate(533.496094 0)"/>
      <use xlink:href="#Arimo-Regular-6f" transform="translate(594.580078 0)"/>
      <use xlink:href="#Arimo-Regular-20" transform="translate(650.195312 0)"/>
      <use xlink:href="#Arimo-Regular-48" transform="translate(677.978516 0)"/>
      <use xlink:href="#Arimo-Regular-65" transform="translate(750.195312 0)"/>
      <use xlink:href="#Arimo-Regular-6c" transform="translate(805.810547 0)"/>
      <use xlink:href="#Arimo-Regular-70" transform="translate(828.027344 0)"/>
     </g>
    </g>
   </g>
   <g id="line2d_12">
    <path d="M 70.0425 117.9792 
L 70.0425 38.2464 
" clip-path="url(#pa98e5e797f)" style="fill: none; stroke: #717171; stroke-width: 1.5; stroke-linecap: square"/>
   </g>
   <g id="line2d_13">
    <path d="M 70.0425 89.0496 
L 70.0425 67.8816 
" clip-path="url(#pa98e5e797f)" style="fill: none; stroke: #717171; stroke-width: 4.5; stroke-linecap: square"/>
   </g>
   <g id="line2d_14">
    <path d="M 70.0425 80.5824 
" clip-path="url(#pa98e5e797f)" style="fill: none; stroke: #717171; stroke-width: 1.5; stroke-linecap: square"/>
    <defs>
     <path id="m1b9979c3c3" d="M 1.875 0 
L -1.875 -0 
" style="stroke: #ffffff; stroke-width: 0.9"/>
    </defs>
    <g clip-path="url(#pa98e5e797f)">
     <use xlink:href="#m1b9979c3c3" x="70.0425" y="80.5824" style="fill: #ffffff; stroke: #ffffff; stroke-width: 0.9"/>
    </g>
   </g>
   <g id="line2d_15">
    <path d="M 120.2625 137.0304 
L 120.2625 43.1856 
" clip-path="url(#pa98e5e797f)" style="fill: none; stroke: #717171; stroke-width: 1.5; stroke-linecap: square"/>
   </g>
   <g id="line2d_16">
    <path d="M 120.2625 97.1784 
L 120.2625 69.2928 
" clip-path="url(#pa98e5e797f)" style="fill: none; stroke: #717171; stroke-width: 4.5; stroke-linecap: square"/>
   </g>
   <g id="line2d_17">
    <path d="M 120.2625 83.4048 
" clip-path="url(#pa98e5e797f)" style="fill: none; stroke: #717171; stroke-width: 1.5; stroke-linecap: square"/>
    <g clip-path="url(#pa98e5e797f)">
     <use xlink:href="#m1b9979c3c3" x="120.2625" y="83.4048" style="fill: #ffffff; stroke: #ffffff; stroke-width: 0.9"/>
    </g>
   </g>
   <g id="line2d_18">
    <path d="M 170.4825 127.8576 
L 170.4825 77.0544 
" clip-path="url(#pa98e5e797f)" style="fill: none; stroke: #717171; stroke-width: 1.5; stroke-linecap: square"/>
   </g>
   <g id="line2d_19">
    <path d="M 170.4825 107.9244 
L 170.4825 88.1676 
" clip-path="url(#pa98e5e797f)" style="fill: none; stroke: #717171; stroke-width: 4.5; stroke-linecap: square"/>
   </g>
   <g id="line2d_20">
    <path d="M 170.4825 96.4584 
" clip-path="url(#pa98e5e797f)" style="fill: none; stroke: #717171; stroke-width: 1.5; stroke-linecap: square"/>
    <g clip-path="url(#pa98e5e797f)">
     <use xlink:href="#m1b9979c3c3" x="170.4825" y="96.4584" style="fill: #ffffff; stroke: #ffffff; stroke-width: 0.9"/>
    </g>
   </g>
   <g id="line2d_21">
    <path d="M 220.7025 131.3856 
L 220.7025 65.7648 
" clip-path="url(#pa98e5e797f)" style="fill: none; stroke: #717171; stroke-width: 1.5; stroke-linecap: square"/>
   </g>
   <g id="line2d_22">
    <path d="M 220.7025 99.9864 
L 220.7025 73.8792 
" clip-path="url(#pa98e5e797f)" style="fill: none; stroke: #717171; stroke-width: 4.5; stroke-linecap: square"/>
   </g>
   <g id="line2d_23">
    <path d="M 220.7025 80.2296 
" clip-path="url(#pa98e5e797f)" style="fill: none; stroke: #717171; stroke-width: 1.5; stroke-linecap: square"/>
    <g clip-path="url(#pa98e5e797f)">
     <use xlink:href="#m1b9979c3c3" x="220.7025" y="80.2296" style="fill: #ffffff; stroke: #ffffff; stroke-width: 0.9"/>
    </g>
   </g>
   <g id="line2d_24">
    <path d="M 270.9225 96.8112 
L 270.9225 60.8256 
" clip-path="url(#pa98e5e797f)" style="fill: none; stroke: #717171; stroke-width: 1.5; stroke-linecap: square"/>
   </g>
   <g id="line2d_25">
    <path d="M 270.9225 87.8148 
L 270.9225 69.822 
" clip-path="url(#pa98e5e797f)" style="fill: none; stroke: #717171; stroke-width: 4.5; stroke-linecap: square"/>
   </g>
   <g id="line2d_26">
    <path d="M 270.9225 78.8184 
" clip-path="url(#pa98e5e797f)" style="fill: none; stroke: #717171; stroke-width: 1.5; stroke-linecap: square"/>
    <g clip-path="url(#pa98e5e797f)">
     <use xlink:href="#m1b9979c3c3" x="270.9225" y="78.8184" style="fill: #ffffff; stroke: #ffffff; stroke-width: 0.9"/>
    </g>
   </g>
   <g id="patch_3">
    <path d="M 44.9325 201.24 
L 44.9325 7.2 
" style="fill: none; stroke: #000000; stroke-width: 0.8; stroke-linejoin: miter; stroke-linecap: square"/>
   </g>
   <g id="patch_4">
    <path d="M 44.9325 201.24 
L 296.0325 201.24 
" style="fill: none; stroke: #000000; stroke-width: 0.8; stroke-linejoin: miter; stroke-linecap: square"/>
   </g>
  </g>
 </g>
 <defs>
  <clipPath id="pa98e5e797f">
   <rect x="44.9325" y="7.2" width="251.1" height="194.04"/>
  </clipPath>
 </defs>
</svg>
