<?xml version="1.0" encoding="utf-8" standalone="no"?>
<!DOCTYPE svg PUBLIC "-//W3C//DTD SVG 1.1//EN"
  "http://www.w3.org/Graphics/SVG/1.1/DTD/svg11.dtd">
<svg xmlns:xlink="http://www.w3.org/1999/xlink" width="208.0825pt" height="208.556875pt" viewBox="0 0 208.0825 208.556875" xmlns="http://www.w3.org/2000/svg" version="1.1">
 <metadata>
  <rdf:RDF xmlns:dc="http://purl.org/dc/elements/1.1/" xmlns:cc="http://creativecommons.org/ns#" xmlns:rdf="http://www.w3.org/1999/02/22-rdf-syntax-ns#">
   <cc:Work>
    <dc:type rdf:resource="http://purl.org/dc/dcmitype/StillImage"/>
    <dc:date>2025-11-04T01:05:00.103076</dc:date>
    <dc:format>image/svg+xml</dc:format>
    <dc:creator>
     <cc:Agent>
      <dc:title>Matplotlib v3.10.0, https://matplotlib.org/</dc:title>
     </cc:Agent>
    </dc:creator>
   </cc:Work>
  </rdf:RDF>
 </metadata>
 <defs>
  <style type="text/css">*{stroke-linejoin: round; stroke-linecap: butt}</style>
 </defs>
 <g id="figure_1">
  <g id="patch_1">
   <path d="M 0 208.556875 
L 208.0825 208.556875 
L 208.0825 0 
L 0 0 
z
" style="fill: #ffffff"/>
  </g>
  <g id="axes_1">
   <g id="patch_2">
    <path d="M 44.9325 166.12 
L 200.8825 166.12 
L 200.8825 7.2 
L 44.9325 7.2 
z
" style="fill: #ffffff"/>
   </g>
   <g id="FillBetweenPolyCollection_1">
    <defs>
     <path id="mb358edc47f" d="M 83.953552 -50.410866 
L 83.886448 -50.410866 
L 83.870779 -51.820004 
L 83.850643 -53.229142 
L 83.826106 -54.63828 
L 83.79783 -56.047418 
L 83.767122 -57.456556 
L 83.735818 -58.865694 
L 83.705984 -60.274833 
L 83.679447 -61.683971 
L 83.657227 -63.093109 
L 83.639003 -64.502247 
L 83.622752 -65.911385 
L 83.604701 -67.320523 
L 83.579664 -68.729661 
L 83.541776 -70.138799 
L 83.485522 -71.547937 
L 83.406878 -72.957076 
L 83.304328 -74.366214 
L 83.17949 -75.775352 
L 83.037136 -77.18449 
L 82.884515 -78.593628 
L 82.730011 -80.002766 
L 82.581411 -81.411904 
L 82.444138 -82.821042 
L 82.319919 -84.23018 
L 82.206272 -85.639319 
L 82.09699 -87.048457 
L 81.983576 -88.457595 
L 81.857282 -89.866733 
L 81.711247 -91.275871 
L 81.542181 -92.685009 
L 81.351189 -94.094147 
L 81.143532 -95.503285 
L 80.927447 -96.912423 
L 80.712365 -98.321562 
L 80.506996 -99.7307 
L 80.317726 -101.139838 
L 80.147631 -102.548976 
L 79.996167 -103.958114 
L 79.859413 -105.367252 
L 79.730573 -106.77639 
L 79.600495 -108.185528 
L 79.458026 -109.594666 
L 79.290248 -111.003805 
L 79.082742 -112.412943 
L 78.820103 -113.822081 
L 78.486858 -115.231219 
L 78.068759 -116.640357 
L 77.554285 -118.049495 
L 76.936051 -119.458633 
L 76.211877 -120.867771 
L 75.385367 -122.276909 
L 74.466022 -123.686048 
L 73.469033 -125.095186 
L 72.414914 -126.504324 
L 71.329045 -127.913462 
L 70.241044 -129.3226 
L 69.183791 -130.731738 
L 68.19191 -132.140876 
L 67.299672 -133.550014 
L 66.538466 -134.959152 
L 65.934237 -136.368291 
L 65.505339 -137.777429 
L 65.261274 -139.186567 
L 65.202502 -140.595705 
L 65.321305 -142.004843 
L 65.603384 -143.413981 
L 66.029796 -144.823119 
L 66.578828 -146.232257 
L 67.22758 -147.641395 
L 67.953232 -149.050534 
L 68.734076 -150.459672 
L 69.550467 -151.86881 
L 70.385735 -153.277948 
L 71.226973 -154.687086 
L 72.065497 -156.096224 
L 72.896751 -157.505362 
L 73.719545 -158.9145 
L 74.534689 -160.323638 
L 75.343311 -161.732777 
L 76.145256 -163.141915 
L 76.937957 -164.551053 
L 77.716052 -165.960191 
L 78.47176 -167.369329 
L 79.195844 -168.778467 
L 79.878853 -170.187605 
L 80.5123 -171.596743 
L 81.089525 -173.005881 
L 81.606165 -174.41502 
L 82.060226 -175.824158 
L 82.451903 -177.233296 
L 82.783262 -178.642434 
L 83.057884 -180.051572 
L 83.280528 -181.46071 
L 83.456804 -182.869848 
L 83.592858 -184.278986 
L 83.695042 -185.688124 
L 83.769596 -187.097263 
L 83.822354 -188.506401 
L 83.858514 -189.915539 
L 83.981486 -189.915539 
L 83.981486 -189.915539 
L 84.017646 -188.506401 
L 84.070404 -187.097263 
L 84.144958 -185.688124 
L 84.247142 -184.278986 
L 84.383196 -182.869848 
L 84.559472 -181.46071 
L 84.782116 -180.051572 
L 85.056738 -178.642434 
L 85.388097 -177.233296 
L 85.779774 -175.824158 
L 86.233835 -174.41502 
L 86.750475 -173.005881 
L 87.3277 -171.596743 
L 87.961147 -170.187605 
L 88.644156 -168.778467 
L 89.36824 -167.369329 
L 90.123948 -165.960191 
L 90.902043 -164.551053 
L 91.694744 -163.141915 
L 92.496689 -161.732777 
L 93.305311 -160.323638 
L 94.120455 -158.9145 
L 94.943249 -157.505362 
L 95.774503 -156.096224 
L 96.613027 -154.687086 
L 97.454265 -153.277948 
L 98.289533 -151.86881 
L 99.105924 -150.459672 
L 99.886768 -149.050534 
L 100.61242 -147.641395 
L 101.261172 -146.232257 
L 101.810204 -144.823119 
L 102.236616 -143.413981 
L 102.518695 -142.004843 
L 102.637498 -140.595705 
L 102.578726 -139.186567 
L 102.334661 -137.777429 
L 101.905763 -136.368291 
L 101.301534 -134.959152 
L 100.540328 -133.550014 
L 99.64809 -132.140876 
L 98.656209 -130.731738 
L 97.598956 -129.3226 
L 96.510955 -127.913462 
L 95.425086 -126.504324 
L 94.370967 -125.095186 
L 93.373978 -123.686048 
L 92.454633 -122.276909 
L 91.628123 -120.867771 
L 90.903949 -119.458633 
L 90.285715 -118.049495 
L 89.771241 -116.640357 
L 89.353142 -115.231219 
L 89.019897 -113.822081 
L 88.757258 -112.412943 
L 88.549752 -111.003805 
L 88.381974 -109.594666 
L 88.239505 -108.185528 
L 88.109427 -106.77639 
L 87.980587 -105.367252 
L 87.843833 -103.958114 
L 87.692369 -102.548976 
L 87.522274 -101.139838 
L 87.333004 -99.7307 
L 87.127635 -98.321562 
L 86.912553 -96.912423 
L 86.696468 -95.503285 
L 86.488811 -94.094147 
L 86.297819 -92.685009 
L 86.128753 -91.275871 
L 85.982718 -89.866733 
L 85.856424 -88.457595 
L 85.74301 -87.048457 
L 85.633728 -85.639319 
L 85.520081 -84.23018 
L 85.395862 -82.821042 
L 85.258589 -81.411904 
L 85.109989 -80.002766 
L 84.955485 -78.593628 
L 84.802864 -77.18449 
L 84.66051 -75.775352 
L 84.535672 -74.366214 
L 84.433122 -72.957076 
L 84.354478 -71.547937 
L 84.298224 -70.138799 
L 84.260336 -68.729661 
L 84.235299 -67.320523 
L 84.217248 -65.911385 
L 84.200997 -64.502247 
L 84.182773 -63.093109 
L 84.160553 -61.683971 
L 84.134016 -60.274833 
L 84.104182 -58.865694 
L 84.072878 -57.456556 
L 84.04217 -56.047418 
L 84.013894 -54.63828 
L 83.989357 -53.229142 
L 83.969221 -51.820004 
L 83.953552 -50.410866 
z
" style="stroke: #717171"/>
    </defs>
    <g clip-path="url(#p19a5020993)">
     <use xlink:href="#mb358edc47f" x="0" y="208.556875" style="fill: #c6d99e; stroke: #717171"/>
    </g>
   </g>
   <g id="FillBetweenPolyCollection_2">
    <defs>
     <path id="m762f65e22c" d="M 162.187885 -80.617368 
L 161.602115 -80.617368 
L 161.521776 -81.63809 
L 161.425781 -82.658813 
L 161.312996 -83.679535 
L 161.182747 -84.700257 
L 161.034962 -85.72098 
L 160.870299 -86.741702 
L 160.690244 -87.762425 
L 160.497162 -88.783147 
L 160.294285 -89.80387 
L 160.085636 -90.824592 
L 159.875872 -91.845315 
L 159.670049 -92.866037 
L 159.473327 -93.88676 
L 159.290616 -94.907482 
L 159.126203 -95.928205 
L 158.983367 -96.948927 
L 158.864038 -97.969649 
L 158.768497 -98.990372 
L 158.695175 -100.011094 
L 158.640544 -101.031817 
L 158.599125 -102.052539 
L 158.563607 -103.073262 
L 158.525083 -104.093984 
L 158.473367 -105.114707 
L 158.397396 -106.135429 
L 158.285682 -107.156152 
L 158.126795 -108.176874 
L 157.909864 -109.197597 
L 157.625061 -110.218319 
L 157.264083 -111.239042 
L 156.820587 -112.259764 
L 156.290591 -113.280486 
L 155.672809 -114.301209 
L 154.968919 -115.321931 
L 154.18373 -116.342654 
L 153.325239 -117.363376 
L 152.404552 -118.384099 
L 151.435657 -119.404821 
L 150.435036 -120.425544 
L 149.421124 -121.446266 
L 148.413634 -122.466989 
L 147.432778 -123.487711 
L 146.49843 -124.508434 
L 145.62929 -125.529156 
L 144.842105 -126.549878 
L 144.151012 -127.570601 
L 143.567037 -128.591323 
L 143.097797 -129.612046 
L 142.747404 -130.632768 
L 142.516574 -131.653491 
L 142.402898 -132.674213 
L 142.40125 -133.694936 
L 142.50427 -134.715658 
L 142.702871 -135.736381 
L 142.986732 -136.757103 
L 143.344734 -137.777826 
L 143.765335 -138.798548 
L 144.236862 -139.81927 
L 144.747751 -140.839993 
L 145.286744 -141.860715 
L 145.843072 -142.881438 
L 146.406634 -143.90216 
L 146.968208 -144.922883 
L 147.519674 -145.943605 
L 148.054255 -146.964328 
L 148.566752 -147.98505 
L 149.053747 -149.005773 
L 149.51374 -150.026495 
L 149.947203 -151.047218 
L 150.356511 -152.06794 
L 150.745761 -153.088663 
L 151.120457 -154.109385 
L 151.4871 -155.130107 
L 151.85269 -156.15083 
L 152.224191 -157.171552 
L 152.607994 -158.192275 
L 153.009423 -159.212997 
L 153.432326 -160.23372 
L 153.878779 -161.254442 
L 154.348932 -162.275165 
L 154.840995 -163.295887 
L 155.35137 -164.31661 
L 155.874909 -165.337332 
L 156.40527 -166.358055 
L 156.935338 -167.378777 
L 157.457682 -168.399499 
L 157.964994 -169.420222 
L 158.450495 -170.440944 
L 158.908274 -171.461667 
L 159.333537 -172.482389 
L 159.722763 -173.503112 
L 160.073765 -174.523834 
L 160.385658 -175.544557 
L 160.658757 -176.565279 
L 160.894419 -177.586002 
L 161.094838 -178.606724 
L 161.262834 -179.627447 
L 161.401639 -180.648169 
L 161.51469 -181.668892 
L 162.27531 -181.668892 
L 162.27531 -181.668892 
L 162.388361 -180.648169 
L 162.527166 -179.627447 
L 162.695162 -178.606724 
L 162.895581 -177.586002 
L 163.131243 -176.565279 
L 163.404342 -175.544557 
L 163.716235 -174.523834 
L 164.067237 -173.503112 
L 164.456463 -172.482389 
L 164.881726 -171.461667 
L 165.339505 -170.440944 
L 165.825006 -169.420222 
L 166.332318 -168.399499 
L 166.854662 -167.378777 
L 167.38473 -166.358055 
L 167.915091 -165.337332 
L 168.43863 -164.31661 
L 168.949005 -163.295887 
L 169.441068 -162.275165 
L 169.911221 -161.254442 
L 170.357674 -160.23372 
L 170.780577 -159.212997 
L 171.182006 -158.192275 
L 171.565809 -157.171552 
L 171.93731 -156.15083 
L 172.3029 -155.130107 
L 172.669543 -154.109385 
L 173.044239 -153.088663 
L 173.433489 -152.06794 
L 173.842797 -151.047218 
L 174.27626 -150.026495 
L 174.736253 -149.005773 
L 175.223248 -147.98505 
L 175.735745 -146.964328 
L 176.270326 -145.943605 
L 176.821792 -144.922883 
L 177.383366 -143.90216 
L 177.946928 -142.881438 
L 178.503256 -141.860715 
L 179.042249 -140.839993 
L 179.553138 -139.81927 
L 180.024665 -138.798548 
L 180.445266 -137.777826 
L 180.803268 -136.757103 
L 181.087129 -135.736381 
L 181.28573 -134.715658 
L 181.38875 -133.694936 
L 181.387102 -132.674213 
L 181.273426 -131.653491 
L 181.042596 -130.632768 
L 180.692203 -129.612046 
L 180.222963 -128.591323 
L 179.638988 -127.570601 
L 178.947895 -126.549878 
L 178.16071 -125.529156 
L 177.29157 -124.508434 
L 176.357222 -123.487711 
L 175.376366 -122.466989 
L 174.368876 -121.446266 
L 173.354964 -120.425544 
L 172.354343 -119.404821 
L 171.385448 -118.384099 
L 170.464761 -117.363376 
L 169.60627 -116.342654 
L 168.821081 -115.321931 
L 168.117191 -114.301209 
L 167.499409 -113.280486 
L 166.969413 -112.259764 
L 166.525917 -111.239042 
L 166.164939 -110.218319 
L 165.880136 -109.197597 
L 165.663205 -108.176874 
L 165.504318 -107.156152 
L 165.392604 -106.135429 
L 165.316633 -105.114707 
L 165.264917 -104.093984 
L 165.226393 -103.073262 
L 165.190875 -102.052539 
L 165.149456 -101.031817 
L 165.094825 -100.011094 
L 165.021503 -98.990372 
L 164.925962 -97.969649 
L 164.806633 -96.948927 
L 164.663797 -95.928205 
L 164.499384 -94.907482 
L 164.316673 -93.88676 
L 164.119951 -92.866037 
L 163.914128 -91.845315 
L 163.704364 -90.824592 
L 163.495715 -89.80387 
L 163.292838 -88.783147 
L 163.099756 -87.762425 
L 162.919701 -86.741702 
L 162.755038 -85.72098 
L 162.607253 -84.700257 
L 162.477004 -83.679535 
L 162.364219 -82.658813 
L 162.268224 -81.63809 
L 162.187885 -80.617368 
z
" style="stroke: #717171"/>
    </defs>
    <g clip-path="url(#p19a5020993)">
     <use xlink:href="#m762f65e22c" x="0" y="208.556875" style="fill: #c6d99e; stroke: #717171"/>
    </g>
   </g>
   <g id="matplotlib.axis_1">
    <g id="xtick_1">
     <g id="line2d_1">
      <defs>
       <path id="m5ac8ba5cce" d="M 0 0 
L 0 3.5 
" style="stroke: #000000; stroke-width: 0.8"/>
      </defs>
      <g>
       <use xlink:href="#m5ac8ba5cce" x="83.92" y="166.12" style="stroke: #000000; stroke-width: 0.8"/>
      </g>
     </g>
     <g id="text_1">
      <!-- Non-Hispanic -->
      <g transform="translate(47.906875 181.81625) scale(0.12 -0.12)">
       <defs>
        <path id="Arimo-Regular-4e" d="M 1056 2925 
L 1056 0 
L 525 0 
L 525 4403 
L 1219 4403 
L 3600 628 
Q 3563 1244 3563 1516 
L 3563 4403 
L 4100 4403 
L 4100 0 
L 3381 0 
L 1025 3750 
Q 1031 3544 1043 3337 
Q 1056 3131 1056 2925 
z
" transform="scale(0.015625)"/>
        <path id="Arimo-Regular-6f" d="M 3291 1694 
Q 3291 806 2900 371 
Q 2509 -63 1766 -63 
Q 1025 -63 647 389 
Q 269 841 269 1694 
Q 269 2569 648 3006 
Q 1028 3444 1784 3444 
Q 2559 3444 2925 3017 
Q 3291 2591 3291 1694 
z
M 2700 1694 
Q 2700 2394 2492 2711 
Q 2284 3028 1794 3028 
Q 1300 3028 1079 2704 
Q 859 2381 859 1694 
Q 859 1025 1076 689 
Q 1294 353 1759 353 
Q 2266 353 2483 678 
Q 2700 1003 2700 1694 
z
" transform="scale(0.015625)"/>
        <path id="Arimo-Regular-6e" d="M 1006 1959 
L 1006 0 
L 444 0 
L 444 2659 
Q 444 2956 439 3136 
Q 434 3316 425 3381 
L 956 3381 
Q 963 3322 967 3231 
Q 972 3141 975 3031 
Q 978 2922 981 2803 
L 991 2803 
Q 1184 3153 1439 3298 
Q 1694 3444 2072 3444 
Q 2628 3444 2886 3159 
Q 3144 2875 3144 2253 
L 3144 0 
L 2578 0 
L 2578 2144 
Q 2578 2628 2422 2818 
Q 2266 3009 1881 3009 
Q 1475 3009 1240 2731 
Q 1006 2453 1006 1959 
z
" transform="scale(0.015625)"/>
        <path id="Arimo-Regular-2d" d="M 1847 1950 
L 1847 1450 
L 284 1450 
L 284 1950 
L 1847 1950 
z
" transform="scale(0.015625)"/>
        <path id="Arimo-Regular-48" d="M 1122 2041 
L 1122 0 
L 525 0 
L 525 4403 
L 1122 4403 
L 1122 2541 
L 3503 2541 
L 3503 4403 
L 4100 4403 
L 4100 0 
L 3503 0 
L 3503 2041 
L 1122 2041 
z
" transform="scale(0.015625)"/>
        <path id="Arimo-Regular-69" d="M 991 4638 
L 991 4100 
L 428 4100 
L 428 4638 
L 991 4638 
z
M 991 3381 
L 991 0 
L 428 0 
L 428 3381 
L 991 3381 
z
" transform="scale(0.015625)"/>
        <path id="Arimo-Regular-73" d="M 2969 934 
Q 2969 456 2608 196 
Q 2247 -63 1597 -63 
Q 966 -63 623 145 
Q 281 353 178 794 
L 675 891 
Q 747 619 972 492 
Q 1197 366 1597 366 
Q 2025 366 2223 497 
Q 2422 628 2422 891 
Q 2422 1091 2284 1216 
Q 2147 1341 1841 1422 
Q 1478 1519 1264 1581 
Q 1050 1644 934 1689 
Q 819 1734 750 1775 
Q 544 1894 428 2066 
Q 313 2238 313 2488 
Q 313 2950 642 3192 
Q 972 3434 1603 3434 
Q 2163 3434 2492 3237 
Q 2822 3041 2909 2606 
L 2403 2544 
Q 2356 2769 2151 2889 
Q 1947 3009 1603 3009 
Q 1222 3009 1040 2893 
Q 859 2778 859 2544 
Q 859 2372 962 2261 
Q 1066 2150 1356 2078 
Q 1747 1984 2100 1873 
Q 2453 1763 2606 1653 
Q 2784 1525 2876 1351 
Q 2969 1178 2969 934 
z
" transform="scale(0.015625)"/>
        <path id="Arimo-Regular-70" d="M 3291 1706 
Q 3291 822 2980 379 
Q 2669 -63 2047 -63 
Q 1266 -63 997 525 
L 981 525 
Q 994 503 994 -6 
L 994 -1328 
L 431 -1328 
L 431 2691 
Q 431 2950 426 3123 
Q 422 3297 413 3381 
L 956 3381 
Q 959 3369 967 3259 
Q 975 3150 981 3023 
Q 988 2897 988 2838 
L 1000 2838 
Q 1150 3150 1397 3295 
Q 1644 3441 2047 3441 
Q 2672 3441 2981 3022 
Q 3291 2603 3291 1706 
z
M 2700 1694 
Q 2700 2400 2509 2703 
Q 2319 3006 1903 3006 
Q 1441 3006 1217 2686 
Q 994 2366 994 1650 
Q 994 984 1206 668 
Q 1419 353 1897 353 
Q 2316 353 2508 661 
Q 2700 969 2700 1694 
z
" transform="scale(0.015625)"/>
        <path id="Arimo-Regular-61" d="M 1294 -63 
Q 784 -63 528 206 
Q 272 475 272 944 
Q 272 1469 617 1750 
Q 963 2031 1731 2050 
L 2491 2063 
L 2491 2247 
Q 2491 2659 2316 2837 
Q 2141 3016 1766 3016 
Q 1388 3016 1216 2887 
Q 1044 2759 1009 2478 
L 422 2531 
Q 566 3444 1778 3444 
Q 2416 3444 2737 3151 
Q 3059 2859 3059 2306 
L 3059 850 
Q 3059 600 3125 473 
Q 3191 347 3375 347 
Q 3463 347 3559 369 
L 3559 19 
Q 3453 -6 3343 -18 
Q 3234 -31 3125 -31 
Q 2813 -31 2670 133 
Q 2528 297 2509 647 
L 2491 647 
Q 2275 259 1989 98 
Q 1703 -63 1294 -63 
z
M 2491 1669 
L 1875 1656 
Q 1481 1653 1275 1575 
Q 1069 1500 959 1344 
Q 850 1188 850 934 
Q 850 659 998 509 
Q 1147 359 1422 359 
Q 1734 359 1972 500 
Q 2213 641 2352 886 
Q 2491 1131 2491 1391 
L 2491 1669 
z
" transform="scale(0.015625)"/>
        <path id="Arimo-Regular-63" d="M 1728 -63 
Q 1019 -63 645 385 
Q 272 834 272 1694 
Q 272 2547 647 2995 
Q 1022 3444 1722 3444 
Q 2241 3444 2583 3175 
Q 2925 2906 3013 2434 
L 2434 2391 
Q 2391 2672 2212 2837 
Q 2034 3003 1706 3003 
Q 1259 3003 1059 2706 
Q 859 2409 859 1706 
Q 859 1031 1071 706 
Q 1284 381 1713 381 
Q 2013 381 2214 543 
Q 2416 706 2463 1044 
L 3031 1006 
Q 2988 681 2814 440 
Q 2641 200 2364 68 
Q 2088 -63 1728 -63 
z
" transform="scale(0.015625)"/>
       </defs>
       <use xlink:href="#Arimo-Regular-4e"/>
       <use xlink:href="#Arimo-Regular-6f" transform="translate(72.216797 0)"/>
       <use xlink:href="#Arimo-Regular-6e" transform="translate(127.832031 0)"/>
       <use xlink:href="#Arimo-Regular-2d" transform="translate(183.447266 0)"/>
       <use xlink:href="#Arimo-Regular-48" transform="translate(216.748047 0)"/>
       <use xlink:href="#Arimo-Regular-69" transform="translate(288.964844 0)"/>
       <use xlink:href="#Arimo-Regular-73" transform="translate(311.181641 0)"/>
       <use xlink:href="#Arimo-Regular-70" transform="translate(361.181641 0)"/>
       <use xlink:href="#Arimo-Regular-61" transform="translate(416.796875 0)"/>
       <use xlink:href="#Arimo-Regular-6e" transform="translate(472.412109 0)"/>
       <use xlink:href="#Arimo-Regular-69" transform="translate(528.027344 0)"/>
       <use xlink:href="#Arimo-Regular-63" transform="translate(550.244141 0)"/>
      </g>
     </g>
    </g>
    <g id="xtick_2">
     <g id="line2d_2">
      <g>
       <use xlink:href="#m5ac8ba5cce" x="161.895" y="166.12" style="stroke: #000000; stroke-width: 0.8"/>
      </g>
     </g>
     <g id="text_2">
      <!-- Hispanic -->
      <g transform="translate(138.885937 181.81625) scale(0.12 -0.12)">
       <use xlink:href="#Arimo-Regular-48"/>
       <use xlink:href="#Arimo-Regular-69" transform="translate(72.216797 0)"/>
       <use xlink:href="#Arimo-Regular-73" transform="translate(94.433594 0)"/>
       <use xlink:href="#Arimo-Regular-70" transform="translate(144.433594 0)"/>
       <use xlink:href="#Arimo-Regular-61" transform="translate(200.048828 0)"/>
       <use xlink:href="#Arimo-Regular-6e" transform="translate(255.664062 0)"/>
       <use xlink:href="#Arimo-Regular-69" transform="translate(311.279297 0)"/>
       <use xlink:href="#Arimo-Regular-63" transform="translate(333.496094 0)"/>
      </g>
     </g>
    </g>
    <g id="text_3">
     <!-- Ethnicity -->
     <g transform="translate(96.452969 198.451875) scale(0.14 -0.14)">
      <defs>
       <path id="Arimo-Regular-45" d="M 3994 488 
L 3994 0 
L 525 0 
L 525 4403 
L 3866 4403 
L 3866 3916 
L 1122 3916 
L 1122 2503 
L 3678 2503 
L 3678 2022 
L 1122 2022 
L 1122 488 
L 3994 488 
z
" transform="scale(0.015625)"/>
       <path id="Arimo-Regular-74" d="M 1731 25 
Q 1456 -50 1163 -50 
Q 825 -50 656 142 
Q 488 334 488 716 
L 488 2972 
L 97 2972 
L 97 3381 
L 509 3381 
L 675 4138 
L 1050 4138 
L 1050 3381 
L 1675 3381 
L 1675 2972 
L 1050 2972 
L 1050 838 
Q 1050 594 1129 495 
Q 1209 397 1406 397 
Q 1513 397 1731 441 
L 1731 25 
z
" transform="scale(0.015625)"/>
       <path id="Arimo-Regular-68" d="M 991 2803 
Q 1172 3134 1426 3289 
Q 1681 3444 2072 3444 
Q 2622 3444 2883 3158 
Q 3144 2872 3144 2253 
L 3144 0 
L 2578 0 
L 2578 2144 
Q 2578 2603 2417 2806 
Q 2256 3009 1881 3009 
Q 1484 3009 1245 2734 
Q 1006 2459 1006 1994 
L 1006 0 
L 444 0 
L 444 4638 
L 1006 4638 
L 1006 3431 
Q 1006 3306 1000 3167 
Q 994 3028 989 2926 
Q 984 2825 981 2803 
L 991 2803 
z
" transform="scale(0.015625)"/>
       <path id="Arimo-Regular-79" d="M 597 -1328 
Q 372 -1328 209 -1294 
L 209 -872 
Q 328 -891 472 -891 
Q 734 -891 957 -695 
Q 1181 -500 1356 16 
L 16 3381 
L 616 3381 
L 1328 1513 
Q 1406 1313 1495 1059 
Q 1584 806 1634 613 
Q 1713 834 1792 1053 
Q 1872 1272 1947 1491 
L 2594 3381 
L 3188 3381 
L 1888 0 
Q 1781 -269 1684 -470 
Q 1588 -672 1497 -803 
Q 1316 -1069 1095 -1198 
Q 875 -1328 597 -1328 
z
" transform="scale(0.015625)"/>
      </defs>
      <use xlink:href="#Arimo-Regular-45"/>
      <use xlink:href="#Arimo-Regular-74" transform="translate(66.699219 0)"/>
      <use xlink:href="#Arimo-Regular-68" transform="translate(94.482422 0)"/>
      <use xlink:href="#Arimo-Regular-6e" transform="translate(150.097656 0)"/>
      <use xlink:href="#Arimo-Regular-69" transform="translate(205.712891 0)"/>
      <use xlink:href="#Arimo-Regular-63" transform="translate(227.929688 0)"/>
      <use xlink:href="#Arimo-Regular-69" transform="translate(277.929688 0)"/>
      <use xlink:href="#Arimo-Regular-74" transform="translate(300.146484 0)"/>
      <use xlink:href="#Arimo-Regular-79" transform="translate(327.929688 0)"/>
     </g>
    </g>
   </g>
   <g id="matplotlib.axis_2">
    <g id="ytick_1">
     <g id="line2d_3">
      <defs>
       <path id="m5396c44220" d="M 0 0 
L -3.5 0 
" style="stroke: #000000; stroke-width: 0.8"/>
      </defs>
      <g>
       <use xlink:href="#m5396c44220" x="44.9325" y="166.12" style="stroke: #000000; stroke-width: 0.8"/>
      </g>
     </g>
     <g id="text_4">
      <!-- −5 -->
      <g transform="translate(24.250625 170.468125) scale(0.12 -0.12)">
       <defs>
        <path id="Arimo-Regular-2212" d="M 3425 2356 
L 3425 1900 
L 316 1900 
L 316 2356 
L 3425 2356 
z
" transform="scale(0.015625)"/>
        <path id="Arimo-Regular-35" d="M 3291 1434 
Q 3291 738 2877 337 
Q 2463 -63 1728 -63 
Q 1113 -63 734 206 
Q 356 475 256 984 
L 825 1050 
Q 916 725 1144 561 
Q 1372 397 1741 397 
Q 2194 397 2450 670 
Q 2706 944 2706 1422 
Q 2706 1838 2448 2094 
Q 2191 2350 1753 2350 
Q 1525 2350 1328 2278 
Q 1131 2206 934 2034 
L 384 2034 
L 531 4403 
L 3034 4403 
L 3034 3925 
L 1044 3925 
L 959 2528 
Q 1325 2809 1869 2809 
Q 2303 2809 2622 2636 
Q 2941 2463 3116 2153 
Q 3291 1844 3291 1434 
z
" transform="scale(0.015625)"/>
       </defs>
       <use xlink:href="#Arimo-Regular-2212"/>
       <use xlink:href="#Arimo-Regular-35" transform="translate(58.398438 0)"/>
      </g>
     </g>
    </g>
    <g id="ytick_2">
     <g id="line2d_4">
      <g>
       <use xlink:href="#m5396c44220" x="44.9325" y="137.225455" style="stroke: #000000; stroke-width: 0.8"/>
      </g>
     </g>
     <g id="text_5">
      <!-- −3 -->
      <g transform="translate(24.250625 141.57358) scale(0.12 -0.12)">
       <defs>
        <path id="Arimo-Regular-33" d="M 3278 1216 
Q 3278 606 2890 271 
Q 2503 -63 1784 -63 
Q 1116 -63 717 239 
Q 319 541 244 1131 
L 825 1184 
Q 938 403 1784 403 
Q 2209 403 2451 612 
Q 2694 822 2694 1234 
Q 2694 1594 2417 1795 
Q 2141 1997 1619 1997 
L 1300 1997 
L 1300 2484 
L 1606 2484 
Q 2069 2484 2323 2686 
Q 2578 2888 2578 3244 
Q 2578 3597 2370 3801 
Q 2163 4006 1753 4006 
Q 1381 4006 1151 3815 
Q 922 3625 884 3278 
L 319 3322 
Q 381 3863 767 4166 
Q 1153 4469 1759 4469 
Q 2422 4469 2789 4161 
Q 3156 3853 3156 3303 
Q 3156 2881 2920 2617 
Q 2684 2353 2234 2259 
L 2234 2247 
Q 2728 2194 3003 1916 
Q 3278 1638 3278 1216 
z
" transform="scale(0.015625)"/>
       </defs>
       <use xlink:href="#Arimo-Regular-2212"/>
       <use xlink:href="#Arimo-Regular-33" transform="translate(58.398438 0)"/>
      </g>
     </g>
    </g>
    <g id="ytick_3">
     <g id="line2d_5">
      <g>
       <use xlink:href="#m5396c44220" x="44.9325" y="108.330909" style="stroke: #000000; stroke-width: 0.8"/>
      </g>
     </g>
     <g id="text_6">
      <!-- −1 -->
      <g transform="translate(24.250625 112.679034) scale(0.12 -0.12)">
       <defs>
        <path id="Arimo-Regular-31" d="M 3247 478 
L 3247 0 
L 488 0 
L 488 478 
L 1609 478 
L 1609 3866 
L 616 3156 
L 616 3688 
L 1656 4403 
L 2175 4403 
L 2175 478 
L 3247 478 
z
" transform="scale(0.015625)"/>
       </defs>
       <use xlink:href="#Arimo-Regular-2212"/>
       <use xlink:href="#Arimo-Regular-31" transform="translate(58.398438 0)"/>
      </g>
     </g>
    </g>
    <g id="ytick_4">
     <g id="line2d_6">
      <g>
       <use xlink:href="#m5396c44220" x="44.9325" y="79.436364" style="stroke: #000000; stroke-width: 0.8"/>
      </g>
     </g>
     <g id="text_7">
      <!-- 1 -->
      <g transform="translate(31.259375 83.784489) scale(0.12 -0.12)">
       <use xlink:href="#Arimo-Regular-31"/>
      </g>
     </g>
    </g>
    <g id="ytick_5">
     <g id="line2d_7">
      <g>
       <use xlink:href="#m5396c44220" x="44.9325" y="50.541818" style="stroke: #000000; stroke-width: 0.8"/>
      </g>
     </g>
     <g id="text_8">
      <!-- 3 -->
      <g transform="translate(31.259375 54.889943) scale(0.12 -0.12)">
       <use xlink:href="#Arimo-Regular-33"/>
      </g>
     </g>
    </g>
    <g id="ytick_6">
     <g id="line2d_8">
      <g>
       <use xlink:href="#m5396c44220" x="44.9325" y="21.647273" style="stroke: #000000; stroke-width: 0.8"/>
      </g>
     </g>
     <g id="text_9">
      <!-- 5 -->
      <g transform="translate(31.259375 25.995398) scale(0.12 -0.12)">
       <use xlink:href="#Arimo-Regular-35"/>
      </g>
     </g>
    </g>
    <g id="text_10">
     <!-- Willingness To Help -->
     <g transform="translate(17.345625 148.512656) rotate(-90) scale(0.14 -0.14)">
      <defs>
       <path id="Arimo-Regular-57" d="M 2803 2781 
L 2038 0 
L 1325 0 
L 28 4403 
L 650 4403 
L 1441 1606 
Q 1513 1344 1577 1073 
Q 1641 803 1700 525 
Q 1725 641 1767 830 
Q 1809 1019 1856 1216 
Q 1903 1413 1941 1547 
L 2741 4403 
L 3313 4403 
L 4078 1663 
Q 4166 1328 4234 1042 
Q 4303 756 4353 525 
Q 4400 709 4451 923 
Q 4503 1138 4548 1314 
Q 4594 1491 4613 1566 
L 5397 4403 
L 6019 4403 
L 4722 0 
L 4009 0 
L 3247 2797 
Q 3209 2928 3154 3162 
Q 3100 3397 3028 3738 
Q 3000 3572 2954 3380 
Q 2909 3188 2867 3025 
Q 2825 2863 2803 2781 
z
" transform="scale(0.015625)"/>
       <path id="Arimo-Regular-6c" d="M 994 4638 
L 994 0 
L 431 0 
L 431 4638 
L 994 4638 
z
" transform="scale(0.015625)"/>
       <path id="Arimo-Regular-67" d="M 1713 -1328 
Q 1159 -1328 831 -1111 
Q 503 -894 409 -494 
L 975 -413 
Q 1031 -647 1223 -773 
Q 1416 -900 1728 -900 
Q 2147 -900 2358 -653 
Q 2569 -406 2569 84 
L 2569 628 
L 2563 628 
Q 2403 303 2125 139 
Q 1847 -25 1475 -25 
Q 853 -25 561 387 
Q 269 800 269 1684 
Q 269 2581 583 3007 
Q 897 3434 1538 3434 
Q 1897 3434 2161 3270 
Q 2425 3106 2569 2803 
L 2575 2803 
Q 2575 2866 2581 2998 
Q 2588 3131 2597 3250 
Q 2606 3369 2613 3381 
L 3147 3381 
Q 3128 3213 3128 2681 
L 3128 97 
Q 3128 -616 2775 -972 
Q 2422 -1328 1713 -1328 
z
M 2569 1691 
Q 2569 2306 2317 2661 
Q 2066 3016 1675 3016 
Q 1244 3016 1047 2703 
Q 850 2391 850 1691 
Q 850 997 1034 694 
Q 1219 391 1666 391 
Q 2066 391 2317 739 
Q 2569 1088 2569 1691 
z
" transform="scale(0.015625)"/>
       <path id="Arimo-Regular-65" d="M 863 1572 
Q 863 991 1103 675 
Q 1344 359 1806 359 
Q 2172 359 2392 506 
Q 2613 653 2691 878 
L 3184 738 
Q 2881 -63 1806 -63 
Q 1056 -63 664 384 
Q 272 831 272 1713 
Q 272 2550 664 2997 
Q 1056 3444 1784 3444 
Q 2531 3444 2903 2994 
Q 3275 2544 3275 1647 
L 3275 1572 
L 863 1572 
z
M 2694 2003 
Q 2647 2538 2422 2783 
Q 2197 3028 1775 3028 
Q 1366 3028 1127 2754 
Q 888 2481 869 2003 
L 2694 2003 
z
" transform="scale(0.015625)"/>
       <path id="Arimo-Regular-20" transform="scale(0.015625)"/>
       <path id="Arimo-Regular-54" d="M 2250 3916 
L 2250 0 
L 1656 0 
L 1656 3916 
L 144 3916 
L 144 4403 
L 3763 4403 
L 3763 3916 
L 2250 3916 
z
" transform="scale(0.015625)"/>
      </defs>
      <use xlink:href="#Arimo-Regular-57"/>
      <use xlink:href="#Arimo-Regular-69" transform="translate(94.384766 0)"/>
      <use xlink:href="#Arimo-Regular-6c" transform="translate(116.601562 0)"/>
      <use xlink:href="#Arimo-Regular-6c" transform="translate(138.818359 0)"/>
      <use xlink:href="#Arimo-Regular-69" transform="translate(161.035156 0)"/>
      <use xlink:href="#Arimo-Regular-6e" transform="translate(183.251953 0)"/>
      <use xlink:href="#Arimo-Regular-67" transform="translate(238.867188 0)"/>
      <use xlink:href="#Arimo-Regular-6e" transform="translate(294.482422 0)"/>
      <use xlink:href="#Arimo-Regular-65" transform="translate(350.097656 0)"/>
      <use xlink:href="#Arimo-Regular-73" transform="translate(405.712891 0)"/>
      <use xlink:href="#Arimo-Regular-73" transform="translate(455.712891 0)"/>
      <use xlink:href="#Arimo-Regular-20" transform="translate(505.712891 0)"/>
      <use xlink:href="#Arimo-Regular-54" transform="translate(533.496094 0)"/>
      <use xlink:href="#Arimo-Regular-6f" transform="translate(594.580078 0)"/>
      <use xlink:href="#Arimo-Regular-20" transform="translate(650.195312 0)"/>
      <use xlink:href="#Arimo-Regular-48" transform="translate(677.978516 0)"/>
      <use xlink:href="#Arimo-Regular-65" transform="translate(750.195312 0)"/>
      <use xlink:href="#Arimo-Regular-6c" transform="translate(805.810547 0)"/>
      <use xlink:href="#Arimo-Regular-70" transform="translate(828.027344 0)"/>
     </g>
    </g>
   </g>
   <g id="line2d_9">
    <path d="M 83.92 113.531927 
L 83.92 32.6272 
" clip-path="url(#p19a5020993)" style="fill: none; stroke: #717171; stroke-width: 1.5; stroke-linecap: square"/>
   </g>
   <g id="line2d_10">
    <path d="M 83.92 80.592145 
L 83.92 58.632291 
" clip-path="url(#p19a5020993)" style="fill: none; stroke: #717171; stroke-width: 4.5; stroke-linecap: square"/>
   </g>
   <g id="line2d_11">
    <path d="M 83.92 69.612218 
" clip-path="url(#p19a5020993)" style="fill: none; stroke: #717171; stroke-width: 1.5; stroke-linecap: square"/>
    <defs>
     <path id="m411072c7dd" d="M 1.875 0 
L -1.875 -0 
" style="stroke: #ffffff; stroke-width: 0.9"/>
    </defs>
    <g clip-path="url(#p19a5020993)">
     <use xlink:href="#m411072c7dd" x="83.92" y="69.612218" style="fill: #ffffff; stroke: #ffffff; stroke-width: 0.9"/>
    </g>
   </g>
   <g id="line2d_12">
    <path d="M 161.895 107.753018 
L 161.895 44.185018 
" clip-path="url(#p19a5020993)" style="fill: none; stroke: #717171; stroke-width: 1.5; stroke-linecap: square"/>
   </g>
   <g id="line2d_13">
    <path d="M 161.895 81.170036 
L 161.895 63.399891 
" clip-path="url(#p19a5020993)" style="fill: none; stroke: #717171; stroke-width: 4.5; stroke-linecap: square"/>
   </g>
   <g id="line2d_14">
    <path d="M 161.895 73.657455 
" clip-path="url(#p19a5020993)" style="fill: none; stroke: #717171; stroke-width: 1.5; stroke-linecap: square"/>
    <g clip-path="url(#p19a5020993)">
     <use xlink:href="#m411072c7dd" x="161.895" y="73.657455" style="fill: #ffffff; stroke: #ffffff; stroke-width: 0.9"/>
    </g>
   </g>
   <g id="patch_3">
    <path d="M 44.9325 166.12 
L 44.9325 7.2 
" style="fill: none; stroke: #000000; stroke-width: 0.8; stroke-linejoin: miter; stroke-linecap: square"/>
   </g>
   <g id="patch_4">
    <path d="M 44.9325 166.12 
L 200.8825 166.12 
" style="fill: none; stroke: #000000; stroke-width: 0.8; stroke-linejoin: miter; stroke-linecap: square"/>
   </g>
  </g>
 </g>
 <defs>
  <clipPath id="p19a5020993">
   <rect x="44.9325" y="7.2" width="155.95" height="158.92"/>
  </clipPath>
 </defs>
</svg>
