<?xml version="1.0" encoding="utf-8" standalone="no"?>
<!DOCTYPE svg PUBLIC "-//W3C//DTD SVG 1.1//EN"
  "http://www.w3.org/Graphics/SVG/1.1/DTD/svg11.dtd">
<svg xmlns:xlink="http://www.w3.org/1999/xlink" width="208.0825pt" height="208.556875pt" viewBox="0 0 208.0825 208.556875" xmlns="http://www.w3.org/2000/svg" version="1.1">
 <metadata>
  <rdf:RDF xmlns:dc="http://purl.org/dc/elements/1.1/" xmlns:cc="http://creativecommons.org/ns#" xmlns:rdf="http://www.w3.org/1999/02/22-rdf-syntax-ns#">
   <cc:Work>
    <dc:type rdf:resource="http://purl.org/dc/dcmitype/StillImage"/>
    <dc:date>2025-11-04T01:04:45.637815</dc:date>
    <dc:format>image/svg+xml</dc:format>
    <dc:creator>
     <cc:Agent>
      <dc:title>Matplotlib v3.10.0, https://matplotlib.org/</dc:title>
     </cc:Agent>
    </dc:creator>
   </cc:Work>
  </rdf:RDF>
 </metadata>
 <defs>
  <style type="text/css">*{stroke-linejoin: round; stroke-linecap: butt}</style>
 </defs>
 <g id="figure_1">
  <g id="patch_1">
   <path d="M 0 208.556875 
L 208.0825 208.556875 
L 208.0825 0 
L 0 0 
z
" style="fill: #ffffff"/>
  </g>
  <g id="axes_1">
   <g id="patch_2">
    <path d="M 44.9325 166.12 
L 200.8825 166.12 
L 200.8825 7.2 
L 44.9325 7.2 
z
" style="fill: #ffffff"/>
   </g>
   <g id="FillBetweenPolyCollection_1">
    <defs>
     <path id="m44524af5dc" d="M 83.971936 -48.088579 
L 83.868064 -48.088579 
L 83.846816 -49.544632 
L 83.820026 -51.000685 
L 83.787546 -52.456738 
L 83.749698 -53.912791 
L 83.707313 -55.368844 
L 83.661654 -56.824897 
L 83.614204 -58.28095 
L 83.566332 -59.737003 
L 83.518864 -61.193056 
L 83.471655 -62.649109 
L 83.423258 -64.105162 
L 83.370822 -65.561215 
L 83.310282 -67.017268 
L 83.236897 -68.473321 
L 83.146092 -69.929374 
L 83.034467 -71.385427 
L 82.900794 -72.84148 
L 82.746764 -74.297533 
L 82.577284 -75.753586 
L 82.400167 -77.209639 
L 82.225213 -78.665692 
L 82.062805 -80.121745 
L 81.922256 -81.577798 
L 81.810278 -83.033851 
L 81.72988 -84.489904 
L 81.679992 -85.945957 
L 81.655879 -87.40201 
L 81.650288 -88.858063 
L 81.65504 -90.314116 
L 81.6627 -91.770169 
L 81.667923 -93.226222 
L 81.668184 -94.682275 
L 81.663738 -96.138328 
L 81.656838 -97.594381 
L 81.650439 -99.050434 
L 81.646653 -100.506487 
L 81.645301 -101.96254 
L 81.642806 -103.418593 
L 81.631609 -104.874646 
L 81.600159 -106.330699 
L 81.533473 -107.786752 
L 81.414156 -109.242805 
L 81.223788 -110.698858 
L 80.944527 -112.154911 
L 80.560784 -113.610964 
L 80.060802 -115.067017 
L 79.437963 -116.52307 
L 78.691661 -117.979123 
L 77.82762 -119.435176 
L 76.857597 -120.891229 
L 75.798543 -122.347282 
L 74.671348 -123.803335 
L 73.499428 -125.259388 
L 72.307389 -126.715441 
L 71.119992 -128.171494 
L 69.961538 -129.627547 
L 68.855666 -131.0836 
L 67.825426 -132.539653 
L 66.893406 -133.995706 
L 66.081684 -135.451759 
L 65.411407 -136.907812 
L 64.901935 -138.363865 
L 64.569598 -139.819918 
L 64.42625 -141.275971 
L 64.477872 -142.732024 
L 64.723496 -144.188077 
L 65.154682 -145.64413 
L 65.755685 -147.100183 
L 66.504334 -148.556236 
L 67.373567 -150.012289 
L 68.333412 -151.468342 
L 69.353202 -152.924395 
L 70.403734 -154.380448 
L 71.459118 -155.836501 
L 72.498095 -157.292554 
L 73.504709 -158.748607 
L 74.468291 -160.20466 
L 75.38285 -161.660713 
L 76.246051 -163.116766 
L 77.057985 -164.572819 
L 77.819985 -166.028872 
L 78.533646 -167.484925 
L 79.200176 -168.940978 
L 79.820103 -170.397031 
L 80.393274 -171.853084 
L 80.919083 -173.309137 
L 81.396788 -174.76519 
L 81.825858 -176.221243 
L 82.206259 -177.677296 
L 82.538659 -179.133349 
L 82.824536 -180.589402 
L 83.066201 -182.045455 
L 83.26673 -183.501508 
L 83.429848 -184.957561 
L 83.559753 -186.413614 
L 83.66091 -187.869667 
L 83.737842 -189.32572 
L 83.79492 -190.781773 
L 83.836191 -192.237826 
L 84.003809 -192.237826 
L 84.003809 -192.237826 
L 84.04508 -190.781773 
L 84.102158 -189.32572 
L 84.17909 -187.869667 
L 84.280247 -186.413614 
L 84.410152 -184.957561 
L 84.57327 -183.501508 
L 84.773799 -182.045455 
L 85.015464 -180.589402 
L 85.301341 -179.133349 
L 85.633741 -177.677296 
L 86.014142 -176.221243 
L 86.443212 -174.76519 
L 86.920917 -173.309137 
L 87.446726 -171.853084 
L 88.019897 -170.397031 
L 88.639824 -168.940978 
L 89.306354 -167.484925 
L 90.020015 -166.028872 
L 90.782015 -164.572819 
L 91.593949 -163.116766 
L 92.45715 -161.660713 
L 93.371709 -160.20466 
L 94.335291 -158.748607 
L 95.341905 -157.292554 
L 96.380882 -155.836501 
L 97.436266 -154.380448 
L 98.486798 -152.924395 
L 99.506588 -151.468342 
L 100.466433 -150.012289 
L 101.335666 -148.556236 
L 102.084315 -147.100183 
L 102.685318 -145.64413 
L 103.116504 -144.188077 
L 103.362128 -142.732024 
L 103.41375 -141.275971 
L 103.270402 -139.819918 
L 102.938065 -138.363865 
L 102.428593 -136.907812 
L 101.758316 -135.451759 
L 100.946594 -133.995706 
L 100.014574 -132.539653 
L 98.984334 -131.0836 
L 97.878462 -129.627547 
L 96.720008 -128.171494 
L 95.532611 -126.715441 
L 94.340572 -125.259388 
L 93.168652 -123.803335 
L 92.041457 -122.347282 
L 90.982403 -120.891229 
L 90.01238 -119.435176 
L 89.148339 -117.979123 
L 88.402037 -116.52307 
L 87.779198 -115.067017 
L 87.279216 -113.610964 
L 86.895473 -112.154911 
L 86.616212 -110.698858 
L 86.425844 -109.242805 
L 86.306527 -107.786752 
L 86.239841 -106.330699 
L 86.208391 -104.874646 
L 86.197194 -103.418593 
L 86.194699 -101.96254 
L 86.193347 -100.506487 
L 86.189561 -99.050434 
L 86.183162 -97.594381 
L 86.176262 -96.138328 
L 86.171816 -94.682275 
L 86.172077 -93.226222 
L 86.1773 -91.770169 
L 86.18496 -90.314116 
L 86.189712 -88.858063 
L 86.184121 -87.40201 
L 86.160008 -85.945957 
L 86.11012 -84.489904 
L 86.029722 -83.033851 
L 85.917744 -81.577798 
L 85.777195 -80.121745 
L 85.614787 -78.665692 
L 85.439833 -77.209639 
L 85.262716 -75.753586 
L 85.093236 -74.297533 
L 84.939206 -72.84148 
L 84.805533 -71.385427 
L 84.693908 -69.929374 
L 84.603103 -68.473321 
L 84.529718 -67.017268 
L 84.469178 -65.561215 
L 84.416742 -64.105162 
L 84.368345 -62.649109 
L 84.321136 -61.193056 
L 84.273668 -59.737003 
L 84.225796 -58.28095 
L 84.178346 -56.824897 
L 84.132687 -55.368844 
L 84.090302 -53.912791 
L 84.052454 -52.456738 
L 84.019974 -51.000685 
L 83.993184 -49.544632 
L 83.971936 -48.088579 
z
" style="stroke: #717171"/>
    </defs>
    <g clip-path="url(#pc18ff04680)">
     <use xlink:href="#m44524af5dc" x="0" y="208.556875" style="fill: #c6d99e; stroke: #717171"/>
    </g>
   </g>
   <g id="FillBetweenPolyCollection_2">
    <defs>
     <path id="m1b75770d06" d="M 162.002272 -77.723532 
L 161.787728 -77.723532 
L 161.743936 -78.820228 
L 161.686277 -79.916923 
L 161.611947 -81.013619 
L 161.518111 -82.110315 
L 161.402077 -83.20701 
L 161.261505 -84.303706 
L 161.09463 -85.400402 
L 160.900477 -86.497097 
L 160.679052 -87.593793 
L 160.431483 -88.690488 
L 160.160087 -89.787184 
L 159.868349 -90.88388 
L 159.560801 -91.980575 
L 159.242794 -93.077271 
L 158.920185 -94.173967 
L 158.59895 -95.270662 
L 158.284756 -96.367358 
L 157.982546 -97.464054 
L 157.696173 -98.560749 
L 157.428135 -99.657445 
L 157.179442 -100.75414 
L 156.949639 -101.850836 
L 156.736966 -102.947532 
L 156.538627 -104.044227 
L 156.351118 -105.140923 
L 156.170538 -106.237619 
L 155.992823 -107.334314 
L 155.813865 -108.43101 
L 155.629497 -109.527705 
L 155.435359 -110.624401 
L 155.226723 -111.721097 
L 154.998323 -112.817792 
L 154.744298 -113.914488 
L 154.458297 -115.011184 
L 154.133781 -116.107879 
L 153.764518 -117.204575 
L 153.345217 -118.301271 
L 152.872214 -119.397966 
L 152.344134 -120.494662 
L 151.762407 -121.591357 
L 151.131604 -122.688053 
L 150.459526 -123.784749 
L 149.757056 -124.881444 
L 149.037791 -125.97814 
L 148.317495 -127.074836 
L 147.61341 -128.171531 
L 146.94348 -129.268227 
L 146.325512 -130.364922 
L 145.776315 -131.461618 
L 145.310846 -132.558314 
L 144.941403 -133.655009 
L 144.676921 -134.751705 
L 144.522419 -135.848401 
L 144.478664 -136.945096 
L 144.5421 -138.041792 
L 144.705065 -139.138488 
L 144.956302 -140.235183 
L 145.281733 -141.331879 
L 145.665422 -142.428574 
L 146.090664 -143.52527 
L 146.541079 -144.621966 
L 147.00165 -145.718661 
L 147.459609 -146.815357 
L 147.905125 -147.912053 
L 148.331753 -149.008748 
L 148.736638 -150.105444 
L 149.120458 -151.202139 
L 149.487141 -152.298835 
L 149.843348 -153.395531 
L 150.19777 -154.492226 
L 150.560271 -155.588922 
L 150.940929 -156.685618 
L 151.349053 -157.782313 
L 151.792239 -158.879009 
L 152.275585 -159.975705 
L 152.801111 -161.0724 
L 153.367475 -162.169096 
L 153.970017 -163.265791 
L 154.60111 -164.362487 
L 155.250788 -165.459183 
L 155.907569 -166.555878 
L 156.559365 -167.652574 
L 157.194382 -168.74927 
L 157.801901 -169.845965 
L 158.372884 -170.942661 
L 158.900358 -172.039356 
L 159.379571 -173.136052 
L 159.807954 -174.232748 
L 160.184928 -175.329443 
L 160.511606 -176.426139 
L 160.790448 -177.522835 
L 161.024903 -178.61953 
L 161.219079 -179.716226 
L 161.377448 -180.812921 
L 161.504603 -181.909617 
L 161.605062 -183.006313 
L 161.683117 -184.103008 
L 161.742726 -185.199704 
L 161.787442 -186.2964 
L 162.002558 -186.2964 
L 162.002558 -186.2964 
L 162.047274 -185.199704 
L 162.106883 -184.103008 
L 162.184938 -183.006313 
L 162.285397 -181.909617 
L 162.412552 -180.812921 
L 162.570921 -179.716226 
L 162.765097 -178.61953 
L 162.999552 -177.522835 
L 163.278394 -176.426139 
L 163.605072 -175.329443 
L 163.982046 -174.232748 
L 164.410429 -173.136052 
L 164.889642 -172.039356 
L 165.417116 -170.942661 
L 165.988099 -169.845965 
L 166.595618 -168.74927 
L 167.230635 -167.652574 
L 167.882431 -166.555878 
L 168.539212 -165.459183 
L 169.18889 -164.362487 
L 169.819983 -163.265791 
L 170.422525 -162.169096 
L 170.988889 -161.0724 
L 171.514415 -159.975705 
L 171.997761 -158.879009 
L 172.440947 -157.782313 
L 172.849071 -156.685618 
L 173.229729 -155.588922 
L 173.59223 -154.492226 
L 173.946652 -153.395531 
L 174.302859 -152.298835 
L 174.669542 -151.202139 
L 175.053362 -150.105444 
L 175.458247 -149.008748 
L 175.884875 -147.912053 
L 176.330391 -146.815357 
L 176.78835 -145.718661 
L 177.248921 -144.621966 
L 177.699336 -143.52527 
L 178.124578 -142.428574 
L 178.508267 -141.331879 
L 178.833698 -140.235183 
L 179.084935 -139.138488 
L 179.2479 -138.041792 
L 179.311336 -136.945096 
L 179.267581 -135.848401 
L 179.113079 -134.751705 
L 178.848597 -133.655009 
L 178.479154 -132.558314 
L 178.013685 -131.461618 
L 177.464488 -130.364922 
L 176.84652 -129.268227 
L 176.17659 -128.171531 
L 175.472505 -127.074836 
L 174.752209 -125.97814 
L 174.032944 -124.881444 
L 173.330474 -123.784749 
L 172.658396 -122.688053 
L 172.027593 -121.591357 
L 171.445866 -120.494662 
L 170.917786 -119.397966 
L 170.444783 -118.301271 
L 170.025482 -117.204575 
L 169.656219 -116.107879 
L 169.331703 -115.011184 
L 169.045702 -113.914488 
L 168.791677 -112.817792 
L 168.563277 -111.721097 
L 168.354641 -110.624401 
L 168.160503 -109.527705 
L 167.976135 -108.43101 
L 167.797177 -107.334314 
L 167.619462 -106.237619 
L 167.438882 -105.140923 
L 167.251373 -104.044227 
L 167.053034 -102.947532 
L 166.840361 -101.850836 
L 166.610558 -100.75414 
L 166.361865 -99.657445 
L 166.093827 -98.560749 
L 165.807454 -97.464054 
L 165.505244 -96.367358 
L 165.19105 -95.270662 
L 164.869815 -94.173967 
L 164.547206 -93.077271 
L 164.229199 -91.980575 
L 163.921651 -90.88388 
L 163.629913 -89.787184 
L 163.358517 -88.690488 
L 163.110948 -87.593793 
L 162.889523 -86.497097 
L 162.69537 -85.400402 
L 162.528495 -84.303706 
L 162.387923 -83.20701 
L 162.271889 -82.110315 
L 162.178053 -81.013619 
L 162.103723 -79.916923 
L 162.046064 -78.820228 
L 162.002272 -77.723532 
z
" style="stroke: #717171"/>
    </defs>
    <g clip-path="url(#pc18ff04680)">
     <use xlink:href="#m1b75770d06" x="0" y="208.556875" style="fill: #c6d99e; stroke: #717171"/>
    </g>
   </g>
   <g id="matplotlib.axis_1">
    <g id="xtick_1">
     <g id="line2d_1">
      <defs>
       <path id="mc49b22e780" d="M 0 0 
L 0 3.5 
" style="stroke: #000000; stroke-width: 0.8"/>
      </defs>
      <g>
       <use xlink:href="#mc49b22e780" x="83.92" y="166.12" style="stroke: #000000; stroke-width: 0.8"/>
      </g>
     </g>
     <g id="text_1">
      <!-- Male -->
      <g transform="translate(70.915937 181.81625) scale(0.12 -0.12)">
       <defs>
        <path id="Arimo-Regular-4d" d="M 1056 2938 
L 1056 0 
L 525 0 
L 525 4403 
L 1309 4403 
L 2481 1350 
Q 2544 1166 2601 955 
Q 2659 744 2678 650 
Q 2697 734 2740 882 
Q 2784 1031 2828 1168 
Q 2872 1306 2891 1350 
L 4041 4403 
L 4806 4403 
L 4806 0 
L 4269 0 
L 4269 2938 
Q 4269 3181 4276 3415 
Q 4284 3650 4297 3875 
Q 4219 3597 4151 3376 
Q 4084 3156 4022 3000 
L 2884 0 
L 2466 0 
L 1313 3000 
L 1034 3875 
Q 1041 3641 1048 3406 
Q 1056 3172 1056 2938 
z
" transform="scale(0.015625)"/>
        <path id="Arimo-Regular-61" d="M 1294 -63 
Q 784 -63 528 206 
Q 272 475 272 944 
Q 272 1469 617 1750 
Q 963 2031 1731 2050 
L 2491 2063 
L 2491 2247 
Q 2491 2659 2316 2837 
Q 2141 3016 1766 3016 
Q 1388 3016 1216 2887 
Q 1044 2759 1009 2478 
L 422 2531 
Q 566 3444 1778 3444 
Q 2416 3444 2737 3151 
Q 3059 2859 3059 2306 
L 3059 850 
Q 3059 600 3125 473 
Q 3191 347 3375 347 
Q 3463 347 3559 369 
L 3559 19 
Q 3453 -6 3343 -18 
Q 3234 -31 3125 -31 
Q 2813 -31 2670 133 
Q 2528 297 2509 647 
L 2491 647 
Q 2275 259 1989 98 
Q 1703 -63 1294 -63 
z
M 2491 1669 
L 1875 1656 
Q 1481 1653 1275 1575 
Q 1069 1500 959 1344 
Q 850 1188 850 934 
Q 850 659 998 509 
Q 1147 359 1422 359 
Q 1734 359 1972 500 
Q 2213 641 2352 886 
Q 2491 1131 2491 1391 
L 2491 1669 
z
" transform="scale(0.015625)"/>
        <path id="Arimo-Regular-6c" d="M 994 4638 
L 994 0 
L 431 0 
L 431 4638 
L 994 4638 
z
" transform="scale(0.015625)"/>
        <path id="Arimo-Regular-65" d="M 863 1572 
Q 863 991 1103 675 
Q 1344 359 1806 359 
Q 2172 359 2392 506 
Q 2613 653 2691 878 
L 3184 738 
Q 2881 -63 1806 -63 
Q 1056 -63 664 384 
Q 272 831 272 1713 
Q 272 2550 664 2997 
Q 1056 3444 1784 3444 
Q 2531 3444 2903 2994 
Q 3275 2544 3275 1647 
L 3275 1572 
L 863 1572 
z
M 2694 2003 
Q 2647 2538 2422 2783 
Q 2197 3028 1775 3028 
Q 1366 3028 1127 2754 
Q 888 2481 869 2003 
L 2694 2003 
z
" transform="scale(0.015625)"/>
       </defs>
       <use xlink:href="#Arimo-Regular-4d"/>
       <use xlink:href="#Arimo-Regular-61" transform="translate(83.300781 0)"/>
       <use xlink:href="#Arimo-Regular-6c" transform="translate(138.916016 0)"/>
       <use xlink:href="#Arimo-Regular-65" transform="translate(161.132812 0)"/>
      </g>
     </g>
    </g>
    <g id="xtick_2">
     <g id="line2d_2">
      <g>
       <use xlink:href="#mc49b22e780" x="161.895" y="166.12" style="stroke: #000000; stroke-width: 0.8"/>
      </g>
     </g>
     <g id="text_2">
      <!-- Female -->
      <g transform="translate(141.889687 181.81625) scale(0.12 -0.12)">
       <defs>
        <path id="Arimo-Regular-46" d="M 1122 1784 
L 1122 0 
L 525 0 
L 525 4403 
L 3653 4403 
L 3653 3916 
L 1122 3916 
L 1122 2278 
L 3578 2278 
L 3578 1784 
L 1122 1784 
z
" transform="scale(0.015625)"/>
        <path id="Arimo-Regular-6d" d="M 1003 1959 
L 1003 0 
L 444 0 
L 444 2659 
Q 444 2956 439 3136 
Q 434 3316 425 3381 
L 956 3381 
Q 963 3313 969 3213 
Q 975 3113 978 3005 
Q 981 2897 981 2803 
L 991 2803 
Q 1172 3163 1406 3303 
Q 1641 3444 1978 3444 
Q 2363 3444 2586 3291 
Q 2809 3138 2897 2803 
L 2906 2803 
Q 3081 3144 3329 3294 
Q 3578 3444 3931 3444 
Q 4444 3444 4676 3166 
Q 4909 2888 4909 2253 
L 4909 0 
L 4353 0 
L 4353 2144 
Q 4353 2634 4218 2821 
Q 4084 3009 3734 3009 
Q 3366 3009 3161 2736 
Q 2956 2463 2956 1959 
L 2956 0 
L 2400 0 
L 2400 2144 
Q 2400 2634 2265 2821 
Q 2131 3009 1781 3009 
Q 1422 3009 1212 2734 
Q 1003 2459 1003 1959 
z
" transform="scale(0.015625)"/>
       </defs>
       <use xlink:href="#Arimo-Regular-46"/>
       <use xlink:href="#Arimo-Regular-65" transform="translate(61.083984 0)"/>
       <use xlink:href="#Arimo-Regular-6d" transform="translate(116.699219 0)"/>
       <use xlink:href="#Arimo-Regular-61" transform="translate(200 0)"/>
       <use xlink:href="#Arimo-Regular-6c" transform="translate(255.615234 0)"/>
       <use xlink:href="#Arimo-Regular-65" transform="translate(277.832031 0)"/>
      </g>
     </g>
    </g>
    <g id="text_3">
     <!-- Sex -->
     <g transform="translate(110.845625 198.451875) scale(0.14 -0.14)">
      <defs>
       <path id="Arimo-Regular-53" d="M 3975 1216 
Q 3975 606 3498 271 
Q 3022 -63 2156 -63 
Q 547 -63 291 1056 
L 869 1172 
Q 969 775 1294 589 
Q 1619 403 2178 403 
Q 2756 403 3070 601 
Q 3384 800 3384 1184 
Q 3384 1400 3286 1534 
Q 3188 1669 3009 1756 
Q 2831 1844 2584 1903 
Q 2338 1963 2038 2031 
Q 1691 2109 1458 2184 
Q 1225 2259 1075 2342 
Q 925 2425 819 2519 
Q 663 2663 580 2853 
Q 497 3044 497 3291 
Q 497 3856 930 4162 
Q 1363 4469 2169 4469 
Q 2919 4469 3316 4239 
Q 3713 4009 3872 3456 
L 3284 3353 
Q 3188 3703 2916 3861 
Q 2644 4019 2163 4019 
Q 1634 4019 1356 3844 
Q 1078 3669 1078 3322 
Q 1078 3119 1186 2986 
Q 1294 2853 1497 2763 
Q 1688 2672 2306 2534 
Q 2559 2475 2806 2411 
Q 3053 2347 3272 2250 
Q 3400 2197 3517 2120 
Q 3634 2044 3722 1944 
Q 3841 1813 3908 1634 
Q 3975 1456 3975 1216 
z
" transform="scale(0.015625)"/>
       <path id="Arimo-Regular-78" d="M 1594 1388 
L 678 0 
L 72 0 
L 1275 1738 
L 128 3381 
L 750 3381 
L 1594 2066 
L 2431 3381 
L 3059 3381 
L 1913 1744 
L 3131 0 
L 2503 0 
L 1594 1388 
z
" transform="scale(0.015625)"/>
      </defs>
      <use xlink:href="#Arimo-Regular-53"/>
      <use xlink:href="#Arimo-Regular-65" transform="translate(66.699219 0)"/>
      <use xlink:href="#Arimo-Regular-78" transform="translate(122.314453 0)"/>
     </g>
    </g>
   </g>
   <g id="matplotlib.axis_2">
    <g id="ytick_1">
     <g id="line2d_3">
      <defs>
       <path id="mee6fa1cf73" d="M 0 0 
L -3.5 0 
" style="stroke: #000000; stroke-width: 0.8"/>
      </defs>
      <g>
       <use xlink:href="#mee6fa1cf73" x="44.9325" y="166.12" style="stroke: #000000; stroke-width: 0.8"/>
      </g>
     </g>
     <g id="text_4">
      <!-- −5 -->
      <g transform="translate(24.250625 170.468125) scale(0.12 -0.12)">
       <defs>
        <path id="Arimo-Regular-2212" d="M 3425 2356 
L 3425 1900 
L 316 1900 
L 316 2356 
L 3425 2356 
z
" transform="scale(0.015625)"/>
        <path id="Arimo-Regular-35" d="M 3291 1434 
Q 3291 738 2877 337 
Q 2463 -63 1728 -63 
Q 1113 -63 734 206 
Q 356 475 256 984 
L 825 1050 
Q 916 725 1144 561 
Q 1372 397 1741 397 
Q 2194 397 2450 670 
Q 2706 944 2706 1422 
Q 2706 1838 2448 2094 
Q 2191 2350 1753 2350 
Q 1525 2350 1328 2278 
Q 1131 2206 934 2034 
L 384 2034 
L 531 4403 
L 3034 4403 
L 3034 3925 
L 1044 3925 
L 959 2528 
Q 1325 2809 1869 2809 
Q 2303 2809 2622 2636 
Q 2941 2463 3116 2153 
Q 3291 1844 3291 1434 
z
" transform="scale(0.015625)"/>
       </defs>
       <use xlink:href="#Arimo-Regular-2212"/>
       <use xlink:href="#Arimo-Regular-35" transform="translate(58.398438 0)"/>
      </g>
     </g>
    </g>
    <g id="ytick_2">
     <g id="line2d_4">
      <g>
       <use xlink:href="#mee6fa1cf73" x="44.9325" y="137.225455" style="stroke: #000000; stroke-width: 0.8"/>
      </g>
     </g>
     <g id="text_5">
      <!-- −3 -->
      <g transform="translate(24.250625 141.57358) scale(0.12 -0.12)">
       <defs>
        <path id="Arimo-Regular-33" d="M 3278 1216 
Q 3278 606 2890 271 
Q 2503 -63 1784 -63 
Q 1116 -63 717 239 
Q 319 541 244 1131 
L 825 1184 
Q 938 403 1784 403 
Q 2209 403 2451 612 
Q 2694 822 2694 1234 
Q 2694 1594 2417 1795 
Q 2141 1997 1619 1997 
L 1300 1997 
L 1300 2484 
L 1606 2484 
Q 2069 2484 2323 2686 
Q 2578 2888 2578 3244 
Q 2578 3597 2370 3801 
Q 2163 4006 1753 4006 
Q 1381 4006 1151 3815 
Q 922 3625 884 3278 
L 319 3322 
Q 381 3863 767 4166 
Q 1153 4469 1759 4469 
Q 2422 4469 2789 4161 
Q 3156 3853 3156 3303 
Q 3156 2881 2920 2617 
Q 2684 2353 2234 2259 
L 2234 2247 
Q 2728 2194 3003 1916 
Q 3278 1638 3278 1216 
z
" transform="scale(0.015625)"/>
       </defs>
       <use xlink:href="#Arimo-Regular-2212"/>
       <use xlink:href="#Arimo-Regular-33" transform="translate(58.398438 0)"/>
      </g>
     </g>
    </g>
    <g id="ytick_3">
     <g id="line2d_5">
      <g>
       <use xlink:href="#mee6fa1cf73" x="44.9325" y="108.330909" style="stroke: #000000; stroke-width: 0.8"/>
      </g>
     </g>
     <g id="text_6">
      <!-- −1 -->
      <g transform="translate(24.250625 112.679034) scale(0.12 -0.12)">
       <defs>
        <path id="Arimo-Regular-31" d="M 3247 478 
L 3247 0 
L 488 0 
L 488 478 
L 1609 478 
L 1609 3866 
L 616 3156 
L 616 3688 
L 1656 4403 
L 2175 4403 
L 2175 478 
L 3247 478 
z
" transform="scale(0.015625)"/>
       </defs>
       <use xlink:href="#Arimo-Regular-2212"/>
       <use xlink:href="#Arimo-Regular-31" transform="translate(58.398438 0)"/>
      </g>
     </g>
    </g>
    <g id="ytick_4">
     <g id="line2d_6">
      <g>
       <use xlink:href="#mee6fa1cf73" x="44.9325" y="79.436364" style="stroke: #000000; stroke-width: 0.8"/>
      </g>
     </g>
     <g id="text_7">
      <!-- 1 -->
      <g transform="translate(31.259375 83.784489) scale(0.12 -0.12)">
       <use xlink:href="#Arimo-Regular-31"/>
      </g>
     </g>
    </g>
    <g id="ytick_5">
     <g id="line2d_7">
      <g>
       <use xlink:href="#mee6fa1cf73" x="44.9325" y="50.541818" style="stroke: #000000; stroke-width: 0.8"/>
      </g>
     </g>
     <g id="text_8">
      <!-- 3 -->
      <g transform="translate(31.259375 54.889943) scale(0.12 -0.12)">
       <use xlink:href="#Arimo-Regular-33"/>
      </g>
     </g>
    </g>
    <g id="ytick_6">
     <g id="line2d_8">
      <g>
       <use xlink:href="#mee6fa1cf73" x="44.9325" y="21.647273" style="stroke: #000000; stroke-width: 0.8"/>
      </g>
     </g>
     <g id="text_9">
      <!-- 5 -->
      <g transform="translate(31.259375 25.995398) scale(0.12 -0.12)">
       <use xlink:href="#Arimo-Regular-35"/>
      </g>
     </g>
    </g>
    <g id="text_10">
     <!-- Willingness To Help -->
     <g transform="translate(17.345625 148.512656) rotate(-90) scale(0.14 -0.14)">
      <defs>
       <path id="Arimo-Regular-57" d="M 2803 2781 
L 2038 0 
L 1325 0 
L 28 4403 
L 650 4403 
L 1441 1606 
Q 1513 1344 1577 1073 
Q 1641 803 1700 525 
Q 1725 641 1767 830 
Q 1809 1019 1856 1216 
Q 1903 1413 1941 1547 
L 2741 4403 
L 3313 4403 
L 4078 1663 
Q 4166 1328 4234 1042 
Q 4303 756 4353 525 
Q 4400 709 4451 923 
Q 4503 1138 4548 1314 
Q 4594 1491 4613 1566 
L 5397 4403 
L 6019 4403 
L 4722 0 
L 4009 0 
L 3247 2797 
Q 3209 2928 3154 3162 
Q 3100 3397 3028 3738 
Q 3000 3572 2954 3380 
Q 2909 3188 2867 3025 
Q 2825 2863 2803 2781 
z
" transform="scale(0.015625)"/>
       <path id="Arimo-Regular-69" d="M 991 4638 
L 991 4100 
L 428 4100 
L 428 4638 
L 991 4638 
z
M 991 3381 
L 991 0 
L 428 0 
L 428 3381 
L 991 3381 
z
" transform="scale(0.015625)"/>
       <path id="Arimo-Regular-6e" d="M 1006 1959 
L 1006 0 
L 444 0 
L 444 2659 
Q 444 2956 439 3136 
Q 434 3316 425 3381 
L 956 3381 
Q 963 3322 967 3231 
Q 972 3141 975 3031 
Q 978 2922 981 2803 
L 991 2803 
Q 1184 3153 1439 3298 
Q 1694 3444 2072 3444 
Q 2628 3444 2886 3159 
Q 3144 2875 3144 2253 
L 3144 0 
L 2578 0 
L 2578 2144 
Q 2578 2628 2422 2818 
Q 2266 3009 1881 3009 
Q 1475 3009 1240 2731 
Q 1006 2453 1006 1959 
z
" transform="scale(0.015625)"/>
       <path id="Arimo-Regular-67" d="M 1713 -1328 
Q 1159 -1328 831 -1111 
Q 503 -894 409 -494 
L 975 -413 
Q 1031 -647 1223 -773 
Q 1416 -900 1728 -900 
Q 2147 -900 2358 -653 
Q 2569 -406 2569 84 
L 2569 628 
L 2563 628 
Q 2403 303 2125 139 
Q 1847 -25 1475 -25 
Q 853 -25 561 387 
Q 269 800 269 1684 
Q 269 2581 583 3007 
Q 897 3434 1538 3434 
Q 1897 3434 2161 3270 
Q 2425 3106 2569 2803 
L 2575 2803 
Q 2575 2866 2581 2998 
Q 2588 3131 2597 3250 
Q 2606 3369 2613 3381 
L 3147 3381 
Q 3128 3213 3128 2681 
L 3128 97 
Q 3128 -616 2775 -972 
Q 2422 -1328 1713 -1328 
z
M 2569 1691 
Q 2569 2306 2317 2661 
Q 2066 3016 1675 3016 
Q 1244 3016 1047 2703 
Q 850 2391 850 1691 
Q 850 997 1034 694 
Q 1219 391 1666 391 
Q 2066 391 2317 739 
Q 2569 1088 2569 1691 
z
" transform="scale(0.015625)"/>
       <path id="Arimo-Regular-73" d="M 2969 934 
Q 2969 456 2608 196 
Q 2247 -63 1597 -63 
Q 966 -63 623 145 
Q 281 353 178 794 
L 675 891 
Q 747 619 972 492 
Q 1197 366 1597 366 
Q 2025 366 2223 497 
Q 2422 628 2422 891 
Q 2422 1091 2284 1216 
Q 2147 1341 1841 1422 
Q 1478 1519 1264 1581 
Q 1050 1644 934 1689 
Q 819 1734 750 1775 
Q 544 1894 428 2066 
Q 313 2238 313 2488 
Q 313 2950 642 3192 
Q 972 3434 1603 3434 
Q 2163 3434 2492 3237 
Q 2822 3041 2909 2606 
L 2403 2544 
Q 2356 2769 2151 2889 
Q 1947 3009 1603 3009 
Q 1222 3009 1040 2893 
Q 859 2778 859 2544 
Q 859 2372 962 2261 
Q 1066 2150 1356 2078 
Q 1747 1984 2100 1873 
Q 2453 1763 2606 1653 
Q 2784 1525 2876 1351 
Q 2969 1178 2969 934 
z
" transform="scale(0.015625)"/>
       <path id="Arimo-Regular-20" transform="scale(0.015625)"/>
       <path id="Arimo-Regular-54" d="M 2250 3916 
L 2250 0 
L 1656 0 
L 1656 3916 
L 144 3916 
L 144 4403 
L 3763 4403 
L 3763 3916 
L 2250 3916 
z
" transform="scale(0.015625)"/>
       <path id="Arimo-Regular-6f" d="M 3291 1694 
Q 3291 806 2900 371 
Q 2509 -63 1766 -63 
Q 1025 -63 647 389 
Q 269 841 269 1694 
Q 269 2569 648 3006 
Q 1028 3444 1784 3444 
Q 2559 3444 2925 3017 
Q 3291 2591 3291 1694 
z
M 2700 1694 
Q 2700 2394 2492 2711 
Q 2284 3028 1794 3028 
Q 1300 3028 1079 2704 
Q 859 2381 859 1694 
Q 859 1025 1076 689 
Q 1294 353 1759 353 
Q 2266 353 2483 678 
Q 2700 1003 2700 1694 
z
" transform="scale(0.015625)"/>
       <path id="Arimo-Regular-48" d="M 1122 2041 
L 1122 0 
L 525 0 
L 525 4403 
L 1122 4403 
L 1122 2541 
L 3503 2541 
L 3503 4403 
L 4100 4403 
L 4100 0 
L 3503 0 
L 3503 2041 
L 1122 2041 
z
" transform="scale(0.015625)"/>
       <path id="Arimo-Regular-70" d="M 3291 1706 
Q 3291 822 2980 379 
Q 2669 -63 2047 -63 
Q 1266 -63 997 525 
L 981 525 
Q 994 503 994 -6 
L 994 -1328 
L 431 -1328 
L 431 2691 
Q 431 2950 426 3123 
Q 422 3297 413 3381 
L 956 3381 
Q 959 3369 967 3259 
Q 975 3150 981 3023 
Q 988 2897 988 2838 
L 1000 2838 
Q 1150 3150 1397 3295 
Q 1644 3441 2047 3441 
Q 2672 3441 2981 3022 
Q 3291 2603 3291 1706 
z
M 2700 1694 
Q 2700 2400 2509 2703 
Q 2319 3006 1903 3006 
Q 1441 3006 1217 2686 
Q 994 2366 994 1650 
Q 994 984 1206 668 
Q 1419 353 1897 353 
Q 2316 353 2508 661 
Q 2700 969 2700 1694 
z
" transform="scale(0.015625)"/>
      </defs>
      <use xlink:href="#Arimo-Regular-57"/>
      <use xlink:href="#Arimo-Regular-69" transform="translate(94.384766 0)"/>
      <use xlink:href="#Arimo-Regular-6c" transform="translate(116.601562 0)"/>
      <use xlink:href="#Arimo-Regular-6c" transform="translate(138.818359 0)"/>
      <use xlink:href="#Arimo-Regular-69" transform="translate(161.035156 0)"/>
      <use xlink:href="#Arimo-Regular-6e" transform="translate(183.251953 0)"/>
      <use xlink:href="#Arimo-Regular-67" transform="translate(238.867188 0)"/>
      <use xlink:href="#Arimo-Regular-6e" transform="translate(294.482422 0)"/>
      <use xlink:href="#Arimo-Regular-65" transform="translate(350.097656 0)"/>
      <use xlink:href="#Arimo-Regular-73" transform="translate(405.712891 0)"/>
      <use xlink:href="#Arimo-Regular-73" transform="translate(455.712891 0)"/>
      <use xlink:href="#Arimo-Regular-20" transform="translate(505.712891 0)"/>
      <use xlink:href="#Arimo-Regular-54" transform="translate(533.496094 0)"/>
      <use xlink:href="#Arimo-Regular-6f" transform="translate(594.580078 0)"/>
      <use xlink:href="#Arimo-Regular-20" transform="translate(650.195312 0)"/>
      <use xlink:href="#Arimo-Regular-48" transform="translate(677.978516 0)"/>
      <use xlink:href="#Arimo-Regular-65" transform="translate(750.195312 0)"/>
      <use xlink:href="#Arimo-Regular-6c" transform="translate(805.810547 0)"/>
      <use xlink:href="#Arimo-Regular-70" transform="translate(828.027344 0)"/>
     </g>
    </g>
   </g>
   <g id="line2d_9">
    <path d="M 83.92 108.9088 
L 83.92 32.6272 
" clip-path="url(#pc18ff04680)" style="fill: none; stroke: #717171; stroke-width: 1.5; stroke-linecap: square"/>
   </g>
   <g id="line2d_10">
    <path d="M 83.92 78.858473 
L 83.92 58.632291 
" clip-path="url(#pc18ff04680)" style="fill: none; stroke: #717171; stroke-width: 4.5; stroke-linecap: square"/>
   </g>
   <g id="line2d_11">
    <path d="M 83.92 67.300655 
" clip-path="url(#pc18ff04680)" style="fill: none; stroke: #717171; stroke-width: 1.5; stroke-linecap: square"/>
    <defs>
     <path id="mf24c35aabf" d="M 1.875 0 
L -1.875 -0 
" style="stroke: #ffffff; stroke-width: 0.9"/>
    </defs>
    <g clip-path="url(#pc18ff04680)">
     <use xlink:href="#mf24c35aabf" x="83.92" y="67.300655" style="fill: #ffffff; stroke: #ffffff; stroke-width: 0.9"/>
    </g>
   </g>
   <g id="line2d_12">
    <path d="M 161.895 116.421382 
L 161.895 36.672436 
" clip-path="url(#pc18ff04680)" style="fill: none; stroke: #717171; stroke-width: 1.5; stroke-linecap: square"/>
   </g>
   <g id="line2d_13">
    <path d="M 161.895 83.337127 
L 161.895 59.932545 
" clip-path="url(#pc18ff04680)" style="fill: none; stroke: #717171; stroke-width: 4.5; stroke-linecap: square"/>
   </g>
   <g id="line2d_14">
    <path d="M 161.895 71.634836 
" clip-path="url(#pc18ff04680)" style="fill: none; stroke: #717171; stroke-width: 1.5; stroke-linecap: square"/>
    <g clip-path="url(#pc18ff04680)">
     <use xlink:href="#mf24c35aabf" x="161.895" y="71.634836" style="fill: #ffffff; stroke: #ffffff; stroke-width: 0.9"/>
    </g>
   </g>
   <g id="patch_3">
    <path d="M 44.9325 166.12 
L 44.9325 7.2 
" style="fill: none; stroke: #000000; stroke-width: 0.8; stroke-linejoin: miter; stroke-linecap: square"/>
   </g>
   <g id="patch_4">
    <path d="M 44.9325 166.12 
L 200.8825 166.12 
" style="fill: none; stroke: #000000; stroke-width: 0.8; stroke-linejoin: miter; stroke-linecap: square"/>
   </g>
  </g>
 </g>
 <defs>
  <clipPath id="pc18ff04680">
   <rect x="44.9325" y="7.2" width="155.95" height="158.92"/>
  </clipPath>
 </defs>
</svg>
