<?xml version="1.0" encoding="utf-8" standalone="no"?>
<!DOCTYPE svg PUBLIC "-//W3C//DTD SVG 1.1//EN"
  "http://www.w3.org/Graphics/SVG/1.1/DTD/svg11.dtd">
<svg xmlns:xlink="http://www.w3.org/1999/xlink" width="342.752187pt" height="303.771762pt" viewBox="0 0 342.752187 303.771762" xmlns="http://www.w3.org/2000/svg" version="1.1">
 <metadata>
  <rdf:RDF xmlns:dc="http://purl.org/dc/elements/1.1/" xmlns:cc="http://creativecommons.org/ns#" xmlns:rdf="http://www.w3.org/1999/02/22-rdf-syntax-ns#">
   <cc:Work>
    <dc:type rdf:resource="http://purl.org/dc/dcmitype/StillImage"/>
    <dc:date>2025-11-04T01:23:18.406483</dc:date>
    <dc:format>image/svg+xml</dc:format>
    <dc:creator>
     <cc:Agent>
      <dc:title>Matplotlib v3.10.0, https://matplotlib.org/</dc:title>
     </cc:Agent>
    </dc:creator>
   </cc:Work>
  </rdf:RDF>
 </metadata>
 <defs>
  <style type="text/css">*{stroke-linejoin: round; stroke-linecap: butt}</style>
 </defs>
 <g id="figure_1">
  <g id="patch_1">
   <path d="M 0 303.771762 
L 342.752187 303.771762 
L 342.752187 0 
L 0 0 
z
" style="fill: #ffffff"/>
  </g>
  <g id="axes_1">
   <g id="patch_2">
    <path d="M 56.552188 201.24 
L 335.552188 201.24 
L 335.552188 7.2 
L 56.552188 7.2 
z
" style="fill: #ffffff"/>
   </g>
   <g id="FillBetweenPolyCollection_1">
    <defs>
     <path id="mb64d100643" d="M 80.154033 -111.351762 
L 79.450342 -111.351762 
L 79.408249 -113.13358 
L 79.362499 -114.915398 
L 79.312966 -116.697216 
L 79.259546 -118.479034 
L 79.202158 -120.260852 
L 79.140749 -122.042671 
L 79.075298 -123.824489 
L 79.005814 -125.606307 
L 78.932346 -127.388125 
L 78.854979 -129.169943 
L 78.773837 -130.951762 
L 78.689086 -132.73358 
L 78.60093 -134.515398 
L 78.509615 -136.297216 
L 78.415426 -138.079034 
L 78.318686 -139.860852 
L 78.219751 -141.642671 
L 78.11901 -143.424489 
L 78.016877 -145.206307 
L 77.913792 -146.988125 
L 77.810209 -148.769943 
L 77.706596 -150.551762 
L 77.603427 -152.33358 
L 77.501175 -154.115398 
L 77.400306 -155.897216 
L 77.301274 -157.679034 
L 77.204513 -159.460852 
L 77.110434 -161.242671 
L 77.019419 -163.024489 
L 76.931814 -164.806307 
L 76.847929 -166.588125 
L 76.768034 -168.369943 
L 76.692357 -170.151762 
L 76.621083 -171.93358 
L 76.554356 -173.715398 
L 76.492276 -175.497216 
L 76.434908 -177.279034 
L 76.382279 -179.060852 
L 76.334384 -180.842671 
L 76.291192 -182.624489 
L 76.25265 -184.406307 
L 76.218689 -186.188125 
L 76.189228 -187.969943 
L 76.164183 -189.751762 
L 76.143468 -191.53358 
L 76.127004 -193.315398 
L 76.114722 -195.097216 
L 76.106566 -196.879034 
L 76.102499 -198.660852 
L 76.102499 -200.442671 
L 76.106566 -202.224489 
L 76.114722 -204.006307 
L 76.127004 -205.788125 
L 76.143468 -207.569943 
L 76.164183 -209.351762 
L 76.189228 -211.13358 
L 76.218689 -212.915398 
L 76.25265 -214.697216 
L 76.291192 -216.479034 
L 76.334384 -218.260852 
L 76.382279 -220.042671 
L 76.434908 -221.824489 
L 76.492276 -223.606307 
L 76.554356 -225.388125 
L 76.621083 -227.169943 
L 76.692357 -228.951762 
L 76.768034 -230.73358 
L 76.847929 -232.515398 
L 76.931814 -234.297216 
L 77.019419 -236.079034 
L 77.110434 -237.860852 
L 77.204513 -239.642671 
L 77.301274 -241.424489 
L 77.400306 -243.206307 
L 77.501175 -244.988125 
L 77.603427 -246.769943 
L 77.706596 -248.551762 
L 77.810209 -250.33358 
L 77.913792 -252.115398 
L 78.016877 -253.897216 
L 78.11901 -255.679034 
L 78.219751 -257.460852 
L 78.318686 -259.242671 
L 78.415426 -261.024489 
L 78.509615 -262.806307 
L 78.60093 -264.588125 
L 78.689086 -266.369943 
L 78.773837 -268.151762 
L 78.854979 -269.93358 
L 78.932346 -271.715398 
L 79.005814 -273.497216 
L 79.075298 -275.279034 
L 79.140749 -277.060852 
L 79.202158 -278.842671 
L 79.259546 -280.624489 
L 79.312966 -282.406307 
L 79.362499 -284.188125 
L 79.408249 -285.969943 
L 79.450342 -287.751762 
L 80.154033 -287.751762 
L 80.154033 -287.751762 
L 80.196126 -285.969943 
L 80.241876 -284.188125 
L 80.291409 -282.406307 
L 80.344829 -280.624489 
L 80.402217 -278.842671 
L 80.463626 -277.060852 
L 80.529077 -275.279034 
L 80.598561 -273.497216 
L 80.672029 -271.715398 
L 80.749396 -269.93358 
L 80.830538 -268.151762 
L 80.915289 -266.369943 
L 81.003445 -264.588125 
L 81.09476 -262.806307 
L 81.188949 -261.024489 
L 81.285689 -259.242671 
L 81.384624 -257.460852 
L 81.485365 -255.679034 
L 81.587498 -253.897216 
L 81.690583 -252.115398 
L 81.794166 -250.33358 
L 81.897779 -248.551762 
L 82.000948 -246.769943 
L 82.1032 -244.988125 
L 82.204069 -243.206307 
L 82.303101 -241.424489 
L 82.399862 -239.642671 
L 82.493941 -237.860852 
L 82.584956 -236.079034 
L 82.672561 -234.297216 
L 82.756446 -232.515398 
L 82.836341 -230.73358 
L 82.912018 -228.951762 
L 82.983292 -227.169943 
L 83.050019 -225.388125 
L 83.112099 -223.606307 
L 83.169467 -221.824489 
L 83.222096 -220.042671 
L 83.269991 -218.260852 
L 83.313183 -216.479034 
L 83.351725 -214.697216 
L 83.385686 -212.915398 
L 83.415147 -211.13358 
L 83.440192 -209.351762 
L 83.460907 -207.569943 
L 83.477371 -205.788125 
L 83.489653 -204.006307 
L 83.497809 -202.224489 
L 83.501876 -200.442671 
L 83.501876 -198.660852 
L 83.497809 -196.879034 
L 83.489653 -195.097216 
L 83.477371 -193.315398 
L 83.460907 -191.53358 
L 83.440192 -189.751762 
L 83.415147 -187.969943 
L 83.385686 -186.188125 
L 83.351725 -184.406307 
L 83.313183 -182.624489 
L 83.269991 -180.842671 
L 83.222096 -179.060852 
L 83.169467 -177.279034 
L 83.112099 -175.497216 
L 83.050019 -173.715398 
L 82.983292 -171.93358 
L 82.912018 -170.151762 
L 82.836341 -168.369943 
L 82.756446 -166.588125 
L 82.672561 -164.806307 
L 82.584956 -163.024489 
L 82.493941 -161.242671 
L 82.399862 -159.460852 
L 82.303101 -157.679034 
L 82.204069 -155.897216 
L 82.1032 -154.115398 
L 82.000948 -152.33358 
L 81.897779 -150.551762 
L 81.794166 -148.769943 
L 81.690583 -146.988125 
L 81.587498 -145.206307 
L 81.485365 -143.424489 
L 81.384624 -141.642671 
L 81.285689 -139.860852 
L 81.188949 -138.079034 
L 81.09476 -136.297216 
L 81.003445 -134.515398 
L 80.915289 -132.73358 
L 80.830538 -130.951762 
L 80.749396 -129.169943 
L 80.672029 -127.388125 
L 80.598561 -125.606307 
L 80.529077 -123.824489 
L 80.463626 -122.042671 
L 80.402217 -120.260852 
L 80.344829 -118.479034 
L 80.291409 -116.697216 
L 80.241876 -114.915398 
L 80.196126 -113.13358 
L 80.154033 -111.351762 
z
" style="stroke: #717171"/>
    </defs>
    <g clip-path="url(#p30cd089f98)">
     <use xlink:href="#mb64d100643" x="0" y="303.771762" style="fill: #c6d99e; stroke: #717171"/>
    </g>
   </g>
   <g id="FillBetweenPolyCollection_2">
    <defs>
     <path id="m4ffa65bd1f" d="M 126.436475 -169.805133 
L 126.1679 -169.805133 
L 126.13143 -170.703599 
L 126.087537 -171.602064 
L 126.035406 -172.50053 
L 125.974301 -173.398996 
L 125.903608 -174.297462 
L 125.822875 -175.195928 
L 125.731848 -176.094394 
L 125.630496 -176.99286 
L 125.519035 -177.891326 
L 125.397923 -178.789792 
L 125.267861 -179.688257 
L 125.129761 -180.586723 
L 124.984718 -181.485189 
L 124.833967 -182.383655 
L 124.678836 -183.282121 
L 124.5207 -184.180587 
L 124.360941 -185.079053 
L 124.200916 -185.977519 
L 124.041934 -186.875984 
L 123.885245 -187.77445 
L 123.732038 -188.672916 
L 123.583447 -189.571382 
L 123.440551 -190.469848 
L 123.30438 -191.368314 
L 123.175907 -192.26678 
L 123.056027 -193.165246 
L 122.945524 -194.063712 
L 122.845023 -194.962177 
L 122.75493 -195.860643 
L 122.675358 -196.759109 
L 122.606064 -197.657575 
L 122.546375 -198.556041 
L 122.495137 -199.454507 
L 122.450674 -200.352973 
L 122.410776 -201.251439 
L 122.372708 -202.149905 
L 122.333249 -203.04837 
L 122.288764 -203.946836 
L 122.235296 -204.845302 
L 122.168687 -205.743768 
L 122.08472 -206.642234 
L 121.979279 -207.5407 
L 121.848517 -208.439166 
L 121.689031 -209.337632 
L 121.49804 -210.236098 
L 121.273548 -211.134563 
L 121.014495 -212.033029 
L 120.720885 -212.931495 
L 120.393884 -213.829961 
L 120.035871 -214.728427 
L 119.650455 -215.626893 
L 119.242439 -216.525359 
L 118.817734 -217.423825 
L 118.383224 -218.322291 
L 117.946585 -219.220756 
L 117.516071 -220.119222 
L 117.100266 -221.017688 
L 116.707819 -221.916154 
L 116.347175 -222.81462 
L 116.026316 -223.713086 
L 115.752511 -224.611552 
L 115.532109 -225.510018 
L 115.370357 -226.408483 
L 115.271267 -227.306949 
L 115.23753 -228.205415 
L 115.270474 -229.103881 
L 115.370066 -230.002347 
L 115.534959 -230.900813 
L 115.762573 -231.799279 
L 116.049203 -232.697745 
L 116.390153 -233.596211 
L 116.779889 -234.494676 
L 117.212201 -235.393142 
L 117.68037 -236.291608 
L 118.177336 -237.190074 
L 118.695867 -238.08854 
L 119.228719 -238.987006 
L 119.768784 -239.885472 
L 120.309234 -240.783938 
L 120.843648 -241.682404 
L 121.36612 -242.580869 
L 121.871356 -243.479335 
L 122.354749 -244.377801 
L 122.812437 -245.276267 
L 123.241334 -246.174733 
L 123.639147 -247.073199 
L 124.004366 -247.971665 
L 124.336232 -248.870131 
L 124.634691 -249.768597 
L 124.900324 -250.667062 
L 125.134271 -251.565528 
L 125.338134 -252.463994 
L 125.513886 -253.36246 
L 125.663768 -254.260926 
L 125.79019 -255.159392 
L 125.895649 -256.057858 
L 125.982639 -256.956324 
L 126.053585 -257.854789 
L 126.110787 -258.753255 
L 126.493588 -258.753255 
L 126.493588 -258.753255 
L 126.55079 -257.854789 
L 126.621736 -256.956324 
L 126.708726 -256.057858 
L 126.814185 -255.159392 
L 126.940607 -254.260926 
L 127.090489 -253.36246 
L 127.266241 -252.463994 
L 127.470104 -251.565528 
L 127.704051 -250.667062 
L 127.969684 -249.768597 
L 128.268143 -248.870131 
L 128.600009 -247.971665 
L 128.965228 -247.073199 
L 129.363041 -246.174733 
L 129.791938 -245.276267 
L 130.249626 -244.377801 
L 130.733019 -243.479335 
L 131.238255 -242.580869 
L 131.760727 -241.682404 
L 132.295141 -240.783938 
L 132.835591 -239.885472 
L 133.375656 -238.987006 
L 133.908508 -238.08854 
L 134.427039 -237.190074 
L 134.924005 -236.291608 
L 135.392174 -235.393142 
L 135.824486 -234.494676 
L 136.214222 -233.596211 
L 136.555172 -232.697745 
L 136.841802 -231.799279 
L 137.069416 -230.900813 
L 137.234309 -230.002347 
L 137.333901 -229.103881 
L 137.366845 -228.205415 
L 137.333108 -227.306949 
L 137.234018 -226.408483 
L 137.072266 -225.510018 
L 136.851864 -224.611552 
L 136.578059 -223.713086 
L 136.2572 -222.81462 
L 135.896556 -221.916154 
L 135.504109 -221.017688 
L 135.088304 -220.119222 
L 134.65779 -219.220756 
L 134.221151 -218.322291 
L 133.786641 -217.423825 
L 133.361936 -216.525359 
L 132.95392 -215.626893 
L 132.568504 -214.728427 
L 132.210491 -213.829961 
L 131.88349 -212.931495 
L 131.58988 -212.033029 
L 131.330827 -211.134563 
L 131.106335 -210.236098 
L 130.915344 -209.337632 
L 130.755858 -208.439166 
L 130.625096 -207.5407 
L 130.519655 -206.642234 
L 130.435688 -205.743768 
L 130.369079 -204.845302 
L 130.315611 -203.946836 
L 130.271126 -203.04837 
L 130.231667 -202.149905 
L 130.193599 -201.251439 
L 130.153701 -200.352973 
L 130.109238 -199.454507 
L 130.058 -198.556041 
L 129.998311 -197.657575 
L 129.929017 -196.759109 
L 129.849445 -195.860643 
L 129.759352 -194.962177 
L 129.658851 -194.063712 
L 129.548348 -193.165246 
L 129.428468 -192.26678 
L 129.299995 -191.368314 
L 129.163824 -190.469848 
L 129.020928 -189.571382 
L 128.872337 -188.672916 
L 128.71913 -187.77445 
L 128.562441 -186.875984 
L 128.403459 -185.977519 
L 128.243434 -185.079053 
L 128.083675 -184.180587 
L 127.925539 -183.282121 
L 127.770408 -182.383655 
L 127.619657 -181.485189 
L 127.474614 -180.586723 
L 127.336514 -179.688257 
L 127.206452 -178.789792 
L 127.08534 -177.891326 
L 126.973879 -176.99286 
L 126.872527 -176.094394 
L 126.7815 -175.195928 
L 126.700767 -174.297462 
L 126.630074 -173.398996 
L 126.568969 -172.50053 
L 126.516838 -171.602064 
L 126.472945 -170.703599 
L 126.436475 -169.805133 
z
" style="stroke: #717171"/>
    </defs>
    <g clip-path="url(#p30cd089f98)">
     <use xlink:href="#m4ffa65bd1f" x="0" y="303.771762" style="fill: #c6d99e; stroke: #717171"/>
    </g>
   </g>
   <g id="FillBetweenPolyCollection_3">
    <defs>
     <path id="m908473422b" d="M 172.947338 -190.165292 
L 172.657037 -190.165292 
L 172.61473 -190.849451 
L 172.563424 -191.53361 
L 172.502204 -192.217768 
L 172.430321 -192.901927 
L 172.34726 -193.586085 
L 172.252793 -194.270244 
L 172.14703 -194.954402 
L 172.030439 -195.638561 
L 171.903843 -196.32272 
L 171.768398 -197.006878 
L 171.625522 -197.691037 
L 171.476816 -198.375195 
L 171.323949 -199.059354 
L 171.168532 -199.743513 
L 171.011982 -200.427671 
L 170.855394 -201.11183 
L 170.699421 -201.795988 
L 170.54418 -202.480147 
L 170.389182 -203.164306 
L 170.233302 -203.848464 
L 170.074781 -204.532623 
L 169.91127 -205.216781 
L 169.739898 -205.90094 
L 169.557386 -206.585099 
L 169.360169 -207.269257 
L 169.144546 -207.953416 
L 168.906839 -208.637574 
L 168.643555 -209.321733 
L 168.351546 -210.005891 
L 168.028163 -210.69005 
L 167.671396 -211.374209 
L 167.280002 -212.058367 
L 166.85362 -212.742526 
L 166.392864 -213.426684 
L 165.899408 -214.110843 
L 165.376053 -214.795002 
L 164.826777 -215.47916 
L 164.256759 -216.163319 
L 163.672384 -216.847477 
L 163.081199 -217.531636 
L 162.491829 -218.215795 
L 161.913823 -218.899953 
L 161.357431 -219.584112 
L 160.833308 -220.26827 
L 160.352134 -220.952429 
L 159.924177 -221.636588 
L 159.558803 -222.320746 
L 159.263984 -223.004905 
L 159.045821 -223.689063 
L 158.908139 -224.373222 
L 158.852188 -225.05738 
L 158.87649 -225.741539 
L 158.976857 -226.425698 
L 159.146586 -227.109856 
L 159.376823 -227.794015 
L 159.657089 -228.478173 
L 159.975905 -229.162332 
L 160.321482 -229.846491 
L 160.682419 -230.530649 
L 161.048354 -231.214808 
L 161.410513 -231.898966 
L 161.762128 -232.583125 
L 162.098686 -233.267284 
L 162.418012 -233.951442 
L 162.72018 -234.635601 
L 163.007275 -235.319759 
L 163.283028 -236.003918 
L 163.552364 -236.688076 
L 163.820897 -237.372235 
L 164.09442 -238.056394 
L 164.378417 -238.740552 
L 164.67763 -239.424711 
L 164.995718 -240.108869 
L 165.335011 -240.793028 
L 165.696379 -241.477187 
L 166.079206 -242.161345 
L 166.481472 -242.845504 
L 166.899919 -243.529662 
L 167.330283 -244.213821 
L 167.767572 -244.89798 
L 168.206366 -245.582138 
L 168.641114 -246.266297 
L 169.066402 -246.950455 
L 169.477201 -247.634614 
L 169.869053 -248.318773 
L 170.238211 -249.002931 
L 170.581734 -249.68709 
L 170.897515 -250.371248 
L 171.184286 -251.055407 
L 171.441569 -251.739565 
L 171.669606 -252.423724 
L 171.869268 -253.107883 
L 172.041949 -253.792041 
L 172.189449 -254.4762 
L 172.313865 -255.160358 
L 172.417481 -255.844517 
L 172.502662 -256.528676 
L 172.571775 -257.212834 
L 172.627107 -257.896993 
L 172.977268 -257.896993 
L 172.977268 -257.896993 
L 173.0326 -257.212834 
L 173.101713 -256.528676 
L 173.186894 -255.844517 
L 173.29051 -255.160358 
L 173.414926 -254.4762 
L 173.562426 -253.792041 
L 173.735107 -253.107883 
L 173.934769 -252.423724 
L 174.162806 -251.739565 
L 174.420089 -251.055407 
L 174.70686 -250.371248 
L 175.022641 -249.68709 
L 175.366164 -249.002931 
L 175.735322 -248.318773 
L 176.127174 -247.634614 
L 176.537973 -246.950455 
L 176.963261 -246.266297 
L 177.398009 -245.582138 
L 177.836803 -244.89798 
L 178.274092 -244.213821 
L 178.704456 -243.529662 
L 179.122903 -242.845504 
L 179.525169 -242.161345 
L 179.907996 -241.477187 
L 180.269364 -240.793028 
L 180.608657 -240.108869 
L 180.926745 -239.424711 
L 181.225958 -238.740552 
L 181.509955 -238.056394 
L 181.783478 -237.372235 
L 182.052011 -236.688076 
L 182.321347 -236.003918 
L 182.5971 -235.319759 
L 182.884195 -234.635601 
L 183.186363 -233.951442 
L 183.505689 -233.267284 
L 183.842247 -232.583125 
L 184.193862 -231.898966 
L 184.556021 -231.214808 
L 184.921956 -230.530649 
L 185.282893 -229.846491 
L 185.62847 -229.162332 
L 185.947286 -228.478173 
L 186.227552 -227.794015 
L 186.457789 -227.109856 
L 186.627518 -226.425698 
L 186.727885 -225.741539 
L 186.752187 -225.05738 
L 186.696236 -224.373222 
L 186.558554 -223.689063 
L 186.340391 -223.004905 
L 186.045572 -222.320746 
L 185.680198 -221.636588 
L 185.252241 -220.952429 
L 184.771067 -220.26827 
L 184.246944 -219.584112 
L 183.690552 -218.899953 
L 183.112546 -218.215795 
L 182.523176 -217.531636 
L 181.931991 -216.847477 
L 181.347616 -216.163319 
L 180.777598 -215.47916 
L 180.228322 -214.795002 
L 179.704967 -214.110843 
L 179.211511 -213.426684 
L 178.750755 -212.742526 
L 178.324373 -212.058367 
L 177.932979 -211.374209 
L 177.576212 -210.69005 
L 177.252829 -210.005891 
L 176.96082 -209.321733 
L 176.697536 -208.637574 
L 176.459829 -207.953416 
L 176.244206 -207.269257 
L 176.046989 -206.585099 
L 175.864477 -205.90094 
L 175.693105 -205.216781 
L 175.529594 -204.532623 
L 175.371073 -203.848464 
L 175.215193 -203.164306 
L 175.060195 -202.480147 
L 174.904954 -201.795988 
L 174.748981 -201.11183 
L 174.592393 -200.427671 
L 174.435843 -199.743513 
L 174.280426 -199.059354 
L 174.127559 -198.375195 
L 173.978853 -197.691037 
L 173.835977 -197.006878 
L 173.700532 -196.32272 
L 173.573936 -195.638561 
L 173.457345 -194.954402 
L 173.351582 -194.270244 
L 173.257115 -193.586085 
L 173.174054 -192.901927 
L 173.102171 -192.217768 
L 173.040951 -191.53361 
L 172.989645 -190.849451 
L 172.947338 -190.165292 
z
" style="stroke: #717171"/>
    </defs>
    <g clip-path="url(#p30cd089f98)">
     <use xlink:href="#m908473422b" x="0" y="303.771762" style="fill: #c6d99e; stroke: #717171"/>
    </g>
   </g>
   <g id="FillBetweenPolyCollection_4">
    <defs>
     <path id="m3291d87a71" d="M 219.411601 -187.317939 
L 219.192774 -187.317939 
L 219.158919 -188.071682 
L 219.117783 -188.825425 
L 219.068796 -189.579167 
L 219.011594 -190.33291 
L 218.946059 -191.086653 
L 218.872326 -191.840395 
L 218.790759 -192.594138 
L 218.701883 -193.347881 
L 218.606294 -194.101623 
L 218.504535 -194.855366 
L 218.396975 -195.609108 
L 218.283698 -196.362851 
L 218.164428 -197.116594 
L 218.03851 -197.870336 
L 217.904953 -198.624079 
L 217.762528 -199.377822 
L 217.609909 -200.131564 
L 217.44583 -200.885307 
L 217.269212 -201.63905 
L 217.079243 -202.392792 
L 216.875364 -203.146535 
L 216.657169 -203.900278 
L 216.424218 -204.65402 
L 216.175806 -205.407763 
L 215.910732 -206.161506 
L 215.627138 -206.915248 
L 215.322475 -207.668991 
L 214.993635 -208.422734 
L 214.637268 -209.176476 
L 214.250262 -209.930219 
L 213.830323 -210.683962 
L 213.376582 -211.437704 
L 212.890113 -212.191447 
L 212.374271 -212.94519 
L 211.834775 -213.698932 
L 211.279495 -214.452675 
L 210.717955 -215.206417 
L 210.160616 -215.96016 
L 209.618029 -216.713903 
L 209.099997 -217.467645 
L 208.614857 -218.221388 
L 208.168997 -218.975131 
L 207.766667 -219.728873 
L 207.41011 -220.482616 
L 207.099948 -221.236359 
L 206.835764 -221.990101 
L 206.616754 -222.743844 
L 206.442322 -223.497587 
L 206.312518 -224.251329 
L 206.228245 -225.005072 
L 206.191198 -225.758815 
L 206.203569 -226.512557 
L 206.267557 -227.2663 
L 206.384802 -228.020043 
L 206.555821 -228.773785 
L 206.77956 -229.527528 
L 207.053134 -230.281271 
L 207.371801 -231.035013 
L 207.729178 -231.788756 
L 208.117664 -232.542499 
L 208.529025 -233.296241 
L 208.95505 -234.049984 
L 209.388201 -234.803726 
L 209.822167 -235.557469 
L 210.25226 -236.311212 
L 210.675605 -237.064954 
L 211.091112 -237.818697 
L 211.49923 -238.57244 
L 211.90154 -239.326182 
L 212.30023 -240.079925 
L 212.697539 -240.833668 
L 213.095238 -241.58741 
L 213.49422 -242.341153 
L 213.894251 -243.094896 
L 214.293897 -243.848638 
L 214.690641 -244.602381 
L 215.08115 -245.356124 
L 215.461636 -246.109866 
L 215.828273 -246.863609 
L 216.177577 -247.617352 
L 216.506719 -248.371094 
L 216.813722 -249.124837 
L 217.097535 -249.87858 
L 217.357976 -250.632322 
L 217.595597 -251.386065 
L 217.811472 -252.139807 
L 218.006979 -252.89355 
L 218.183598 -253.647293 
L 218.342753 -254.401035 
L 218.485712 -255.154778 
L 218.613553 -255.908521 
L 218.727178 -256.662263 
L 218.827363 -257.416006 
L 218.914823 -258.169749 
L 218.990281 -258.923491 
L 219.054515 -259.677234 
L 219.108386 -260.430977 
L 219.152847 -261.184719 
L 219.188922 -261.938462 
L 219.415453 -261.938462 
L 219.415453 -261.938462 
L 219.451528 -261.184719 
L 219.495989 -260.430977 
L 219.54986 -259.677234 
L 219.614094 -258.923491 
L 219.689552 -258.169749 
L 219.777012 -257.416006 
L 219.877197 -256.662263 
L 219.990822 -255.908521 
L 220.118663 -255.154778 
L 220.261622 -254.401035 
L 220.420777 -253.647293 
L 220.597396 -252.89355 
L 220.792903 -252.139807 
L 221.008778 -251.386065 
L 221.246399 -250.632322 
L 221.50684 -249.87858 
L 221.790653 -249.124837 
L 222.097656 -248.371094 
L 222.426798 -247.617352 
L 222.776102 -246.863609 
L 223.142739 -246.109866 
L 223.523225 -245.356124 
L 223.913734 -244.602381 
L 224.310478 -243.848638 
L 224.710124 -243.094896 
L 225.110155 -242.341153 
L 225.509137 -241.58741 
L 225.906836 -240.833668 
L 226.304145 -240.079925 
L 226.702835 -239.326182 
L 227.105145 -238.57244 
L 227.513263 -237.818697 
L 227.92877 -237.064954 
L 228.352115 -236.311212 
L 228.782208 -235.557469 
L 229.216174 -234.803726 
L 229.649325 -234.049984 
L 230.07535 -233.296241 
L 230.486711 -232.542499 
L 230.875197 -231.788756 
L 231.232574 -231.035013 
L 231.551241 -230.281271 
L 231.824815 -229.527528 
L 232.048554 -228.773785 
L 232.219573 -228.020043 
L 232.336818 -227.2663 
L 232.400806 -226.512557 
L 232.413177 -225.758815 
L 232.37613 -225.005072 
L 232.291857 -224.251329 
L 232.162053 -223.497587 
L 231.987621 -222.743844 
L 231.768611 -221.990101 
L 231.504427 -221.236359 
L 231.194265 -220.482616 
L 230.837708 -219.728873 
L 230.435378 -218.975131 
L 229.989518 -218.221388 
L 229.504378 -217.467645 
L 228.986346 -216.713903 
L 228.443759 -215.96016 
L 227.88642 -215.206417 
L 227.32488 -214.452675 
L 226.7696 -213.698932 
L 226.230104 -212.94519 
L 225.714262 -212.191447 
L 225.227793 -211.437704 
L 224.774052 -210.683962 
L 224.354113 -209.930219 
L 223.967107 -209.176476 
L 223.61074 -208.422734 
L 223.2819 -207.668991 
L 222.977237 -206.915248 
L 222.693643 -206.161506 
L 222.428569 -205.407763 
L 222.180157 -204.65402 
L 221.947206 -203.900278 
L 221.729011 -203.146535 
L 221.525132 -202.392792 
L 221.335163 -201.63905 
L 221.158545 -200.885307 
L 220.994466 -200.131564 
L 220.841847 -199.377822 
L 220.699422 -198.624079 
L 220.565865 -197.870336 
L 220.439947 -197.116594 
L 220.320677 -196.362851 
L 220.2074 -195.609108 
L 220.09984 -194.855366 
L 219.998081 -194.101623 
L 219.902492 -193.347881 
L 219.813616 -192.594138 
L 219.732049 -191.840395 
L 219.658316 -191.086653 
L 219.592781 -190.33291 
L 219.535579 -189.579167 
L 219.486592 -188.825425 
L 219.445456 -188.071682 
L 219.411601 -187.317939 
z
" style="stroke: #717171"/>
    </defs>
    <g clip-path="url(#p30cd089f98)">
     <use xlink:href="#m3291d87a71" x="0" y="303.771762" style="fill: #c6d99e; stroke: #717171"/>
    </g>
   </g>
   <g id="FillBetweenPolyCollection_5">
    <defs>
     <path id="m376c592777" d="M 265.918014 -175.671954 
L 265.686361 -175.671954 
L 265.643828 -176.516228 
L 265.59032 -177.360501 
L 265.52475 -178.204775 
L 265.446504 -179.049049 
L 265.35561 -179.893323 
L 265.252857 -180.737596 
L 265.139855 -181.58187 
L 265.018999 -182.426144 
L 264.893334 -183.270418 
L 264.766329 -184.114691 
L 264.64157 -184.958965 
L 264.522428 -185.803239 
L 264.411743 -186.647513 
L 264.31157 -187.491786 
L 264.223029 -188.33606 
L 264.146293 -189.180334 
L 264.08069 -190.024607 
L 264.024927 -190.868881 
L 263.977356 -191.713155 
L 263.936265 -192.557429 
L 263.900101 -193.401702 
L 263.867611 -194.245976 
L 263.837848 -195.09025 
L 263.810058 -195.934524 
L 263.783445 -196.778797 
L 263.756888 -197.623071 
L 263.728624 -198.467345 
L 263.695997 -199.311618 
L 263.655296 -200.155892 
L 263.601738 -201.000166 
L 263.529611 -201.84444 
L 263.432576 -202.688713 
L 263.304097 -203.532987 
L 263.137954 -204.377261 
L 262.928779 -205.221535 
L 262.672549 -206.065808 
L 262.366982 -206.910082 
L 262.01178 -207.754356 
L 261.608694 -208.59863 
L 261.161411 -209.442903 
L 260.675273 -210.287177 
L 260.15687 -211.131451 
L 259.613564 -211.975724 
L 259.053012 -212.819998 
L 258.482743 -213.664272 
L 257.909864 -214.508546 
L 257.340915 -215.352819 
L 256.781897 -216.197093 
L 256.238442 -217.041367 
L 255.716089 -217.885641 
L 255.220572 -218.729914 
L 254.758057 -219.574188 
L 254.335239 -220.418462 
L 253.959258 -221.262736 
L 253.637409 -222.107009 
L 253.376694 -222.951283 
L 253.183259 -223.795557 
L 253.061828 -224.63983 
L 253.015216 -225.484104 
L 253.044021 -226.328378 
L 253.146522 -227.172652 
L 253.318818 -228.016925 
L 253.555172 -228.861199 
L 253.848496 -229.705473 
L 254.190915 -230.549747 
L 254.574326 -231.39402 
L 254.990893 -232.238294 
L 255.433422 -233.082568 
L 255.895602 -233.926842 
L 256.372114 -234.771115 
L 256.858599 -235.615389 
L 257.351544 -236.459663 
L 257.848093 -237.303936 
L 258.345832 -238.14821 
L 258.84258 -238.992484 
L 259.336209 -239.836758 
L 259.824521 -240.681031 
L 260.305188 -241.525305 
L 260.775754 -242.369579 
L 261.233687 -243.213853 
L 261.676465 -244.058126 
L 262.101672 -244.9024 
L 262.507087 -245.746674 
L 262.89075 -246.590948 
L 263.251003 -247.435221 
L 263.586508 -248.279495 
L 263.896249 -249.123769 
L 264.17953 -249.968042 
L 264.43598 -250.812316 
L 264.665561 -251.65659 
L 264.868591 -252.500864 
L 265.045758 -253.345137 
L 265.198129 -254.189411 
L 265.327143 -255.033685 
L 265.434569 -255.877959 
L 265.52245 -256.722232 
L 265.593016 -257.566506 
L 265.648591 -258.41078 
L 265.691488 -259.255054 
L 265.912887 -259.255054 
L 265.912887 -259.255054 
L 265.955784 -258.41078 
L 266.011359 -257.566506 
L 266.081925 -256.722232 
L 266.169806 -255.877959 
L 266.277232 -255.033685 
L 266.406246 -254.189411 
L 266.558617 -253.345137 
L 266.735784 -252.500864 
L 266.938814 -251.65659 
L 267.168395 -250.812316 
L 267.424845 -249.968042 
L 267.708126 -249.123769 
L 268.017867 -248.279495 
L 268.353372 -247.435221 
L 268.713625 -246.590948 
L 269.097288 -245.746674 
L 269.502703 -244.9024 
L 269.92791 -244.058126 
L 270.370688 -243.213853 
L 270.828621 -242.369579 
L 271.299187 -241.525305 
L 271.779854 -240.681031 
L 272.268166 -239.836758 
L 272.761795 -238.992484 
L 273.258543 -238.14821 
L 273.756282 -237.303936 
L 274.252831 -236.459663 
L 274.745776 -235.615389 
L 275.232261 -234.771115 
L 275.708773 -233.926842 
L 276.170953 -233.082568 
L 276.613482 -232.238294 
L 277.030049 -231.39402 
L 277.41346 -230.549747 
L 277.755879 -229.705473 
L 278.049203 -228.861199 
L 278.285557 -228.016925 
L 278.457853 -227.172652 
L 278.560354 -226.328378 
L 278.589159 -225.484104 
L 278.542547 -224.63983 
L 278.421116 -223.795557 
L 278.227681 -222.951283 
L 277.966966 -222.107009 
L 277.645117 -221.262736 
L 277.269136 -220.418462 
L 276.846318 -219.574188 
L 276.383803 -218.729914 
L 275.888286 -217.885641 
L 275.365933 -217.041367 
L 274.822478 -216.197093 
L 274.26346 -215.352819 
L 273.694511 -214.508546 
L 273.121632 -213.664272 
L 272.551363 -212.819998 
L 271.990811 -211.975724 
L 271.447505 -211.131451 
L 270.929102 -210.287177 
L 270.442964 -209.442903 
L 269.995681 -208.59863 
L 269.592595 -207.754356 
L 269.237393 -206.910082 
L 268.931826 -206.065808 
L 268.675596 -205.221535 
L 268.466421 -204.377261 
L 268.300278 -203.532987 
L 268.171799 -202.688713 
L 268.074764 -201.84444 
L 268.002637 -201.000166 
L 267.949079 -200.155892 
L 267.908378 -199.311618 
L 267.875751 -198.467345 
L 267.847487 -197.623071 
L 267.82093 -196.778797 
L 267.794317 -195.934524 
L 267.766527 -195.09025 
L 267.736764 -194.245976 
L 267.704274 -193.401702 
L 267.66811 -192.557429 
L 267.627019 -191.713155 
L 267.579448 -190.868881 
L 267.523685 -190.024607 
L 267.458082 -189.180334 
L 267.381346 -188.33606 
L 267.292805 -187.491786 
L 267.192632 -186.647513 
L 267.081947 -185.803239 
L 266.962805 -184.958965 
L 266.838046 -184.114691 
L 266.711041 -183.270418 
L 266.585376 -182.426144 
L 266.46452 -181.58187 
L 266.351518 -180.737596 
L 266.248765 -179.893323 
L 266.157871 -179.049049 
L 266.079625 -178.204775 
L 266.014055 -177.360501 
L 265.960547 -176.516228 
L 265.918014 -175.671954 
z
" style="stroke: #717171"/>
    </defs>
    <g clip-path="url(#p30cd089f98)">
     <use xlink:href="#m376c592777" x="0" y="303.771762" style="fill: #c6d99e; stroke: #717171"/>
    </g>
   </g>
   <g id="FillBetweenPolyCollection_6">
    <defs>
     <path id="m374ab6130f" d="M 312.487832 -182.433269 
L 312.116543 -182.433269 
L 312.062093 -183.217342 
L 311.995271 -184.001415 
L 311.914365 -184.785488 
L 311.817729 -185.56956 
L 311.703875 -186.353633 
L 311.571577 -187.137706 
L 311.419987 -187.921779 
L 311.248745 -188.705852 
L 311.058088 -189.489924 
L 310.848941 -190.273997 
L 310.622985 -191.05807 
L 310.382689 -191.842143 
L 310.13131 -192.626215 
L 309.87283 -193.410288 
L 309.611861 -194.194361 
L 309.353484 -194.978434 
L 309.103048 -195.762506 
L 308.865922 -196.546579 
L 308.647222 -197.330652 
L 308.451511 -198.114725 
L 308.282504 -198.898798 
L 308.142786 -199.68287 
L 308.033564 -200.466943 
L 307.954476 -201.251016 
L 307.903468 -202.035089 
L 307.876756 -202.819161 
L 307.868889 -203.603234 
L 307.8729 -204.387307 
L 307.88057 -205.17138 
L 307.882771 -205.955453 
L 307.869899 -206.739525 
L 307.832351 -207.523598 
L 307.76104 -208.307671 
L 307.647911 -209.091744 
L 307.486427 -209.875816 
L 307.27199 -210.659889 
L 307.002275 -211.443962 
L 306.67744 -212.228035 
L 306.300213 -213.012107 
L 305.875825 -213.79618 
L 305.411802 -214.580253 
L 304.917629 -215.364326 
L 304.404298 -216.148399 
L 303.883773 -216.932471 
L 303.368414 -217.716544 
L 302.870387 -218.500617 
L 302.401117 -219.28469 
L 301.970802 -220.068762 
L 301.58803 -220.852835 
L 301.25952 -221.636908 
L 300.989993 -222.420981 
L 300.782168 -223.205053 
L 300.636877 -223.989126 
L 300.553283 -224.773199 
L 300.529153 -225.557272 
L 300.56118 -226.341345 
L 300.645302 -227.125417 
L 300.77701 -227.90949 
L 300.951603 -228.693563 
L 301.164401 -229.477636 
L 301.410888 -230.261708 
L 301.686799 -231.045781 
L 301.988164 -231.829854 
L 302.311306 -232.613927 
L 302.652823 -233.398 
L 303.009555 -234.182072 
L 303.37856 -234.966145 
L 303.757093 -235.750218 
L 304.142602 -236.534291 
L 304.532734 -237.318363 
L 304.925346 -238.102436 
L 305.318522 -238.886509 
L 305.710581 -239.670582 
L 306.100071 -240.454654 
L 306.48575 -241.238727 
L 306.866551 -242.0228 
L 307.241534 -242.806873 
L 307.609822 -243.590946 
L 307.970544 -244.375018 
L 308.322779 -245.159091 
L 308.665514 -245.943164 
L 308.997619 -246.727237 
L 309.317854 -247.511309 
L 309.62489 -248.295382 
L 309.917354 -249.079455 
L 310.193896 -249.863528 
L 310.45326 -250.6476 
L 310.694357 -251.431673 
L 310.916339 -252.215746 
L 311.118651 -252.999819 
L 311.30107 -253.783892 
L 311.463723 -254.567964 
L 311.607082 -255.352037 
L 311.731939 -256.13611 
L 311.839361 -256.920183 
L 311.930641 -257.704255 
L 312.007229 -258.488328 
L 312.070672 -259.272401 
L 312.122549 -260.056474 
L 312.481826 -260.056474 
L 312.481826 -260.056474 
L 312.533703 -259.272401 
L 312.597146 -258.488328 
L 312.673734 -257.704255 
L 312.765014 -256.920183 
L 312.872436 -256.13611 
L 312.997293 -255.352037 
L 313.140652 -254.567964 
L 313.303305 -253.783892 
L 313.485724 -252.999819 
L 313.688036 -252.215746 
L 313.910018 -251.431673 
L 314.151115 -250.6476 
L 314.410479 -249.863528 
L 314.687021 -249.079455 
L 314.979485 -248.295382 
L 315.286521 -247.511309 
L 315.606756 -246.727237 
L 315.938861 -245.943164 
L 316.281596 -245.159091 
L 316.633831 -244.375018 
L 316.994553 -243.590946 
L 317.362841 -242.806873 
L 317.737824 -242.0228 
L 318.118625 -241.238727 
L 318.504304 -240.454654 
L 318.893794 -239.670582 
L 319.285853 -238.886509 
L 319.679029 -238.102436 
L 320.071641 -237.318363 
L 320.461773 -236.534291 
L 320.847282 -235.750218 
L 321.225815 -234.966145 
L 321.59482 -234.182072 
L 321.951552 -233.398 
L 322.293069 -232.613927 
L 322.616211 -231.829854 
L 322.917576 -231.045781 
L 323.193487 -230.261708 
L 323.439974 -229.477636 
L 323.652772 -228.693563 
L 323.827365 -227.90949 
L 323.959073 -227.125417 
L 324.043195 -226.341345 
L 324.075222 -225.557272 
L 324.051092 -224.773199 
L 323.967498 -223.989126 
L 323.822207 -223.205053 
L 323.614382 -222.420981 
L 323.344855 -221.636908 
L 323.016345 -220.852835 
L 322.633573 -220.068762 
L 322.203258 -219.28469 
L 321.733988 -218.500617 
L 321.235961 -217.716544 
L 320.720602 -216.932471 
L 320.200077 -216.148399 
L 319.686746 -215.364326 
L 319.192573 -214.580253 
L 318.72855 -213.79618 
L 318.304162 -213.012107 
L 317.926935 -212.228035 
L 317.6021 -211.443962 
L 317.332385 -210.659889 
L 317.117948 -209.875816 
L 316.956464 -209.091744 
L 316.843335 -208.307671 
L 316.772024 -207.523598 
L 316.734476 -206.739525 
L 316.721604 -205.955453 
L 316.723805 -205.17138 
L 316.731475 -204.387307 
L 316.735486 -203.603234 
L 316.727619 -202.819161 
L 316.700907 -202.035089 
L 316.649899 -201.251016 
L 316.570811 -200.466943 
L 316.461589 -199.68287 
L 316.321871 -198.898798 
L 316.152864 -198.114725 
L 315.957153 -197.330652 
L 315.738453 -196.546579 
L 315.501327 -195.762506 
L 315.250891 -194.978434 
L 314.992514 -194.194361 
L 314.731545 -193.410288 
L 314.473065 -192.626215 
L 314.221686 -191.842143 
L 313.98139 -191.05807 
L 313.755434 -190.273997 
L 313.546287 -189.489924 
L 313.35563 -188.705852 
L 313.184388 -187.921779 
L 313.032798 -187.137706 
L 312.9005 -186.353633 
L 312.786646 -185.56956 
L 312.69001 -184.785488 
L 312.609104 -184.001415 
L 312.542282 -183.217342 
L 312.487832 -182.433269 
z
" style="stroke: #717171"/>
    </defs>
    <g clip-path="url(#p30cd089f98)">
     <use xlink:href="#m374ab6130f" x="0" y="303.771762" style="fill: #c6d99e; stroke: #717171"/>
    </g>
   </g>
   <g id="matplotlib.axis_1">
    <g id="xtick_1">
     <g id="line2d_1">
      <defs>
       <path id="m39a95fea60" d="M 0 0 
L 0 3.5 
" style="stroke: #000000; stroke-width: 0.8"/>
      </defs>
      <g>
       <use xlink:href="#m39a95fea60" x="79.802188" y="201.24" style="stroke: #000000; stroke-width: 0.8"/>
      </g>
     </g>
     <g id="text_1">
      <!-- Some high -->
      <g transform="translate(28.33816 254.9528) rotate(-45) scale(0.12 -0.12)">
       <defs>
        <path id="Arimo-Regular-53" d="M 3975 1216 
Q 3975 606 3498 271 
Q 3022 -63 2156 -63 
Q 547 -63 291 1056 
L 869 1172 
Q 969 775 1294 589 
Q 1619 403 2178 403 
Q 2756 403 3070 601 
Q 3384 800 3384 1184 
Q 3384 1400 3286 1534 
Q 3188 1669 3009 1756 
Q 2831 1844 2584 1903 
Q 2338 1963 2038 2031 
Q 1691 2109 1458 2184 
Q 1225 2259 1075 2342 
Q 925 2425 819 2519 
Q 663 2663 580 2853 
Q 497 3044 497 3291 
Q 497 3856 930 4162 
Q 1363 4469 2169 4469 
Q 2919 4469 3316 4239 
Q 3713 4009 3872 3456 
L 3284 3353 
Q 3188 3703 2916 3861 
Q 2644 4019 2163 4019 
Q 1634 4019 1356 3844 
Q 1078 3669 1078 3322 
Q 1078 3119 1186 2986 
Q 1294 2853 1497 2763 
Q 1688 2672 2306 2534 
Q 2559 2475 2806 2411 
Q 3053 2347 3272 2250 
Q 3400 2197 3517 2120 
Q 3634 2044 3722 1944 
Q 3841 1813 3908 1634 
Q 3975 1456 3975 1216 
z
" transform="scale(0.015625)"/>
        <path id="Arimo-Regular-6f" d="M 3291 1694 
Q 3291 806 2900 371 
Q 2509 -63 1766 -63 
Q 1025 -63 647 389 
Q 269 841 269 1694 
Q 269 2569 648 3006 
Q 1028 3444 1784 3444 
Q 2559 3444 2925 3017 
Q 3291 2591 3291 1694 
z
M 2700 1694 
Q 2700 2394 2492 2711 
Q 2284 3028 1794 3028 
Q 1300 3028 1079 2704 
Q 859 2381 859 1694 
Q 859 1025 1076 689 
Q 1294 353 1759 353 
Q 2266 353 2483 678 
Q 2700 1003 2700 1694 
z
" transform="scale(0.015625)"/>
        <path id="Arimo-Regular-6d" d="M 1003 1959 
L 1003 0 
L 444 0 
L 444 2659 
Q 444 2956 439 3136 
Q 434 3316 425 3381 
L 956 3381 
Q 963 3313 969 3213 
Q 975 3113 978 3005 
Q 981 2897 981 2803 
L 991 2803 
Q 1172 3163 1406 3303 
Q 1641 3444 1978 3444 
Q 2363 3444 2586 3291 
Q 2809 3138 2897 2803 
L 2906 2803 
Q 3081 3144 3329 3294 
Q 3578 3444 3931 3444 
Q 4444 3444 4676 3166 
Q 4909 2888 4909 2253 
L 4909 0 
L 4353 0 
L 4353 2144 
Q 4353 2634 4218 2821 
Q 4084 3009 3734 3009 
Q 3366 3009 3161 2736 
Q 2956 2463 2956 1959 
L 2956 0 
L 2400 0 
L 2400 2144 
Q 2400 2634 2265 2821 
Q 2131 3009 1781 3009 
Q 1422 3009 1212 2734 
Q 1003 2459 1003 1959 
z
" transform="scale(0.015625)"/>
        <path id="Arimo-Regular-65" d="M 863 1572 
Q 863 991 1103 675 
Q 1344 359 1806 359 
Q 2172 359 2392 506 
Q 2613 653 2691 878 
L 3184 738 
Q 2881 -63 1806 -63 
Q 1056 -63 664 384 
Q 272 831 272 1713 
Q 272 2550 664 2997 
Q 1056 3444 1784 3444 
Q 2531 3444 2903 2994 
Q 3275 2544 3275 1647 
L 3275 1572 
L 863 1572 
z
M 2694 2003 
Q 2647 2538 2422 2783 
Q 2197 3028 1775 3028 
Q 1366 3028 1127 2754 
Q 888 2481 869 2003 
L 2694 2003 
z
" transform="scale(0.015625)"/>
        <path id="Arimo-Regular-20" transform="scale(0.015625)"/>
        <path id="Arimo-Regular-68" d="M 991 2803 
Q 1172 3134 1426 3289 
Q 1681 3444 2072 3444 
Q 2622 3444 2883 3158 
Q 3144 2872 3144 2253 
L 3144 0 
L 2578 0 
L 2578 2144 
Q 2578 2603 2417 2806 
Q 2256 3009 1881 3009 
Q 1484 3009 1245 2734 
Q 1006 2459 1006 1994 
L 1006 0 
L 444 0 
L 444 4638 
L 1006 4638 
L 1006 3431 
Q 1006 3306 1000 3167 
Q 994 3028 989 2926 
Q 984 2825 981 2803 
L 991 2803 
z
" transform="scale(0.015625)"/>
        <path id="Arimo-Regular-69" d="M 991 4638 
L 991 4100 
L 428 4100 
L 428 4638 
L 991 4638 
z
M 991 3381 
L 991 0 
L 428 0 
L 428 3381 
L 991 3381 
z
" transform="scale(0.015625)"/>
        <path id="Arimo-Regular-67" d="M 1713 -1328 
Q 1159 -1328 831 -1111 
Q 503 -894 409 -494 
L 975 -413 
Q 1031 -647 1223 -773 
Q 1416 -900 1728 -900 
Q 2147 -900 2358 -653 
Q 2569 -406 2569 84 
L 2569 628 
L 2563 628 
Q 2403 303 2125 139 
Q 1847 -25 1475 -25 
Q 853 -25 561 387 
Q 269 800 269 1684 
Q 269 2581 583 3007 
Q 897 3434 1538 3434 
Q 1897 3434 2161 3270 
Q 2425 3106 2569 2803 
L 2575 2803 
Q 2575 2866 2581 2998 
Q 2588 3131 2597 3250 
Q 2606 3369 2613 3381 
L 3147 3381 
Q 3128 3213 3128 2681 
L 3128 97 
Q 3128 -616 2775 -972 
Q 2422 -1328 1713 -1328 
z
M 2569 1691 
Q 2569 2306 2317 2661 
Q 2066 3016 1675 3016 
Q 1244 3016 1047 2703 
Q 850 2391 850 1691 
Q 850 997 1034 694 
Q 1219 391 1666 391 
Q 2066 391 2317 739 
Q 2569 1088 2569 1691 
z
" transform="scale(0.015625)"/>
       </defs>
       <use xlink:href="#Arimo-Regular-53"/>
       <use xlink:href="#Arimo-Regular-6f" transform="translate(66.699219 0)"/>
       <use xlink:href="#Arimo-Regular-6d" transform="translate(122.314453 0)"/>
       <use xlink:href="#Arimo-Regular-65" transform="translate(205.615234 0)"/>
       <use xlink:href="#Arimo-Regular-20" transform="translate(261.230469 0)"/>
       <use xlink:href="#Arimo-Regular-68" transform="translate(289.013672 0)"/>
       <use xlink:href="#Arimo-Regular-69" transform="translate(344.628906 0)"/>
       <use xlink:href="#Arimo-Regular-67" transform="translate(366.845703 0)"/>
       <use xlink:href="#Arimo-Regular-68" transform="translate(422.460938 0)"/>
      </g>
      <!--  school or less -->
      <g transform="translate(23.809937 277.760441) rotate(-45) scale(0.12 -0.12)">
       <defs>
        <path id="Arimo-Regular-73" d="M 2969 934 
Q 2969 456 2608 196 
Q 2247 -63 1597 -63 
Q 966 -63 623 145 
Q 281 353 178 794 
L 675 891 
Q 747 619 972 492 
Q 1197 366 1597 366 
Q 2025 366 2223 497 
Q 2422 628 2422 891 
Q 2422 1091 2284 1216 
Q 2147 1341 1841 1422 
Q 1478 1519 1264 1581 
Q 1050 1644 934 1689 
Q 819 1734 750 1775 
Q 544 1894 428 2066 
Q 313 2238 313 2488 
Q 313 2950 642 3192 
Q 972 3434 1603 3434 
Q 2163 3434 2492 3237 
Q 2822 3041 2909 2606 
L 2403 2544 
Q 2356 2769 2151 2889 
Q 1947 3009 1603 3009 
Q 1222 3009 1040 2893 
Q 859 2778 859 2544 
Q 859 2372 962 2261 
Q 1066 2150 1356 2078 
Q 1747 1984 2100 1873 
Q 2453 1763 2606 1653 
Q 2784 1525 2876 1351 
Q 2969 1178 2969 934 
z
" transform="scale(0.015625)"/>
        <path id="Arimo-Regular-63" d="M 1728 -63 
Q 1019 -63 645 385 
Q 272 834 272 1694 
Q 272 2547 647 2995 
Q 1022 3444 1722 3444 
Q 2241 3444 2583 3175 
Q 2925 2906 3013 2434 
L 2434 2391 
Q 2391 2672 2212 2837 
Q 2034 3003 1706 3003 
Q 1259 3003 1059 2706 
Q 859 2409 859 1706 
Q 859 1031 1071 706 
Q 1284 381 1713 381 
Q 2013 381 2214 543 
Q 2416 706 2463 1044 
L 3031 1006 
Q 2988 681 2814 440 
Q 2641 200 2364 68 
Q 2088 -63 1728 -63 
z
" transform="scale(0.015625)"/>
        <path id="Arimo-Regular-6c" d="M 994 4638 
L 994 0 
L 431 0 
L 431 4638 
L 994 4638 
z
" transform="scale(0.015625)"/>
        <path id="Arimo-Regular-72" d="M 1006 1763 
L 1006 0 
L 444 0 
L 444 2594 
Q 444 2772 439 2969 
Q 434 3166 425 3381 
L 956 3381 
Q 963 3238 967 3122 
Q 972 3006 975 2920 
Q 978 2834 979 2776 
Q 981 2719 981 2691 
L 994 2691 
Q 1088 2997 1200 3166 
Q 1309 3322 1450 3383 
Q 1591 3444 1797 3444 
Q 1913 3444 2025 3413 
L 2025 2897 
Q 1919 2928 1725 2928 
Q 1375 2928 1190 2626 
Q 1006 2325 1006 1763 
z
" transform="scale(0.015625)"/>
       </defs>
       <use xlink:href="#Arimo-Regular-20"/>
       <use xlink:href="#Arimo-Regular-73" transform="translate(27.783203 0)"/>
       <use xlink:href="#Arimo-Regular-63" transform="translate(77.783203 0)"/>
       <use xlink:href="#Arimo-Regular-68" transform="translate(127.783203 0)"/>
       <use xlink:href="#Arimo-Regular-6f" transform="translate(183.398438 0)"/>
       <use xlink:href="#Arimo-Regular-6f" transform="translate(239.013672 0)"/>
       <use xlink:href="#Arimo-Regular-6c" transform="translate(294.628906 0)"/>
       <use xlink:href="#Arimo-Regular-20" transform="translate(316.845703 0)"/>
       <use xlink:href="#Arimo-Regular-6f" transform="translate(344.628906 0)"/>
       <use xlink:href="#Arimo-Regular-72" transform="translate(400.244141 0)"/>
       <use xlink:href="#Arimo-Regular-20" transform="translate(433.544922 0)"/>
       <use xlink:href="#Arimo-Regular-6c" transform="translate(461.328125 0)"/>
       <use xlink:href="#Arimo-Regular-65" transform="translate(483.544922 0)"/>
       <use xlink:href="#Arimo-Regular-73" transform="translate(539.160156 0)"/>
       <use xlink:href="#Arimo-Regular-73" transform="translate(589.160156 0)"/>
      </g>
     </g>
    </g>
    <g id="xtick_2">
     <g id="line2d_2">
      <g>
       <use xlink:href="#m39a95fea60" x="126.302188" y="201.24" style="stroke: #000000; stroke-width: 0.8"/>
      </g>
     </g>
     <g id="text_2">
      <!-- High school  -->
      <g transform="translate(68.710196 261.080764) rotate(-45) scale(0.12 -0.12)">
       <defs>
        <path id="Arimo-Regular-48" d="M 1122 2041 
L 1122 0 
L 525 0 
L 525 4403 
L 1122 4403 
L 1122 2541 
L 3503 2541 
L 3503 4403 
L 4100 4403 
L 4100 0 
L 3503 0 
L 3503 2041 
L 1122 2041 
z
" transform="scale(0.015625)"/>
       </defs>
       <use xlink:href="#Arimo-Regular-48"/>
       <use xlink:href="#Arimo-Regular-69" transform="translate(72.216797 0)"/>
       <use xlink:href="#Arimo-Regular-67" transform="translate(94.433594 0)"/>
       <use xlink:href="#Arimo-Regular-68" transform="translate(150.048828 0)"/>
       <use xlink:href="#Arimo-Regular-20" transform="translate(205.664062 0)"/>
       <use xlink:href="#Arimo-Regular-73" transform="translate(233.447266 0)"/>
       <use xlink:href="#Arimo-Regular-63" transform="translate(283.447266 0)"/>
       <use xlink:href="#Arimo-Regular-68" transform="translate(333.447266 0)"/>
       <use xlink:href="#Arimo-Regular-6f" transform="translate(389.0625 0)"/>
       <use xlink:href="#Arimo-Regular-6f" transform="translate(444.677734 0)"/>
       <use xlink:href="#Arimo-Regular-6c" transform="translate(500.292969 0)"/>
       <use xlink:href="#Arimo-Regular-20" transform="translate(522.509766 0)"/>
      </g>
      <!-- or GED -->
      <g transform="translate(96.252359 251.818019) rotate(-45) scale(0.12 -0.12)">
       <defs>
        <path id="Arimo-Regular-47" d="M 2541 422 
Q 2972 422 3345 553 
Q 3719 684 3950 909 
L 3950 1703 
L 2634 1703 
L 2634 2203 
L 4500 2203 
L 4500 684 
Q 4150 328 3642 132 
Q 3134 -63 2541 -63 
Q 1853 -63 1356 215 
Q 859 494 590 1008 
Q 322 1522 322 2222 
Q 322 3294 897 3881 
Q 1472 4469 2513 4469 
Q 3244 4469 3700 4222 
Q 4156 3975 4403 3431 
L 3834 3263 
Q 3647 3638 3317 3809 
Q 2988 3981 2497 3981 
Q 1734 3981 1331 3520 
Q 928 3059 928 2222 
Q 928 1388 1356 905 
Q 1784 422 2541 422 
z
" transform="scale(0.015625)"/>
        <path id="Arimo-Regular-45" d="M 3994 488 
L 3994 0 
L 525 0 
L 525 4403 
L 3866 4403 
L 3866 3916 
L 1122 3916 
L 1122 2503 
L 3678 2503 
L 3678 2022 
L 1122 2022 
L 1122 488 
L 3994 488 
z
" transform="scale(0.015625)"/>
        <path id="Arimo-Regular-44" d="M 4316 2247 
Q 4316 1550 4045 1047 
Q 3775 544 3292 272 
Q 2809 0 2172 0 
L 525 0 
L 525 4403 
L 1981 4403 
Q 3100 4403 3708 3842 
Q 4316 3281 4316 2247 
z
M 3716 2247 
Q 3716 3066 3267 3495 
Q 2819 3925 1969 3925 
L 1122 3925 
L 1122 478 
L 2103 478 
Q 2594 478 2955 693 
Q 3316 909 3516 1306 
Q 3716 1703 3716 2247 
z
" transform="scale(0.015625)"/>
       </defs>
       <use xlink:href="#Arimo-Regular-6f"/>
       <use xlink:href="#Arimo-Regular-72" transform="translate(55.615234 0)"/>
       <use xlink:href="#Arimo-Regular-20" transform="translate(88.916016 0)"/>
       <use xlink:href="#Arimo-Regular-47" transform="translate(116.699219 0)"/>
       <use xlink:href="#Arimo-Regular-45" transform="translate(194.482422 0)"/>
       <use xlink:href="#Arimo-Regular-44" transform="translate(261.181641 0)"/>
      </g>
     </g>
    </g>
    <g id="xtick_3">
     <g id="line2d_3">
      <g>
       <use xlink:href="#m39a95fea60" x="172.802188" y="201.24" style="stroke: #000000; stroke-width: 0.8"/>
      </g>
     </g>
     <g id="text_3">
      <!-- Associates -->
      <g transform="translate(120.872796 255.418164) rotate(-45) scale(0.12 -0.12)">
       <defs>
        <path id="Arimo-Regular-41" d="M 1138 1288 
L 631 0 
L 13 0 
L 1809 4403 
L 2488 4403 
L 4256 0 
L 3647 0 
L 3144 1288 
L 1138 1288 
z
M 2141 3953 
Q 2088 3778 2014 3564 
Q 1941 3350 1878 3188 
L 1319 1753 
L 2966 1753 
L 2400 3206 
Q 2356 3316 2284 3516 
Q 2213 3716 2141 3953 
z
" transform="scale(0.015625)"/>
        <path id="Arimo-Regular-61" d="M 1294 -63 
Q 784 -63 528 206 
Q 272 475 272 944 
Q 272 1469 617 1750 
Q 963 2031 1731 2050 
L 2491 2063 
L 2491 2247 
Q 2491 2659 2316 2837 
Q 2141 3016 1766 3016 
Q 1388 3016 1216 2887 
Q 1044 2759 1009 2478 
L 422 2531 
Q 566 3444 1778 3444 
Q 2416 3444 2737 3151 
Q 3059 2859 3059 2306 
L 3059 850 
Q 3059 600 3125 473 
Q 3191 347 3375 347 
Q 3463 347 3559 369 
L 3559 19 
Q 3453 -6 3343 -18 
Q 3234 -31 3125 -31 
Q 2813 -31 2670 133 
Q 2528 297 2509 647 
L 2491 647 
Q 2275 259 1989 98 
Q 1703 -63 1294 -63 
z
M 2491 1669 
L 1875 1656 
Q 1481 1653 1275 1575 
Q 1069 1500 959 1344 
Q 850 1188 850 934 
Q 850 659 998 509 
Q 1147 359 1422 359 
Q 1734 359 1972 500 
Q 2213 641 2352 886 
Q 2491 1131 2491 1391 
L 2491 1669 
z
" transform="scale(0.015625)"/>
        <path id="Arimo-Regular-74" d="M 1731 25 
Q 1456 -50 1163 -50 
Q 825 -50 656 142 
Q 488 334 488 716 
L 488 2972 
L 97 2972 
L 97 3381 
L 509 3381 
L 675 4138 
L 1050 4138 
L 1050 3381 
L 1675 3381 
L 1675 2972 
L 1050 2972 
L 1050 838 
Q 1050 594 1129 495 
Q 1209 397 1406 397 
Q 1513 397 1731 441 
L 1731 25 
z
" transform="scale(0.015625)"/>
       </defs>
       <use xlink:href="#Arimo-Regular-41"/>
       <use xlink:href="#Arimo-Regular-73" transform="translate(66.699219 0)"/>
       <use xlink:href="#Arimo-Regular-73" transform="translate(116.699219 0)"/>
       <use xlink:href="#Arimo-Regular-6f" transform="translate(166.699219 0)"/>
       <use xlink:href="#Arimo-Regular-63" transform="translate(222.314453 0)"/>
       <use xlink:href="#Arimo-Regular-69" transform="translate(272.314453 0)"/>
       <use xlink:href="#Arimo-Regular-61" transform="translate(294.53125 0)"/>
       <use xlink:href="#Arimo-Regular-74" transform="translate(350.146484 0)"/>
       <use xlink:href="#Arimo-Regular-65" transform="translate(377.929688 0)"/>
       <use xlink:href="#Arimo-Regular-73" transform="translate(433.544922 0)"/>
      </g>
      <!--  degree -->
      <g transform="translate(142.265781 252.304597) rotate(-45) scale(0.12 -0.12)">
       <defs>
        <path id="Arimo-Regular-64" d="M 2609 0 
Q 2603 34 2595 129 
Q 2588 225 2583 340 
Q 2578 456 2578 544 
L 2566 544 
Q 2409 219 2151 78 
Q 1894 -63 1513 -63 
Q 872 -63 570 368 
Q 269 800 269 1675 
Q 269 2559 580 3001 
Q 891 3444 1513 3444 
Q 1897 3444 2153 3303 
Q 2409 3163 2566 2856 
L 2572 2856 
L 2566 3234 
L 2566 4638 
L 3128 4638 
L 3128 697 
Q 3128 431 3133 257 
Q 3138 84 3147 0 
L 2609 0 
z
M 859 1694 
Q 859 984 1046 678 
Q 1234 372 1656 372 
Q 2134 372 2350 703 
Q 2566 1034 2566 1731 
Q 2566 2403 2350 2715 
Q 2134 3028 1663 3028 
Q 1238 3028 1048 2714 
Q 859 2400 859 1694 
z
" transform="scale(0.015625)"/>
       </defs>
       <use xlink:href="#Arimo-Regular-20"/>
       <use xlink:href="#Arimo-Regular-64" transform="translate(27.783203 0)"/>
       <use xlink:href="#Arimo-Regular-65" transform="translate(83.398438 0)"/>
       <use xlink:href="#Arimo-Regular-67" transform="translate(139.013672 0)"/>
       <use xlink:href="#Arimo-Regular-72" transform="translate(194.628906 0)"/>
       <use xlink:href="#Arimo-Regular-65" transform="translate(227.929688 0)"/>
       <use xlink:href="#Arimo-Regular-65" transform="translate(283.544922 0)"/>
      </g>
     </g>
    </g>
    <g id="xtick_4">
     <g id="line2d_4">
      <g>
       <use xlink:href="#m39a95fea60" x="219.302188" y="201.24" style="stroke: #000000; stroke-width: 0.8"/>
      </g>
     </g>
     <g id="text_4">
      <!-- Some -->
      <g transform="translate(186.236637 236.554323) rotate(-45) scale(0.12 -0.12)">
       <use xlink:href="#Arimo-Regular-53"/>
       <use xlink:href="#Arimo-Regular-6f" transform="translate(66.699219 0)"/>
       <use xlink:href="#Arimo-Regular-6d" transform="translate(122.314453 0)"/>
       <use xlink:href="#Arimo-Regular-65" transform="translate(205.615234 0)"/>
      </g>
      <!--  college -->
      <g transform="translate(188.296439 252.773939) rotate(-45) scale(0.12 -0.12)">
       <use xlink:href="#Arimo-Regular-20"/>
       <use xlink:href="#Arimo-Regular-63" transform="translate(27.783203 0)"/>
       <use xlink:href="#Arimo-Regular-6f" transform="translate(77.783203 0)"/>
       <use xlink:href="#Arimo-Regular-6c" transform="translate(133.398438 0)"/>
       <use xlink:href="#Arimo-Regular-6c" transform="translate(155.615234 0)"/>
       <use xlink:href="#Arimo-Regular-65" transform="translate(177.832031 0)"/>
       <use xlink:href="#Arimo-Regular-67" transform="translate(233.447266 0)"/>
       <use xlink:href="#Arimo-Regular-65" transform="translate(289.0625 0)"/>
      </g>
     </g>
    </g>
    <g id="xtick_5">
     <g id="line2d_5">
      <g>
       <use xlink:href="#m39a95fea60" x="265.802188" y="201.24" style="stroke: #000000; stroke-width: 0.8"/>
      </g>
     </g>
     <g id="text_5">
      <!-- Bachelors  -->
      <g transform="translate(212.928808 256.362152) rotate(-45) scale(0.12 -0.12)">
       <defs>
        <path id="Arimo-Regular-42" d="M 3931 1241 
Q 3931 653 3503 326 
Q 3075 0 2313 0 
L 525 0 
L 525 4403 
L 2125 4403 
Q 2900 4403 3287 4136 
Q 3675 3869 3675 3334 
Q 3675 2944 3456 2678 
Q 3238 2413 2838 2322 
Q 3363 2259 3647 1970 
Q 3931 1681 3931 1241 
z
M 3075 3263 
Q 3075 3619 2831 3772 
Q 2588 3925 2125 3925 
L 1122 3925 
L 1122 2531 
L 2125 2531 
Q 2603 2531 2839 2711 
Q 3075 2891 3075 3263 
z
M 3328 1288 
Q 3328 2066 2234 2066 
L 1122 2066 
L 1122 478 
L 2281 478 
Q 2828 478 3078 681 
Q 3328 884 3328 1288 
z
" transform="scale(0.015625)"/>
        <path id="Arimo-Regular-2019" d="M 1025 3950 
Q 1025 3622 965 3398 
Q 906 3175 781 2975 
L 397 2975 
Q 691 3400 691 3788 
L 416 3788 
L 416 4403 
L 1025 4403 
L 1025 3950 
z
" transform="scale(0.015625)"/>
       </defs>
       <use xlink:href="#Arimo-Regular-42"/>
       <use xlink:href="#Arimo-Regular-61" transform="translate(66.699219 0)"/>
       <use xlink:href="#Arimo-Regular-63" transform="translate(122.314453 0)"/>
       <use xlink:href="#Arimo-Regular-68" transform="translate(172.314453 0)"/>
       <use xlink:href="#Arimo-Regular-65" transform="translate(227.929688 0)"/>
       <use xlink:href="#Arimo-Regular-6c" transform="translate(283.544922 0)"/>
       <use xlink:href="#Arimo-Regular-6f" transform="translate(305.761719 0)"/>
       <use xlink:href="#Arimo-Regular-72" transform="translate(361.376953 0)"/>
       <use xlink:href="#Arimo-Regular-2019" transform="translate(394.677734 0)"/>
       <use xlink:href="#Arimo-Regular-73" transform="translate(416.894531 0)"/>
       <use xlink:href="#Arimo-Regular-20" transform="translate(466.894531 0)"/>
      </g>
      <!-- degree -->
      <g transform="translate(237.623098 249.947279) rotate(-45) scale(0.12 -0.12)">
       <use xlink:href="#Arimo-Regular-64"/>
       <use xlink:href="#Arimo-Regular-65" transform="translate(55.615234 0)"/>
       <use xlink:href="#Arimo-Regular-67" transform="translate(111.230469 0)"/>
       <use xlink:href="#Arimo-Regular-72" transform="translate(166.845703 0)"/>
       <use xlink:href="#Arimo-Regular-65" transform="translate(200.146484 0)"/>
       <use xlink:href="#Arimo-Regular-65" transform="translate(255.761719 0)"/>
      </g>
     </g>
    </g>
    <g id="xtick_6">
     <g id="line2d_6">
      <g>
       <use xlink:href="#m39a95fea60" x="312.302188" y="201.24" style="stroke: #000000; stroke-width: 0.8"/>
      </g>
     </g>
     <g id="text_6">
      <!-- Graduate -->
      <g transform="translate(266.026115 249.764846) rotate(-45) scale(0.12 -0.12)">
       <defs>
        <path id="Arimo-Regular-75" d="M 2569 578 
Q 2375 228 2120 82 
Q 1866 -63 1488 -63 
Q 931 -63 673 214 
Q 416 491 416 1128 
L 416 3381 
L 981 3381 
L 981 1238 
Q 981 731 1139 551 
Q 1297 372 1678 372 
Q 2084 372 2318 650 
Q 2553 928 2553 1422 
L 2553 3381 
L 3116 3381 
L 3116 722 
Q 3116 428 3120 247 
Q 3125 66 3134 0 
L 2603 0 
Q 2600 16 2592 147 
Q 2584 278 2578 578 
L 2569 578 
z
" transform="scale(0.015625)"/>
       </defs>
       <use xlink:href="#Arimo-Regular-47"/>
       <use xlink:href="#Arimo-Regular-72" transform="translate(77.783203 0)"/>
       <use xlink:href="#Arimo-Regular-61" transform="translate(111.083984 0)"/>
       <use xlink:href="#Arimo-Regular-64" transform="translate(166.699219 0)"/>
       <use xlink:href="#Arimo-Regular-75" transform="translate(222.314453 0)"/>
       <use xlink:href="#Arimo-Regular-61" transform="translate(277.929688 0)"/>
       <use xlink:href="#Arimo-Regular-74" transform="translate(333.544922 0)"/>
       <use xlink:href="#Arimo-Regular-65" transform="translate(361.328125 0)"/>
      </g>
      <!--  degree -->
      <g transform="translate(281.765781 252.304597) rotate(-45) scale(0.12 -0.12)">
       <use xlink:href="#Arimo-Regular-20"/>
       <use xlink:href="#Arimo-Regular-64" transform="translate(27.783203 0)"/>
       <use xlink:href="#Arimo-Regular-65" transform="translate(83.398438 0)"/>
       <use xlink:href="#Arimo-Regular-67" transform="translate(139.013672 0)"/>
       <use xlink:href="#Arimo-Regular-72" transform="translate(194.628906 0)"/>
       <use xlink:href="#Arimo-Regular-65" transform="translate(227.929688 0)"/>
       <use xlink:href="#Arimo-Regular-65" transform="translate(283.544922 0)"/>
      </g>
     </g>
    </g>
    <g id="text_7">
     <!-- Education -->
     <g transform="translate(164.919688 293.666762) scale(0.14 -0.14)">
      <defs>
       <path id="Arimo-Regular-6e" d="M 1006 1959 
L 1006 0 
L 444 0 
L 444 2659 
Q 444 2956 439 3136 
Q 434 3316 425 3381 
L 956 3381 
Q 963 3322 967 3231 
Q 972 3141 975 3031 
Q 978 2922 981 2803 
L 991 2803 
Q 1184 3153 1439 3298 
Q 1694 3444 2072 3444 
Q 2628 3444 2886 3159 
Q 3144 2875 3144 2253 
L 3144 0 
L 2578 0 
L 2578 2144 
Q 2578 2628 2422 2818 
Q 2266 3009 1881 3009 
Q 1475 3009 1240 2731 
Q 1006 2453 1006 1959 
z
" transform="scale(0.015625)"/>
      </defs>
      <use xlink:href="#Arimo-Regular-45"/>
      <use xlink:href="#Arimo-Regular-64" transform="translate(66.699219 0)"/>
      <use xlink:href="#Arimo-Regular-75" transform="translate(122.314453 0)"/>
      <use xlink:href="#Arimo-Regular-63" transform="translate(177.929688 0)"/>
      <use xlink:href="#Arimo-Regular-61" transform="translate(227.929688 0)"/>
      <use xlink:href="#Arimo-Regular-74" transform="translate(283.544922 0)"/>
      <use xlink:href="#Arimo-Regular-69" transform="translate(311.328125 0)"/>
      <use xlink:href="#Arimo-Regular-6f" transform="translate(333.544922 0)"/>
      <use xlink:href="#Arimo-Regular-6e" transform="translate(389.160156 0)"/>
     </g>
    </g>
   </g>
   <g id="matplotlib.axis_2">
    <g id="ytick_1">
     <g id="line2d_7">
      <defs>
       <path id="m55f96eb90a" d="M 0 0 
L -3.5 0 
" style="stroke: #000000; stroke-width: 0.8"/>
      </defs>
      <g>
       <use xlink:href="#m55f96eb90a" x="56.552188" y="194.574789" style="stroke: #000000; stroke-width: 0.8"/>
      </g>
     </g>
     <g id="text_8">
      <!-- 10.0 -->
      <g transform="translate(24.250625 198.198226) scale(0.1 -0.1)">
       <defs>
        <path id="Arimo-Regular-2212" d="M 3425 2356 
L 3425 1900 
L 316 1900 
L 316 2356 
L 3425 2356 
z
" transform="scale(0.015625)"/>
        <path id="Arimo-Regular-31" d="M 3247 478 
L 3247 0 
L 488 0 
L 488 478 
L 1609 478 
L 1609 3866 
L 616 3156 
L 616 3688 
L 1656 4403 
L 2175 4403 
L 2175 478 
L 3247 478 
z
" transform="scale(0.015625)"/>
        <path id="Arimo-Regular-30" d="M 3309 2203 
Q 3309 1100 2920 518 
Q 2531 -63 1772 -63 
Q 1013 -63 631 515 
Q 250 1094 250 2203 
Q 250 3338 620 3903 
Q 991 4469 1791 4469 
Q 2569 4469 2939 3897 
Q 3309 3325 3309 2203 
z
M 2738 2203 
Q 2738 2841 2642 3239 
Q 2547 3638 2337 3825 
Q 2128 4013 1791 4013 
Q 1447 4013 1231 3828 
Q 1016 3644 917 3245 
Q 819 2847 819 2203 
Q 819 1578 920 1178 
Q 1022 778 1234 587 
Q 1447 397 1778 397 
Q 2275 397 2506 840 
Q 2738 1284 2738 2203 
z
" transform="scale(0.015625)"/>
        <path id="Arimo-Regular-2e" d="M 1194 684 
L 1194 0 
L 584 0 
L 584 684 
L 1194 684 
z
" transform="scale(0.015625)"/>
       </defs>
       <use xlink:href="#Arimo-Regular-2212"/>
       <use xlink:href="#Arimo-Regular-31" transform="translate(58.398438 0)"/>
       <use xlink:href="#Arimo-Regular-30" transform="translate(114.013672 0)"/>
       <use xlink:href="#Arimo-Regular-2e" transform="translate(169.628906 0)"/>
       <use xlink:href="#Arimo-Regular-30" transform="translate(197.412109 0)"/>
      </g>
     </g>
    </g>
    <g id="ytick_2">
     <g id="line2d_8">
      <g>
       <use xlink:href="#m55f96eb90a" x="56.552188" y="169.697369" style="stroke: #000000; stroke-width: 0.8"/>
      </g>
     </g>
     <g id="text_9">
      <!-- 7.5 -->
      <g transform="translate(29.811563 173.320806) scale(0.1 -0.1)">
       <defs>
        <path id="Arimo-Regular-37" d="M 3238 3947 
Q 2900 3431 2661 3028 
Q 2422 2625 2284 2331 
Q 2006 1747 1867 1178 
Q 1728 609 1728 0 
L 1141 0 
Q 1141 438 1231 889 
Q 1322 1341 1522 1838 
Q 1709 2303 1998 2820 
Q 2288 3338 2694 3925 
L 328 3925 
L 328 4403 
L 3238 4403 
L 3238 3947 
z
" transform="scale(0.015625)"/>
        <path id="Arimo-Regular-35" d="M 3291 1434 
Q 3291 738 2877 337 
Q 2463 -63 1728 -63 
Q 1113 -63 734 206 
Q 356 475 256 984 
L 825 1050 
Q 916 725 1144 561 
Q 1372 397 1741 397 
Q 2194 397 2450 670 
Q 2706 944 2706 1422 
Q 2706 1838 2448 2094 
Q 2191 2350 1753 2350 
Q 1525 2350 1328 2278 
Q 1131 2206 934 2034 
L 384 2034 
L 531 4403 
L 3034 4403 
L 3034 3925 
L 1044 3925 
L 959 2528 
Q 1325 2809 1869 2809 
Q 2303 2809 2622 2636 
Q 2941 2463 3116 2153 
Q 3291 1844 3291 1434 
z
" transform="scale(0.015625)"/>
       </defs>
       <use xlink:href="#Arimo-Regular-2212"/>
       <use xlink:href="#Arimo-Regular-37" transform="translate(58.398438 0)"/>
       <use xlink:href="#Arimo-Regular-2e" transform="translate(114.013672 0)"/>
       <use xlink:href="#Arimo-Regular-35" transform="translate(141.796875 0)"/>
      </g>
     </g>
    </g>
    <g id="ytick_3">
     <g id="line2d_9">
      <g>
       <use xlink:href="#m55f96eb90a" x="56.552188" y="144.819949" style="stroke: #000000; stroke-width: 0.8"/>
      </g>
     </g>
     <g id="text_10">
      <!-- 5.0 -->
      <g transform="translate(29.811563 148.443387) scale(0.1 -0.1)">
       <use xlink:href="#Arimo-Regular-2212"/>
       <use xlink:href="#Arimo-Regular-35" transform="translate(58.398438 0)"/>
       <use xlink:href="#Arimo-Regular-2e" transform="translate(114.013672 0)"/>
       <use xlink:href="#Arimo-Regular-30" transform="translate(141.796875 0)"/>
      </g>
     </g>
    </g>
    <g id="ytick_4">
     <g id="line2d_10">
      <g>
       <use xlink:href="#m55f96eb90a" x="56.552188" y="119.942529" style="stroke: #000000; stroke-width: 0.8"/>
      </g>
     </g>
     <g id="text_11">
      <!-- 2.5 -->
      <g transform="translate(29.811563 123.565967) scale(0.1 -0.1)">
       <defs>
        <path id="Arimo-Regular-32" d="M 3238 478 
L 3238 0 
L 322 0 
L 322 397 
Q 481 763 707 1044 
Q 934 1325 1190 1550 
Q 1447 1775 1697 1969 
Q 1822 2066 1933 2162 
Q 2044 2259 2144 2356 
Q 2344 2550 2467 2762 
Q 2591 2975 2591 3244 
Q 2591 3606 2378 3806 
Q 2166 4006 1788 4006 
Q 1428 4006 1195 3811 
Q 963 3616 922 3263 
L 347 3316 
Q 409 3844 795 4156 
Q 1181 4469 1788 4469 
Q 2453 4469 2811 4155 
Q 3169 3841 3169 3263 
Q 3169 3006 3051 2753 
Q 2934 2500 2703 2247 
Q 2588 2122 2366 1925 
Q 2144 1728 1819 1463 
Q 1459 1169 1246 933 
Q 1034 697 941 478 
L 3238 478 
z
" transform="scale(0.015625)"/>
       </defs>
       <use xlink:href="#Arimo-Regular-2212"/>
       <use xlink:href="#Arimo-Regular-32" transform="translate(58.398438 0)"/>
       <use xlink:href="#Arimo-Regular-2e" transform="translate(114.013672 0)"/>
       <use xlink:href="#Arimo-Regular-35" transform="translate(141.796875 0)"/>
      </g>
     </g>
    </g>
    <g id="ytick_5">
     <g id="line2d_11">
      <g>
       <use xlink:href="#m55f96eb90a" x="56.552188" y="95.06511" style="stroke: #000000; stroke-width: 0.8"/>
      </g>
     </g>
     <g id="text_12">
      <!-- 0.0 -->
      <g transform="translate(35.652188 98.688547) scale(0.1 -0.1)">
       <use xlink:href="#Arimo-Regular-30"/>
       <use xlink:href="#Arimo-Regular-2e" transform="translate(55.615234 0)"/>
       <use xlink:href="#Arimo-Regular-30" transform="translate(83.398438 0)"/>
      </g>
     </g>
    </g>
    <g id="ytick_6">
     <g id="line2d_12">
      <g>
       <use xlink:href="#m55f96eb90a" x="56.552188" y="70.18769" style="stroke: #000000; stroke-width: 0.8"/>
      </g>
     </g>
     <g id="text_13">
      <!-- 2.5 -->
      <g transform="translate(35.652188 73.811127) scale(0.1 -0.1)">
       <use xlink:href="#Arimo-Regular-32"/>
       <use xlink:href="#Arimo-Regular-2e" transform="translate(55.615234 0)"/>
       <use xlink:href="#Arimo-Regular-35" transform="translate(83.398438 0)"/>
      </g>
     </g>
    </g>
    <g id="ytick_7">
     <g id="line2d_13">
      <g>
       <use xlink:href="#m55f96eb90a" x="56.552188" y="45.31027" style="stroke: #000000; stroke-width: 0.8"/>
      </g>
     </g>
     <g id="text_14">
      <!-- 5.0 -->
      <g transform="translate(35.652188 48.933707) scale(0.1 -0.1)">
       <use xlink:href="#Arimo-Regular-35"/>
       <use xlink:href="#Arimo-Regular-2e" transform="translate(55.615234 0)"/>
       <use xlink:href="#Arimo-Regular-30" transform="translate(83.398438 0)"/>
      </g>
     </g>
    </g>
    <g id="ytick_8">
     <g id="line2d_14">
      <g>
       <use xlink:href="#m55f96eb90a" x="56.552188" y="20.43285" style="stroke: #000000; stroke-width: 0.8"/>
      </g>
     </g>
     <g id="text_15">
      <!-- 7.5 -->
      <g transform="translate(35.652188 24.056288) scale(0.1 -0.1)">
       <use xlink:href="#Arimo-Regular-37"/>
       <use xlink:href="#Arimo-Regular-2e" transform="translate(55.615234 0)"/>
       <use xlink:href="#Arimo-Regular-35" transform="translate(83.398438 0)"/>
      </g>
     </g>
    </g>
    <g id="text_16">
     <!-- Willingness To Help -->
     <g transform="translate(17.345625 166.072656) rotate(-90) scale(0.14 -0.14)">
      <defs>
       <path id="Arimo-Regular-57" d="M 2803 2781 
L 2038 0 
L 1325 0 
L 28 4403 
L 650 4403 
L 1441 1606 
Q 1513 1344 1577 1073 
Q 1641 803 1700 525 
Q 1725 641 1767 830 
Q 1809 1019 1856 1216 
Q 1903 1413 1941 1547 
L 2741 4403 
L 3313 4403 
L 4078 1663 
Q 4166 1328 4234 1042 
Q 4303 756 4353 525 
Q 4400 709 4451 923 
Q 4503 1138 4548 1314 
Q 4594 1491 4613 1566 
L 5397 4403 
L 6019 4403 
L 4722 0 
L 4009 0 
L 3247 2797 
Q 3209 2928 3154 3162 
Q 3100 3397 3028 3738 
Q 3000 3572 2954 3380 
Q 2909 3188 2867 3025 
Q 2825 2863 2803 2781 
z
" transform="scale(0.015625)"/>
       <path id="Arimo-Regular-54" d="M 2250 3916 
L 2250 0 
L 1656 0 
L 1656 3916 
L 144 3916 
L 144 4403 
L 3763 4403 
L 3763 3916 
L 2250 3916 
z
" transform="scale(0.015625)"/>
       <path id="Arimo-Regular-70" d="M 3291 1706 
Q 3291 822 2980 379 
Q 2669 -63 2047 -63 
Q 1266 -63 997 525 
L 981 525 
Q 994 503 994 -6 
L 994 -1328 
L 431 -1328 
L 431 2691 
Q 431 2950 426 3123 
Q 422 3297 413 3381 
L 956 3381 
Q 959 3369 967 3259 
Q 975 3150 981 3023 
Q 988 2897 988 2838 
L 1000 2838 
Q 1150 3150 1397 3295 
Q 1644 3441 2047 3441 
Q 2672 3441 2981 3022 
Q 3291 2603 3291 1706 
z
M 2700 1694 
Q 2700 2400 2509 2703 
Q 2319 3006 1903 3006 
Q 1441 3006 1217 2686 
Q 994 2366 994 1650 
Q 994 984 1206 668 
Q 1419 353 1897 353 
Q 2316 353 2508 661 
Q 2700 969 2700 1694 
z
" transform="scale(0.015625)"/>
      </defs>
      <use xlink:href="#Arimo-Regular-57"/>
      <use xlink:href="#Arimo-Regular-69" transform="translate(94.384766 0)"/>
      <use xlink:href="#Arimo-Regular-6c" transform="translate(116.601562 0)"/>
      <use xlink:href="#Arimo-Regular-6c" transform="translate(138.818359 0)"/>
      <use xlink:href="#Arimo-Regular-69" transform="translate(161.035156 0)"/>
      <use xlink:href="#Arimo-Regular-6e" transform="translate(183.251953 0)"/>
      <use xlink:href="#Arimo-Regular-67" transform="translate(238.867188 0)"/>
      <use xlink:href="#Arimo-Regular-6e" transform="translate(294.482422 0)"/>
      <use xlink:href="#Arimo-Regular-65" transform="translate(350.097656 0)"/>
      <use xlink:href="#Arimo-Regular-73" transform="translate(405.712891 0)"/>
      <use xlink:href="#Arimo-Regular-73" transform="translate(455.712891 0)"/>
      <use xlink:href="#Arimo-Regular-20" transform="translate(505.712891 0)"/>
      <use xlink:href="#Arimo-Regular-54" transform="translate(533.496094 0)"/>
      <use xlink:href="#Arimo-Regular-6f" transform="translate(594.580078 0)"/>
      <use xlink:href="#Arimo-Regular-20" transform="translate(650.195312 0)"/>
      <use xlink:href="#Arimo-Regular-48" transform="translate(677.978516 0)"/>
      <use xlink:href="#Arimo-Regular-65" transform="translate(750.195312 0)"/>
      <use xlink:href="#Arimo-Regular-6c" transform="translate(805.810547 0)"/>
      <use xlink:href="#Arimo-Regular-70" transform="translate(828.027344 0)"/>
     </g>
    </g>
   </g>
   <g id="line2d_15">
    <path d="M 79.802188 129.694478 
L 79.802188 78.745522 
" clip-path="url(#p30cd089f98)" style="fill: none; stroke: #717171; stroke-width: 1.5; stroke-linecap: square"/>
   </g>
   <g id="line2d_16">
    <path d="M 79.802188 116.957239 
L 79.802188 91.482761 
" clip-path="url(#p30cd089f98)" style="fill: none; stroke: #717171; stroke-width: 4.5; stroke-linecap: square"/>
   </g>
   <g id="line2d_17">
    <path d="M 79.802188 104.22 
" clip-path="url(#p30cd089f98)" style="fill: none; stroke: #717171; stroke-width: 1.5; stroke-linecap: square"/>
    <defs>
     <path id="meb07c453cb" d="M 1.875 0 
L -1.875 -0 
" style="stroke: #ffffff; stroke-width: 0.9"/>
    </defs>
    <g clip-path="url(#p30cd089f98)">
     <use xlink:href="#meb07c453cb" x="79.802188" y="104.22" style="fill: #ffffff; stroke: #ffffff; stroke-width: 0.9"/>
    </g>
   </g>
   <g id="line2d_18">
    <path d="M 126.302188 114.569007 
L 126.302188 60.83378 
" clip-path="url(#p30cd089f98)" style="fill: none; stroke: #717171; stroke-width: 1.5; stroke-linecap: square"/>
   </g>
   <g id="line2d_19">
    <path d="M 126.302188 89.890606 
L 126.302188 71.978864 
" clip-path="url(#p30cd089f98)" style="fill: none; stroke: #717171; stroke-width: 4.5; stroke-linecap: square"/>
   </g>
   <g id="line2d_20">
    <path d="M 126.302188 79.5416 
" clip-path="url(#p30cd089f98)" style="fill: none; stroke: #717171; stroke-width: 1.5; stroke-linecap: square"/>
    <g clip-path="url(#p30cd089f98)">
     <use xlink:href="#meb07c453cb" x="126.302188" y="79.5416" style="fill: #ffffff; stroke: #ffffff; stroke-width: 0.9"/>
    </g>
   </g>
   <g id="line2d_21">
    <path d="M 172.802188 102.627845 
L 172.802188 56.853393 
" clip-path="url(#p30cd089f98)" style="fill: none; stroke: #717171; stroke-width: 1.5; stroke-linecap: square"/>
   </g>
   <g id="line2d_22">
    <path d="M 172.802188 83.521987 
L 172.802188 69.789651 
" clip-path="url(#p30cd089f98)" style="fill: none; stroke: #717171; stroke-width: 4.5; stroke-linecap: square"/>
   </g>
   <g id="line2d_23">
    <path d="M 172.802188 77.949445 
" clip-path="url(#p30cd089f98)" style="fill: none; stroke: #717171; stroke-width: 1.5; stroke-linecap: square"/>
    <g clip-path="url(#p30cd089f98)">
     <use xlink:href="#meb07c453cb" x="172.802188" y="77.949445" style="fill: #ffffff; stroke: #ffffff; stroke-width: 0.9"/>
    </g>
   </g>
   <g id="line2d_24">
    <path d="M 219.302188 105.414116 
L 219.302188 52.873006 
" clip-path="url(#p30cd089f98)" style="fill: none; stroke: #717171; stroke-width: 1.5; stroke-linecap: square"/>
   </g>
   <g id="line2d_25">
    <path d="M 219.302188 85.910219 
L 219.302188 70.784748 
" clip-path="url(#p30cd089f98)" style="fill: none; stroke: #717171; stroke-width: 4.5; stroke-linecap: square"/>
   </g>
   <g id="line2d_26">
    <path d="M 219.302188 77.803226 
" clip-path="url(#p30cd089f98)" style="fill: none; stroke: #717171; stroke-width: 1.5; stroke-linecap: square"/>
    <g clip-path="url(#p30cd089f98)">
     <use xlink:href="#meb07c453cb" x="219.302188" y="77.803226" style="fill: #ffffff; stroke: #ffffff; stroke-width: 0.9"/>
    </g>
   </g>
   <g id="line2d_27">
    <path d="M 265.802188 108.598426 
L 265.802188 55.659277 
" clip-path="url(#p30cd089f98)" style="fill: none; stroke: #717171; stroke-width: 1.5; stroke-linecap: square"/>
   </g>
   <g id="line2d_28">
    <path d="M 265.802188 86.905316 
L 265.802188 71.978864 
" clip-path="url(#p30cd089f98)" style="fill: none; stroke: #717171; stroke-width: 4.5; stroke-linecap: square"/>
   </g>
   <g id="line2d_29">
    <path d="M 265.802188 79.143561 
" clip-path="url(#p30cd089f98)" style="fill: none; stroke: #717171; stroke-width: 1.5; stroke-linecap: square"/>
    <g clip-path="url(#p30cd089f98)">
     <use xlink:href="#meb07c453cb" x="265.802188" y="79.143561" style="fill: #ffffff; stroke: #ffffff; stroke-width: 0.9"/>
    </g>
   </g>
   <g id="line2d_30">
    <path d="M 312.302188 105.016077 
L 312.302188 57.251431 
" clip-path="url(#p30cd089f98)" style="fill: none; stroke: #717171; stroke-width: 1.5; stroke-linecap: square"/>
   </g>
   <g id="line2d_31">
    <path d="M 312.302188 85.114142 
L 312.302188 70.983767 
" clip-path="url(#p30cd089f98)" style="fill: none; stroke: #717171; stroke-width: 4.5; stroke-linecap: square"/>
   </g>
   <g id="line2d_32">
    <path d="M 312.302188 79.939638 
" clip-path="url(#p30cd089f98)" style="fill: none; stroke: #717171; stroke-width: 1.5; stroke-linecap: square"/>
    <g clip-path="url(#p30cd089f98)">
     <use xlink:href="#meb07c453cb" x="312.302188" y="79.939638" style="fill: #ffffff; stroke: #ffffff; stroke-width: 0.9"/>
    </g>
   </g>
   <g id="patch_3">
    <path d="M 56.552188 201.24 
L 56.552188 7.2 
" style="fill: none; stroke: #000000; stroke-width: 0.8; stroke-linejoin: miter; stroke-linecap: square"/>
   </g>
   <g id="patch_4">
    <path d="M 56.552188 201.24 
L 335.552188 201.24 
" style="fill: none; stroke: #000000; stroke-width: 0.8; stroke-linejoin: miter; stroke-linecap: square"/>
   </g>
  </g>
 </g>
 <defs>
  <clipPath id="p30cd089f98">
   <rect x="56.552188" y="7.2" width="279" height="194.04"/>
  </clipPath>
 </defs>
</svg>
