<?xml version="1.0" encoding="utf-8" standalone="no"?>
<!DOCTYPE svg PUBLIC "-//W3C//DTD SVG 1.1//EN"
  "http://www.w3.org/Graphics/SVG/1.1/DTD/svg11.dtd">
<svg xmlns:xlink="http://www.w3.org/1999/xlink" width="227.178281pt" height="218.260312pt" viewBox="0 0 227.178281 218.260312" xmlns="http://www.w3.org/2000/svg" version="1.1">
 <metadata>
  <rdf:RDF xmlns:dc="http://purl.org/dc/elements/1.1/" xmlns:cc="http://creativecommons.org/ns#" xmlns:rdf="http://www.w3.org/1999/02/22-rdf-syntax-ns#">
   <cc:Work>
    <dc:type rdf:resource="http://purl.org/dc/dcmitype/StillImage"/>
    <dc:date>2025-10-30T04:01:33.219092</dc:date>
    <dc:format>image/svg+xml</dc:format>
    <dc:creator>
     <cc:Agent>
      <dc:title>Matplotlib v3.10.0, https://matplotlib.org/</dc:title>
     </cc:Agent>
    </dc:creator>
   </cc:Work>
  </rdf:RDF>
 </metadata>
 <defs>
  <style type="text/css">*{stroke-linejoin: round; stroke-linecap: butt}</style>
 </defs>
 <g id="figure_1">
  <g id="patch_1">
   <path d="M 0 218.260312 
L 227.178281 218.260312 
L 227.178281 -0 
L 0 -0 
z
" style="fill: #ffffff"/>
  </g>
  <g id="axes_1">
   <g id="patch_2">
    <path d="M 44.236875 175.823437 
L 211.636875 175.823437 
L 211.636875 9.503437 
L 44.236875 9.503437 
z
" style="fill: #ffffff"/>
   </g>
   <g id="patch_3">
    <path d="M 77.716875 175.823437 
L 84.765296 175.823437 
L 84.765296 169.223437 
L 77.716875 169.223437 
z
" clip-path="url(#p0c9a0c015f)" style="fill: #e6c563; stroke: #ffffff; stroke-linejoin: miter"/>
   </g>
   <g id="patch_4">
    <path d="M 84.765296 175.823437 
L 91.813717 175.823437 
L 91.813717 156.023437 
L 84.765296 156.023437 
z
" clip-path="url(#p0c9a0c015f)" style="fill: #e6c563; stroke: #ffffff; stroke-linejoin: miter"/>
   </g>
   <g id="patch_5">
    <path d="M 91.813717 175.823437 
L 98.862138 175.823437 
L 98.862138 149.423437 
L 91.813717 149.423437 
z
" clip-path="url(#p0c9a0c015f)" style="fill: #e6c563; stroke: #ffffff; stroke-linejoin: miter"/>
   </g>
   <g id="patch_6">
    <path d="M 98.862138 175.823437 
L 105.910559 175.823437 
L 105.910559 142.823437 
L 98.862138 142.823437 
z
" clip-path="url(#p0c9a0c015f)" style="fill: #e6c563; stroke: #ffffff; stroke-linejoin: miter"/>
   </g>
   <g id="patch_7">
    <path d="M 105.910559 175.823437 
L 112.95898 175.823437 
L 112.95898 149.423437 
L 105.910559 149.423437 
z
" clip-path="url(#p0c9a0c015f)" style="fill: #e6c563; stroke: #ffffff; stroke-linejoin: miter"/>
   </g>
   <g id="patch_8">
    <path d="M 112.95898 175.823437 
L 120.007401 175.823437 
L 120.007401 162.623437 
L 112.95898 162.623437 
z
" clip-path="url(#p0c9a0c015f)" style="fill: #e6c563; stroke: #ffffff; stroke-linejoin: miter"/>
   </g>
   <g id="patch_9">
    <path d="M 120.007401 175.823437 
L 127.055822 175.823437 
L 127.055822 136.223437 
L 120.007401 136.223437 
z
" clip-path="url(#p0c9a0c015f)" style="fill: #e6c563; stroke: #ffffff; stroke-linejoin: miter"/>
   </g>
   <g id="patch_10">
    <path d="M 127.055822 175.823437 
L 134.104243 175.823437 
L 134.104243 149.423437 
L 127.055822 149.423437 
z
" clip-path="url(#p0c9a0c015f)" style="fill: #e6c563; stroke: #ffffff; stroke-linejoin: miter"/>
   </g>
   <g id="patch_11">
    <path d="M 134.104243 175.823437 
L 141.152664 175.823437 
L 141.152664 136.223437 
L 134.104243 136.223437 
z
" clip-path="url(#p0c9a0c015f)" style="fill: #e6c563; stroke: #ffffff; stroke-linejoin: miter"/>
   </g>
   <g id="patch_12">
    <path d="M 141.152664 175.823437 
L 148.201086 175.823437 
L 148.201086 43.823437 
L 141.152664 43.823437 
z
" clip-path="url(#p0c9a0c015f)" style="fill: #e6c563; stroke: #ffffff; stroke-linejoin: miter"/>
   </g>
   <g id="patch_13">
    <path d="M 148.201086 175.823437 
L 155.249507 175.823437 
L 155.249507 90.023437 
L 148.201086 90.023437 
z
" clip-path="url(#p0c9a0c015f)" style="fill: #e6c563; stroke: #ffffff; stroke-linejoin: miter"/>
   </g>
   <g id="patch_14">
    <path d="M 155.249507 175.823437 
L 162.297928 175.823437 
L 162.297928 24.023437 
L 155.249507 24.023437 
z
" clip-path="url(#p0c9a0c015f)" style="fill: #e6c563; stroke: #ffffff; stroke-linejoin: miter"/>
   </g>
   <g id="patch_15">
    <path d="M 162.297928 175.823437 
L 169.346349 175.823437 
L 169.346349 43.823437 
L 162.297928 43.823437 
z
" clip-path="url(#p0c9a0c015f)" style="fill: #e6c563; stroke: #ffffff; stroke-linejoin: miter"/>
   </g>
   <g id="patch_16">
    <path d="M 169.346349 175.823437 
L 176.39477 175.823437 
L 176.39477 17.423437 
L 169.346349 17.423437 
z
" clip-path="url(#p0c9a0c015f)" style="fill: #e6c563; stroke: #ffffff; stroke-linejoin: miter"/>
   </g>
   <g id="patch_17">
    <path d="M 176.39477 175.823437 
L 183.443191 175.823437 
L 183.443191 30.623437 
L 176.39477 30.623437 
z
" clip-path="url(#p0c9a0c015f)" style="fill: #e6c563; stroke: #ffffff; stroke-linejoin: miter"/>
   </g>
   <g id="patch_18">
    <path d="M 183.443191 175.823437 
L 190.491612 175.823437 
L 190.491612 109.823437 
L 183.443191 109.823437 
z
" clip-path="url(#p0c9a0c015f)" style="fill: #e6c563; stroke: #ffffff; stroke-linejoin: miter"/>
   </g>
   <g id="patch_19">
    <path d="M 190.491612 175.823437 
L 197.540033 175.823437 
L 197.540033 50.423437 
L 190.491612 50.423437 
z
" clip-path="url(#p0c9a0c015f)" style="fill: #e6c563; stroke: #ffffff; stroke-linejoin: miter"/>
   </g>
   <g id="patch_20">
    <path d="M 197.540033 175.823437 
L 204.588454 175.823437 
L 204.588454 83.423437 
L 197.540033 83.423437 
z
" clip-path="url(#p0c9a0c015f)" style="fill: #e6c563; stroke: #ffffff; stroke-linejoin: miter"/>
   </g>
   <g id="patch_21">
    <path d="M 204.588454 175.823437 
L 211.636875 175.823437 
L 211.636875 76.823437 
L 204.588454 76.823437 
z
" clip-path="url(#p0c9a0c015f)" style="fill: #e6c563; stroke: #ffffff; stroke-linejoin: miter"/>
   </g>
   <g id="matplotlib.axis_1">
    <g id="xtick_1">
     <g id="line2d_1">
      <defs>
       <path id="mb56d606b53" d="M 0 0 
L 0 3.5 
" style="stroke: #000000; stroke-width: 0.8"/>
      </defs>
      <g>
       <use xlink:href="#mb56d606b53" x="44.236875" y="175.823437" style="stroke: #000000; stroke-width: 0.8"/>
      </g>
     </g>
     <g id="text_1">
      <!-- 0 -->
      <g transform="translate(41.456406 190.070312) scale(0.1 -0.1)">
       <defs>
        <path id="Arimo-Regular-30" d="M 3309 2203 
Q 3309 1100 2920 518 
Q 2531 -63 1772 -63 
Q 1013 -63 631 515 
Q 250 1094 250 2203 
Q 250 3338 620 3903 
Q 991 4469 1791 4469 
Q 2569 4469 2939 3897 
Q 3309 3325 3309 2203 
z
M 2738 2203 
Q 2738 2841 2642 3239 
Q 2547 3638 2337 3825 
Q 2128 4013 1791 4013 
Q 1447 4013 1231 3828 
Q 1016 3644 917 3245 
Q 819 2847 819 2203 
Q 819 1578 920 1178 
Q 1022 778 1234 587 
Q 1447 397 1778 397 
Q 2275 397 2506 840 
Q 2738 1284 2738 2203 
z
" transform="scale(0.015625)"/>
       </defs>
       <use xlink:href="#Arimo-Regular-30"/>
      </g>
     </g>
    </g>
    <g id="xtick_2">
     <g id="line2d_2">
      <g>
       <use xlink:href="#mb56d606b53" x="77.716875" y="175.823437" style="stroke: #000000; stroke-width: 0.8"/>
      </g>
     </g>
     <g id="text_2">
      <!-- 20 -->
      <g transform="translate(72.155938 190.070312) scale(0.1 -0.1)">
       <defs>
        <path id="Arimo-Regular-32" d="M 3238 478 
L 3238 0 
L 322 0 
L 322 397 
Q 481 763 707 1044 
Q 934 1325 1190 1550 
Q 1447 1775 1697 1969 
Q 1822 2066 1933 2162 
Q 2044 2259 2144 2356 
Q 2344 2550 2467 2762 
Q 2591 2975 2591 3244 
Q 2591 3606 2378 3806 
Q 2166 4006 1788 4006 
Q 1428 4006 1195 3811 
Q 963 3616 922 3263 
L 347 3316 
Q 409 3844 795 4156 
Q 1181 4469 1788 4469 
Q 2453 4469 2811 4155 
Q 3169 3841 3169 3263 
Q 3169 3006 3051 2753 
Q 2934 2500 2703 2247 
Q 2588 2122 2366 1925 
Q 2144 1728 1819 1463 
Q 1459 1169 1246 933 
Q 1034 697 941 478 
L 3238 478 
z
" transform="scale(0.015625)"/>
       </defs>
       <use xlink:href="#Arimo-Regular-32"/>
       <use xlink:href="#Arimo-Regular-30" transform="translate(55.615234 0)"/>
      </g>
     </g>
    </g>
    <g id="xtick_3">
     <g id="line2d_3">
      <g>
       <use xlink:href="#mb56d606b53" x="111.196875" y="175.823437" style="stroke: #000000; stroke-width: 0.8"/>
      </g>
     </g>
     <g id="text_3">
      <!-- 40 -->
      <g transform="translate(105.635938 190.070312) scale(0.1 -0.1)">
       <defs>
        <path id="Arimo-Regular-34" d="M 2753 997 
L 2753 0 
L 2222 0 
L 2222 997 
L 147 997 
L 147 1434 
L 2163 4403 
L 2753 4403 
L 2753 1441 
L 3372 1441 
L 3372 997 
L 2753 997 
z
M 666 1441 
L 2222 1441 
L 2222 3197 
Q 2222 3341 2223 3483 
Q 2225 3625 2234 3769 
Q 2163 3631 2109 3545 
Q 2056 3459 2013 3397 
L 666 1441 
z
" transform="scale(0.015625)"/>
       </defs>
       <use xlink:href="#Arimo-Regular-34"/>
       <use xlink:href="#Arimo-Regular-30" transform="translate(55.615234 0)"/>
      </g>
     </g>
    </g>
    <g id="xtick_4">
     <g id="line2d_4">
      <g>
       <use xlink:href="#mb56d606b53" x="144.676875" y="175.823437" style="stroke: #000000; stroke-width: 0.8"/>
      </g>
     </g>
     <g id="text_4">
      <!-- 60 -->
      <g transform="translate(139.115938 190.070312) scale(0.1 -0.1)">
       <defs>
        <path id="Arimo-Regular-36" d="M 3278 1441 
Q 3278 744 2900 340 
Q 2522 -63 1856 -63 
Q 1113 -63 719 490 
Q 325 1044 325 2100 
Q 325 3244 734 3856 
Q 1144 4469 1900 4469 
Q 2400 4469 2714 4244 
Q 3028 4019 3156 3572 
L 2619 3475 
Q 2456 4013 1894 4013 
Q 1413 4013 1148 3564 
Q 884 3116 884 2266 
Q 1038 2550 1316 2698 
Q 1594 2847 1953 2847 
Q 2563 2847 2920 2465 
Q 3278 2084 3278 1441 
z
M 2706 1416 
Q 2706 1894 2472 2153 
Q 2238 2413 1819 2413 
Q 1425 2413 1183 2183 
Q 941 1953 941 1550 
Q 941 1213 1056 950 
Q 1172 688 1373 539 
Q 1575 391 1838 391 
Q 2244 391 2475 664 
Q 2706 938 2706 1416 
z
" transform="scale(0.015625)"/>
       </defs>
       <use xlink:href="#Arimo-Regular-36"/>
       <use xlink:href="#Arimo-Regular-30" transform="translate(55.615234 0)"/>
      </g>
     </g>
    </g>
    <g id="xtick_5">
     <g id="line2d_5">
      <g>
       <use xlink:href="#mb56d606b53" x="178.156875" y="175.823437" style="stroke: #000000; stroke-width: 0.8"/>
      </g>
     </g>
     <g id="text_5">
      <!-- 80 -->
      <g transform="translate(172.595938 190.070312) scale(0.1 -0.1)">
       <defs>
        <path id="Arimo-Regular-38" d="M 3281 1228 
Q 3281 619 2893 278 
Q 2506 -63 1781 -63 
Q 1075 -63 676 271 
Q 278 606 278 1222 
Q 278 1653 525 1947 
Q 772 2241 1156 2303 
L 1156 2316 
Q 797 2400 589 2681 
Q 381 2963 381 3341 
Q 381 3844 757 4156 
Q 1134 4469 1769 4469 
Q 2419 4469 2795 4162 
Q 3172 3856 3172 3334 
Q 3172 2956 2962 2675 
Q 2753 2394 2391 2322 
L 2391 2309 
Q 2813 2241 3047 1952 
Q 3281 1663 3281 1228 
z
M 2588 3303 
Q 2588 4050 1769 4050 
Q 956 4050 956 3303 
Q 956 2925 1170 2726 
Q 1384 2528 1775 2528 
Q 2172 2528 2380 2711 
Q 2588 2894 2588 3303 
z
M 2697 1281 
Q 2697 1691 2453 1898 
Q 2209 2106 1769 2106 
Q 1341 2106 1100 1882 
Q 859 1659 859 1269 
Q 859 816 1092 587 
Q 1325 359 1788 359 
Q 2247 359 2472 579 
Q 2697 800 2697 1281 
z
" transform="scale(0.015625)"/>
       </defs>
       <use xlink:href="#Arimo-Regular-38"/>
       <use xlink:href="#Arimo-Regular-30" transform="translate(55.615234 0)"/>
      </g>
     </g>
    </g>
    <g id="xtick_6">
     <g id="line2d_6">
      <g>
       <use xlink:href="#mb56d606b53" x="211.636875" y="175.823437" style="stroke: #000000; stroke-width: 0.8"/>
      </g>
     </g>
     <g id="text_6">
      <!-- 100 -->
      <g transform="translate(203.295469 190.070312) scale(0.1 -0.1)">
       <defs>
        <path id="Arimo-Regular-31" d="M 3247 478 
L 3247 0 
L 488 0 
L 488 478 
L 1609 478 
L 1609 3866 
L 616 3156 
L 616 3688 
L 1656 4403 
L 2175 4403 
L 2175 478 
L 3247 478 
z
" transform="scale(0.015625)"/>
       </defs>
       <use xlink:href="#Arimo-Regular-31"/>
       <use xlink:href="#Arimo-Regular-30" transform="translate(55.615234 0)"/>
       <use xlink:href="#Arimo-Regular-30" transform="translate(111.230469 0)"/>
      </g>
     </g>
    </g>
    <g id="text_7">
     <!-- Help Decisions (%) -->
     <g transform="translate(59.919375 207.740312) scale(0.16 -0.16)">
      <defs>
       <path id="Arimo-Regular-48" d="M 1122 2041 
L 1122 0 
L 525 0 
L 525 4403 
L 1122 4403 
L 1122 2541 
L 3503 2541 
L 3503 4403 
L 4100 4403 
L 4100 0 
L 3503 0 
L 3503 2041 
L 1122 2041 
z
" transform="scale(0.015625)"/>
       <path id="Arimo-Regular-65" d="M 863 1572 
Q 863 991 1103 675 
Q 1344 359 1806 359 
Q 2172 359 2392 506 
Q 2613 653 2691 878 
L 3184 738 
Q 2881 -63 1806 -63 
Q 1056 -63 664 384 
Q 272 831 272 1713 
Q 272 2550 664 2997 
Q 1056 3444 1784 3444 
Q 2531 3444 2903 2994 
Q 3275 2544 3275 1647 
L 3275 1572 
L 863 1572 
z
M 2694 2003 
Q 2647 2538 2422 2783 
Q 2197 3028 1775 3028 
Q 1366 3028 1127 2754 
Q 888 2481 869 2003 
L 2694 2003 
z
" transform="scale(0.015625)"/>
       <path id="Arimo-Regular-6c" d="M 994 4638 
L 994 0 
L 431 0 
L 431 4638 
L 994 4638 
z
" transform="scale(0.015625)"/>
       <path id="Arimo-Regular-70" d="M 3291 1706 
Q 3291 822 2980 379 
Q 2669 -63 2047 -63 
Q 1266 -63 997 525 
L 981 525 
Q 994 503 994 -6 
L 994 -1328 
L 431 -1328 
L 431 2691 
Q 431 2950 426 3123 
Q 422 3297 413 3381 
L 956 3381 
Q 959 3369 967 3259 
Q 975 3150 981 3023 
Q 988 2897 988 2838 
L 1000 2838 
Q 1150 3150 1397 3295 
Q 1644 3441 2047 3441 
Q 2672 3441 2981 3022 
Q 3291 2603 3291 1706 
z
M 2700 1694 
Q 2700 2400 2509 2703 
Q 2319 3006 1903 3006 
Q 1441 3006 1217 2686 
Q 994 2366 994 1650 
Q 994 984 1206 668 
Q 1419 353 1897 353 
Q 2316 353 2508 661 
Q 2700 969 2700 1694 
z
" transform="scale(0.015625)"/>
       <path id="Arimo-Regular-20" transform="scale(0.015625)"/>
       <path id="Arimo-Regular-44" d="M 4316 2247 
Q 4316 1550 4045 1047 
Q 3775 544 3292 272 
Q 2809 0 2172 0 
L 525 0 
L 525 4403 
L 1981 4403 
Q 3100 4403 3708 3842 
Q 4316 3281 4316 2247 
z
M 3716 2247 
Q 3716 3066 3267 3495 
Q 2819 3925 1969 3925 
L 1122 3925 
L 1122 478 
L 2103 478 
Q 2594 478 2955 693 
Q 3316 909 3516 1306 
Q 3716 1703 3716 2247 
z
" transform="scale(0.015625)"/>
       <path id="Arimo-Regular-63" d="M 1728 -63 
Q 1019 -63 645 385 
Q 272 834 272 1694 
Q 272 2547 647 2995 
Q 1022 3444 1722 3444 
Q 2241 3444 2583 3175 
Q 2925 2906 3013 2434 
L 2434 2391 
Q 2391 2672 2212 2837 
Q 2034 3003 1706 3003 
Q 1259 3003 1059 2706 
Q 859 2409 859 1706 
Q 859 1031 1071 706 
Q 1284 381 1713 381 
Q 2013 381 2214 543 
Q 2416 706 2463 1044 
L 3031 1006 
Q 2988 681 2814 440 
Q 2641 200 2364 68 
Q 2088 -63 1728 -63 
z
" transform="scale(0.015625)"/>
       <path id="Arimo-Regular-69" d="M 991 4638 
L 991 4100 
L 428 4100 
L 428 4638 
L 991 4638 
z
M 991 3381 
L 991 0 
L 428 0 
L 428 3381 
L 991 3381 
z
" transform="scale(0.015625)"/>
       <path id="Arimo-Regular-73" d="M 2969 934 
Q 2969 456 2608 196 
Q 2247 -63 1597 -63 
Q 966 -63 623 145 
Q 281 353 178 794 
L 675 891 
Q 747 619 972 492 
Q 1197 366 1597 366 
Q 2025 366 2223 497 
Q 2422 628 2422 891 
Q 2422 1091 2284 1216 
Q 2147 1341 1841 1422 
Q 1478 1519 1264 1581 
Q 1050 1644 934 1689 
Q 819 1734 750 1775 
Q 544 1894 428 2066 
Q 313 2238 313 2488 
Q 313 2950 642 3192 
Q 972 3434 1603 3434 
Q 2163 3434 2492 3237 
Q 2822 3041 2909 2606 
L 2403 2544 
Q 2356 2769 2151 2889 
Q 1947 3009 1603 3009 
Q 1222 3009 1040 2893 
Q 859 2778 859 2544 
Q 859 2372 962 2261 
Q 1066 2150 1356 2078 
Q 1747 1984 2100 1873 
Q 2453 1763 2606 1653 
Q 2784 1525 2876 1351 
Q 2969 1178 2969 934 
z
" transform="scale(0.015625)"/>
       <path id="Arimo-Regular-6f" d="M 3291 1694 
Q 3291 806 2900 371 
Q 2509 -63 1766 -63 
Q 1025 -63 647 389 
Q 269 841 269 1694 
Q 269 2569 648 3006 
Q 1028 3444 1784 3444 
Q 2559 3444 2925 3017 
Q 3291 2591 3291 1694 
z
M 2700 1694 
Q 2700 2394 2492 2711 
Q 2284 3028 1794 3028 
Q 1300 3028 1079 2704 
Q 859 2381 859 1694 
Q 859 1025 1076 689 
Q 1294 353 1759 353 
Q 2266 353 2483 678 
Q 2700 1003 2700 1694 
z
" transform="scale(0.015625)"/>
       <path id="Arimo-Regular-6e" d="M 1006 1959 
L 1006 0 
L 444 0 
L 444 2659 
Q 444 2956 439 3136 
Q 434 3316 425 3381 
L 956 3381 
Q 963 3322 967 3231 
Q 972 3141 975 3031 
Q 978 2922 981 2803 
L 991 2803 
Q 1184 3153 1439 3298 
Q 1694 3444 2072 3444 
Q 2628 3444 2886 3159 
Q 3144 2875 3144 2253 
L 3144 0 
L 2578 0 
L 2578 2144 
Q 2578 2628 2422 2818 
Q 2266 3009 1881 3009 
Q 1475 3009 1240 2731 
Q 1006 2453 1006 1959 
z
" transform="scale(0.015625)"/>
       <path id="Arimo-Regular-28" d="M 1550 -1325 
Q 1156 -900 900 -440 
Q 644 19 520 536 
Q 397 1053 397 1650 
Q 397 2259 522 2778 
Q 647 3297 903 3756 
Q 1159 4216 1550 4638 
L 2094 4638 
Q 1509 3988 1236 3256 
Q 963 2525 963 1656 
Q 963 1081 1081 565 
Q 1200 50 1450 -417 
Q 1700 -884 2094 -1325 
L 1550 -1325 
z
" transform="scale(0.015625)"/>
       <path id="Arimo-Regular-25" d="M 1231 4441 
Q 2209 4441 2209 3047 
Q 2209 2369 1961 2003 
Q 1713 1638 1219 1638 
Q 725 1638 476 2000 
Q 228 2363 228 3047 
Q 228 3744 468 4092 
Q 709 4441 1231 4441 
z
M 4534 4403 
L 1647 0 
L 1163 0 
L 4044 4403 
L 4534 4403 
z
M 1750 3047 
Q 1750 3597 1631 3850 
Q 1513 4103 1231 4103 
Q 938 4103 813 3854 
Q 688 3606 688 3047 
Q 688 2506 813 2248 
Q 938 1991 1225 1991 
Q 1497 1991 1623 2253 
Q 1750 2516 1750 3047 
z
M 5463 1356 
Q 5463 684 5209 323 
Q 4956 -38 4463 -38 
Q 3975 -38 3726 314 
Q 3478 666 3478 1356 
Q 3478 2069 3717 2417 
Q 3956 2766 4475 2766 
Q 4988 2766 5225 2408 
Q 5463 2050 5463 1356 
z
M 5000 1356 
Q 5000 1916 4879 2167 
Q 4759 2419 4475 2419 
Q 4191 2419 4064 2172 
Q 3938 1925 3938 1356 
Q 3938 822 4061 564 
Q 4184 306 4469 306 
Q 4744 306 4872 567 
Q 5000 828 5000 1356 
z
" transform="scale(0.015625)"/>
       <path id="Arimo-Regular-29" d="M 38 -1325 
Q 431 -888 681 -420 
Q 931 47 1050 561 
Q 1169 1075 1169 1656 
Q 1169 2528 895 3256 
Q 622 3984 38 4638 
L 581 4638 
Q 975 4213 1229 3753 
Q 1484 3294 1609 2778 
Q 1734 2263 1734 1663 
Q 1734 1056 1609 536 
Q 1484 16 1229 -442 
Q 975 -900 581 -1325 
L 38 -1325 
z
" transform="scale(0.015625)"/>
      </defs>
      <use xlink:href="#Arimo-Regular-48"/>
      <use xlink:href="#Arimo-Regular-65" transform="translate(72.216797 0)"/>
      <use xlink:href="#Arimo-Regular-6c" transform="translate(127.832031 0)"/>
      <use xlink:href="#Arimo-Regular-70" transform="translate(150.048828 0)"/>
      <use xlink:href="#Arimo-Regular-20" transform="translate(205.664062 0)"/>
      <use xlink:href="#Arimo-Regular-44" transform="translate(233.447266 0)"/>
      <use xlink:href="#Arimo-Regular-65" transform="translate(305.664062 0)"/>
      <use xlink:href="#Arimo-Regular-63" transform="translate(361.279297 0)"/>
      <use xlink:href="#Arimo-Regular-69" transform="translate(411.279297 0)"/>
      <use xlink:href="#Arimo-Regular-73" transform="translate(433.496094 0)"/>
      <use xlink:href="#Arimo-Regular-69" transform="translate(483.496094 0)"/>
      <use xlink:href="#Arimo-Regular-6f" transform="translate(505.712891 0)"/>
      <use xlink:href="#Arimo-Regular-6e" transform="translate(561.328125 0)"/>
      <use xlink:href="#Arimo-Regular-73" transform="translate(616.943359 0)"/>
      <use xlink:href="#Arimo-Regular-20" transform="translate(666.943359 0)"/>
      <use xlink:href="#Arimo-Regular-28" transform="translate(694.726562 0)"/>
      <use xlink:href="#Arimo-Regular-25" transform="translate(728.027344 0)"/>
      <use xlink:href="#Arimo-Regular-29" transform="translate(816.943359 0)"/>
     </g>
    </g>
   </g>
   <g id="matplotlib.axis_2">
    <g id="ytick_1">
     <g id="line2d_7">
      <defs>
       <path id="m3c61376c86" d="M 0 0 
L -3.5 0 
" style="stroke: #000000; stroke-width: 0.8"/>
      </defs>
      <g>
       <use xlink:href="#m3c61376c86" x="44.236875" y="175.823437" style="stroke: #000000; stroke-width: 0.8"/>
      </g>
     </g>
     <g id="text_8">
      <!-- 0 -->
      <g transform="translate(31.675937 179.446875) scale(0.1 -0.1)">
       <use xlink:href="#Arimo-Regular-30"/>
      </g>
     </g>
    </g>
    <g id="ytick_2">
     <g id="line2d_8">
      <g>
       <use xlink:href="#m3c61376c86" x="44.236875" y="142.823437" style="stroke: #000000; stroke-width: 0.8"/>
      </g>
     </g>
     <g id="text_9">
      <!-- 5 -->
      <g transform="translate(31.675937 146.446875) scale(0.1 -0.1)">
       <defs>
        <path id="Arimo-Regular-35" d="M 3291 1434 
Q 3291 738 2877 337 
Q 2463 -63 1728 -63 
Q 1113 -63 734 206 
Q 356 475 256 984 
L 825 1050 
Q 916 725 1144 561 
Q 1372 397 1741 397 
Q 2194 397 2450 670 
Q 2706 944 2706 1422 
Q 2706 1838 2448 2094 
Q 2191 2350 1753 2350 
Q 1525 2350 1328 2278 
Q 1131 2206 934 2034 
L 384 2034 
L 531 4403 
L 3034 4403 
L 3034 3925 
L 1044 3925 
L 959 2528 
Q 1325 2809 1869 2809 
Q 2303 2809 2622 2636 
Q 2941 2463 3116 2153 
Q 3291 1844 3291 1434 
z
" transform="scale(0.015625)"/>
       </defs>
       <use xlink:href="#Arimo-Regular-35"/>
      </g>
     </g>
    </g>
    <g id="ytick_3">
     <g id="line2d_9">
      <g>
       <use xlink:href="#m3c61376c86" x="44.236875" y="109.823437" style="stroke: #000000; stroke-width: 0.8"/>
      </g>
     </g>
     <g id="text_10">
      <!-- 10 -->
      <g transform="translate(26.115 113.446875) scale(0.1 -0.1)">
       <use xlink:href="#Arimo-Regular-31"/>
       <use xlink:href="#Arimo-Regular-30" transform="translate(55.615234 0)"/>
      </g>
     </g>
    </g>
    <g id="ytick_4">
     <g id="line2d_10">
      <g>
       <use xlink:href="#m3c61376c86" x="44.236875" y="76.823437" style="stroke: #000000; stroke-width: 0.8"/>
      </g>
     </g>
     <g id="text_11">
      <!-- 15 -->
      <g transform="translate(26.115 80.446875) scale(0.1 -0.1)">
       <use xlink:href="#Arimo-Regular-31"/>
       <use xlink:href="#Arimo-Regular-35" transform="translate(55.615234 0)"/>
      </g>
     </g>
    </g>
    <g id="ytick_5">
     <g id="line2d_11">
      <g>
       <use xlink:href="#m3c61376c86" x="44.236875" y="43.823437" style="stroke: #000000; stroke-width: 0.8"/>
      </g>
     </g>
     <g id="text_12">
      <!-- 20 -->
      <g transform="translate(26.115 47.446875) scale(0.1 -0.1)">
       <use xlink:href="#Arimo-Regular-32"/>
       <use xlink:href="#Arimo-Regular-30" transform="translate(55.615234 0)"/>
      </g>
     </g>
    </g>
    <g id="ytick_6">
     <g id="line2d_12">
      <g>
       <use xlink:href="#m3c61376c86" x="44.236875" y="10.823437" style="stroke: #000000; stroke-width: 0.8"/>
      </g>
     </g>
     <g id="text_13">
      <!-- 25 -->
      <g transform="translate(26.115 14.446875) scale(0.1 -0.1)">
       <use xlink:href="#Arimo-Regular-32"/>
       <use xlink:href="#Arimo-Regular-35" transform="translate(55.615234 0)"/>
      </g>
     </g>
    </g>
    <g id="text_14">
     <!-- Frequency -->
     <g transform="translate(18.795 130.457187) rotate(-90) scale(0.16 -0.16)">
      <defs>
       <path id="Arimo-Regular-46" d="M 1122 1784 
L 1122 0 
L 525 0 
L 525 4403 
L 3653 4403 
L 3653 3916 
L 1122 3916 
L 1122 2278 
L 3578 2278 
L 3578 1784 
L 1122 1784 
z
" transform="scale(0.015625)"/>
       <path id="Arimo-Regular-72" d="M 1006 1763 
L 1006 0 
L 444 0 
L 444 2594 
Q 444 2772 439 2969 
Q 434 3166 425 3381 
L 956 3381 
Q 963 3238 967 3122 
Q 972 3006 975 2920 
Q 978 2834 979 2776 
Q 981 2719 981 2691 
L 994 2691 
Q 1088 2997 1200 3166 
Q 1309 3322 1450 3383 
Q 1591 3444 1797 3444 
Q 1913 3444 2025 3413 
L 2025 2897 
Q 1919 2928 1725 2928 
Q 1375 2928 1190 2626 
Q 1006 2325 1006 1763 
z
" transform="scale(0.015625)"/>
       <path id="Arimo-Regular-71" d="M 269 1675 
Q 269 2559 580 3001 
Q 891 3444 1513 3444 
Q 1897 3444 2150 3308 
Q 2403 3172 2572 2856 
Q 2572 2919 2578 3051 
Q 2584 3184 2593 3300 
Q 2603 3416 2609 3425 
L 3150 3425 
Q 3138 3334 3133 3103 
Q 3128 2872 3128 2503 
L 3128 -1328 
L 2566 -1328 
L 2566 44 
L 2578 556 
L 2572 556 
Q 2403 222 2156 79 
Q 1909 -63 1513 -63 
Q 869 -63 569 371 
Q 269 806 269 1675 
z
M 2566 1731 
Q 2566 2391 2350 2709 
Q 2134 3028 1663 3028 
Q 1234 3028 1046 2709 
Q 859 2391 859 1694 
Q 859 984 1048 678 
Q 1238 372 1656 372 
Q 2134 372 2350 712 
Q 2566 1053 2566 1731 
z
" transform="scale(0.015625)"/>
       <path id="Arimo-Regular-75" d="M 2569 578 
Q 2375 228 2120 82 
Q 1866 -63 1488 -63 
Q 931 -63 673 214 
Q 416 491 416 1128 
L 416 3381 
L 981 3381 
L 981 1238 
Q 981 731 1139 551 
Q 1297 372 1678 372 
Q 2084 372 2318 650 
Q 2553 928 2553 1422 
L 2553 3381 
L 3116 3381 
L 3116 722 
Q 3116 428 3120 247 
Q 3125 66 3134 0 
L 2603 0 
Q 2600 16 2592 147 
Q 2584 278 2578 578 
L 2569 578 
z
" transform="scale(0.015625)"/>
       <path id="Arimo-Regular-79" d="M 597 -1328 
Q 372 -1328 209 -1294 
L 209 -872 
Q 328 -891 472 -891 
Q 734 -891 957 -695 
Q 1181 -500 1356 16 
L 16 3381 
L 616 3381 
L 1328 1513 
Q 1406 1313 1495 1059 
Q 1584 806 1634 613 
Q 1713 834 1792 1053 
Q 1872 1272 1947 1491 
L 2594 3381 
L 3188 3381 
L 1888 0 
Q 1781 -269 1684 -470 
Q 1588 -672 1497 -803 
Q 1316 -1069 1095 -1198 
Q 875 -1328 597 -1328 
z
" transform="scale(0.015625)"/>
      </defs>
      <use xlink:href="#Arimo-Regular-46"/>
      <use xlink:href="#Arimo-Regular-72" transform="translate(61.083984 0)"/>
      <use xlink:href="#Arimo-Regular-65" transform="translate(94.384766 0)"/>
      <use xlink:href="#Arimo-Regular-71" transform="translate(150 0)"/>
      <use xlink:href="#Arimo-Regular-75" transform="translate(205.615234 0)"/>
      <use xlink:href="#Arimo-Regular-65" transform="translate(261.230469 0)"/>
      <use xlink:href="#Arimo-Regular-6e" transform="translate(316.845703 0)"/>
      <use xlink:href="#Arimo-Regular-63" transform="translate(372.460938 0)"/>
      <use xlink:href="#Arimo-Regular-79" transform="translate(422.460938 0)"/>
     </g>
    </g>
   </g>
   <g id="line2d_13">
    <path d="M 165.084254 175.823437 
L 165.084254 9.503437 
" clip-path="url(#p0c9a0c015f)" style="fill: none; stroke-dasharray: 7.4,3.2; stroke-dashoffset: 0; stroke: #000000; stroke-width: 2"/>
   </g>
   <g id="patch_22">
    <path d="M 44.236875 175.823437 
L 44.236875 9.503437 
" style="fill: none; stroke: #000000; stroke-width: 0.8; stroke-linejoin: miter; stroke-linecap: square"/>
   </g>
   <g id="patch_23">
    <path d="M 44.236875 175.823437 
L 211.636875 175.823437 
" style="fill: none; stroke: #000000; stroke-width: 0.8; stroke-linejoin: miter; stroke-linecap: square"/>
   </g>
  </g>
 </g>
 <defs>
  <clipPath id="p0c9a0c015f">
   <rect x="44.236875" y="9.503437" width="167.4" height="166.32"/>
  </clipPath>
 </defs>
</svg>
