<?xml version="1.0" encoding="utf-8" standalone="no"?>
<!DOCTYPE svg PUBLIC "-//W3C//DTD SVG 1.1//EN"
  "http://www.w3.org/Graphics/SVG/1.1/DTD/svg11.dtd">
<svg xmlns:xlink="http://www.w3.org/1999/xlink" width="388.486563pt" height="352.344687pt" viewBox="0 0 388.486563 352.344687" xmlns="http://www.w3.org/2000/svg" version="1.1">
 <metadata>
  <rdf:RDF xmlns:dc="http://purl.org/dc/elements/1.1/" xmlns:cc="http://creativecommons.org/ns#" xmlns:rdf="http://www.w3.org/1999/02/22-rdf-syntax-ns#">
   <cc:Work>
    <dc:type rdf:resource="http://purl.org/dc/dcmitype/StillImage"/>
    <dc:date>2025-10-31T01:07:41.397603</dc:date>
    <dc:format>image/svg+xml</dc:format>
    <dc:creator>
     <cc:Agent>
      <dc:title>Matplotlib v3.10.0, https://matplotlib.org/</dc:title>
     </cc:Agent>
    </dc:creator>
   </cc:Work>
  </rdf:RDF>
 </metadata>
 <defs>
  <style type="text/css">*{stroke-linejoin: round; stroke-linecap: butt}</style>
 </defs>
 <g id="figure_1">
  <g id="patch_1">
   <path d="M 0 352.344687 
L 388.486563 352.344687 
L 388.486563 0 
L 0 0 
z
" style="fill: #ffffff"/>
  </g>
  <g id="axes_1">
   <g id="patch_2">
    <path d="M 169.046562 310.84 
L 381.286563 310.84 
L 381.286563 7.2 
L 169.046562 7.2 
z
" style="fill: #ffffff"/>
   </g>
   <g id="matplotlib.axis_1">
    <g id="xtick_1">
     <g id="line2d_1">
      <defs>
       <path id="mb9be9e927c" d="M 0 0 
L 0 3.5 
" style="stroke: #000000; stroke-width: 0.8"/>
      </defs>
      <g>
       <use xlink:href="#mb9be9e927c" x="179.13153" y="310.84" style="stroke: #000000; stroke-width: 0.8"/>
      </g>
     </g>
     <g id="text_1">
      <!-- −0.2 -->
      <g transform="translate(169.261218 325.086875) scale(0.1 -0.1)">
       <defs>
        <path id="Arimo-Regular-2212" d="M 3425 2356 
L 3425 1900 
L 316 1900 
L 316 2356 
L 3425 2356 
z
" transform="scale(0.015625)"/>
        <path id="Arimo-Regular-30" d="M 3309 2203 
Q 3309 1100 2920 518 
Q 2531 -63 1772 -63 
Q 1013 -63 631 515 
Q 250 1094 250 2203 
Q 250 3338 620 3903 
Q 991 4469 1791 4469 
Q 2569 4469 2939 3897 
Q 3309 3325 3309 2203 
z
M 2738 2203 
Q 2738 2841 2642 3239 
Q 2547 3638 2337 3825 
Q 2128 4013 1791 4013 
Q 1447 4013 1231 3828 
Q 1016 3644 917 3245 
Q 819 2847 819 2203 
Q 819 1578 920 1178 
Q 1022 778 1234 587 
Q 1447 397 1778 397 
Q 2275 397 2506 840 
Q 2738 1284 2738 2203 
z
" transform="scale(0.015625)"/>
        <path id="Arimo-Regular-2e" d="M 1194 684 
L 1194 0 
L 584 0 
L 584 684 
L 1194 684 
z
" transform="scale(0.015625)"/>
        <path id="Arimo-Regular-32" d="M 3238 478 
L 3238 0 
L 322 0 
L 322 397 
Q 481 763 707 1044 
Q 934 1325 1190 1550 
Q 1447 1775 1697 1969 
Q 1822 2066 1933 2162 
Q 2044 2259 2144 2356 
Q 2344 2550 2467 2762 
Q 2591 2975 2591 3244 
Q 2591 3606 2378 3806 
Q 2166 4006 1788 4006 
Q 1428 4006 1195 3811 
Q 963 3616 922 3263 
L 347 3316 
Q 409 3844 795 4156 
Q 1181 4469 1788 4469 
Q 2453 4469 2811 4155 
Q 3169 3841 3169 3263 
Q 3169 3006 3051 2753 
Q 2934 2500 2703 2247 
Q 2588 2122 2366 1925 
Q 2144 1728 1819 1463 
Q 1459 1169 1246 933 
Q 1034 697 941 478 
L 3238 478 
z
" transform="scale(0.015625)"/>
       </defs>
       <use xlink:href="#Arimo-Regular-2212"/>
       <use xlink:href="#Arimo-Regular-30" transform="translate(58.398438 0)"/>
       <use xlink:href="#Arimo-Regular-2e" transform="translate(114.013672 0)"/>
       <use xlink:href="#Arimo-Regular-32" transform="translate(141.796875 0)"/>
      </g>
     </g>
    </g>
    <g id="xtick_2">
     <g id="line2d_2">
      <g>
       <use xlink:href="#mb9be9e927c" x="227.212212" y="310.84" style="stroke: #000000; stroke-width: 0.8"/>
      </g>
     </g>
     <g id="text_2">
      <!-- 0.0 -->
      <g transform="translate(220.262212 325.086875) scale(0.1 -0.1)">
       <use xlink:href="#Arimo-Regular-30"/>
       <use xlink:href="#Arimo-Regular-2e" transform="translate(55.615234 0)"/>
       <use xlink:href="#Arimo-Regular-30" transform="translate(83.398438 0)"/>
      </g>
     </g>
    </g>
    <g id="xtick_3">
     <g id="line2d_3">
      <g>
       <use xlink:href="#mb9be9e927c" x="275.292894" y="310.84" style="stroke: #000000; stroke-width: 0.8"/>
      </g>
     </g>
     <g id="text_3">
      <!-- 0.2 -->
      <g transform="translate(268.342894 325.086875) scale(0.1 -0.1)">
       <use xlink:href="#Arimo-Regular-30"/>
       <use xlink:href="#Arimo-Regular-2e" transform="translate(55.615234 0)"/>
       <use xlink:href="#Arimo-Regular-32" transform="translate(83.398438 0)"/>
      </g>
     </g>
    </g>
    <g id="xtick_4">
     <g id="line2d_4">
      <g>
       <use xlink:href="#mb9be9e927c" x="323.373576" y="310.84" style="stroke: #000000; stroke-width: 0.8"/>
      </g>
     </g>
     <g id="text_4">
      <!-- 0.4 -->
      <g transform="translate(316.423576 325.086875) scale(0.1 -0.1)">
       <defs>
        <path id="Arimo-Regular-34" d="M 2753 997 
L 2753 0 
L 2222 0 
L 2222 997 
L 147 997 
L 147 1434 
L 2163 4403 
L 2753 4403 
L 2753 1441 
L 3372 1441 
L 3372 997 
L 2753 997 
z
M 666 1441 
L 2222 1441 
L 2222 3197 
Q 2222 3341 2223 3483 
Q 2225 3625 2234 3769 
Q 2163 3631 2109 3545 
Q 2056 3459 2013 3397 
L 666 1441 
z
" transform="scale(0.015625)"/>
       </defs>
       <use xlink:href="#Arimo-Regular-30"/>
       <use xlink:href="#Arimo-Regular-2e" transform="translate(55.615234 0)"/>
       <use xlink:href="#Arimo-Regular-34" transform="translate(83.398438 0)"/>
      </g>
     </g>
    </g>
    <g id="xtick_5">
     <g id="line2d_5">
      <g>
       <use xlink:href="#mb9be9e927c" x="371.454258" y="310.84" style="stroke: #000000; stroke-width: 0.8"/>
      </g>
     </g>
     <g id="text_5">
      <!-- 0.6 -->
      <g transform="translate(364.504258 325.086875) scale(0.1 -0.1)">
       <defs>
        <path id="Arimo-Regular-36" d="M 3278 1441 
Q 3278 744 2900 340 
Q 2522 -63 1856 -63 
Q 1113 -63 719 490 
Q 325 1044 325 2100 
Q 325 3244 734 3856 
Q 1144 4469 1900 4469 
Q 2400 4469 2714 4244 
Q 3028 4019 3156 3572 
L 2619 3475 
Q 2456 4013 1894 4013 
Q 1413 4013 1148 3564 
Q 884 3116 884 2266 
Q 1038 2550 1316 2698 
Q 1594 2847 1953 2847 
Q 2563 2847 2920 2465 
Q 3278 2084 3278 1441 
z
M 2706 1416 
Q 2706 1894 2472 2153 
Q 2238 2413 1819 2413 
Q 1425 2413 1183 2183 
Q 941 1953 941 1550 
Q 941 1213 1056 950 
Q 1172 688 1373 539 
Q 1575 391 1838 391 
Q 2244 391 2475 664 
Q 2706 938 2706 1416 
z
" transform="scale(0.015625)"/>
       </defs>
       <use xlink:href="#Arimo-Regular-30"/>
       <use xlink:href="#Arimo-Regular-2e" transform="translate(55.615234 0)"/>
       <use xlink:href="#Arimo-Regular-36" transform="translate(83.398438 0)"/>
      </g>
     </g>
    </g>
    <g id="text_6">
     <!-- Correlation with WTH -->
     <g transform="translate(203.904844 342.032187) scale(0.15 -0.15)">
      <defs>
       <path id="Arimo-Regular-43" d="M 2500 428 
Q 3425 428 3891 1344 
L 4378 1100 
Q 4106 531 3614 234 
Q 3122 -63 2472 -63 
Q 1803 -63 1322 215 
Q 841 494 583 1008 
Q 325 1522 325 2222 
Q 325 2925 581 3428 
Q 838 3931 1319 4200 
Q 1800 4469 2469 4469 
Q 3172 4469 3644 4194 
Q 4116 3919 4338 3378 
L 3772 3191 
Q 3619 3575 3280 3778 
Q 2941 3981 2475 3981 
Q 1744 3981 1337 3511 
Q 931 3041 931 2222 
Q 931 1684 1123 1279 
Q 1316 875 1667 651 
Q 2019 428 2500 428 
z
" transform="scale(0.015625)"/>
       <path id="Arimo-Regular-6f" d="M 3291 1694 
Q 3291 806 2900 371 
Q 2509 -63 1766 -63 
Q 1025 -63 647 389 
Q 269 841 269 1694 
Q 269 2569 648 3006 
Q 1028 3444 1784 3444 
Q 2559 3444 2925 3017 
Q 3291 2591 3291 1694 
z
M 2700 1694 
Q 2700 2394 2492 2711 
Q 2284 3028 1794 3028 
Q 1300 3028 1079 2704 
Q 859 2381 859 1694 
Q 859 1025 1076 689 
Q 1294 353 1759 353 
Q 2266 353 2483 678 
Q 2700 1003 2700 1694 
z
" transform="scale(0.015625)"/>
       <path id="Arimo-Regular-72" d="M 1006 1763 
L 1006 0 
L 444 0 
L 444 2594 
Q 444 2772 439 2969 
Q 434 3166 425 3381 
L 956 3381 
Q 963 3238 967 3122 
Q 972 3006 975 2920 
Q 978 2834 979 2776 
Q 981 2719 981 2691 
L 994 2691 
Q 1088 2997 1200 3166 
Q 1309 3322 1450 3383 
Q 1591 3444 1797 3444 
Q 1913 3444 2025 3413 
L 2025 2897 
Q 1919 2928 1725 2928 
Q 1375 2928 1190 2626 
Q 1006 2325 1006 1763 
z
" transform="scale(0.015625)"/>
       <path id="Arimo-Regular-65" d="M 863 1572 
Q 863 991 1103 675 
Q 1344 359 1806 359 
Q 2172 359 2392 506 
Q 2613 653 2691 878 
L 3184 738 
Q 2881 -63 1806 -63 
Q 1056 -63 664 384 
Q 272 831 272 1713 
Q 272 2550 664 2997 
Q 1056 3444 1784 3444 
Q 2531 3444 2903 2994 
Q 3275 2544 3275 1647 
L 3275 1572 
L 863 1572 
z
M 2694 2003 
Q 2647 2538 2422 2783 
Q 2197 3028 1775 3028 
Q 1366 3028 1127 2754 
Q 888 2481 869 2003 
L 2694 2003 
z
" transform="scale(0.015625)"/>
       <path id="Arimo-Regular-6c" d="M 994 4638 
L 994 0 
L 431 0 
L 431 4638 
L 994 4638 
z
" transform="scale(0.015625)"/>
       <path id="Arimo-Regular-61" d="M 1294 -63 
Q 784 -63 528 206 
Q 272 475 272 944 
Q 272 1469 617 1750 
Q 963 2031 1731 2050 
L 2491 2063 
L 2491 2247 
Q 2491 2659 2316 2837 
Q 2141 3016 1766 3016 
Q 1388 3016 1216 2887 
Q 1044 2759 1009 2478 
L 422 2531 
Q 566 3444 1778 3444 
Q 2416 3444 2737 3151 
Q 3059 2859 3059 2306 
L 3059 850 
Q 3059 600 3125 473 
Q 3191 347 3375 347 
Q 3463 347 3559 369 
L 3559 19 
Q 3453 -6 3343 -18 
Q 3234 -31 3125 -31 
Q 2813 -31 2670 133 
Q 2528 297 2509 647 
L 2491 647 
Q 2275 259 1989 98 
Q 1703 -63 1294 -63 
z
M 2491 1669 
L 1875 1656 
Q 1481 1653 1275 1575 
Q 1069 1500 959 1344 
Q 850 1188 850 934 
Q 850 659 998 509 
Q 1147 359 1422 359 
Q 1734 359 1972 500 
Q 2213 641 2352 886 
Q 2491 1131 2491 1391 
L 2491 1669 
z
" transform="scale(0.015625)"/>
       <path id="Arimo-Regular-74" d="M 1731 25 
Q 1456 -50 1163 -50 
Q 825 -50 656 142 
Q 488 334 488 716 
L 488 2972 
L 97 2972 
L 97 3381 
L 509 3381 
L 675 4138 
L 1050 4138 
L 1050 3381 
L 1675 3381 
L 1675 2972 
L 1050 2972 
L 1050 838 
Q 1050 594 1129 495 
Q 1209 397 1406 397 
Q 1513 397 1731 441 
L 1731 25 
z
" transform="scale(0.015625)"/>
       <path id="Arimo-Regular-69" d="M 991 4638 
L 991 4100 
L 428 4100 
L 428 4638 
L 991 4638 
z
M 991 3381 
L 991 0 
L 428 0 
L 428 3381 
L 991 3381 
z
" transform="scale(0.015625)"/>
       <path id="Arimo-Regular-6e" d="M 1006 1959 
L 1006 0 
L 444 0 
L 444 2659 
Q 444 2956 439 3136 
Q 434 3316 425 3381 
L 956 3381 
Q 963 3322 967 3231 
Q 972 3141 975 3031 
Q 978 2922 981 2803 
L 991 2803 
Q 1184 3153 1439 3298 
Q 1694 3444 2072 3444 
Q 2628 3444 2886 3159 
Q 3144 2875 3144 2253 
L 3144 0 
L 2578 0 
L 2578 2144 
Q 2578 2628 2422 2818 
Q 2266 3009 1881 3009 
Q 1475 3009 1240 2731 
Q 1006 2453 1006 1959 
z
" transform="scale(0.015625)"/>
       <path id="Arimo-Regular-20" transform="scale(0.015625)"/>
       <path id="Arimo-Regular-77" d="M 2200 2391 
L 1588 0 
L 938 0 
L -9 3381 
L 547 3381 
L 1128 1041 
Q 1153 941 1187 787 
Q 1222 634 1253 466 
Q 1288 613 1323 759 
Q 1359 906 1397 1050 
L 2013 3381 
L 2616 3381 
L 3206 1059 
Q 3244 913 3280 763 
Q 3316 613 3350 466 
Q 3384 616 3420 780 
Q 3456 944 3488 1069 
L 4088 3381 
L 4638 3381 
L 3669 0 
L 3016 0 
L 2425 2391 
Q 2394 2522 2367 2655 
Q 2341 2788 2313 2919 
Q 2300 2850 2267 2686 
Q 2234 2522 2200 2391 
z
" transform="scale(0.015625)"/>
       <path id="Arimo-Regular-68" d="M 991 2803 
Q 1172 3134 1426 3289 
Q 1681 3444 2072 3444 
Q 2622 3444 2883 3158 
Q 3144 2872 3144 2253 
L 3144 0 
L 2578 0 
L 2578 2144 
Q 2578 2603 2417 2806 
Q 2256 3009 1881 3009 
Q 1484 3009 1245 2734 
Q 1006 2459 1006 1994 
L 1006 0 
L 444 0 
L 444 4638 
L 1006 4638 
L 1006 3431 
Q 1006 3306 1000 3167 
Q 994 3028 989 2926 
Q 984 2825 981 2803 
L 991 2803 
z
" transform="scale(0.015625)"/>
       <path id="Arimo-Regular-57" d="M 2803 2781 
L 2038 0 
L 1325 0 
L 28 4403 
L 650 4403 
L 1441 1606 
Q 1513 1344 1577 1073 
Q 1641 803 1700 525 
Q 1725 641 1767 830 
Q 1809 1019 1856 1216 
Q 1903 1413 1941 1547 
L 2741 4403 
L 3313 4403 
L 4078 1663 
Q 4166 1328 4234 1042 
Q 4303 756 4353 525 
Q 4400 709 4451 923 
Q 4503 1138 4548 1314 
Q 4594 1491 4613 1566 
L 5397 4403 
L 6019 4403 
L 4722 0 
L 4009 0 
L 3247 2797 
Q 3209 2928 3154 3162 
Q 3100 3397 3028 3738 
Q 3000 3572 2954 3380 
Q 2909 3188 2867 3025 
Q 2825 2863 2803 2781 
z
" transform="scale(0.015625)"/>
       <path id="Arimo-Regular-54" d="M 2250 3916 
L 2250 0 
L 1656 0 
L 1656 3916 
L 144 3916 
L 144 4403 
L 3763 4403 
L 3763 3916 
L 2250 3916 
z
" transform="scale(0.015625)"/>
       <path id="Arimo-Regular-48" d="M 1122 2041 
L 1122 0 
L 525 0 
L 525 4403 
L 1122 4403 
L 1122 2541 
L 3503 2541 
L 3503 4403 
L 4100 4403 
L 4100 0 
L 3503 0 
L 3503 2041 
L 1122 2041 
z
" transform="scale(0.015625)"/>
      </defs>
      <use xlink:href="#Arimo-Regular-43"/>
      <use xlink:href="#Arimo-Regular-6f" transform="translate(72.216797 0)"/>
      <use xlink:href="#Arimo-Regular-72" transform="translate(127.832031 0)"/>
      <use xlink:href="#Arimo-Regular-72" transform="translate(161.132812 0)"/>
      <use xlink:href="#Arimo-Regular-65" transform="translate(194.433594 0)"/>
      <use xlink:href="#Arimo-Regular-6c" transform="translate(250.048828 0)"/>
      <use xlink:href="#Arimo-Regular-61" transform="translate(272.265625 0)"/>
      <use xlink:href="#Arimo-Regular-74" transform="translate(327.880859 0)"/>
      <use xlink:href="#Arimo-Regular-69" transform="translate(355.664062 0)"/>
      <use xlink:href="#Arimo-Regular-6f" transform="translate(377.880859 0)"/>
      <use xlink:href="#Arimo-Regular-6e" transform="translate(433.496094 0)"/>
      <use xlink:href="#Arimo-Regular-20" transform="translate(489.111328 0)"/>
      <use xlink:href="#Arimo-Regular-77" transform="translate(516.894531 0)"/>
      <use xlink:href="#Arimo-Regular-69" transform="translate(589.111328 0)"/>
      <use xlink:href="#Arimo-Regular-74" transform="translate(611.328125 0)"/>
      <use xlink:href="#Arimo-Regular-68" transform="translate(639.111328 0)"/>
      <use xlink:href="#Arimo-Regular-20" transform="translate(694.726562 0)"/>
      <use xlink:href="#Arimo-Regular-57" transform="translate(722.509766 0)"/>
      <use xlink:href="#Arimo-Regular-54" transform="translate(816.894531 0)"/>
      <use xlink:href="#Arimo-Regular-48" transform="translate(877.978516 0)"/>
     </g>
    </g>
   </g>
   <g id="matplotlib.axis_2">
    <g id="ytick_1">
     <g id="line2d_6">
      <defs>
       <path id="m5f3b5961bc" d="M 0 0 
L -3.5 0 
" style="stroke: #000000; stroke-width: 0.8"/>
      </defs>
      <g>
       <use xlink:href="#m5f3b5961bc" x="169.046562" y="57.806667" style="stroke: #000000; stroke-width: 0.8"/>
      </g>
     </g>
     <g id="text_7">
      <!-- Dispositional Empathy -->
      <g transform="translate(23.542812 62.879479) scale(0.14 -0.14)">
       <defs>
        <path id="Arimo-Regular-44" d="M 4316 2247 
Q 4316 1550 4045 1047 
Q 3775 544 3292 272 
Q 2809 0 2172 0 
L 525 0 
L 525 4403 
L 1981 4403 
Q 3100 4403 3708 3842 
Q 4316 3281 4316 2247 
z
M 3716 2247 
Q 3716 3066 3267 3495 
Q 2819 3925 1969 3925 
L 1122 3925 
L 1122 478 
L 2103 478 
Q 2594 478 2955 693 
Q 3316 909 3516 1306 
Q 3716 1703 3716 2247 
z
" transform="scale(0.015625)"/>
        <path id="Arimo-Regular-73" d="M 2969 934 
Q 2969 456 2608 196 
Q 2247 -63 1597 -63 
Q 966 -63 623 145 
Q 281 353 178 794 
L 675 891 
Q 747 619 972 492 
Q 1197 366 1597 366 
Q 2025 366 2223 497 
Q 2422 628 2422 891 
Q 2422 1091 2284 1216 
Q 2147 1341 1841 1422 
Q 1478 1519 1264 1581 
Q 1050 1644 934 1689 
Q 819 1734 750 1775 
Q 544 1894 428 2066 
Q 313 2238 313 2488 
Q 313 2950 642 3192 
Q 972 3434 1603 3434 
Q 2163 3434 2492 3237 
Q 2822 3041 2909 2606 
L 2403 2544 
Q 2356 2769 2151 2889 
Q 1947 3009 1603 3009 
Q 1222 3009 1040 2893 
Q 859 2778 859 2544 
Q 859 2372 962 2261 
Q 1066 2150 1356 2078 
Q 1747 1984 2100 1873 
Q 2453 1763 2606 1653 
Q 2784 1525 2876 1351 
Q 2969 1178 2969 934 
z
" transform="scale(0.015625)"/>
        <path id="Arimo-Regular-70" d="M 3291 1706 
Q 3291 822 2980 379 
Q 2669 -63 2047 -63 
Q 1266 -63 997 525 
L 981 525 
Q 994 503 994 -6 
L 994 -1328 
L 431 -1328 
L 431 2691 
Q 431 2950 426 3123 
Q 422 3297 413 3381 
L 956 3381 
Q 959 3369 967 3259 
Q 975 3150 981 3023 
Q 988 2897 988 2838 
L 1000 2838 
Q 1150 3150 1397 3295 
Q 1644 3441 2047 3441 
Q 2672 3441 2981 3022 
Q 3291 2603 3291 1706 
z
M 2700 1694 
Q 2700 2400 2509 2703 
Q 2319 3006 1903 3006 
Q 1441 3006 1217 2686 
Q 994 2366 994 1650 
Q 994 984 1206 668 
Q 1419 353 1897 353 
Q 2316 353 2508 661 
Q 2700 969 2700 1694 
z
" transform="scale(0.015625)"/>
        <path id="Arimo-Regular-45" d="M 3994 488 
L 3994 0 
L 525 0 
L 525 4403 
L 3866 4403 
L 3866 3916 
L 1122 3916 
L 1122 2503 
L 3678 2503 
L 3678 2022 
L 1122 2022 
L 1122 488 
L 3994 488 
z
" transform="scale(0.015625)"/>
        <path id="Arimo-Regular-6d" d="M 1003 1959 
L 1003 0 
L 444 0 
L 444 2659 
Q 444 2956 439 3136 
Q 434 3316 425 3381 
L 956 3381 
Q 963 3313 969 3213 
Q 975 3113 978 3005 
Q 981 2897 981 2803 
L 991 2803 
Q 1172 3163 1406 3303 
Q 1641 3444 1978 3444 
Q 2363 3444 2586 3291 
Q 2809 3138 2897 2803 
L 2906 2803 
Q 3081 3144 3329 3294 
Q 3578 3444 3931 3444 
Q 4444 3444 4676 3166 
Q 4909 2888 4909 2253 
L 4909 0 
L 4353 0 
L 4353 2144 
Q 4353 2634 4218 2821 
Q 4084 3009 3734 3009 
Q 3366 3009 3161 2736 
Q 2956 2463 2956 1959 
L 2956 0 
L 2400 0 
L 2400 2144 
Q 2400 2634 2265 2821 
Q 2131 3009 1781 3009 
Q 1422 3009 1212 2734 
Q 1003 2459 1003 1959 
z
" transform="scale(0.015625)"/>
        <path id="Arimo-Regular-79" d="M 597 -1328 
Q 372 -1328 209 -1294 
L 209 -872 
Q 328 -891 472 -891 
Q 734 -891 957 -695 
Q 1181 -500 1356 16 
L 16 3381 
L 616 3381 
L 1328 1513 
Q 1406 1313 1495 1059 
Q 1584 806 1634 613 
Q 1713 834 1792 1053 
Q 1872 1272 1947 1491 
L 2594 3381 
L 3188 3381 
L 1888 0 
Q 1781 -269 1684 -470 
Q 1588 -672 1497 -803 
Q 1316 -1069 1095 -1198 
Q 875 -1328 597 -1328 
z
" transform="scale(0.015625)"/>
       </defs>
       <use xlink:href="#Arimo-Regular-44"/>
       <use xlink:href="#Arimo-Regular-69" transform="translate(72.216797 0)"/>
       <use xlink:href="#Arimo-Regular-73" transform="translate(94.433594 0)"/>
       <use xlink:href="#Arimo-Regular-70" transform="translate(144.433594 0)"/>
       <use xlink:href="#Arimo-Regular-6f" transform="translate(200.048828 0)"/>
       <use xlink:href="#Arimo-Regular-73" transform="translate(255.664062 0)"/>
       <use xlink:href="#Arimo-Regular-69" transform="translate(305.664062 0)"/>
       <use xlink:href="#Arimo-Regular-74" transform="translate(327.880859 0)"/>
       <use xlink:href="#Arimo-Regular-69" transform="translate(355.664062 0)"/>
       <use xlink:href="#Arimo-Regular-6f" transform="translate(377.880859 0)"/>
       <use xlink:href="#Arimo-Regular-6e" transform="translate(433.496094 0)"/>
       <use xlink:href="#Arimo-Regular-61" transform="translate(489.111328 0)"/>
       <use xlink:href="#Arimo-Regular-6c" transform="translate(544.726562 0)"/>
       <use xlink:href="#Arimo-Regular-20" transform="translate(566.943359 0)"/>
       <use xlink:href="#Arimo-Regular-45" transform="translate(594.726562 0)"/>
       <use xlink:href="#Arimo-Regular-6d" transform="translate(661.425781 0)"/>
       <use xlink:href="#Arimo-Regular-70" transform="translate(744.726562 0)"/>
       <use xlink:href="#Arimo-Regular-61" transform="translate(800.341797 0)"/>
       <use xlink:href="#Arimo-Regular-74" transform="translate(855.957031 0)"/>
       <use xlink:href="#Arimo-Regular-68" transform="translate(883.740234 0)"/>
       <use xlink:href="#Arimo-Regular-79" transform="translate(939.355469 0)"/>
      </g>
     </g>
    </g>
    <g id="ytick_2">
     <g id="line2d_7">
      <g>
       <use xlink:href="#m5f3b5961bc" x="169.046562" y="108.413333" style="stroke: #000000; stroke-width: 0.8"/>
      </g>
     </g>
     <g id="text_8">
      <!-- Social Value Orientation -->
      <g transform="translate(11.855 113.486146) scale(0.14 -0.14)">
       <defs>
        <path id="Arimo-Regular-53" d="M 3975 1216 
Q 3975 606 3498 271 
Q 3022 -63 2156 -63 
Q 547 -63 291 1056 
L 869 1172 
Q 969 775 1294 589 
Q 1619 403 2178 403 
Q 2756 403 3070 601 
Q 3384 800 3384 1184 
Q 3384 1400 3286 1534 
Q 3188 1669 3009 1756 
Q 2831 1844 2584 1903 
Q 2338 1963 2038 2031 
Q 1691 2109 1458 2184 
Q 1225 2259 1075 2342 
Q 925 2425 819 2519 
Q 663 2663 580 2853 
Q 497 3044 497 3291 
Q 497 3856 930 4162 
Q 1363 4469 2169 4469 
Q 2919 4469 3316 4239 
Q 3713 4009 3872 3456 
L 3284 3353 
Q 3188 3703 2916 3861 
Q 2644 4019 2163 4019 
Q 1634 4019 1356 3844 
Q 1078 3669 1078 3322 
Q 1078 3119 1186 2986 
Q 1294 2853 1497 2763 
Q 1688 2672 2306 2534 
Q 2559 2475 2806 2411 
Q 3053 2347 3272 2250 
Q 3400 2197 3517 2120 
Q 3634 2044 3722 1944 
Q 3841 1813 3908 1634 
Q 3975 1456 3975 1216 
z
" transform="scale(0.015625)"/>
        <path id="Arimo-Regular-63" d="M 1728 -63 
Q 1019 -63 645 385 
Q 272 834 272 1694 
Q 272 2547 647 2995 
Q 1022 3444 1722 3444 
Q 2241 3444 2583 3175 
Q 2925 2906 3013 2434 
L 2434 2391 
Q 2391 2672 2212 2837 
Q 2034 3003 1706 3003 
Q 1259 3003 1059 2706 
Q 859 2409 859 1706 
Q 859 1031 1071 706 
Q 1284 381 1713 381 
Q 2013 381 2214 543 
Q 2416 706 2463 1044 
L 3031 1006 
Q 2988 681 2814 440 
Q 2641 200 2364 68 
Q 2088 -63 1728 -63 
z
" transform="scale(0.015625)"/>
        <path id="Arimo-Regular-56" d="M 4241 4403 
L 2444 0 
L 1825 0 
L 28 4403 
L 656 4403 
L 1875 1303 
Q 1950 1113 2011 916 
Q 2072 719 2138 525 
Q 2200 719 2269 931 
Q 2338 1144 2400 1303 
L 3613 4403 
L 4241 4403 
z
" transform="scale(0.015625)"/>
        <path id="Arimo-Regular-75" d="M 2569 578 
Q 2375 228 2120 82 
Q 1866 -63 1488 -63 
Q 931 -63 673 214 
Q 416 491 416 1128 
L 416 3381 
L 981 3381 
L 981 1238 
Q 981 731 1139 551 
Q 1297 372 1678 372 
Q 2084 372 2318 650 
Q 2553 928 2553 1422 
L 2553 3381 
L 3116 3381 
L 3116 722 
Q 3116 428 3120 247 
Q 3125 66 3134 0 
L 2603 0 
Q 2600 16 2592 147 
Q 2584 278 2578 578 
L 2569 578 
z
" transform="scale(0.015625)"/>
        <path id="Arimo-Regular-4f" d="M 4672 2222 
Q 4672 1516 4405 1003 
Q 4138 491 3647 214 
Q 3156 -63 2484 -63 
Q 1809 -63 1320 212 
Q 831 488 567 1000 
Q 303 1513 303 2222 
Q 303 2928 564 3429 
Q 825 3931 1314 4200 
Q 1803 4469 2491 4469 
Q 3166 4469 3655 4203 
Q 4144 3938 4408 3436 
Q 4672 2934 4672 2222 
z
M 4063 2222 
Q 4063 3044 3652 3512 
Q 3241 3981 2491 3981 
Q 1734 3981 1321 3518 
Q 909 3056 909 2222 
Q 909 1672 1096 1267 
Q 1284 863 1637 642 
Q 1991 422 2484 422 
Q 3247 422 3655 892 
Q 4063 1363 4063 2222 
z
" transform="scale(0.015625)"/>
       </defs>
       <use xlink:href="#Arimo-Regular-53"/>
       <use xlink:href="#Arimo-Regular-6f" transform="translate(66.699219 0)"/>
       <use xlink:href="#Arimo-Regular-63" transform="translate(122.314453 0)"/>
       <use xlink:href="#Arimo-Regular-69" transform="translate(172.314453 0)"/>
       <use xlink:href="#Arimo-Regular-61" transform="translate(194.53125 0)"/>
       <use xlink:href="#Arimo-Regular-6c" transform="translate(250.146484 0)"/>
       <use xlink:href="#Arimo-Regular-20" transform="translate(272.363281 0)"/>
       <use xlink:href="#Arimo-Regular-56" transform="translate(300.146484 0)"/>
       <use xlink:href="#Arimo-Regular-61" transform="translate(366.845703 0)"/>
       <use xlink:href="#Arimo-Regular-6c" transform="translate(422.460938 0)"/>
       <use xlink:href="#Arimo-Regular-75" transform="translate(444.677734 0)"/>
       <use xlink:href="#Arimo-Regular-65" transform="translate(500.292969 0)"/>
       <use xlink:href="#Arimo-Regular-20" transform="translate(555.908203 0)"/>
       <use xlink:href="#Arimo-Regular-4f" transform="translate(583.691406 0)"/>
       <use xlink:href="#Arimo-Regular-72" transform="translate(661.474609 0)"/>
       <use xlink:href="#Arimo-Regular-69" transform="translate(694.775391 0)"/>
       <use xlink:href="#Arimo-Regular-65" transform="translate(716.992188 0)"/>
       <use xlink:href="#Arimo-Regular-6e" transform="translate(772.607422 0)"/>
       <use xlink:href="#Arimo-Regular-74" transform="translate(828.222656 0)"/>
       <use xlink:href="#Arimo-Regular-61" transform="translate(856.005859 0)"/>
       <use xlink:href="#Arimo-Regular-74" transform="translate(911.621094 0)"/>
       <use xlink:href="#Arimo-Regular-69" transform="translate(939.404297 0)"/>
       <use xlink:href="#Arimo-Regular-6f" transform="translate(961.621094 0)"/>
       <use xlink:href="#Arimo-Regular-6e" transform="translate(1017.236328 0)"/>
      </g>
     </g>
    </g>
    <g id="ytick_3">
     <g id="line2d_8">
      <g>
       <use xlink:href="#m5f3b5961bc" x="169.046562" y="159.02" style="stroke: #000000; stroke-width: 0.8"/>
      </g>
     </g>
     <g id="text_9">
      <!-- Reward Responsiveness -->
      <g transform="translate(7.2 164.092812) scale(0.14 -0.14)">
       <defs>
        <path id="Arimo-Regular-52" d="M 1122 1828 
L 1122 0 
L 525 0 
L 525 4403 
L 2597 4403 
Q 3341 4403 3745 4070 
Q 4150 3738 4150 3144 
Q 4150 2653 3864 2318 
Q 3578 1984 3075 1897 
L 4325 0 
L 3638 0 
L 2494 1828 
L 1122 1828 
z
M 3550 3138 
Q 3550 3522 3289 3723 
Q 3028 3925 2538 3925 
L 1122 3925 
L 1122 2300 
L 2563 2300 
Q 3034 2300 3292 2520 
Q 3550 2741 3550 3138 
z
" transform="scale(0.015625)"/>
        <path id="Arimo-Regular-64" d="M 2609 0 
Q 2603 34 2595 129 
Q 2588 225 2583 340 
Q 2578 456 2578 544 
L 2566 544 
Q 2409 219 2151 78 
Q 1894 -63 1513 -63 
Q 872 -63 570 368 
Q 269 800 269 1675 
Q 269 2559 580 3001 
Q 891 3444 1513 3444 
Q 1897 3444 2153 3303 
Q 2409 3163 2566 2856 
L 2572 2856 
L 2566 3234 
L 2566 4638 
L 3128 4638 
L 3128 697 
Q 3128 431 3133 257 
Q 3138 84 3147 0 
L 2609 0 
z
M 859 1694 
Q 859 984 1046 678 
Q 1234 372 1656 372 
Q 2134 372 2350 703 
Q 2566 1034 2566 1731 
Q 2566 2403 2350 2715 
Q 2134 3028 1663 3028 
Q 1238 3028 1048 2714 
Q 859 2400 859 1694 
z
" transform="scale(0.015625)"/>
        <path id="Arimo-Regular-76" d="M 3178 3381 
L 1916 0 
L 1250 0 
L 22 3381 
L 622 3381 
L 1366 1181 
Q 1388 1119 1441 933 
Q 1494 747 1581 441 
Q 1622 563 1661 695 
Q 1700 828 1739 953 
Q 1778 1078 1813 1175 
L 2581 3381 
L 3178 3381 
z
" transform="scale(0.015625)"/>
       </defs>
       <use xlink:href="#Arimo-Regular-52"/>
       <use xlink:href="#Arimo-Regular-65" transform="translate(72.216797 0)"/>
       <use xlink:href="#Arimo-Regular-77" transform="translate(127.832031 0)"/>
       <use xlink:href="#Arimo-Regular-61" transform="translate(200.048828 0)"/>
       <use xlink:href="#Arimo-Regular-72" transform="translate(255.664062 0)"/>
       <use xlink:href="#Arimo-Regular-64" transform="translate(288.964844 0)"/>
       <use xlink:href="#Arimo-Regular-20" transform="translate(344.580078 0)"/>
       <use xlink:href="#Arimo-Regular-52" transform="translate(372.363281 0)"/>
       <use xlink:href="#Arimo-Regular-65" transform="translate(444.580078 0)"/>
       <use xlink:href="#Arimo-Regular-73" transform="translate(500.195312 0)"/>
       <use xlink:href="#Arimo-Regular-70" transform="translate(550.195312 0)"/>
       <use xlink:href="#Arimo-Regular-6f" transform="translate(605.810547 0)"/>
       <use xlink:href="#Arimo-Regular-6e" transform="translate(661.425781 0)"/>
       <use xlink:href="#Arimo-Regular-73" transform="translate(717.041016 0)"/>
       <use xlink:href="#Arimo-Regular-69" transform="translate(767.041016 0)"/>
       <use xlink:href="#Arimo-Regular-76" transform="translate(789.257812 0)"/>
       <use xlink:href="#Arimo-Regular-65" transform="translate(839.257812 0)"/>
       <use xlink:href="#Arimo-Regular-6e" transform="translate(894.873047 0)"/>
       <use xlink:href="#Arimo-Regular-65" transform="translate(950.488281 0)"/>
       <use xlink:href="#Arimo-Regular-73" transform="translate(1006.103516 0)"/>
       <use xlink:href="#Arimo-Regular-73" transform="translate(1056.103516 0)"/>
      </g>
     </g>
    </g>
    <g id="ytick_4">
     <g id="line2d_9">
      <g>
       <use xlink:href="#m5f3b5961bc" x="169.046562" y="209.626667" style="stroke: #000000; stroke-width: 0.8"/>
      </g>
     </g>
     <g id="text_10">
      <!-- Behavioral Inhibition -->
      <g transform="translate(35.972187 214.699479) scale(0.14 -0.14)">
       <defs>
        <path id="Arimo-Regular-42" d="M 3931 1241 
Q 3931 653 3503 326 
Q 3075 0 2313 0 
L 525 0 
L 525 4403 
L 2125 4403 
Q 2900 4403 3287 4136 
Q 3675 3869 3675 3334 
Q 3675 2944 3456 2678 
Q 3238 2413 2838 2322 
Q 3363 2259 3647 1970 
Q 3931 1681 3931 1241 
z
M 3075 3263 
Q 3075 3619 2831 3772 
Q 2588 3925 2125 3925 
L 1122 3925 
L 1122 2531 
L 2125 2531 
Q 2603 2531 2839 2711 
Q 3075 2891 3075 3263 
z
M 3328 1288 
Q 3328 2066 2234 2066 
L 1122 2066 
L 1122 478 
L 2281 478 
Q 2828 478 3078 681 
Q 3328 884 3328 1288 
z
" transform="scale(0.015625)"/>
        <path id="Arimo-Regular-49" d="M 1188 4403 
L 1188 0 
L 591 0 
L 591 4403 
L 1188 4403 
z
" transform="scale(0.015625)"/>
        <path id="Arimo-Regular-62" d="M 3291 1706 
Q 3291 822 2980 379 
Q 2669 -63 2047 -63 
Q 1663 -63 1408 76 
Q 1153 216 994 525 
L 988 525 
Q 988 463 981 344 
Q 975 225 969 123 
Q 963 22 956 0 
L 413 0 
Q 422 84 426 257 
Q 431 431 431 697 
L 431 4638 
L 994 4638 
L 994 3316 
Q 994 3216 991 3095 
Q 988 2975 981 2838 
L 994 2838 
Q 1150 3163 1408 3303 
Q 1666 3444 2047 3444 
Q 2688 3444 2989 3012 
Q 3291 2581 3291 1706 
z
M 2700 1688 
Q 2700 2397 2512 2703 
Q 2325 3009 1903 3009 
Q 1428 3009 1211 2684 
Q 994 2359 994 1653 
Q 994 988 1206 670 
Q 1419 353 1897 353 
Q 2322 353 2511 667 
Q 2700 981 2700 1688 
z
" transform="scale(0.015625)"/>
       </defs>
       <use xlink:href="#Arimo-Regular-42"/>
       <use xlink:href="#Arimo-Regular-65" transform="translate(66.699219 0)"/>
       <use xlink:href="#Arimo-Regular-68" transform="translate(122.314453 0)"/>
       <use xlink:href="#Arimo-Regular-61" transform="translate(177.929688 0)"/>
       <use xlink:href="#Arimo-Regular-76" transform="translate(233.544922 0)"/>
       <use xlink:href="#Arimo-Regular-69" transform="translate(283.544922 0)"/>
       <use xlink:href="#Arimo-Regular-6f" transform="translate(305.761719 0)"/>
       <use xlink:href="#Arimo-Regular-72" transform="translate(361.376953 0)"/>
       <use xlink:href="#Arimo-Regular-61" transform="translate(394.677734 0)"/>
       <use xlink:href="#Arimo-Regular-6c" transform="translate(450.292969 0)"/>
       <use xlink:href="#Arimo-Regular-20" transform="translate(472.509766 0)"/>
       <use xlink:href="#Arimo-Regular-49" transform="translate(500.292969 0)"/>
       <use xlink:href="#Arimo-Regular-6e" transform="translate(528.076172 0)"/>
       <use xlink:href="#Arimo-Regular-68" transform="translate(583.691406 0)"/>
       <use xlink:href="#Arimo-Regular-69" transform="translate(639.306641 0)"/>
       <use xlink:href="#Arimo-Regular-62" transform="translate(661.523438 0)"/>
       <use xlink:href="#Arimo-Regular-69" transform="translate(717.138672 0)"/>
       <use xlink:href="#Arimo-Regular-74" transform="translate(739.355469 0)"/>
       <use xlink:href="#Arimo-Regular-69" transform="translate(767.138672 0)"/>
       <use xlink:href="#Arimo-Regular-6f" transform="translate(789.355469 0)"/>
       <use xlink:href="#Arimo-Regular-6e" transform="translate(844.970703 0)"/>
      </g>
     </g>
    </g>
    <g id="ytick_5">
     <g id="line2d_10">
      <g>
       <use xlink:href="#m5f3b5961bc" x="169.046562" y="260.233333" style="stroke: #000000; stroke-width: 0.8"/>
      </g>
     </g>
     <g id="text_11">
      <!-- Agreeableness -->
      <g transform="translate(68.653437 265.306146) scale(0.14 -0.14)">
       <defs>
        <path id="Arimo-Regular-41" d="M 1138 1288 
L 631 0 
L 13 0 
L 1809 4403 
L 2488 4403 
L 4256 0 
L 3647 0 
L 3144 1288 
L 1138 1288 
z
M 2141 3953 
Q 2088 3778 2014 3564 
Q 1941 3350 1878 3188 
L 1319 1753 
L 2966 1753 
L 2400 3206 
Q 2356 3316 2284 3516 
Q 2213 3716 2141 3953 
z
" transform="scale(0.015625)"/>
        <path id="Arimo-Regular-67" d="M 1713 -1328 
Q 1159 -1328 831 -1111 
Q 503 -894 409 -494 
L 975 -413 
Q 1031 -647 1223 -773 
Q 1416 -900 1728 -900 
Q 2147 -900 2358 -653 
Q 2569 -406 2569 84 
L 2569 628 
L 2563 628 
Q 2403 303 2125 139 
Q 1847 -25 1475 -25 
Q 853 -25 561 387 
Q 269 800 269 1684 
Q 269 2581 583 3007 
Q 897 3434 1538 3434 
Q 1897 3434 2161 3270 
Q 2425 3106 2569 2803 
L 2575 2803 
Q 2575 2866 2581 2998 
Q 2588 3131 2597 3250 
Q 2606 3369 2613 3381 
L 3147 3381 
Q 3128 3213 3128 2681 
L 3128 97 
Q 3128 -616 2775 -972 
Q 2422 -1328 1713 -1328 
z
M 2569 1691 
Q 2569 2306 2317 2661 
Q 2066 3016 1675 3016 
Q 1244 3016 1047 2703 
Q 850 2391 850 1691 
Q 850 997 1034 694 
Q 1219 391 1666 391 
Q 2066 391 2317 739 
Q 2569 1088 2569 1691 
z
" transform="scale(0.015625)"/>
       </defs>
       <use xlink:href="#Arimo-Regular-41"/>
       <use xlink:href="#Arimo-Regular-67" transform="translate(66.699219 0)"/>
       <use xlink:href="#Arimo-Regular-72" transform="translate(122.314453 0)"/>
       <use xlink:href="#Arimo-Regular-65" transform="translate(155.615234 0)"/>
       <use xlink:href="#Arimo-Regular-65" transform="translate(211.230469 0)"/>
       <use xlink:href="#Arimo-Regular-61" transform="translate(266.845703 0)"/>
       <use xlink:href="#Arimo-Regular-62" transform="translate(322.460938 0)"/>
       <use xlink:href="#Arimo-Regular-6c" transform="translate(378.076172 0)"/>
       <use xlink:href="#Arimo-Regular-65" transform="translate(400.292969 0)"/>
       <use xlink:href="#Arimo-Regular-6e" transform="translate(455.908203 0)"/>
       <use xlink:href="#Arimo-Regular-65" transform="translate(511.523438 0)"/>
       <use xlink:href="#Arimo-Regular-73" transform="translate(567.138672 0)"/>
       <use xlink:href="#Arimo-Regular-73" transform="translate(617.138672 0)"/>
      </g>
     </g>
    </g>
   </g>
   <g id="LineCollection_1">
    <path d="M 311.538125 57.806667 
L 371.63929 57.806667 
" clip-path="url(#p98df711170)" style="fill: none; stroke: #000000; stroke-width: 1.5"/>
    <path d="M 196.645842 108.413333 
L 259.198875 108.413333 
" clip-path="url(#p98df711170)" style="fill: none; stroke: #000000; stroke-width: 1.5"/>
    <path d="M 246.007577 159.02 
L 310.130925 159.02 
" clip-path="url(#p98df711170)" style="fill: none; stroke: #000000; stroke-width: 1.5"/>
    <path d="M 178.693835 209.626667 
L 248.021794 209.626667 
" clip-path="url(#p98df711170)" style="fill: none; stroke: #000000; stroke-width: 1.5"/>
    <path d="M 277.153922 260.233333 
L 335.406256 260.233333 
" clip-path="url(#p98df711170)" style="fill: none; stroke: #000000; stroke-width: 1.5"/>
   </g>
   <g id="line2d_11">
    <defs>
     <path id="m174d37917d" d="M 0 5 
L 0 -5 
" style="stroke: #000000"/>
    </defs>
    <g clip-path="url(#p98df711170)">
     <use xlink:href="#m174d37917d" x="311.538125" y="57.806667" style="stroke: #000000"/>
     <use xlink:href="#m174d37917d" x="196.645842" y="108.413333" style="stroke: #000000"/>
     <use xlink:href="#m174d37917d" x="246.007577" y="159.02" style="stroke: #000000"/>
     <use xlink:href="#m174d37917d" x="178.693835" y="209.626667" style="stroke: #000000"/>
     <use xlink:href="#m174d37917d" x="277.153922" y="260.233333" style="stroke: #000000"/>
    </g>
   </g>
   <g id="line2d_12">
    <g clip-path="url(#p98df711170)">
     <use xlink:href="#m174d37917d" x="371.63929" y="57.806667" style="stroke: #000000"/>
     <use xlink:href="#m174d37917d" x="259.198875" y="108.413333" style="stroke: #000000"/>
     <use xlink:href="#m174d37917d" x="310.130925" y="159.02" style="stroke: #000000"/>
     <use xlink:href="#m174d37917d" x="248.021794" y="209.626667" style="stroke: #000000"/>
     <use xlink:href="#m174d37917d" x="335.406256" y="260.233333" style="stroke: #000000"/>
    </g>
   </g>
   <g id="line2d_13">
    <path d="M 227.212212 310.84 
L 227.212212 7.2 
" clip-path="url(#p98df711170)" style="fill: none; stroke-dasharray: 3.7,1.6; stroke-dashoffset: 0; stroke: #808080"/>
   </g>
   <g id="line2d_14">
    <defs>
     <path id="m4e89e253cc" d="M -3 3 
L 3 3 
L 3 -3 
L -3 -3 
z
" style="stroke: #000000; stroke-linejoin: miter"/>
    </defs>
    <g clip-path="url(#p98df711170)">
     <use xlink:href="#m4e89e253cc" x="341.588707" y="57.806667" style="stroke: #000000; stroke-linejoin: miter"/>
     <use xlink:href="#m4e89e253cc" x="227.922359" y="108.413333" style="stroke: #000000; stroke-linejoin: miter"/>
     <use xlink:href="#m4e89e253cc" x="278.069251" y="159.02" style="stroke: #000000; stroke-linejoin: miter"/>
     <use xlink:href="#m4e89e253cc" x="213.357815" y="209.626667" style="stroke: #000000; stroke-linejoin: miter"/>
     <use xlink:href="#m4e89e253cc" x="306.280089" y="260.233333" style="stroke: #000000; stroke-linejoin: miter"/>
    </g>
   </g>
   <g id="patch_3">
    <path d="M 169.046562 310.84 
L 169.046562 7.2 
" style="fill: none; stroke: #000000; stroke-width: 0.8; stroke-linejoin: miter; stroke-linecap: square"/>
   </g>
  </g>
 </g>
 <defs>
  <clipPath id="p98df711170">
   <rect x="169.046562" y="7.2" width="212.24" height="303.64"/>
  </clipPath>
 </defs>
</svg>
