<?xml version="1.0" encoding="utf-8" standalone="no"?>
<!DOCTYPE svg PUBLIC "-//W3C//DTD SVG 1.1//EN"
  "http://www.w3.org/Graphics/SVG/1.1/DTD/svg11.dtd">
<svg xmlns:xlink="http://www.w3.org/1999/xlink" width="316.628047pt" height="280.897813pt" viewBox="0 0 316.628047 280.897813" xmlns="http://www.w3.org/2000/svg" version="1.1">
 <metadata>
  <rdf:RDF xmlns:dc="http://purl.org/dc/elements/1.1/" xmlns:cc="http://creativecommons.org/ns#" xmlns:rdf="http://www.w3.org/1999/02/22-rdf-syntax-ns#">
   <cc:Work>
    <dc:type rdf:resource="http://purl.org/dc/dcmitype/StillImage"/>
    <dc:date>2025-11-04T00:00:44.215531</dc:date>
    <dc:format>image/svg+xml</dc:format>
    <dc:creator>
     <cc:Agent>
      <dc:title>Matplotlib v3.10.0, https://matplotlib.org/</dc:title>
     </cc:Agent>
    </dc:creator>
   </cc:Work>
  </rdf:RDF>
 </metadata>
 <defs>
  <style type="text/css">*{stroke-linejoin: round; stroke-linecap: butt}</style>
 </defs>
 <g id="figure_1">
  <g id="patch_1">
   <path d="M 0 280.897813 
L 316.628047 280.897813 
L 316.628047 0 
L 0 0 
z
" style="fill: #ffffff"/>
  </g>
  <g id="axes_1">
   <g id="patch_2">
    <path d="M 50.217344 233.8 
L 305.257344 233.8 
L 305.257344 7.2 
L 50.217344 7.2 
z
" style="fill: #ffffff"/>
   </g>
   <g id="PathCollection_1">
    <defs>
     <path id="ma9d1618834" d="M 0 3.872983 
C 1.027127 3.872983 2.012324 3.464901 2.738613 2.738613 
C 3.464901 2.012324 3.872983 1.027127 3.872983 0 
C 3.872983 -1.027127 3.464901 -2.012324 2.738613 -2.738613 
C 2.012324 -3.464901 1.027127 -3.872983 0 -3.872983 
C -1.027127 -3.872983 -2.012324 -3.464901 -2.738613 -2.738613 
C -3.464901 -2.012324 -3.872983 -1.027127 -3.872983 0 
C -3.872983 1.027127 -3.464901 2.012324 -2.738613 2.738613 
C -2.012324 3.464901 -1.027127 3.872983 0 3.872983 
z
" style="stroke: #ffa500; stroke-opacity: 0.8"/>
    </defs>
    <g clip-path="url(#p46c1920942)">
     <use xlink:href="#ma9d1618834" x="183.682922" y="33.61427" style="fill: #ffa500; fill-opacity: 0.8; stroke: #ffa500; stroke-opacity: 0.8"/>
     <use xlink:href="#ma9d1618834" x="138.350947" y="148.90594" style="fill: #ffa500; fill-opacity: 0.8; stroke: #ffa500; stroke-opacity: 0.8"/>
     <use xlink:href="#ma9d1618834" x="242.394996" y="83.225023" style="fill: #ffa500; fill-opacity: 0.8; stroke: #ffa500; stroke-opacity: 0.8"/>
     <use xlink:href="#ma9d1618834" x="91.967006" y="223.5" style="fill: #ffa500; fill-opacity: 0.8; stroke: #ffa500; stroke-opacity: 0.8"/>
     <use xlink:href="#ma9d1618834" x="225.1395" y="53.499721" style="fill: #ffa500; fill-opacity: 0.8; stroke: #ffa500; stroke-opacity: 0.8"/>
     <use xlink:href="#ma9d1618834" x="163.528921" y="83.679927" style="fill: #ffa500; fill-opacity: 0.8; stroke: #ffa500; stroke-opacity: 0.8"/>
     <use xlink:href="#ma9d1618834" x="249.969502" y="66.118468" style="fill: #ffa500; fill-opacity: 0.8; stroke: #ffa500; stroke-opacity: 0.8"/>
     <use xlink:href="#ma9d1618834" x="80.550827" y="164.62312" style="fill: #ffa500; fill-opacity: 0.8; stroke: #ffa500; stroke-opacity: 0.8"/>
     <use xlink:href="#ma9d1618834" x="290.936148" y="53.102552" style="fill: #ffa500; fill-opacity: 0.8; stroke: #ffa500; stroke-opacity: 0.8"/>
     <use xlink:href="#ma9d1618834" x="152.247351" y="187.22815" style="fill: #ffa500; fill-opacity: 0.8; stroke: #ffa500; stroke-opacity: 0.8"/>
     <use xlink:href="#ma9d1618834" x="122.962224" y="166.019271" style="fill: #ffa500; fill-opacity: 0.8; stroke: #ffa500; stroke-opacity: 0.8"/>
     <use xlink:href="#ma9d1618834" x="280.54432" y="47.266789" style="fill: #ffa500; fill-opacity: 0.8; stroke: #ffa500; stroke-opacity: 0.8"/>
     <use xlink:href="#ma9d1618834" x="198.991069" y="64.639559" style="fill: #ffa500; fill-opacity: 0.8; stroke: #ffa500; stroke-opacity: 0.8"/>
     <use xlink:href="#ma9d1618834" x="177.966972" y="115.936918" style="fill: #ffa500; fill-opacity: 0.8; stroke: #ffa500; stroke-opacity: 0.8"/>
     <use xlink:href="#ma9d1618834" x="168.507111" y="150.745332" style="fill: #ffa500; fill-opacity: 0.8; stroke: #ffa500; stroke-opacity: 0.8"/>
     <use xlink:href="#ma9d1618834" x="185.365381" y="134.865696" style="fill: #ffa500; fill-opacity: 0.8; stroke: #ffa500; stroke-opacity: 0.8"/>
     <use xlink:href="#ma9d1618834" x="184.587977" y="133.689012" style="fill: #ffa500; fill-opacity: 0.8; stroke: #ffa500; stroke-opacity: 0.8"/>
     <use xlink:href="#ma9d1618834" x="241.25528" y="53.052831" style="fill: #ffa500; fill-opacity: 0.8; stroke: #ffa500; stroke-opacity: 0.8"/>
     <use xlink:href="#ma9d1618834" x="89.455721" y="164.704635" style="fill: #ffa500; fill-opacity: 0.8; stroke: #ffa500; stroke-opacity: 0.8"/>
     <use xlink:href="#ma9d1618834" x="198.516713" y="124.365189" style="fill: #ffa500; fill-opacity: 0.8; stroke: #ffa500; stroke-opacity: 0.8"/>
     <use xlink:href="#ma9d1618834" x="100.949197" y="193.630697" style="fill: #ffa500; fill-opacity: 0.8; stroke: #ffa500; stroke-opacity: 0.8"/>
     <use xlink:href="#ma9d1618834" x="144.003813" y="79.618103" style="fill: #ffa500; fill-opacity: 0.8; stroke: #ffa500; stroke-opacity: 0.8"/>
     <use xlink:href="#ma9d1618834" x="232.544316" y="43.781188" style="fill: #ffa500; fill-opacity: 0.8; stroke: #ffa500; stroke-opacity: 0.8"/>
     <use xlink:href="#ma9d1618834" x="240.905001" y="61.367327" style="fill: #ffa500; fill-opacity: 0.8; stroke: #ffa500; stroke-opacity: 0.8"/>
     <use xlink:href="#ma9d1618834" x="111.758889" y="146.044197" style="fill: #ffa500; fill-opacity: 0.8; stroke: #ffa500; stroke-opacity: 0.8"/>
     <use xlink:href="#ma9d1618834" x="202.841485" y="132.758871" style="fill: #ffa500; fill-opacity: 0.8; stroke: #ffa500; stroke-opacity: 0.8"/>
     <use xlink:href="#ma9d1618834" x="193.837292" y="79.841422" style="fill: #ffa500; fill-opacity: 0.8; stroke: #ffa500; stroke-opacity: 0.8"/>
     <use xlink:href="#ma9d1618834" x="234.029356" y="30.694523" style="fill: #ffa500; fill-opacity: 0.8; stroke: #ffa500; stroke-opacity: 0.8"/>
     <use xlink:href="#ma9d1618834" x="129.896103" y="165.734049" style="fill: #ffa500; fill-opacity: 0.8; stroke: #ffa500; stroke-opacity: 0.8"/>
     <use xlink:href="#ma9d1618834" x="106.680281" y="197.189982" style="fill: #ffa500; fill-opacity: 0.8; stroke: #ffa500; stroke-opacity: 0.8"/>
     <use xlink:href="#ma9d1618834" x="151.669137" y="151.34488" style="fill: #ffa500; fill-opacity: 0.8; stroke: #ffa500; stroke-opacity: 0.8"/>
     <use xlink:href="#ma9d1618834" x="273.151241" y="74.951899" style="fill: #ffa500; fill-opacity: 0.8; stroke: #ffa500; stroke-opacity: 0.8"/>
     <use xlink:href="#ma9d1618834" x="163.235018" y="157.047564" style="fill: #ffa500; fill-opacity: 0.8; stroke: #ffa500; stroke-opacity: 0.8"/>
     <use xlink:href="#ma9d1618834" x="247.535295" y="37.017732" style="fill: #ffa500; fill-opacity: 0.8; stroke: #ffa500; stroke-opacity: 0.8"/>
     <use xlink:href="#ma9d1618834" x="212.159394" y="125.069513" style="fill: #ffa500; fill-opacity: 0.8; stroke: #ffa500; stroke-opacity: 0.8"/>
     <use xlink:href="#ma9d1618834" x="231.039408" y="93.029953" style="fill: #ffa500; fill-opacity: 0.8; stroke: #ffa500; stroke-opacity: 0.8"/>
     <use xlink:href="#ma9d1618834" x="263.982957" y="58.486066" style="fill: #ffa500; fill-opacity: 0.8; stroke: #ffa500; stroke-opacity: 0.8"/>
     <use xlink:href="#ma9d1618834" x="151.950529" y="106.733801" style="fill: #ffa500; fill-opacity: 0.8; stroke: #ffa500; stroke-opacity: 0.8"/>
     <use xlink:href="#ma9d1618834" x="167.250838" y="150.745332" style="fill: #ffa500; fill-opacity: 0.8; stroke: #ffa500; stroke-opacity: 0.8"/>
     <use xlink:href="#ma9d1618834" x="146.200536" y="138.984091" style="fill: #ffa500; fill-opacity: 0.8; stroke: #ffa500; stroke-opacity: 0.8"/>
     <use xlink:href="#ma9d1618834" x="187.899994" y="101.330192" style="fill: #ffa500; fill-opacity: 0.8; stroke: #ffa500; stroke-opacity: 0.8"/>
     <use xlink:href="#ma9d1618834" x="293.797839" y="46.643496" style="fill: #ffa500; fill-opacity: 0.8; stroke: #ffa500; stroke-opacity: 0.8"/>
     <use xlink:href="#ma9d1618834" x="180.069671" y="138.890889" style="fill: #ffa500; fill-opacity: 0.8; stroke: #ffa500; stroke-opacity: 0.8"/>
     <use xlink:href="#ma9d1618834" x="240.037782" y="85.574389" style="fill: #ffa500; fill-opacity: 0.8; stroke: #ffa500; stroke-opacity: 0.8"/>
     <use xlink:href="#ma9d1618834" x="183.16382" y="77.402427" style="fill: #ffa500; fill-opacity: 0.8; stroke: #ffa500; stroke-opacity: 0.8"/>
     <use xlink:href="#ma9d1618834" x="96.300373" y="203.124086" style="fill: #ffa500; fill-opacity: 0.8; stroke: #ffa500; stroke-opacity: 0.8"/>
     <use xlink:href="#ma9d1618834" x="135.719236" y="89.944041" style="fill: #ffa500; fill-opacity: 0.8; stroke: #ffa500; stroke-opacity: 0.8"/>
     <use xlink:href="#ma9d1618834" x="159.440515" y="145.490464" style="fill: #ffa500; fill-opacity: 0.8; stroke: #ffa500; stroke-opacity: 0.8"/>
     <use xlink:href="#ma9d1618834" x="142.541349" y="102.455468" style="fill: #ffa500; fill-opacity: 0.8; stroke: #ffa500; stroke-opacity: 0.8"/>
     <use xlink:href="#ma9d1618834" x="135.528073" y="177.07359" style="fill: #ffa500; fill-opacity: 0.8; stroke: #ffa500; stroke-opacity: 0.8"/>
     <use xlink:href="#ma9d1618834" x="202.694941" y="186.928095" style="fill: #ffa500; fill-opacity: 0.8; stroke: #ffa500; stroke-opacity: 0.8"/>
     <use xlink:href="#ma9d1618834" x="157.635978" y="107.22515" style="fill: #ffa500; fill-opacity: 0.8; stroke: #ffa500; stroke-opacity: 0.8"/>
     <use xlink:href="#ma9d1618834" x="139.478404" y="56.022294" style="fill: #ffa500; fill-opacity: 0.8; stroke: #ffa500; stroke-opacity: 0.8"/>
     <use xlink:href="#ma9d1618834" x="101.220053" y="150.739511" style="fill: #ffa500; fill-opacity: 0.8; stroke: #ffa500; stroke-opacity: 0.8"/>
     <use xlink:href="#ma9d1618834" x="249.276515" y="99.399516" style="fill: #ffa500; fill-opacity: 0.8; stroke: #ffa500; stroke-opacity: 0.8"/>
     <use xlink:href="#ma9d1618834" x="271.25711" y="80.686303" style="fill: #ffa500; fill-opacity: 0.8; stroke: #ffa500; stroke-opacity: 0.8"/>
     <use xlink:href="#ma9d1618834" x="225.266172" y="85.716923" style="fill: #ffa500; fill-opacity: 0.8; stroke: #ffa500; stroke-opacity: 0.8"/>
     <use xlink:href="#ma9d1618834" x="212.707463" y="46.22595" style="fill: #ffa500; fill-opacity: 0.8; stroke: #ffa500; stroke-opacity: 0.8"/>
     <use xlink:href="#ma9d1618834" x="135.228696" y="94.031419" style="fill: #ffa500; fill-opacity: 0.8; stroke: #ffa500; stroke-opacity: 0.8"/>
     <use xlink:href="#ma9d1618834" x="300.561628" y="19.444168" style="fill: #ffa500; fill-opacity: 0.8; stroke: #ffa500; stroke-opacity: 0.8"/>
     <use xlink:href="#ma9d1618834" x="76.727743" y="192.114192" style="fill: #ffa500; fill-opacity: 0.8; stroke: #ffa500; stroke-opacity: 0.8"/>
     <use xlink:href="#ma9d1618834" x="266.958257" y="104.289039" style="fill: #ffa500; fill-opacity: 0.8; stroke: #ffa500; stroke-opacity: 0.8"/>
     <use xlink:href="#ma9d1618834" x="131.1572" y="119.5688" style="fill: #ffa500; fill-opacity: 0.8; stroke: #ffa500; stroke-opacity: 0.8"/>
     <use xlink:href="#ma9d1618834" x="139.280962" y="172.836395" style="fill: #ffa500; fill-opacity: 0.8; stroke: #ffa500; stroke-opacity: 0.8"/>
     <use xlink:href="#ma9d1618834" x="210.661134" y="80.223416" style="fill: #ffa500; fill-opacity: 0.8; stroke: #ffa500; stroke-opacity: 0.8"/>
     <use xlink:href="#ma9d1618834" x="279.178935" y="26.056666" style="fill: #ffa500; fill-opacity: 0.8; stroke: #ffa500; stroke-opacity: 0.8"/>
     <use xlink:href="#ma9d1618834" x="218.50915" y="60.319282" style="fill: #ffa500; fill-opacity: 0.8; stroke: #ffa500; stroke-opacity: 0.8"/>
     <use xlink:href="#ma9d1618834" x="201.909138" y="70.748406" style="fill: #ffa500; fill-opacity: 0.8; stroke: #ffa500; stroke-opacity: 0.8"/>
     <use xlink:href="#ma9d1618834" x="191.183197" y="95.558966" style="fill: #ffa500; fill-opacity: 0.8; stroke: #ffa500; stroke-opacity: 0.8"/>
     <use xlink:href="#ma9d1618834" x="193.07257" y="41.768872" style="fill: #ffa500; fill-opacity: 0.8; stroke: #ffa500; stroke-opacity: 0.8"/>
     <use xlink:href="#ma9d1618834" x="88.742409" y="219.093883" style="fill: #ffa500; fill-opacity: 0.8; stroke: #ffa500; stroke-opacity: 0.8"/>
     <use xlink:href="#ma9d1618834" x="203.829683" y="191.429801" style="fill: #ffa500; fill-opacity: 0.8; stroke: #ffa500; stroke-opacity: 0.8"/>
     <use xlink:href="#ma9d1618834" x="168.569995" y="92.329688" style="fill: #ffa500; fill-opacity: 0.8; stroke: #ffa500; stroke-opacity: 0.8"/>
     <use xlink:href="#ma9d1618834" x="211.23511" y="94.509992" style="fill: #ffa500; fill-opacity: 0.8; stroke: #ffa500; stroke-opacity: 0.8"/>
     <use xlink:href="#ma9d1618834" x="206.596905" y="32.931045" style="fill: #ffa500; fill-opacity: 0.8; stroke: #ffa500; stroke-opacity: 0.8"/>
     <use xlink:href="#ma9d1618834" x="172.743231" y="59.61393" style="fill: #ffa500; fill-opacity: 0.8; stroke: #ffa500; stroke-opacity: 0.8"/>
     <use xlink:href="#ma9d1618834" x="194.328997" y="150.462211" style="fill: #ffa500; fill-opacity: 0.8; stroke: #ffa500; stroke-opacity: 0.8"/>
     <use xlink:href="#ma9d1618834" x="162.002149" y="146.202597" style="fill: #ffa500; fill-opacity: 0.8; stroke: #ffa500; stroke-opacity: 0.8"/>
     <use xlink:href="#ma9d1618834" x="200.061922" y="71.428566" style="fill: #ffa500; fill-opacity: 0.8; stroke: #ffa500; stroke-opacity: 0.8"/>
     <use xlink:href="#ma9d1618834" x="134.65347" y="97.385498" style="fill: #ffa500; fill-opacity: 0.8; stroke: #ffa500; stroke-opacity: 0.8"/>
     <use xlink:href="#ma9d1618834" x="180.139571" y="85.623763" style="fill: #ffa500; fill-opacity: 0.8; stroke: #ffa500; stroke-opacity: 0.8"/>
     <use xlink:href="#ma9d1618834" x="155.446434" y="134.865696" style="fill: #ffa500; fill-opacity: 0.8; stroke: #ffa500; stroke-opacity: 0.8"/>
     <use xlink:href="#ma9d1618834" x="277.762501" y="85.716923" style="fill: #ffa500; fill-opacity: 0.8; stroke: #ffa500; stroke-opacity: 0.8"/>
     <use xlink:href="#ma9d1618834" x="157.251258" y="108.567372" style="fill: #ffa500; fill-opacity: 0.8; stroke: #ffa500; stroke-opacity: 0.8"/>
     <use xlink:href="#ma9d1618834" x="263.8545" y="86.904708" style="fill: #ffa500; fill-opacity: 0.8; stroke: #ffa500; stroke-opacity: 0.8"/>
     <use xlink:href="#ma9d1618834" x="225.992442" y="73.40355" style="fill: #ffa500; fill-opacity: 0.8; stroke: #ffa500; stroke-opacity: 0.8"/>
     <use xlink:href="#ma9d1618834" x="185.518408" y="99.012844" style="fill: #ffa500; fill-opacity: 0.8; stroke: #ffa500; stroke-opacity: 0.8"/>
     <use xlink:href="#ma9d1618834" x="300.205385" y="26.955821" style="fill: #ffa500; fill-opacity: 0.8; stroke: #ffa500; stroke-opacity: 0.8"/>
     <use xlink:href="#ma9d1618834" x="196.461032" y="157.340367" style="fill: #ffa500; fill-opacity: 0.8; stroke: #ffa500; stroke-opacity: 0.8"/>
     <use xlink:href="#ma9d1618834" x="269.966619" y="36.83108" style="fill: #ffa500; fill-opacity: 0.8; stroke: #ffa500; stroke-opacity: 0.8"/>
     <use xlink:href="#ma9d1618834" x="176.198926" y="99.184144" style="fill: #ffa500; fill-opacity: 0.8; stroke: #ffa500; stroke-opacity: 0.8"/>
     <use xlink:href="#ma9d1618834" x="258.779459" y="66.301204" style="fill: #ffa500; fill-opacity: 0.8; stroke: #ffa500; stroke-opacity: 0.8"/>
     <use xlink:href="#ma9d1618834" x="216.179046" y="130.378844" style="fill: #ffa500; fill-opacity: 0.8; stroke: #ffa500; stroke-opacity: 0.8"/>
     <use xlink:href="#ma9d1618834" x="196.17917" y="133.957968" style="fill: #ffa500; fill-opacity: 0.8; stroke: #ffa500; stroke-opacity: 0.8"/>
     <use xlink:href="#ma9d1618834" x="273.71127" y="40.114045" style="fill: #ffa500; fill-opacity: 0.8; stroke: #ffa500; stroke-opacity: 0.8"/>
     <use xlink:href="#ma9d1618834" x="191.095185" y="90.84285" style="fill: #ffa500; fill-opacity: 0.8; stroke: #ffa500; stroke-opacity: 0.8"/>
     <use xlink:href="#ma9d1618834" x="202.781037" y="21.903998" style="fill: #ffa500; fill-opacity: 0.8; stroke: #ffa500; stroke-opacity: 0.8"/>
     <use xlink:href="#ma9d1618834" x="130.295029" y="84.730946" style="fill: #ffa500; fill-opacity: 0.8; stroke: #ffa500; stroke-opacity: 0.8"/>
     <use xlink:href="#ma9d1618834" x="287.107088" y="42.227018" style="fill: #ffa500; fill-opacity: 0.8; stroke: #ffa500; stroke-opacity: 0.8"/>
     <use xlink:href="#ma9d1618834" x="271.930162" y="17.5" style="fill: #ffa500; fill-opacity: 0.8; stroke: #ffa500; stroke-opacity: 0.8"/>
    </g>
   </g>
   <g id="FillBetweenPolyCollection_1">
    <path d="M 76.727743 162.618919 
L 76.727743 192.529612 
L 78.988691 190.802465 
L 81.249639 189.106205 
L 83.510588 187.430394 
L 85.771536 185.783601 
L 88.032484 184.128385 
L 90.293433 182.432485 
L 92.554381 180.762091 
L 94.815329 179.119609 
L 97.076278 177.47665 
L 99.337226 175.83353 
L 101.598174 174.190298 
L 103.859123 172.547029 
L 106.120071 170.90329 
L 108.381019 169.237458 
L 110.641968 167.570635 
L 112.902916 165.903172 
L 115.163864 164.203924 
L 117.424813 162.504675 
L 119.685761 160.804566 
L 121.946709 159.092925 
L 124.207658 157.406692 
L 126.468606 155.712746 
L 128.729554 154.00687 
L 130.990503 152.33134 
L 133.251451 150.680091 
L 135.512399 149.024055 
L 137.773348 147.430481 
L 140.034296 145.836907 
L 142.295244 144.243334 
L 144.556193 142.661302 
L 146.817141 141.060332 
L 149.078089 139.464329 
L 151.339038 137.874464 
L 153.599986 136.273402 
L 155.860934 134.628967 
L 158.121883 133.062662 
L 160.382831 131.444107 
L 162.643779 129.827943 
L 164.904728 128.19399 
L 167.165676 126.699193 
L 169.426624 125.113791 
L 171.687573 123.524974 
L 173.948521 121.970905 
L 176.209469 120.464781 
L 178.470418 118.956698 
L 180.731366 117.379523 
L 182.992314 115.80195 
L 185.253263 114.297824 
L 187.514211 112.726843 
L 189.775159 111.126673 
L 192.036108 109.67417 
L 194.297056 108.230355 
L 196.558004 106.78654 
L 198.818953 105.263624 
L 201.079901 103.743845 
L 203.340849 102.287792 
L 205.601798 100.755747 
L 207.862746 99.217334 
L 210.123694 97.680985 
L 212.384643 96.220658 
L 214.645591 94.805924 
L 216.906539 93.450988 
L 219.167488 92.139729 
L 221.428436 90.735307 
L 223.689384 89.2932 
L 225.950333 87.90069 
L 228.211281 86.444464 
L 230.472229 84.958364 
L 232.733178 83.599325 
L 234.994126 82.208537 
L 237.255074 80.825623 
L 239.516023 79.479069 
L 241.776971 78.045642 
L 244.037919 76.666195 
L 246.298868 75.307548 
L 248.559816 73.927954 
L 250.820764 72.557252 
L 253.081713 71.237481 
L 255.342661 69.879164 
L 257.603609 68.470142 
L 259.864558 67.166841 
L 262.125506 65.815117 
L 264.386454 64.578592 
L 266.647403 63.221264 
L 268.908351 61.832421 
L 271.169299 60.4324 
L 273.430248 59.130369 
L 275.691196 57.787398 
L 277.952144 56.454897 
L 280.213093 55.201011 
L 282.474041 53.947125 
L 284.734989 52.693599 
L 286.995938 51.439061 
L 289.256886 50.177265 
L 291.517834 48.88589 
L 293.778783 47.467843 
L 296.039731 46.205168 
L 298.300679 44.942494 
L 300.561628 43.67982 
L 300.561628 20.782889 
L 300.561628 20.782889 
L 298.300679 22.376998 
L 296.039731 24.005971 
L 293.778783 25.608112 
L 291.517834 27.150692 
L 289.256886 28.799116 
L 286.995938 30.517464 
L 284.734989 32.155139 
L 282.474041 33.731217 
L 280.213093 35.4158 
L 277.952144 37.046131 
L 275.691196 38.676462 
L 273.430248 40.32767 
L 271.169299 42.046774 
L 268.908351 43.685519 
L 266.647403 45.413698 
L 264.386454 47.109089 
L 262.125506 48.80448 
L 259.864558 50.442244 
L 257.603609 51.994012 
L 255.342661 53.604869 
L 253.081713 55.144994 
L 250.820764 56.736646 
L 248.559816 58.379384 
L 246.298868 59.966272 
L 244.037919 61.496308 
L 241.776971 63.070107 
L 239.516023 64.67653 
L 237.255074 66.210094 
L 234.994126 67.814555 
L 232.733178 69.274094 
L 230.472229 71.005675 
L 228.211281 72.556154 
L 225.950333 74.025969 
L 223.689384 75.563859 
L 221.428436 77.008422 
L 219.167488 78.46566 
L 216.906539 79.995262 
L 214.645591 81.341486 
L 212.384643 82.819886 
L 210.123694 84.360151 
L 207.862746 85.945965 
L 205.601798 87.412362 
L 203.340849 88.824189 
L 201.079901 90.202772 
L 198.818953 91.667086 
L 196.558004 92.975751 
L 194.297056 94.321008 
L 192.036108 95.722698 
L 189.775159 97.12841 
L 187.514211 98.479321 
L 185.253263 99.8679 
L 182.992314 101.398579 
L 180.731366 102.753276 
L 178.470418 104.017235 
L 176.209469 105.500233 
L 173.948521 106.986781 
L 171.687573 108.351809 
L 169.426624 109.671948 
L 167.165676 111.030937 
L 164.904728 112.333056 
L 162.643779 113.609404 
L 160.382831 114.864523 
L 158.121883 116.130403 
L 155.860934 117.391965 
L 153.599986 118.740534 
L 151.339038 120.083181 
L 149.078089 121.439629 
L 146.817141 122.625236 
L 144.556193 123.898154 
L 142.295244 125.223924 
L 140.034296 126.513213 
L 137.773348 127.836823 
L 135.512399 129.167002 
L 133.251451 130.508945 
L 130.990503 131.850888 
L 128.729554 133.165217 
L 126.468606 134.430326 
L 124.207658 135.695436 
L 121.946709 137.011287 
L 119.685761 138.249042 
L 117.424813 139.490655 
L 115.163864 140.848113 
L 112.902916 142.205602 
L 110.641968 143.563092 
L 108.381019 144.870755 
L 106.120071 146.023279 
L 103.859123 147.175803 
L 101.598174 148.328327 
L 99.337226 149.597395 
L 97.076278 150.887607 
L 94.815329 152.151773 
L 92.554381 153.429314 
L 90.293433 154.725922 
L 88.032484 156.055616 
L 85.771536 157.385311 
L 83.510588 158.715005 
L 81.249639 160.044699 
L 78.988691 161.355914 
L 76.727743 162.618919 
z
" clip-path="url(#p46c1920942)" style="fill: #ffa500; fill-opacity: 0.15"/>
   </g>
   <g id="matplotlib.axis_1">
    <g id="xtick_1">
     <g id="line2d_1">
      <defs>
       <path id="mc7c50b87d8" d="M 0 0 
L 0 3.5 
" style="stroke: #000000; stroke-width: 0.8"/>
      </defs>
      <g>
       <use xlink:href="#mc7c50b87d8" x="78.555122" y="233.8" style="stroke: #000000; stroke-width: 0.8"/>
      </g>
     </g>
     <g id="text_1">
      <!-- −2 -->
      <g transform="translate(70.00395 251.670313) scale(0.15 -0.15)">
       <defs>
        <path id="Arimo-Regular-2212" d="M 3425 2356 
L 3425 1900 
L 316 1900 
L 316 2356 
L 3425 2356 
z
" transform="scale(0.015625)"/>
        <path id="Arimo-Regular-32" d="M 3238 478 
L 3238 0 
L 322 0 
L 322 397 
Q 481 763 707 1044 
Q 934 1325 1190 1550 
Q 1447 1775 1697 1969 
Q 1822 2066 1933 2162 
Q 2044 2259 2144 2356 
Q 2344 2550 2467 2762 
Q 2591 2975 2591 3244 
Q 2591 3606 2378 3806 
Q 2166 4006 1788 4006 
Q 1428 4006 1195 3811 
Q 963 3616 922 3263 
L 347 3316 
Q 409 3844 795 4156 
Q 1181 4469 1788 4469 
Q 2453 4469 2811 4155 
Q 3169 3841 3169 3263 
Q 3169 3006 3051 2753 
Q 2934 2500 2703 2247 
Q 2588 2122 2366 1925 
Q 2144 1728 1819 1463 
Q 1459 1169 1246 933 
Q 1034 697 941 478 
L 3238 478 
z
" transform="scale(0.015625)"/>
       </defs>
       <use xlink:href="#Arimo-Regular-2212"/>
       <use xlink:href="#Arimo-Regular-32" transform="translate(58.398438 0)"/>
      </g>
     </g>
    </g>
    <g id="xtick_2">
     <g id="line2d_2">
      <g>
       <use xlink:href="#mc7c50b87d8" x="135.230677" y="233.8" style="stroke: #000000; stroke-width: 0.8"/>
      </g>
     </g>
     <g id="text_2">
      <!-- −1 -->
      <g transform="translate(126.679505 251.670313) scale(0.15 -0.15)">
       <defs>
        <path id="Arimo-Regular-31" d="M 3247 478 
L 3247 0 
L 488 0 
L 488 478 
L 1609 478 
L 1609 3866 
L 616 3156 
L 616 3688 
L 1656 4403 
L 2175 4403 
L 2175 478 
L 3247 478 
z
" transform="scale(0.015625)"/>
       </defs>
       <use xlink:href="#Arimo-Regular-2212"/>
       <use xlink:href="#Arimo-Regular-31" transform="translate(58.398438 0)"/>
      </g>
     </g>
    </g>
    <g id="xtick_3">
     <g id="line2d_3">
      <g>
       <use xlink:href="#mc7c50b87d8" x="191.906233" y="233.8" style="stroke: #000000; stroke-width: 0.8"/>
      </g>
     </g>
     <g id="text_3">
      <!-- 0 -->
      <g transform="translate(187.73553 251.670313) scale(0.15 -0.15)">
       <defs>
        <path id="Arimo-Regular-30" d="M 3309 2203 
Q 3309 1100 2920 518 
Q 2531 -63 1772 -63 
Q 1013 -63 631 515 
Q 250 1094 250 2203 
Q 250 3338 620 3903 
Q 991 4469 1791 4469 
Q 2569 4469 2939 3897 
Q 3309 3325 3309 2203 
z
M 2738 2203 
Q 2738 2841 2642 3239 
Q 2547 3638 2337 3825 
Q 2128 4013 1791 4013 
Q 1447 4013 1231 3828 
Q 1016 3644 917 3245 
Q 819 2847 819 2203 
Q 819 1578 920 1178 
Q 1022 778 1234 587 
Q 1447 397 1778 397 
Q 2275 397 2506 840 
Q 2738 1284 2738 2203 
z
" transform="scale(0.015625)"/>
       </defs>
       <use xlink:href="#Arimo-Regular-30"/>
      </g>
     </g>
    </g>
    <g id="xtick_4">
     <g id="line2d_4">
      <g>
       <use xlink:href="#mc7c50b87d8" x="248.581788" y="233.8" style="stroke: #000000; stroke-width: 0.8"/>
      </g>
     </g>
     <g id="text_4">
      <!-- 1 -->
      <g transform="translate(244.411085 251.670313) scale(0.15 -0.15)">
       <use xlink:href="#Arimo-Regular-31"/>
      </g>
     </g>
    </g>
    <g id="xtick_5">
     <g id="line2d_5">
      <g>
       <use xlink:href="#mc7c50b87d8" x="305.257344" y="233.8" style="stroke: #000000; stroke-width: 0.8"/>
      </g>
     </g>
     <g id="text_5">
      <!-- 2 -->
      <g transform="translate(301.086641 251.670313) scale(0.15 -0.15)">
       <use xlink:href="#Arimo-Regular-32"/>
      </g>
     </g>
    </g>
    <g id="text_6">
     <!-- Both Benefit -->
     <g transform="translate(134.153594 270.377813) scale(0.16 -0.16)">
      <defs>
       <path id="Arimo-Regular-42" d="M 3931 1241 
Q 3931 653 3503 326 
Q 3075 0 2313 0 
L 525 0 
L 525 4403 
L 2125 4403 
Q 2900 4403 3287 4136 
Q 3675 3869 3675 3334 
Q 3675 2944 3456 2678 
Q 3238 2413 2838 2322 
Q 3363 2259 3647 1970 
Q 3931 1681 3931 1241 
z
M 3075 3263 
Q 3075 3619 2831 3772 
Q 2588 3925 2125 3925 
L 1122 3925 
L 1122 2531 
L 2125 2531 
Q 2603 2531 2839 2711 
Q 3075 2891 3075 3263 
z
M 3328 1288 
Q 3328 2066 2234 2066 
L 1122 2066 
L 1122 478 
L 2281 478 
Q 2828 478 3078 681 
Q 3328 884 3328 1288 
z
" transform="scale(0.015625)"/>
       <path id="Arimo-Regular-6f" d="M 3291 1694 
Q 3291 806 2900 371 
Q 2509 -63 1766 -63 
Q 1025 -63 647 389 
Q 269 841 269 1694 
Q 269 2569 648 3006 
Q 1028 3444 1784 3444 
Q 2559 3444 2925 3017 
Q 3291 2591 3291 1694 
z
M 2700 1694 
Q 2700 2394 2492 2711 
Q 2284 3028 1794 3028 
Q 1300 3028 1079 2704 
Q 859 2381 859 1694 
Q 859 1025 1076 689 
Q 1294 353 1759 353 
Q 2266 353 2483 678 
Q 2700 1003 2700 1694 
z
" transform="scale(0.015625)"/>
       <path id="Arimo-Regular-74" d="M 1731 25 
Q 1456 -50 1163 -50 
Q 825 -50 656 142 
Q 488 334 488 716 
L 488 2972 
L 97 2972 
L 97 3381 
L 509 3381 
L 675 4138 
L 1050 4138 
L 1050 3381 
L 1675 3381 
L 1675 2972 
L 1050 2972 
L 1050 838 
Q 1050 594 1129 495 
Q 1209 397 1406 397 
Q 1513 397 1731 441 
L 1731 25 
z
" transform="scale(0.015625)"/>
       <path id="Arimo-Regular-68" d="M 991 2803 
Q 1172 3134 1426 3289 
Q 1681 3444 2072 3444 
Q 2622 3444 2883 3158 
Q 3144 2872 3144 2253 
L 3144 0 
L 2578 0 
L 2578 2144 
Q 2578 2603 2417 2806 
Q 2256 3009 1881 3009 
Q 1484 3009 1245 2734 
Q 1006 2459 1006 1994 
L 1006 0 
L 444 0 
L 444 4638 
L 1006 4638 
L 1006 3431 
Q 1006 3306 1000 3167 
Q 994 3028 989 2926 
Q 984 2825 981 2803 
L 991 2803 
z
" transform="scale(0.015625)"/>
       <path id="Arimo-Regular-20" transform="scale(0.015625)"/>
       <path id="Arimo-Regular-65" d="M 863 1572 
Q 863 991 1103 675 
Q 1344 359 1806 359 
Q 2172 359 2392 506 
Q 2613 653 2691 878 
L 3184 738 
Q 2881 -63 1806 -63 
Q 1056 -63 664 384 
Q 272 831 272 1713 
Q 272 2550 664 2997 
Q 1056 3444 1784 3444 
Q 2531 3444 2903 2994 
Q 3275 2544 3275 1647 
L 3275 1572 
L 863 1572 
z
M 2694 2003 
Q 2647 2538 2422 2783 
Q 2197 3028 1775 3028 
Q 1366 3028 1127 2754 
Q 888 2481 869 2003 
L 2694 2003 
z
" transform="scale(0.015625)"/>
       <path id="Arimo-Regular-6e" d="M 1006 1959 
L 1006 0 
L 444 0 
L 444 2659 
Q 444 2956 439 3136 
Q 434 3316 425 3381 
L 956 3381 
Q 963 3322 967 3231 
Q 972 3141 975 3031 
Q 978 2922 981 2803 
L 991 2803 
Q 1184 3153 1439 3298 
Q 1694 3444 2072 3444 
Q 2628 3444 2886 3159 
Q 3144 2875 3144 2253 
L 3144 0 
L 2578 0 
L 2578 2144 
Q 2578 2628 2422 2818 
Q 2266 3009 1881 3009 
Q 1475 3009 1240 2731 
Q 1006 2453 1006 1959 
z
" transform="scale(0.015625)"/>
       <path id="Arimo-Regular-66" d="M 1128 2972 
L 1128 0 
L 566 0 
L 566 2972 
L 91 2972 
L 91 3381 
L 566 3381 
L 566 3763 
Q 566 4225 769 4428 
Q 972 4631 1391 4631 
Q 1625 4631 1788 4594 
L 1788 4166 
Q 1638 4191 1538 4191 
Q 1322 4191 1225 4081 
Q 1128 3972 1128 3684 
L 1128 3381 
L 1788 3381 
L 1788 2972 
L 1128 2972 
z
" transform="scale(0.015625)"/>
       <path id="Arimo-Regular-69" d="M 991 4638 
L 991 4100 
L 428 4100 
L 428 4638 
L 991 4638 
z
M 991 3381 
L 991 0 
L 428 0 
L 428 3381 
L 991 3381 
z
" transform="scale(0.015625)"/>
      </defs>
      <use xlink:href="#Arimo-Regular-42"/>
      <use xlink:href="#Arimo-Regular-6f" transform="translate(66.699219 0)"/>
      <use xlink:href="#Arimo-Regular-74" transform="translate(122.314453 0)"/>
      <use xlink:href="#Arimo-Regular-68" transform="translate(150.097656 0)"/>
      <use xlink:href="#Arimo-Regular-20" transform="translate(205.712891 0)"/>
      <use xlink:href="#Arimo-Regular-42" transform="translate(233.496094 0)"/>
      <use xlink:href="#Arimo-Regular-65" transform="translate(300.195312 0)"/>
      <use xlink:href="#Arimo-Regular-6e" transform="translate(355.810547 0)"/>
      <use xlink:href="#Arimo-Regular-65" transform="translate(411.425781 0)"/>
      <use xlink:href="#Arimo-Regular-66" transform="translate(467.041016 0)"/>
      <use xlink:href="#Arimo-Regular-69" transform="translate(494.824219 0)"/>
      <use xlink:href="#Arimo-Regular-74" transform="translate(517.041016 0)"/>
     </g>
    </g>
   </g>
   <g id="matplotlib.axis_2">
    <g id="ytick_1">
     <g id="line2d_6">
      <defs>
       <path id="mac311bbfe1" d="M 0 0 
L -3.5 0 
" style="stroke: #000000; stroke-width: 0.8"/>
      </defs>
      <g>
       <use xlink:href="#mac311bbfe1" x="50.217344" y="213.997719" style="stroke: #000000; stroke-width: 0.8"/>
      </g>
     </g>
     <g id="text_7">
      <!-- −2 -->
      <g transform="translate(26.115 219.432875) scale(0.15 -0.15)">
       <use xlink:href="#Arimo-Regular-2212"/>
       <use xlink:href="#Arimo-Regular-32" transform="translate(58.398438 0)"/>
      </g>
     </g>
    </g>
    <g id="ytick_2">
     <g id="line2d_7">
      <g>
       <use xlink:href="#mac311bbfe1" x="50.217344" y="182.521412" style="stroke: #000000; stroke-width: 0.8"/>
      </g>
     </g>
     <g id="text_8">
      <!-- −1 -->
      <g transform="translate(26.115 187.956569) scale(0.15 -0.15)">
       <use xlink:href="#Arimo-Regular-2212"/>
       <use xlink:href="#Arimo-Regular-31" transform="translate(58.398438 0)"/>
      </g>
     </g>
    </g>
    <g id="ytick_3">
     <g id="line2d_8">
      <g>
       <use xlink:href="#mac311bbfe1" x="50.217344" y="151.045106" style="stroke: #000000; stroke-width: 0.8"/>
      </g>
     </g>
     <g id="text_9">
      <!-- 0 -->
      <g transform="translate(34.875938 156.480262) scale(0.15 -0.15)">
       <use xlink:href="#Arimo-Regular-30"/>
      </g>
     </g>
    </g>
    <g id="ytick_4">
     <g id="line2d_9">
      <g>
       <use xlink:href="#mac311bbfe1" x="50.217344" y="119.5688" style="stroke: #000000; stroke-width: 0.8"/>
      </g>
     </g>
     <g id="text_10">
      <!-- 1 -->
      <g transform="translate(34.875938 125.003956) scale(0.15 -0.15)">
       <use xlink:href="#Arimo-Regular-31"/>
      </g>
     </g>
    </g>
    <g id="ytick_5">
     <g id="line2d_10">
      <g>
       <use xlink:href="#mac311bbfe1" x="50.217344" y="88.092493" style="stroke: #000000; stroke-width: 0.8"/>
      </g>
     </g>
     <g id="text_11">
      <!-- 2 -->
      <g transform="translate(34.875938 93.527649) scale(0.15 -0.15)">
       <use xlink:href="#Arimo-Regular-32"/>
      </g>
     </g>
    </g>
    <g id="ytick_6">
     <g id="line2d_11">
      <g>
       <use xlink:href="#mac311bbfe1" x="50.217344" y="56.616187" style="stroke: #000000; stroke-width: 0.8"/>
      </g>
     </g>
     <g id="text_12">
      <!-- 3 -->
      <g transform="translate(34.875938 62.051343) scale(0.15 -0.15)">
       <defs>
        <path id="Arimo-Regular-33" d="M 3278 1216 
Q 3278 606 2890 271 
Q 2503 -63 1784 -63 
Q 1116 -63 717 239 
Q 319 541 244 1131 
L 825 1184 
Q 938 403 1784 403 
Q 2209 403 2451 612 
Q 2694 822 2694 1234 
Q 2694 1594 2417 1795 
Q 2141 1997 1619 1997 
L 1300 1997 
L 1300 2484 
L 1606 2484 
Q 2069 2484 2323 2686 
Q 2578 2888 2578 3244 
Q 2578 3597 2370 3801 
Q 2163 4006 1753 4006 
Q 1381 4006 1151 3815 
Q 922 3625 884 3278 
L 319 3322 
Q 381 3863 767 4166 
Q 1153 4469 1759 4469 
Q 2422 4469 2789 4161 
Q 3156 3853 3156 3303 
Q 3156 2881 2920 2617 
Q 2684 2353 2234 2259 
L 2234 2247 
Q 2728 2194 3003 1916 
Q 3278 1638 3278 1216 
z
" transform="scale(0.015625)"/>
       </defs>
       <use xlink:href="#Arimo-Regular-33"/>
      </g>
     </g>
    </g>
    <g id="ytick_7">
     <g id="line2d_12">
      <g>
       <use xlink:href="#mac311bbfe1" x="50.217344" y="25.13988" style="stroke: #000000; stroke-width: 0.8"/>
      </g>
     </g>
     <g id="text_13">
      <!-- 4 -->
      <g transform="translate(34.875938 30.575036) scale(0.15 -0.15)">
       <defs>
        <path id="Arimo-Regular-34" d="M 2753 997 
L 2753 0 
L 2222 0 
L 2222 997 
L 147 997 
L 147 1434 
L 2163 4403 
L 2753 4403 
L 2753 1441 
L 3372 1441 
L 3372 997 
L 2753 997 
z
M 666 1441 
L 2222 1441 
L 2222 3197 
Q 2222 3341 2223 3483 
Q 2225 3625 2234 3769 
Q 2163 3631 2109 3545 
Q 2056 3459 2013 3397 
L 666 1441 
z
" transform="scale(0.015625)"/>
       </defs>
       <use xlink:href="#Arimo-Regular-34"/>
      </g>
     </g>
    </g>
    <g id="text_14">
     <!-- Willingness To Help -->
     <g transform="translate(18.795 191.18875) rotate(-90) scale(0.16 -0.16)">
      <defs>
       <path id="Arimo-Regular-57" d="M 2803 2781 
L 2038 0 
L 1325 0 
L 28 4403 
L 650 4403 
L 1441 1606 
Q 1513 1344 1577 1073 
Q 1641 803 1700 525 
Q 1725 641 1767 830 
Q 1809 1019 1856 1216 
Q 1903 1413 1941 1547 
L 2741 4403 
L 3313 4403 
L 4078 1663 
Q 4166 1328 4234 1042 
Q 4303 756 4353 525 
Q 4400 709 4451 923 
Q 4503 1138 4548 1314 
Q 4594 1491 4613 1566 
L 5397 4403 
L 6019 4403 
L 4722 0 
L 4009 0 
L 3247 2797 
Q 3209 2928 3154 3162 
Q 3100 3397 3028 3738 
Q 3000 3572 2954 3380 
Q 2909 3188 2867 3025 
Q 2825 2863 2803 2781 
z
" transform="scale(0.015625)"/>
       <path id="Arimo-Regular-6c" d="M 994 4638 
L 994 0 
L 431 0 
L 431 4638 
L 994 4638 
z
" transform="scale(0.015625)"/>
       <path id="Arimo-Regular-67" d="M 1713 -1328 
Q 1159 -1328 831 -1111 
Q 503 -894 409 -494 
L 975 -413 
Q 1031 -647 1223 -773 
Q 1416 -900 1728 -900 
Q 2147 -900 2358 -653 
Q 2569 -406 2569 84 
L 2569 628 
L 2563 628 
Q 2403 303 2125 139 
Q 1847 -25 1475 -25 
Q 853 -25 561 387 
Q 269 800 269 1684 
Q 269 2581 583 3007 
Q 897 3434 1538 3434 
Q 1897 3434 2161 3270 
Q 2425 3106 2569 2803 
L 2575 2803 
Q 2575 2866 2581 2998 
Q 2588 3131 2597 3250 
Q 2606 3369 2613 3381 
L 3147 3381 
Q 3128 3213 3128 2681 
L 3128 97 
Q 3128 -616 2775 -972 
Q 2422 -1328 1713 -1328 
z
M 2569 1691 
Q 2569 2306 2317 2661 
Q 2066 3016 1675 3016 
Q 1244 3016 1047 2703 
Q 850 2391 850 1691 
Q 850 997 1034 694 
Q 1219 391 1666 391 
Q 2066 391 2317 739 
Q 2569 1088 2569 1691 
z
" transform="scale(0.015625)"/>
       <path id="Arimo-Regular-73" d="M 2969 934 
Q 2969 456 2608 196 
Q 2247 -63 1597 -63 
Q 966 -63 623 145 
Q 281 353 178 794 
L 675 891 
Q 747 619 972 492 
Q 1197 366 1597 366 
Q 2025 366 2223 497 
Q 2422 628 2422 891 
Q 2422 1091 2284 1216 
Q 2147 1341 1841 1422 
Q 1478 1519 1264 1581 
Q 1050 1644 934 1689 
Q 819 1734 750 1775 
Q 544 1894 428 2066 
Q 313 2238 313 2488 
Q 313 2950 642 3192 
Q 972 3434 1603 3434 
Q 2163 3434 2492 3237 
Q 2822 3041 2909 2606 
L 2403 2544 
Q 2356 2769 2151 2889 
Q 1947 3009 1603 3009 
Q 1222 3009 1040 2893 
Q 859 2778 859 2544 
Q 859 2372 962 2261 
Q 1066 2150 1356 2078 
Q 1747 1984 2100 1873 
Q 2453 1763 2606 1653 
Q 2784 1525 2876 1351 
Q 2969 1178 2969 934 
z
" transform="scale(0.015625)"/>
       <path id="Arimo-Regular-54" d="M 2250 3916 
L 2250 0 
L 1656 0 
L 1656 3916 
L 144 3916 
L 144 4403 
L 3763 4403 
L 3763 3916 
L 2250 3916 
z
" transform="scale(0.015625)"/>
       <path id="Arimo-Regular-48" d="M 1122 2041 
L 1122 0 
L 525 0 
L 525 4403 
L 1122 4403 
L 1122 2541 
L 3503 2541 
L 3503 4403 
L 4100 4403 
L 4100 0 
L 3503 0 
L 3503 2041 
L 1122 2041 
z
" transform="scale(0.015625)"/>
       <path id="Arimo-Regular-70" d="M 3291 1706 
Q 3291 822 2980 379 
Q 2669 -63 2047 -63 
Q 1266 -63 997 525 
L 981 525 
Q 994 503 994 -6 
L 994 -1328 
L 431 -1328 
L 431 2691 
Q 431 2950 426 3123 
Q 422 3297 413 3381 
L 956 3381 
Q 959 3369 967 3259 
Q 975 3150 981 3023 
Q 988 2897 988 2838 
L 1000 2838 
Q 1150 3150 1397 3295 
Q 1644 3441 2047 3441 
Q 2672 3441 2981 3022 
Q 3291 2603 3291 1706 
z
M 2700 1694 
Q 2700 2400 2509 2703 
Q 2319 3006 1903 3006 
Q 1441 3006 1217 2686 
Q 994 2366 994 1650 
Q 994 984 1206 668 
Q 1419 353 1897 353 
Q 2316 353 2508 661 
Q 2700 969 2700 1694 
z
" transform="scale(0.015625)"/>
      </defs>
      <use xlink:href="#Arimo-Regular-57"/>
      <use xlink:href="#Arimo-Regular-69" transform="translate(94.384766 0)"/>
      <use xlink:href="#Arimo-Regular-6c" transform="translate(116.601562 0)"/>
      <use xlink:href="#Arimo-Regular-6c" transform="translate(138.818359 0)"/>
      <use xlink:href="#Arimo-Regular-69" transform="translate(161.035156 0)"/>
      <use xlink:href="#Arimo-Regular-6e" transform="translate(183.251953 0)"/>
      <use xlink:href="#Arimo-Regular-67" transform="translate(238.867188 0)"/>
      <use xlink:href="#Arimo-Regular-6e" transform="translate(294.482422 0)"/>
      <use xlink:href="#Arimo-Regular-65" transform="translate(350.097656 0)"/>
      <use xlink:href="#Arimo-Regular-73" transform="translate(405.712891 0)"/>
      <use xlink:href="#Arimo-Regular-73" transform="translate(455.712891 0)"/>
      <use xlink:href="#Arimo-Regular-20" transform="translate(505.712891 0)"/>
      <use xlink:href="#Arimo-Regular-54" transform="translate(533.496094 0)"/>
      <use xlink:href="#Arimo-Regular-6f" transform="translate(594.580078 0)"/>
      <use xlink:href="#Arimo-Regular-20" transform="translate(650.195312 0)"/>
      <use xlink:href="#Arimo-Regular-48" transform="translate(677.978516 0)"/>
      <use xlink:href="#Arimo-Regular-65" transform="translate(750.195312 0)"/>
      <use xlink:href="#Arimo-Regular-6c" transform="translate(805.810547 0)"/>
      <use xlink:href="#Arimo-Regular-70" transform="translate(828.027344 0)"/>
     </g>
    </g>
   </g>
   <g id="line2d_13">
    <path d="M 76.727743 178.301511 
L 78.988691 176.825787 
L 81.249639 175.350063 
L 83.510588 173.874339 
L 85.771536 172.398615 
L 88.032484 170.922892 
L 90.293433 169.447168 
L 92.554381 167.971444 
L 94.815329 166.49572 
L 97.076278 165.019996 
L 99.337226 163.544272 
L 101.598174 162.068548 
L 103.859123 160.592825 
L 106.120071 159.117101 
L 108.381019 157.641377 
L 110.641968 156.165653 
L 112.902916 154.689929 
L 115.163864 153.214205 
L 117.424813 151.738481 
L 119.685761 150.262757 
L 121.946709 148.787034 
L 124.207658 147.31131 
L 126.468606 145.835586 
L 128.729554 144.359862 
L 130.990503 142.884138 
L 133.251451 141.408414 
L 135.512399 139.93269 
L 137.773348 138.456967 
L 140.034296 136.981243 
L 142.295244 135.505519 
L 144.556193 134.029795 
L 146.817141 132.554071 
L 149.078089 131.078347 
L 151.339038 129.602623 
L 153.599986 128.1269 
L 155.860934 126.651176 
L 158.121883 125.175452 
L 160.382831 123.699728 
L 162.643779 122.224004 
L 164.904728 120.74828 
L 167.165676 119.272556 
L 169.426624 117.796833 
L 171.687573 116.321109 
L 173.948521 114.845385 
L 176.209469 113.369661 
L 178.470418 111.893937 
L 180.731366 110.418213 
L 182.992314 108.942489 
L 185.253263 107.466766 
L 187.514211 105.991042 
L 189.775159 104.515318 
L 192.036108 103.039594 
L 194.297056 101.56387 
L 196.558004 100.088146 
L 198.818953 98.612422 
L 201.079901 97.136698 
L 203.340849 95.660975 
L 205.601798 94.185251 
L 207.862746 92.709527 
L 210.123694 91.233803 
L 212.384643 89.758079 
L 214.645591 88.282355 
L 216.906539 86.806631 
L 219.167488 85.330908 
L 221.428436 83.855184 
L 223.689384 82.37946 
L 225.950333 80.903736 
L 228.211281 79.428012 
L 230.472229 77.952288 
L 232.733178 76.476564 
L 234.994126 75.000841 
L 237.255074 73.525117 
L 239.516023 72.049393 
L 241.776971 70.573669 
L 244.037919 69.097945 
L 246.298868 67.622221 
L 248.559816 66.146497 
L 250.820764 64.670774 
L 253.081713 63.19505 
L 255.342661 61.719326 
L 257.603609 60.243602 
L 259.864558 58.767878 
L 262.125506 57.292154 
L 264.386454 55.81643 
L 266.647403 54.340707 
L 268.908351 52.864983 
L 271.169299 51.389259 
L 273.430248 49.913535 
L 275.691196 48.437811 
L 277.952144 46.962087 
L 280.213093 45.486363 
L 282.474041 44.01064 
L 284.734989 42.534916 
L 286.995938 41.059192 
L 289.256886 39.583468 
L 291.517834 38.107744 
L 293.778783 36.63202 
L 296.039731 35.156296 
L 298.300679 33.680572 
L 300.561628 32.204849 
" clip-path="url(#p46c1920942)" style="fill: none; stroke: #ffa500; stroke-width: 2.25; stroke-linecap: square"/>
   </g>
   <g id="patch_3">
    <path d="M 50.217344 233.8 
L 50.217344 7.2 
" style="fill: none; stroke: #000000; stroke-width: 0.8; stroke-linejoin: miter; stroke-linecap: square"/>
   </g>
   <g id="patch_4">
    <path d="M 50.217344 233.8 
L 305.257344 233.8 
" style="fill: none; stroke: #000000; stroke-width: 0.8; stroke-linejoin: miter; stroke-linecap: square"/>
   </g>
  </g>
 </g>
 <defs>
  <clipPath id="p46c1920942">
   <rect x="50.217344" y="7.2" width="255.04" height="226.6"/>
  </clipPath>
 </defs>
</svg>
