<?xml version="1.0" encoding="utf-8" standalone="no"?>
<!DOCTYPE svg PUBLIC "-//W3C//DTD SVG 1.1//EN"
  "http://www.w3.org/Graphics/SVG/1.1/DTD/svg11.dtd">
<svg xmlns:xlink="http://www.w3.org/1999/xlink" width="280.328213pt" height="281.617233pt" viewBox="0 0 280.328213 281.617233" xmlns="http://www.w3.org/2000/svg" version="1.1">
 <metadata>
  <rdf:RDF xmlns:dc="http://purl.org/dc/elements/1.1/" xmlns:cc="http://creativecommons.org/ns#" xmlns:rdf="http://www.w3.org/1999/02/22-rdf-syntax-ns#">
   <cc:Work>
    <dc:type rdf:resource="http://purl.org/dc/dcmitype/StillImage"/>
    <dc:date>2025-11-03T23:56:08.888734</dc:date>
    <dc:format>image/svg+xml</dc:format>
    <dc:creator>
     <cc:Agent>
      <dc:title>Matplotlib v3.10.0, https://matplotlib.org/</dc:title>
     </cc:Agent>
    </dc:creator>
   </cc:Work>
  </rdf:RDF>
 </metadata>
 <defs>
  <style type="text/css">*{stroke-linejoin: round; stroke-linecap: butt}</style>
 </defs>
 <g id="figure_1">
  <g id="patch_1">
   <path d="M 0 281.617233 
L 280.328213 281.617233 
L 280.328213 -0 
L 0 -0 
z
" style="fill: #ffffff"/>
  </g>
  <g id="axes_1">
   <g id="patch_2">
    <path d="M 44.9325 183.803951 
L 268.224475 183.803951 
L 268.224475 7.2 
L 44.9325 7.2 
z
" style="fill: #ffffff"/>
   </g>
   <g id="FillBetweenPolyCollection_1">
    <defs>
     <path id="m4dfc5bbb4d" d="M 73.074431 -117.209383 
L 72.613563 -117.209383 
L 72.551897 -117.980545 
L 72.477277 -118.751707 
L 72.387903 -119.522868 
L 72.281924 -120.29403 
L 72.157472 -121.065191 
L 72.012704 -121.836353 
L 71.845846 -122.607515 
L 71.655236 -123.378676 
L 71.439379 -124.149838 
L 71.196992 -124.920999 
L 70.927061 -125.692161 
L 70.628891 -126.463323 
L 70.302165 -127.234484 
L 69.946998 -128.005646 
L 69.563986 -128.776807 
L 69.154249 -129.547969 
L 68.719471 -130.319131 
L 68.261908 -131.090292 
L 67.784389 -131.861454 
L 67.290274 -132.632615 
L 66.783388 -133.403777 
L 66.267916 -134.174939 
L 65.748265 -134.9461 
L 65.228895 -135.717262 
L 64.714126 -136.488423 
L 64.207938 -137.259585 
L 63.713777 -138.030747 
L 63.234377 -138.801908 
L 62.77163 -139.57307 
L 62.326497 -140.344231 
L 61.898994 -141.115393 
L 61.488243 -141.886555 
L 61.092599 -142.657716 
L 60.709842 -143.428878 
L 60.337425 -144.200039 
L 59.972761 -144.971201 
L 59.613534 -145.742363 
L 59.257999 -146.513524 
L 58.905265 -147.284686 
L 58.555522 -148.055847 
L 58.210206 -148.827009 
L 57.872083 -149.598171 
L 57.545234 -150.369332 
L 57.23495 -151.140494 
L 56.947528 -151.911655 
L 56.689984 -152.682817 
L 56.469689 -153.453979 
L 56.293955 -154.22514 
L 56.169592 -154.996302 
L 56.102469 -155.767463 
L 56.097099 -156.538625 
L 56.156282 -157.309787 
L 56.280845 -158.080948 
L 56.469474 -158.85211 
L 56.718679 -159.623271 
L 57.022889 -160.394433 
L 57.374672 -161.165595 
L 57.765072 -161.936756 
L 58.184047 -162.707918 
L 58.620974 -163.479079 
L 59.065195 -164.250241 
L 59.506564 -165.021403 
L 59.93597 -165.792564 
L 60.345791 -166.563726 
L 60.730259 -167.334887 
L 61.085716 -168.106049 
L 61.410748 -168.877211 
L 61.706178 -169.648372 
L 61.974944 -170.419534 
L 62.221846 -171.190695 
L 62.453198 -171.961857 
L 62.676402 -172.733019 
L 62.899454 -173.50418 
L 63.130444 -174.275342 
L 63.377045 -175.046503 
L 63.646048 -175.817665 
L 63.942949 -176.588827 
L 64.271635 -177.359988 
L 64.634159 -178.13115 
L 65.030646 -178.902311 
L 65.459303 -179.673473 
L 65.916552 -180.444635 
L 66.397262 -181.215796 
L 66.895066 -181.986958 
L 67.40273 -182.758119 
L 67.912563 -183.529281 
L 68.416816 -184.300443 
L 68.908074 -185.071604 
L 69.37958 -185.842766 
L 69.825514 -186.613927 
L 70.241179 -187.385089 
L 70.62311 -188.156251 
L 70.96911 -188.927412 
L 71.278198 -189.698574 
L 71.550515 -190.469735 
L 71.787165 -191.240897 
L 71.990043 -192.012059 
L 72.161641 -192.78322 
L 72.304851 -193.554382 
L 73.383142 -193.554382 
L 73.383142 -193.554382 
L 73.526353 -192.78322 
L 73.697951 -192.012059 
L 73.900829 -191.240897 
L 74.137479 -190.469735 
L 74.409795 -189.698574 
L 74.718884 -188.927412 
L 75.064884 -188.156251 
L 75.446815 -187.385089 
L 75.86248 -186.613927 
L 76.308414 -185.842766 
L 76.77992 -185.071604 
L 77.271178 -184.300443 
L 77.775431 -183.529281 
L 78.285263 -182.758119 
L 78.792928 -181.986958 
L 79.290732 -181.215796 
L 79.771442 -180.444635 
L 80.228691 -179.673473 
L 80.657347 -178.902311 
L 81.053834 -178.13115 
L 81.416359 -177.359988 
L 81.745045 -176.588827 
L 82.041946 -175.817665 
L 82.310948 -175.046503 
L 82.55755 -174.275342 
L 82.78854 -173.50418 
L 83.011592 -172.733019 
L 83.234795 -171.961857 
L 83.466148 -171.190695 
L 83.71305 -170.419534 
L 83.981816 -169.648372 
L 84.277246 -168.877211 
L 84.602278 -168.106049 
L 84.957735 -167.334887 
L 85.342203 -166.563726 
L 85.752024 -165.792564 
L 86.18143 -165.021403 
L 86.622799 -164.250241 
L 87.06702 -163.479079 
L 87.503947 -162.707918 
L 87.922922 -161.936756 
L 88.313322 -161.165595 
L 88.665105 -160.394433 
L 88.969315 -159.623271 
L 89.21852 -158.85211 
L 89.407149 -158.080948 
L 89.531711 -157.309787 
L 89.590895 -156.538625 
L 89.585524 -155.767463 
L 89.518402 -154.996302 
L 89.394039 -154.22514 
L 89.218305 -153.453979 
L 88.998009 -152.682817 
L 88.740466 -151.911655 
L 88.453044 -151.140494 
L 88.14276 -150.369332 
L 87.815911 -149.598171 
L 87.477788 -148.827009 
L 87.132472 -148.055847 
L 86.782729 -147.284686 
L 86.429995 -146.513524 
L 86.07446 -145.742363 
L 85.715233 -144.971201 
L 85.350569 -144.200039 
L 84.978152 -143.428878 
L 84.595395 -142.657716 
L 84.199751 -141.886555 
L 83.789 -141.115393 
L 83.361497 -140.344231 
L 82.916364 -139.57307 
L 82.453617 -138.801908 
L 81.974217 -138.030747 
L 81.480056 -137.259585 
L 80.973868 -136.488423 
L 80.459099 -135.717262 
L 79.939729 -134.9461 
L 79.420078 -134.174939 
L 78.904606 -133.403777 
L 78.39772 -132.632615 
L 77.903604 -131.861454 
L 77.426085 -131.090292 
L 76.968523 -130.319131 
L 76.533745 -129.547969 
L 76.124008 -128.776807 
L 75.740995 -128.005646 
L 75.385828 -127.234484 
L 75.059103 -126.463323 
L 74.760933 -125.692161 
L 74.491001 -124.920999 
L 74.248615 -124.149838 
L 74.032757 -123.378676 
L 73.842148 -122.607515 
L 73.67529 -121.836353 
L 73.530522 -121.065191 
L 73.40607 -120.29403 
L 73.300091 -119.522868 
L 73.210717 -118.751707 
L 73.136097 -117.980545 
L 73.074431 -117.209383 
z
" style="stroke: #2f2f2f"/>
    </defs>
    <g clip-path="url(#pbc7bd04590)">
     <use xlink:href="#m4dfc5bbb4d" x="0" y="281.617233" style="fill: #009e73; stroke: #2f2f2f"/>
    </g>
   </g>
   <g id="FillBetweenPolyCollection_2">
    <defs>
     <path id="me6cb31d06b" d="M 129.045042 -120.434057 
L 128.28894 -120.434057 
L 128.199598 -121.518306 
L 128.094718 -122.602556 
L 127.972988 -123.686806 
L 127.83329 -124.771056 
L 127.674764 -125.855305 
L 127.496863 -126.939555 
L 127.2994 -128.023805 
L 127.082576 -129.108055 
L 126.846992 -130.192304 
L 126.593627 -131.276554 
L 126.323806 -132.360804 
L 126.039128 -133.445054 
L 125.741389 -134.529304 
L 125.432477 -135.613553 
L 125.114269 -136.697803 
L 124.788525 -137.782053 
L 124.456799 -138.866303 
L 124.120365 -139.950552 
L 123.780176 -141.034802 
L 123.436863 -142.119052 
L 123.090761 -143.203302 
L 122.741987 -144.287551 
L 122.390534 -145.371801 
L 122.036403 -146.456051 
L 121.679733 -147.540301 
L 121.320938 -148.624551 
L 120.96082 -149.7088 
L 120.600653 -150.79305 
L 120.242217 -151.8773 
L 119.887787 -152.96155 
L 119.540061 -154.045799 
L 119.202031 -155.130049 
L 118.876808 -156.214299 
L 118.567417 -157.298549 
L 118.27656 -158.382798 
L 118.006393 -159.467048 
L 117.758314 -160.551298 
L 117.532798 -161.635548 
L 117.329284 -162.719798 
L 117.146137 -163.804047 
L 116.980679 -164.888297 
L 116.829305 -165.972547 
L 116.687661 -167.056797 
L 116.550889 -168.141046 
L 116.413902 -169.225296 
L 116.271687 -170.309546 
L 116.119602 -171.393796 
L 115.953648 -172.478045 
L 115.7707 -173.562295 
L 115.568687 -174.646545 
L 115.346699 -175.730795 
L 115.105035 -176.815045 
L 114.845184 -177.899294 
L 114.569748 -178.983544 
L 114.282334 -180.067794 
L 113.987402 -181.152044 
L 113.690114 -182.236293 
L 113.396169 -183.320543 
L 113.111656 -184.404793 
L 112.842911 -185.489043 
L 112.596405 -186.573293 
L 112.37863 -187.657542 
L 112.196004 -188.741792 
L 112.054779 -189.826042 
L 111.96094 -190.910292 
L 111.920093 -191.994541 
L 111.937345 -193.078791 
L 112.017165 -194.163041 
L 112.163231 -195.247291 
L 112.378272 -196.33154 
L 112.663919 -197.41579 
L 113.020563 -198.50004 
L 113.447245 -199.58429 
L 113.941583 -200.66854 
L 114.499746 -201.752789 
L 115.116488 -202.837039 
L 115.785236 -203.921289 
L 116.49824 -205.005539 
L 117.24677 -206.089788 
L 118.021372 -207.174038 
L 118.812137 -208.258288 
L 119.60901 -209.342538 
L 120.402085 -210.426787 
L 121.1819 -211.511037 
L 121.939703 -212.595287 
L 122.66768 -213.679537 
L 123.359132 -214.763787 
L 124.008609 -215.848036 
L 124.611972 -216.932286 
L 125.166415 -218.016536 
L 125.670418 -219.100786 
L 126.123673 -220.185035 
L 126.526954 -221.269285 
L 126.881969 -222.353535 
L 127.191197 -223.437785 
L 127.457706 -224.522034 
L 127.684983 -225.606284 
L 127.876769 -226.690534 
L 128.03691 -227.774784 
L 129.297071 -227.774784 
L 129.297071 -227.774784 
L 129.457212 -226.690534 
L 129.648999 -225.606284 
L 129.876276 -224.522034 
L 130.142785 -223.437785 
L 130.452012 -222.353535 
L 130.807028 -221.269285 
L 131.210308 -220.185035 
L 131.663563 -219.100786 
L 132.167567 -218.016536 
L 132.722009 -216.932286 
L 133.325373 -215.848036 
L 133.974849 -214.763787 
L 134.666302 -213.679537 
L 135.394278 -212.595287 
L 136.152082 -211.511037 
L 136.931897 -210.426787 
L 137.724971 -209.342538 
L 138.521844 -208.258288 
L 139.31261 -207.174038 
L 140.087211 -206.089788 
L 140.835742 -205.005539 
L 141.548745 -203.921289 
L 142.217493 -202.837039 
L 142.834236 -201.752789 
L 143.392399 -200.66854 
L 143.886737 -199.58429 
L 144.313419 -198.50004 
L 144.670063 -197.41579 
L 144.95571 -196.33154 
L 145.170751 -195.247291 
L 145.316816 -194.163041 
L 145.396636 -193.078791 
L 145.413889 -191.994541 
L 145.373042 -190.910292 
L 145.279202 -189.826042 
L 145.137978 -188.741792 
L 144.955352 -187.657542 
L 144.737577 -186.573293 
L 144.49107 -185.489043 
L 144.222326 -184.404793 
L 143.937812 -183.320543 
L 143.643867 -182.236293 
L 143.346579 -181.152044 
L 143.051648 -180.067794 
L 142.764233 -178.983544 
L 142.488798 -177.899294 
L 142.228946 -176.815045 
L 141.987283 -175.730795 
L 141.765295 -174.646545 
L 141.563282 -173.562295 
L 141.380334 -172.478045 
L 141.214379 -171.393796 
L 141.062294 -170.309546 
L 140.92008 -169.225296 
L 140.783093 -168.141046 
L 140.646321 -167.056797 
L 140.504677 -165.972547 
L 140.353302 -164.888297 
L 140.187844 -163.804047 
L 140.004697 -162.719798 
L 139.801184 -161.635548 
L 139.575668 -160.551298 
L 139.327589 -159.467048 
L 139.057422 -158.382798 
L 138.766564 -157.298549 
L 138.457173 -156.214299 
L 138.131951 -155.130049 
L 137.793921 -154.045799 
L 137.446195 -152.96155 
L 137.091765 -151.8773 
L 136.733329 -150.79305 
L 136.373161 -149.7088 
L 136.013043 -148.624551 
L 135.654248 -147.540301 
L 135.297578 -146.456051 
L 134.943447 -145.371801 
L 134.591995 -144.287551 
L 134.24322 -143.203302 
L 133.897119 -142.119052 
L 133.553805 -141.034802 
L 133.213617 -139.950552 
L 132.877182 -138.866303 
L 132.545456 -137.782053 
L 132.219713 -136.697803 
L 131.901505 -135.613553 
L 131.592592 -134.529304 
L 131.294853 -133.445054 
L 131.010176 -132.360804 
L 130.740354 -131.276554 
L 130.48699 -130.192304 
L 130.251405 -129.108055 
L 130.034582 -128.023805 
L 129.837119 -126.939555 
L 129.659217 -125.855305 
L 129.500691 -124.771056 
L 129.360994 -123.686806 
L 129.239264 -122.602556 
L 129.134384 -121.518306 
L 129.045042 -120.434057 
z
" style="stroke: #2f2f2f"/>
    </defs>
    <g clip-path="url(#pbc7bd04590)">
     <use xlink:href="#me6cb31d06b" x="0" y="281.617233" style="fill: #56b4e9; stroke: #2f2f2f"/>
    </g>
   </g>
   <g id="FillBetweenPolyCollection_3">
    <defs>
     <path id="m0293a182e0" d="M 184.666685 -112.831253 
L 184.313285 -112.831253 
L 184.264389 -113.887042 
L 184.206496 -114.942831 
L 184.139345 -115.99862 
L 184.063098 -117.054409 
L 183.978414 -118.110198 
L 183.886512 -119.165987 
L 183.789184 -120.221776 
L 183.688762 -121.277565 
L 183.588025 -122.333354 
L 183.490053 -123.389143 
L 183.398017 -124.444932 
L 183.314933 -125.500721 
L 183.243387 -126.55651 
L 183.185257 -127.612299 
L 183.141451 -128.668088 
L 183.111697 -129.723877 
L 183.094396 -130.779666 
L 183.086558 -131.835455 
L 183.083841 -132.891244 
L 183.080675 -133.947033 
L 183.070497 -135.002822 
L 183.046052 -136.058611 
L 182.999778 -137.1144 
L 182.924219 -138.170189 
L 182.812474 -139.225978 
L 182.658639 -140.281767 
L 182.458219 -141.337556 
L 182.208484 -142.393345 
L 181.908758 -143.449134 
L 181.560588 -144.504923 
L 181.167799 -145.560712 
L 180.736408 -146.616501 
L 180.274378 -147.67229 
L 179.79122 -148.728079 
L 179.297453 -149.783868 
L 178.80393 -150.839657 
L 178.321087 -151.895446 
L 177.85814 -152.951235 
L 177.422321 -154.007024 
L 177.018186 -155.062813 
L 176.6471 -156.118602 
L 176.306943 -157.174391 
L 175.992094 -158.23018 
L 175.693733 -159.285969 
L 175.400462 -160.341758 
L 175.099218 -161.397547 
L 174.776434 -162.453336 
L 174.419344 -163.509125 
L 174.017345 -164.564914 
L 173.563271 -165.620703 
L 173.054465 -166.676492 
L 172.493536 -167.732281 
L 171.888697 -168.78807 
L 171.253653 -169.843859 
L 170.606997 -170.899648 
L 169.971184 -171.955437 
L 169.371134 -173.011226 
L 168.832597 -174.067015 
L 168.380421 -175.122804 
L 168.036864 -176.178593 
L 167.820108 -177.234382 
L 167.743086 -178.290171 
L 167.812729 -179.34596 
L 168.029662 -180.401749 
L 168.388374 -181.457538 
L 168.877808 -182.513327 
L 169.482295 -183.569116 
L 170.182746 -184.624905 
L 170.957969 -185.680694 
L 171.785997 -186.736483 
L 172.645337 -187.792272 
L 173.516022 -188.848061 
L 174.380437 -189.90385 
L 175.223867 -190.959639 
L 176.034772 -192.015428 
L 176.804805 -193.071217 
L 177.528619 -194.127006 
L 178.203507 -195.182795 
L 178.828941 -196.238584 
L 179.406052 -197.294373 
L 179.937122 -198.350162 
L 180.425103 -199.405951 
L 180.873212 -200.46174 
L 181.284621 -201.517529 
L 181.662225 -202.573318 
L 182.008523 -203.629107 
L 182.325566 -204.684896 
L 182.614984 -205.740685 
L 182.878058 -206.796474 
L 183.115822 -207.852263 
L 183.329181 -208.908052 
L 183.519015 -209.963841 
L 183.686278 -211.01963 
L 183.832061 -212.075419 
L 183.957626 -213.131208 
L 184.064414 -214.186997 
L 184.154026 -215.242786 
L 184.228182 -216.298575 
L 184.288665 -217.354364 
L 184.691304 -217.354364 
L 184.691304 -217.354364 
L 184.751787 -216.298575 
L 184.825943 -215.242786 
L 184.915555 -214.186997 
L 185.022343 -213.131208 
L 185.147908 -212.075419 
L 185.293691 -211.01963 
L 185.460954 -209.963841 
L 185.650789 -208.908052 
L 185.864147 -207.852263 
L 186.101911 -206.796474 
L 186.364985 -205.740685 
L 186.654403 -204.684896 
L 186.971446 -203.629107 
L 187.317744 -202.573318 
L 187.695348 -201.517529 
L 188.106757 -200.46174 
L 188.554867 -199.405951 
L 189.042847 -198.350162 
L 189.573917 -197.294373 
L 190.151029 -196.238584 
L 190.776462 -195.182795 
L 191.45135 -194.127006 
L 192.175164 -193.071217 
L 192.945197 -192.015428 
L 193.756102 -190.959639 
L 194.599532 -189.90385 
L 195.463947 -188.848061 
L 196.334632 -187.792272 
L 197.193972 -186.736483 
L 198.022001 -185.680694 
L 198.797223 -184.624905 
L 199.497674 -183.569116 
L 200.102161 -182.513327 
L 200.591595 -181.457538 
L 200.950307 -180.401749 
L 201.16724 -179.34596 
L 201.236883 -178.290171 
L 201.159861 -177.234382 
L 200.943105 -176.178593 
L 200.599548 -175.122804 
L 200.147372 -174.067015 
L 199.608836 -173.011226 
L 199.008785 -171.955437 
L 198.372972 -170.899648 
L 197.726316 -169.843859 
L 197.091272 -168.78807 
L 196.486434 -167.732281 
L 195.925504 -166.676492 
L 195.416698 -165.620703 
L 194.962624 -164.564914 
L 194.560625 -163.509125 
L 194.203535 -162.453336 
L 193.880751 -161.397547 
L 193.579507 -160.341758 
L 193.286236 -159.285969 
L 192.987876 -158.23018 
L 192.673027 -157.174391 
L 192.332869 -156.118602 
L 191.961784 -155.062813 
L 191.557648 -154.007024 
L 191.121829 -152.951235 
L 190.658883 -151.895446 
L 190.176039 -150.839657 
L 189.682516 -149.783868 
L 189.188749 -148.728079 
L 188.705591 -147.67229 
L 188.243561 -146.616501 
L 187.81217 -145.560712 
L 187.419382 -144.504923 
L 187.071211 -143.449134 
L 186.771485 -142.393345 
L 186.521751 -141.337556 
L 186.32133 -140.281767 
L 186.167495 -139.225978 
L 186.055751 -138.170189 
L 185.980191 -137.1144 
L 185.933917 -136.058611 
L 185.909473 -135.002822 
L 185.899294 -133.947033 
L 185.896128 -132.891244 
L 185.893411 -131.835455 
L 185.885574 -130.779666 
L 185.868272 -129.723877 
L 185.838519 -128.668088 
L 185.794712 -127.612299 
L 185.736582 -126.55651 
L 185.665036 -125.500721 
L 185.581952 -124.444932 
L 185.489916 -123.389143 
L 185.391944 -122.333354 
L 185.291207 -121.277565 
L 185.190785 -120.221776 
L 185.093457 -119.165987 
L 185.001555 -118.110198 
L 184.916871 -117.054409 
L 184.840624 -115.99862 
L 184.773473 -114.942831 
L 184.71558 -113.887042 
L 184.666685 -112.831253 
z
" style="stroke: #2f2f2f"/>
    </defs>
    <g clip-path="url(#pbc7bd04590)">
     <use xlink:href="#m0293a182e0" x="0" y="281.617233" style="fill: #e69f00; stroke: #2f2f2f"/>
    </g>
   </g>
   <g id="FillBetweenPolyCollection_4">
    <defs>
     <path id="m766875bcd5" d="M 240.508259 -156.963141 
L 240.117698 -156.963141 
L 240.066085 -157.546177 
L 240.005201 -158.129212 
L 239.934638 -158.712248 
L 239.854301 -159.295284 
L 239.76447 -159.878319 
L 239.665829 -160.461355 
L 239.55946 -161.04439 
L 239.446803 -161.627426 
L 239.329557 -162.210462 
L 239.209542 -162.793497 
L 239.088514 -163.376533 
L 238.967945 -163.959569 
L 238.848794 -164.542604 
L 238.731273 -165.12564 
L 238.61465 -165.708676 
L 238.497098 -166.291711 
L 238.375622 -166.874747 
L 238.246074 -167.457783 
L 238.103266 -168.040818 
L 237.941187 -168.623854 
L 237.753313 -169.20689 
L 237.532978 -169.789925 
L 237.273807 -170.372961 
L 236.970153 -170.955997 
L 236.617516 -171.539032 
L 236.212915 -172.122068 
L 235.755167 -172.705104 
L 235.24507 -173.288139 
L 234.68546 -173.871175 
L 234.081139 -174.454211 
L 233.438682 -175.037246 
L 232.76614 -175.620282 
L 232.072645 -176.203318 
L 231.367972 -176.786353 
L 230.662055 -177.369389 
L 229.964527 -177.952425 
L 229.284296 -178.53546 
L 228.629191 -179.118496 
L 228.00571 -179.701532 
L 227.418879 -180.284567 
L 226.872234 -180.867603 
L 226.367921 -181.450639 
L 225.906898 -182.033674 
L 225.489207 -182.61671 
L 225.114291 -183.199746 
L 224.781304 -183.782781 
L 224.489389 -184.365817 
L 224.237877 -184.948853 
L 224.026377 -185.531888 
L 223.854776 -186.114924 
L 223.723112 -186.69796 
L 223.631386 -187.280995 
L 223.579312 -187.864031 
L 223.56608 -188.447067 
L 223.590157 -189.030102 
L 223.649178 -189.613138 
L 223.739956 -190.196174 
L 223.858619 -190.779209 
L 224.00087 -191.362245 
L 224.162335 -191.945281 
L 224.338973 -192.528316 
L 224.527477 -193.111352 
L 224.725623 -193.694388 
L 224.932529 -194.277423 
L 225.148769 -194.860459 
L 225.376343 -195.443495 
L 225.618508 -196.02653 
L 225.87947 -196.609566 
L 226.163996 -197.192602 
L 226.476976 -197.775637 
L 226.822976 -198.358673 
L 227.20583 -198.941709 
L 227.628309 -199.524744 
L 228.091861 -200.10778 
L 228.59647 -200.690816 
L 229.140597 -201.273851 
L 229.72122 -201.856887 
L 230.333943 -202.439923 
L 230.973166 -203.022958 
L 231.632301 -203.605994 
L 232.304019 -204.18903 
L 232.980511 -204.772065 
L 233.653767 -205.355101 
L 234.31585 -205.938137 
L 234.959165 -206.521172 
L 235.576708 -207.104208 
L 236.162287 -207.687244 
L 236.710712 -208.270279 
L 237.217924 -208.853315 
L 237.681085 -209.436351 
L 238.098597 -210.019386 
L 238.470074 -210.602422 
L 238.796247 -211.185458 
L 239.078834 -211.768493 
L 239.320371 -212.351529 
L 239.524024 -212.934565 
L 239.693387 -213.5176 
L 239.832293 -214.100636 
L 239.944641 -214.683672 
L 240.681315 -214.683672 
L 240.681315 -214.683672 
L 240.793664 -214.100636 
L 240.93257 -213.5176 
L 241.101933 -212.934565 
L 241.305586 -212.351529 
L 241.547123 -211.768493 
L 241.82971 -211.185458 
L 242.155883 -210.602422 
L 242.527359 -210.019386 
L 242.944872 -209.436351 
L 243.408033 -208.853315 
L 243.915245 -208.270279 
L 244.46367 -207.687244 
L 245.049249 -207.104208 
L 245.666792 -206.521172 
L 246.310107 -205.938137 
L 246.97219 -205.355101 
L 247.645446 -204.772065 
L 248.321938 -204.18903 
L 248.993656 -203.605994 
L 249.652791 -203.022958 
L 250.292014 -202.439923 
L 250.904737 -201.856887 
L 251.48536 -201.273851 
L 252.029487 -200.690816 
L 252.534096 -200.10778 
L 252.997648 -199.524744 
L 253.420126 -198.941709 
L 253.802981 -198.358673 
L 254.148981 -197.775637 
L 254.461961 -197.192602 
L 254.746487 -196.609566 
L 255.007449 -196.02653 
L 255.249614 -195.443495 
L 255.477188 -194.860459 
L 255.693428 -194.277423 
L 255.900334 -193.694388 
L 256.09848 -193.111352 
L 256.286984 -192.528316 
L 256.463622 -191.945281 
L 256.625087 -191.362245 
L 256.767338 -190.779209 
L 256.886001 -190.196174 
L 256.976779 -189.613138 
L 257.0358 -189.030102 
L 257.059877 -188.447067 
L 257.046645 -187.864031 
L 256.994571 -187.280995 
L 256.902845 -186.69796 
L 256.771181 -186.114924 
L 256.59958 -185.531888 
L 256.38808 -184.948853 
L 256.136567 -184.365817 
L 255.844653 -183.782781 
L 255.511666 -183.199746 
L 255.136749 -182.61671 
L 254.719059 -182.033674 
L 254.258036 -181.450639 
L 253.753723 -180.867603 
L 253.207078 -180.284567 
L 252.620247 -179.701532 
L 251.996765 -179.118496 
L 251.341661 -178.53546 
L 250.66143 -177.952425 
L 249.963902 -177.369389 
L 249.257985 -176.786353 
L 248.553311 -176.203318 
L 247.859817 -175.620282 
L 247.187275 -175.037246 
L 246.544818 -174.454211 
L 245.940497 -173.871175 
L 245.380887 -173.288139 
L 244.87079 -172.705104 
L 244.413042 -172.122068 
L 244.00844 -171.539032 
L 243.655804 -170.955997 
L 243.35215 -170.372961 
L 243.092979 -169.789925 
L 242.872644 -169.20689 
L 242.68477 -168.623854 
L 242.522691 -168.040818 
L 242.379883 -167.457783 
L 242.250335 -166.874747 
L 242.128859 -166.291711 
L 242.011307 -165.708676 
L 241.894684 -165.12564 
L 241.777163 -164.542604 
L 241.658011 -163.959569 
L 241.537443 -163.376533 
L 241.416414 -162.793497 
L 241.2964 -162.210462 
L 241.179154 -161.627426 
L 241.066497 -161.04439 
L 240.960128 -160.461355 
L 240.861487 -159.878319 
L 240.771656 -159.295284 
L 240.691319 -158.712248 
L 240.620756 -158.129212 
L 240.559872 -157.546177 
L 240.508259 -156.963141 
z
" style="stroke: #2f2f2f"/>
    </defs>
    <g clip-path="url(#pbc7bd04590)">
     <use xlink:href="#m766875bcd5" x="0" y="281.617233" style="fill: #cc79a7; stroke: #2f2f2f"/>
    </g>
   </g>
   <g id="matplotlib.axis_1">
    <g id="xtick_1">
     <g id="line2d_1">
      <defs>
       <path id="m34dd4ed8da" d="M 0 0 
L 0 3.5 
" style="stroke: #000000; stroke-width: 0.8"/>
      </defs>
      <g>
       <use xlink:href="#m34dd4ed8da" x="72.843997" y="183.803951" style="stroke: #000000; stroke-width: 0.8"/>
      </g>
     </g>
     <g id="text_1">
      <!-- Low Benefit  -->
      <g transform="translate(47.120601 243.648692) rotate(-45) scale(0.12 -0.12)">
       <defs>
        <path id="Arimo-Regular-4c" d="M 3347 488 
L 3347 0 
L 525 0 
L 525 4403 
L 1122 4403 
L 1122 488 
L 3347 488 
z
" transform="scale(0.015625)"/>
        <path id="Arimo-Regular-6f" d="M 3291 1694 
Q 3291 806 2900 371 
Q 2509 -63 1766 -63 
Q 1025 -63 647 389 
Q 269 841 269 1694 
Q 269 2569 648 3006 
Q 1028 3444 1784 3444 
Q 2559 3444 2925 3017 
Q 3291 2591 3291 1694 
z
M 2700 1694 
Q 2700 2394 2492 2711 
Q 2284 3028 1794 3028 
Q 1300 3028 1079 2704 
Q 859 2381 859 1694 
Q 859 1025 1076 689 
Q 1294 353 1759 353 
Q 2266 353 2483 678 
Q 2700 1003 2700 1694 
z
" transform="scale(0.015625)"/>
        <path id="Arimo-Regular-77" d="M 2200 2391 
L 1588 0 
L 938 0 
L -9 3381 
L 547 3381 
L 1128 1041 
Q 1153 941 1187 787 
Q 1222 634 1253 466 
Q 1288 613 1323 759 
Q 1359 906 1397 1050 
L 2013 3381 
L 2616 3381 
L 3206 1059 
Q 3244 913 3280 763 
Q 3316 613 3350 466 
Q 3384 616 3420 780 
Q 3456 944 3488 1069 
L 4088 3381 
L 4638 3381 
L 3669 0 
L 3016 0 
L 2425 2391 
Q 2394 2522 2367 2655 
Q 2341 2788 2313 2919 
Q 2300 2850 2267 2686 
Q 2234 2522 2200 2391 
z
" transform="scale(0.015625)"/>
        <path id="Arimo-Regular-20" transform="scale(0.015625)"/>
        <path id="Arimo-Regular-42" d="M 3931 1241 
Q 3931 653 3503 326 
Q 3075 0 2313 0 
L 525 0 
L 525 4403 
L 2125 4403 
Q 2900 4403 3287 4136 
Q 3675 3869 3675 3334 
Q 3675 2944 3456 2678 
Q 3238 2413 2838 2322 
Q 3363 2259 3647 1970 
Q 3931 1681 3931 1241 
z
M 3075 3263 
Q 3075 3619 2831 3772 
Q 2588 3925 2125 3925 
L 1122 3925 
L 1122 2531 
L 2125 2531 
Q 2603 2531 2839 2711 
Q 3075 2891 3075 3263 
z
M 3328 1288 
Q 3328 2066 2234 2066 
L 1122 2066 
L 1122 478 
L 2281 478 
Q 2828 478 3078 681 
Q 3328 884 3328 1288 
z
" transform="scale(0.015625)"/>
        <path id="Arimo-Regular-65" d="M 863 1572 
Q 863 991 1103 675 
Q 1344 359 1806 359 
Q 2172 359 2392 506 
Q 2613 653 2691 878 
L 3184 738 
Q 2881 -63 1806 -63 
Q 1056 -63 664 384 
Q 272 831 272 1713 
Q 272 2550 664 2997 
Q 1056 3444 1784 3444 
Q 2531 3444 2903 2994 
Q 3275 2544 3275 1647 
L 3275 1572 
L 863 1572 
z
M 2694 2003 
Q 2647 2538 2422 2783 
Q 2197 3028 1775 3028 
Q 1366 3028 1127 2754 
Q 888 2481 869 2003 
L 2694 2003 
z
" transform="scale(0.015625)"/>
        <path id="Arimo-Regular-6e" d="M 1006 1959 
L 1006 0 
L 444 0 
L 444 2659 
Q 444 2956 439 3136 
Q 434 3316 425 3381 
L 956 3381 
Q 963 3322 967 3231 
Q 972 3141 975 3031 
Q 978 2922 981 2803 
L 991 2803 
Q 1184 3153 1439 3298 
Q 1694 3444 2072 3444 
Q 2628 3444 2886 3159 
Q 3144 2875 3144 2253 
L 3144 0 
L 2578 0 
L 2578 2144 
Q 2578 2628 2422 2818 
Q 2266 3009 1881 3009 
Q 1475 3009 1240 2731 
Q 1006 2453 1006 1959 
z
" transform="scale(0.015625)"/>
        <path id="Arimo-Regular-66" d="M 1128 2972 
L 1128 0 
L 566 0 
L 566 2972 
L 91 2972 
L 91 3381 
L 566 3381 
L 566 3763 
Q 566 4225 769 4428 
Q 972 4631 1391 4631 
Q 1625 4631 1788 4594 
L 1788 4166 
Q 1638 4191 1538 4191 
Q 1322 4191 1225 4081 
Q 1128 3972 1128 3684 
L 1128 3381 
L 1788 3381 
L 1788 2972 
L 1128 2972 
z
" transform="scale(0.015625)"/>
        <path id="Arimo-Regular-69" d="M 991 4638 
L 991 4100 
L 428 4100 
L 428 4638 
L 991 4638 
z
M 991 3381 
L 991 0 
L 428 0 
L 428 3381 
L 991 3381 
z
" transform="scale(0.015625)"/>
        <path id="Arimo-Regular-74" d="M 1731 25 
Q 1456 -50 1163 -50 
Q 825 -50 656 142 
Q 488 334 488 716 
L 488 2972 
L 97 2972 
L 97 3381 
L 509 3381 
L 675 4138 
L 1050 4138 
L 1050 3381 
L 1675 3381 
L 1675 2972 
L 1050 2972 
L 1050 838 
Q 1050 594 1129 495 
Q 1209 397 1406 397 
Q 1513 397 1731 441 
L 1731 25 
z
" transform="scale(0.015625)"/>
       </defs>
       <use xlink:href="#Arimo-Regular-4c"/>
       <use xlink:href="#Arimo-Regular-6f" transform="translate(55.615234 0)"/>
       <use xlink:href="#Arimo-Regular-77" transform="translate(111.230469 0)"/>
       <use xlink:href="#Arimo-Regular-20" transform="translate(183.447266 0)"/>
       <use xlink:href="#Arimo-Regular-42" transform="translate(211.230469 0)"/>
       <use xlink:href="#Arimo-Regular-65" transform="translate(277.929688 0)"/>
       <use xlink:href="#Arimo-Regular-6e" transform="translate(333.544922 0)"/>
       <use xlink:href="#Arimo-Regular-65" transform="translate(389.160156 0)"/>
       <use xlink:href="#Arimo-Regular-66" transform="translate(444.775391 0)"/>
       <use xlink:href="#Arimo-Regular-69" transform="translate(472.558594 0)"/>
       <use xlink:href="#Arimo-Regular-74" transform="translate(494.775391 0)"/>
       <use xlink:href="#Arimo-Regular-20" transform="translate(522.558594 0)"/>
      </g>
      <!--  High Cost -->
      <g transform="translate(59.802252 249.246459) rotate(-45) scale(0.12 -0.12)">
       <defs>
        <path id="Arimo-Regular-48" d="M 1122 2041 
L 1122 0 
L 525 0 
L 525 4403 
L 1122 4403 
L 1122 2541 
L 3503 2541 
L 3503 4403 
L 4100 4403 
L 4100 0 
L 3503 0 
L 3503 2041 
L 1122 2041 
z
" transform="scale(0.015625)"/>
        <path id="Arimo-Regular-67" d="M 1713 -1328 
Q 1159 -1328 831 -1111 
Q 503 -894 409 -494 
L 975 -413 
Q 1031 -647 1223 -773 
Q 1416 -900 1728 -900 
Q 2147 -900 2358 -653 
Q 2569 -406 2569 84 
L 2569 628 
L 2563 628 
Q 2403 303 2125 139 
Q 1847 -25 1475 -25 
Q 853 -25 561 387 
Q 269 800 269 1684 
Q 269 2581 583 3007 
Q 897 3434 1538 3434 
Q 1897 3434 2161 3270 
Q 2425 3106 2569 2803 
L 2575 2803 
Q 2575 2866 2581 2998 
Q 2588 3131 2597 3250 
Q 2606 3369 2613 3381 
L 3147 3381 
Q 3128 3213 3128 2681 
L 3128 97 
Q 3128 -616 2775 -972 
Q 2422 -1328 1713 -1328 
z
M 2569 1691 
Q 2569 2306 2317 2661 
Q 2066 3016 1675 3016 
Q 1244 3016 1047 2703 
Q 850 2391 850 1691 
Q 850 997 1034 694 
Q 1219 391 1666 391 
Q 2066 391 2317 739 
Q 2569 1088 2569 1691 
z
" transform="scale(0.015625)"/>
        <path id="Arimo-Regular-68" d="M 991 2803 
Q 1172 3134 1426 3289 
Q 1681 3444 2072 3444 
Q 2622 3444 2883 3158 
Q 3144 2872 3144 2253 
L 3144 0 
L 2578 0 
L 2578 2144 
Q 2578 2603 2417 2806 
Q 2256 3009 1881 3009 
Q 1484 3009 1245 2734 
Q 1006 2459 1006 1994 
L 1006 0 
L 444 0 
L 444 4638 
L 1006 4638 
L 1006 3431 
Q 1006 3306 1000 3167 
Q 994 3028 989 2926 
Q 984 2825 981 2803 
L 991 2803 
z
" transform="scale(0.015625)"/>
        <path id="Arimo-Regular-43" d="M 2500 428 
Q 3425 428 3891 1344 
L 4378 1100 
Q 4106 531 3614 234 
Q 3122 -63 2472 -63 
Q 1803 -63 1322 215 
Q 841 494 583 1008 
Q 325 1522 325 2222 
Q 325 2925 581 3428 
Q 838 3931 1319 4200 
Q 1800 4469 2469 4469 
Q 3172 4469 3644 4194 
Q 4116 3919 4338 3378 
L 3772 3191 
Q 3619 3575 3280 3778 
Q 2941 3981 2475 3981 
Q 1744 3981 1337 3511 
Q 931 3041 931 2222 
Q 931 1684 1123 1279 
Q 1316 875 1667 651 
Q 2019 428 2500 428 
z
" transform="scale(0.015625)"/>
        <path id="Arimo-Regular-73" d="M 2969 934 
Q 2969 456 2608 196 
Q 2247 -63 1597 -63 
Q 966 -63 623 145 
Q 281 353 178 794 
L 675 891 
Q 747 619 972 492 
Q 1197 366 1597 366 
Q 2025 366 2223 497 
Q 2422 628 2422 891 
Q 2422 1091 2284 1216 
Q 2147 1341 1841 1422 
Q 1478 1519 1264 1581 
Q 1050 1644 934 1689 
Q 819 1734 750 1775 
Q 544 1894 428 2066 
Q 313 2238 313 2488 
Q 313 2950 642 3192 
Q 972 3434 1603 3434 
Q 2163 3434 2492 3237 
Q 2822 3041 2909 2606 
L 2403 2544 
Q 2356 2769 2151 2889 
Q 1947 3009 1603 3009 
Q 1222 3009 1040 2893 
Q 859 2778 859 2544 
Q 859 2372 962 2261 
Q 1066 2150 1356 2078 
Q 1747 1984 2100 1873 
Q 2453 1763 2606 1653 
Q 2784 1525 2876 1351 
Q 2969 1178 2969 934 
z
" transform="scale(0.015625)"/>
       </defs>
       <use xlink:href="#Arimo-Regular-20"/>
       <use xlink:href="#Arimo-Regular-48" transform="translate(27.783203 0)"/>
       <use xlink:href="#Arimo-Regular-69" transform="translate(100 0)"/>
       <use xlink:href="#Arimo-Regular-67" transform="translate(122.216797 0)"/>
       <use xlink:href="#Arimo-Regular-68" transform="translate(177.832031 0)"/>
       <use xlink:href="#Arimo-Regular-20" transform="translate(233.447266 0)"/>
       <use xlink:href="#Arimo-Regular-43" transform="translate(261.230469 0)"/>
       <use xlink:href="#Arimo-Regular-6f" transform="translate(333.447266 0)"/>
       <use xlink:href="#Arimo-Regular-73" transform="translate(389.0625 0)"/>
       <use xlink:href="#Arimo-Regular-74" transform="translate(439.0625 0)"/>
      </g>
     </g>
    </g>
    <g id="xtick_2">
     <g id="line2d_2">
      <g>
       <use xlink:href="#m34dd4ed8da" x="128.666991" y="183.803951" style="stroke: #000000; stroke-width: 0.8"/>
      </g>
     </g>
     <g id="text_2">
      <!-- High Benefit  -->
      <g transform="translate(102.000933 245.534016) rotate(-45) scale(0.12 -0.12)">
       <use xlink:href="#Arimo-Regular-48"/>
       <use xlink:href="#Arimo-Regular-69" transform="translate(72.216797 0)"/>
       <use xlink:href="#Arimo-Regular-67" transform="translate(94.433594 0)"/>
       <use xlink:href="#Arimo-Regular-68" transform="translate(150.048828 0)"/>
       <use xlink:href="#Arimo-Regular-20" transform="translate(205.664062 0)"/>
       <use xlink:href="#Arimo-Regular-42" transform="translate(233.447266 0)"/>
       <use xlink:href="#Arimo-Regular-65" transform="translate(300.146484 0)"/>
       <use xlink:href="#Arimo-Regular-6e" transform="translate(355.761719 0)"/>
       <use xlink:href="#Arimo-Regular-65" transform="translate(411.376953 0)"/>
       <use xlink:href="#Arimo-Regular-66" transform="translate(466.992188 0)"/>
       <use xlink:href="#Arimo-Regular-69" transform="translate(494.775391 0)"/>
       <use xlink:href="#Arimo-Regular-74" transform="translate(516.992188 0)"/>
       <use xlink:href="#Arimo-Regular-20" transform="translate(544.775391 0)"/>
      </g>
      <!--  High Cost -->
      <g transform="translate(115.625246 250.189121) rotate(-45) scale(0.12 -0.12)">
       <use xlink:href="#Arimo-Regular-20"/>
       <use xlink:href="#Arimo-Regular-48" transform="translate(27.783203 0)"/>
       <use xlink:href="#Arimo-Regular-69" transform="translate(100 0)"/>
       <use xlink:href="#Arimo-Regular-67" transform="translate(122.216797 0)"/>
       <use xlink:href="#Arimo-Regular-68" transform="translate(177.832031 0)"/>
       <use xlink:href="#Arimo-Regular-20" transform="translate(233.447266 0)"/>
       <use xlink:href="#Arimo-Regular-43" transform="translate(261.230469 0)"/>
       <use xlink:href="#Arimo-Regular-6f" transform="translate(333.447266 0)"/>
       <use xlink:href="#Arimo-Regular-73" transform="translate(389.0625 0)"/>
       <use xlink:href="#Arimo-Regular-74" transform="translate(439.0625 0)"/>
      </g>
     </g>
    </g>
    <g id="xtick_3">
     <g id="line2d_3">
      <g>
       <use xlink:href="#m34dd4ed8da" x="184.489985" y="183.803951" style="stroke: #000000; stroke-width: 0.8"/>
      </g>
     </g>
     <g id="text_3">
      <!-- Low Benefit  -->
      <g transform="translate(158.766589 243.648692) rotate(-45) scale(0.12 -0.12)">
       <use xlink:href="#Arimo-Regular-4c"/>
       <use xlink:href="#Arimo-Regular-6f" transform="translate(55.615234 0)"/>
       <use xlink:href="#Arimo-Regular-77" transform="translate(111.230469 0)"/>
       <use xlink:href="#Arimo-Regular-20" transform="translate(183.447266 0)"/>
       <use xlink:href="#Arimo-Regular-42" transform="translate(211.230469 0)"/>
       <use xlink:href="#Arimo-Regular-65" transform="translate(277.929688 0)"/>
       <use xlink:href="#Arimo-Regular-6e" transform="translate(333.544922 0)"/>
       <use xlink:href="#Arimo-Regular-65" transform="translate(389.160156 0)"/>
       <use xlink:href="#Arimo-Regular-66" transform="translate(444.775391 0)"/>
       <use xlink:href="#Arimo-Regular-69" transform="translate(472.558594 0)"/>
       <use xlink:href="#Arimo-Regular-74" transform="translate(494.775391 0)"/>
       <use xlink:href="#Arimo-Regular-20" transform="translate(522.558594 0)"/>
      </g>
      <!--  Low Cost -->
      <g transform="translate(172.390901 248.303797) rotate(-45) scale(0.12 -0.12)">
       <use xlink:href="#Arimo-Regular-20"/>
       <use xlink:href="#Arimo-Regular-4c" transform="translate(27.783203 0)"/>
       <use xlink:href="#Arimo-Regular-6f" transform="translate(83.398438 0)"/>
       <use xlink:href="#Arimo-Regular-77" transform="translate(139.013672 0)"/>
       <use xlink:href="#Arimo-Regular-20" transform="translate(211.230469 0)"/>
       <use xlink:href="#Arimo-Regular-43" transform="translate(239.013672 0)"/>
       <use xlink:href="#Arimo-Regular-6f" transform="translate(311.230469 0)"/>
       <use xlink:href="#Arimo-Regular-73" transform="translate(366.845703 0)"/>
       <use xlink:href="#Arimo-Regular-74" transform="translate(416.845703 0)"/>
      </g>
     </g>
    </g>
    <g id="xtick_4">
     <g id="line2d_4">
      <g>
       <use xlink:href="#m34dd4ed8da" x="240.312978" y="183.803951" style="stroke: #000000; stroke-width: 0.8"/>
      </g>
     </g>
     <g id="text_4">
      <!-- High Benefit  -->
      <g transform="translate(213.646921 245.534016) rotate(-45) scale(0.12 -0.12)">
       <use xlink:href="#Arimo-Regular-48"/>
       <use xlink:href="#Arimo-Regular-69" transform="translate(72.216797 0)"/>
       <use xlink:href="#Arimo-Regular-67" transform="translate(94.433594 0)"/>
       <use xlink:href="#Arimo-Regular-68" transform="translate(150.048828 0)"/>
       <use xlink:href="#Arimo-Regular-20" transform="translate(205.664062 0)"/>
       <use xlink:href="#Arimo-Regular-42" transform="translate(233.447266 0)"/>
       <use xlink:href="#Arimo-Regular-65" transform="translate(300.146484 0)"/>
       <use xlink:href="#Arimo-Regular-6e" transform="translate(355.761719 0)"/>
       <use xlink:href="#Arimo-Regular-65" transform="translate(411.376953 0)"/>
       <use xlink:href="#Arimo-Regular-66" transform="translate(466.992188 0)"/>
       <use xlink:href="#Arimo-Regular-69" transform="translate(494.775391 0)"/>
       <use xlink:href="#Arimo-Regular-74" transform="translate(516.992188 0)"/>
       <use xlink:href="#Arimo-Regular-20" transform="translate(544.775391 0)"/>
      </g>
      <!--  High Cost -->
      <g transform="translate(227.271234 250.189121) rotate(-45) scale(0.12 -0.12)">
       <use xlink:href="#Arimo-Regular-20"/>
       <use xlink:href="#Arimo-Regular-48" transform="translate(27.783203 0)"/>
       <use xlink:href="#Arimo-Regular-69" transform="translate(100 0)"/>
       <use xlink:href="#Arimo-Regular-67" transform="translate(122.216797 0)"/>
       <use xlink:href="#Arimo-Regular-68" transform="translate(177.832031 0)"/>
       <use xlink:href="#Arimo-Regular-20" transform="translate(233.447266 0)"/>
       <use xlink:href="#Arimo-Regular-43" transform="translate(261.230469 0)"/>
       <use xlink:href="#Arimo-Regular-6f" transform="translate(333.447266 0)"/>
       <use xlink:href="#Arimo-Regular-73" transform="translate(389.0625 0)"/>
       <use xlink:href="#Arimo-Regular-74" transform="translate(439.0625 0)"/>
      </g>
     </g>
    </g>
    <g id="text_5">
     <!--   -->
     <g transform="translate(154.494894 271.304733) scale(0.15 -0.15)">
      <use xlink:href="#Arimo-Regular-20"/>
     </g>
    </g>
   </g>
   <g id="matplotlib.axis_2">
    <g id="ytick_1">
     <g id="line2d_5">
      <defs>
       <path id="m78af4fc442" d="M 0 0 
L -3.5 0 
" style="stroke: #000000; stroke-width: 0.8"/>
      </defs>
      <g>
       <use xlink:href="#m78af4fc442" x="44.9325" y="183.803951" style="stroke: #000000; stroke-width: 0.8"/>
      </g>
     </g>
     <g id="text_6">
      <!-- −5 -->
      <g transform="translate(24.250625 188.152076) scale(0.12 -0.12)">
       <defs>
        <path id="Arimo-Regular-2212" d="M 3425 2356 
L 3425 1900 
L 316 1900 
L 316 2356 
L 3425 2356 
z
" transform="scale(0.015625)"/>
        <path id="Arimo-Regular-35" d="M 3291 1434 
Q 3291 738 2877 337 
Q 2463 -63 1728 -63 
Q 1113 -63 734 206 
Q 356 475 256 984 
L 825 1050 
Q 916 725 1144 561 
Q 1372 397 1741 397 
Q 2194 397 2450 670 
Q 2706 944 2706 1422 
Q 2706 1838 2448 2094 
Q 2191 2350 1753 2350 
Q 1525 2350 1328 2278 
Q 1131 2206 934 2034 
L 384 2034 
L 531 4403 
L 3034 4403 
L 3034 3925 
L 1044 3925 
L 959 2528 
Q 1325 2809 1869 2809 
Q 2303 2809 2622 2636 
Q 2941 2463 3116 2153 
Q 3291 1844 3291 1434 
z
" transform="scale(0.015625)"/>
       </defs>
       <use xlink:href="#Arimo-Regular-2212"/>
       <use xlink:href="#Arimo-Regular-35" transform="translate(58.398438 0)"/>
      </g>
     </g>
    </g>
    <g id="ytick_2">
     <g id="line2d_6">
      <g>
       <use xlink:href="#m78af4fc442" x="44.9325" y="160.256757" style="stroke: #000000; stroke-width: 0.8"/>
      </g>
     </g>
     <g id="text_7">
      <!-- −3 -->
      <g transform="translate(24.250625 164.604882) scale(0.12 -0.12)">
       <defs>
        <path id="Arimo-Regular-33" d="M 3278 1216 
Q 3278 606 2890 271 
Q 2503 -63 1784 -63 
Q 1116 -63 717 239 
Q 319 541 244 1131 
L 825 1184 
Q 938 403 1784 403 
Q 2209 403 2451 612 
Q 2694 822 2694 1234 
Q 2694 1594 2417 1795 
Q 2141 1997 1619 1997 
L 1300 1997 
L 1300 2484 
L 1606 2484 
Q 2069 2484 2323 2686 
Q 2578 2888 2578 3244 
Q 2578 3597 2370 3801 
Q 2163 4006 1753 4006 
Q 1381 4006 1151 3815 
Q 922 3625 884 3278 
L 319 3322 
Q 381 3863 767 4166 
Q 1153 4469 1759 4469 
Q 2422 4469 2789 4161 
Q 3156 3853 3156 3303 
Q 3156 2881 2920 2617 
Q 2684 2353 2234 2259 
L 2234 2247 
Q 2728 2194 3003 1916 
Q 3278 1638 3278 1216 
z
" transform="scale(0.015625)"/>
       </defs>
       <use xlink:href="#Arimo-Regular-2212"/>
       <use xlink:href="#Arimo-Regular-33" transform="translate(58.398438 0)"/>
      </g>
     </g>
    </g>
    <g id="ytick_3">
     <g id="line2d_7">
      <g>
       <use xlink:href="#m78af4fc442" x="44.9325" y="136.709564" style="stroke: #000000; stroke-width: 0.8"/>
      </g>
     </g>
     <g id="text_8">
      <!-- −1 -->
      <g transform="translate(24.250625 141.057689) scale(0.12 -0.12)">
       <defs>
        <path id="Arimo-Regular-31" d="M 3247 478 
L 3247 0 
L 488 0 
L 488 478 
L 1609 478 
L 1609 3866 
L 616 3156 
L 616 3688 
L 1656 4403 
L 2175 4403 
L 2175 478 
L 3247 478 
z
" transform="scale(0.015625)"/>
       </defs>
       <use xlink:href="#Arimo-Regular-2212"/>
       <use xlink:href="#Arimo-Regular-31" transform="translate(58.398438 0)"/>
      </g>
     </g>
    </g>
    <g id="ytick_4">
     <g id="line2d_8">
      <g>
       <use xlink:href="#m78af4fc442" x="44.9325" y="113.16237" style="stroke: #000000; stroke-width: 0.8"/>
      </g>
     </g>
     <g id="text_9">
      <!-- 1 -->
      <g transform="translate(31.259375 117.510495) scale(0.12 -0.12)">
       <use xlink:href="#Arimo-Regular-31"/>
      </g>
     </g>
    </g>
    <g id="ytick_5">
     <g id="line2d_9">
      <g>
       <use xlink:href="#m78af4fc442" x="44.9325" y="89.615177" style="stroke: #000000; stroke-width: 0.8"/>
      </g>
     </g>
     <g id="text_10">
      <!-- 3 -->
      <g transform="translate(31.259375 93.963302) scale(0.12 -0.12)">
       <use xlink:href="#Arimo-Regular-33"/>
      </g>
     </g>
    </g>
    <g id="ytick_6">
     <g id="line2d_10">
      <g>
       <use xlink:href="#m78af4fc442" x="44.9325" y="66.067984" style="stroke: #000000; stroke-width: 0.8"/>
      </g>
     </g>
     <g id="text_11">
      <!-- 5 -->
      <g transform="translate(31.259375 70.416109) scale(0.12 -0.12)">
       <use xlink:href="#Arimo-Regular-35"/>
      </g>
     </g>
    </g>
    <g id="text_12">
     <!-- Willingness To Help -->
     <g transform="translate(17.345625 157.354632) rotate(-90) scale(0.14 -0.14)">
      <defs>
       <path id="Arimo-Regular-57" d="M 2803 2781 
L 2038 0 
L 1325 0 
L 28 4403 
L 650 4403 
L 1441 1606 
Q 1513 1344 1577 1073 
Q 1641 803 1700 525 
Q 1725 641 1767 830 
Q 1809 1019 1856 1216 
Q 1903 1413 1941 1547 
L 2741 4403 
L 3313 4403 
L 4078 1663 
Q 4166 1328 4234 1042 
Q 4303 756 4353 525 
Q 4400 709 4451 923 
Q 4503 1138 4548 1314 
Q 4594 1491 4613 1566 
L 5397 4403 
L 6019 4403 
L 4722 0 
L 4009 0 
L 3247 2797 
Q 3209 2928 3154 3162 
Q 3100 3397 3028 3738 
Q 3000 3572 2954 3380 
Q 2909 3188 2867 3025 
Q 2825 2863 2803 2781 
z
" transform="scale(0.015625)"/>
       <path id="Arimo-Regular-6c" d="M 994 4638 
L 994 0 
L 431 0 
L 431 4638 
L 994 4638 
z
" transform="scale(0.015625)"/>
       <path id="Arimo-Regular-54" d="M 2250 3916 
L 2250 0 
L 1656 0 
L 1656 3916 
L 144 3916 
L 144 4403 
L 3763 4403 
L 3763 3916 
L 2250 3916 
z
" transform="scale(0.015625)"/>
       <path id="Arimo-Regular-70" d="M 3291 1706 
Q 3291 822 2980 379 
Q 2669 -63 2047 -63 
Q 1266 -63 997 525 
L 981 525 
Q 994 503 994 -6 
L 994 -1328 
L 431 -1328 
L 431 2691 
Q 431 2950 426 3123 
Q 422 3297 413 3381 
L 956 3381 
Q 959 3369 967 3259 
Q 975 3150 981 3023 
Q 988 2897 988 2838 
L 1000 2838 
Q 1150 3150 1397 3295 
Q 1644 3441 2047 3441 
Q 2672 3441 2981 3022 
Q 3291 2603 3291 1706 
z
M 2700 1694 
Q 2700 2400 2509 2703 
Q 2319 3006 1903 3006 
Q 1441 3006 1217 2686 
Q 994 2366 994 1650 
Q 994 984 1206 668 
Q 1419 353 1897 353 
Q 2316 353 2508 661 
Q 2700 969 2700 1694 
z
" transform="scale(0.015625)"/>
      </defs>
      <use xlink:href="#Arimo-Regular-57"/>
      <use xlink:href="#Arimo-Regular-69" transform="translate(94.384766 0)"/>
      <use xlink:href="#Arimo-Regular-6c" transform="translate(116.601562 0)"/>
      <use xlink:href="#Arimo-Regular-6c" transform="translate(138.818359 0)"/>
      <use xlink:href="#Arimo-Regular-69" transform="translate(161.035156 0)"/>
      <use xlink:href="#Arimo-Regular-6e" transform="translate(183.251953 0)"/>
      <use xlink:href="#Arimo-Regular-67" transform="translate(238.867188 0)"/>
      <use xlink:href="#Arimo-Regular-6e" transform="translate(294.482422 0)"/>
      <use xlink:href="#Arimo-Regular-65" transform="translate(350.097656 0)"/>
      <use xlink:href="#Arimo-Regular-73" transform="translate(405.712891 0)"/>
      <use xlink:href="#Arimo-Regular-73" transform="translate(455.712891 0)"/>
      <use xlink:href="#Arimo-Regular-20" transform="translate(505.712891 0)"/>
      <use xlink:href="#Arimo-Regular-54" transform="translate(533.496094 0)"/>
      <use xlink:href="#Arimo-Regular-6f" transform="translate(594.580078 0)"/>
      <use xlink:href="#Arimo-Regular-20" transform="translate(650.195312 0)"/>
      <use xlink:href="#Arimo-Regular-48" transform="translate(677.978516 0)"/>
      <use xlink:href="#Arimo-Regular-65" transform="translate(750.195312 0)"/>
      <use xlink:href="#Arimo-Regular-6c" transform="translate(805.810547 0)"/>
      <use xlink:href="#Arimo-Regular-70" transform="translate(828.027344 0)"/>
     </g>
    </g>
   </g>
   <g id="line2d_11">
    <path d="M 72.843997 150.389362 
L 72.843997 102.081338 
" clip-path="url(#pbc7bd04590)" style="fill: none; stroke: #2f2f2f; stroke-width: 1.5; stroke-linecap: square"/>
   </g>
   <g id="line2d_12">
    <path d="M 72.843997 133.879372 
L 72.843997 115.803177 
" clip-path="url(#pbc7bd04590)" style="fill: none; stroke: #2f2f2f; stroke-width: 4.5; stroke-linecap: square"/>
   </g>
   <g id="line2d_13">
    <path d="M 72.843997 124.82166 
" clip-path="url(#pbc7bd04590)" style="fill: none; stroke: #2f2f2f; stroke-width: 1.5; stroke-linecap: square"/>
    <defs>
     <path id="m7d8ee3339b" d="M 1.875 0 
L -1.875 -0 
" style="stroke: #ffffff; stroke-width: 0.9"/>
    </defs>
    <g clip-path="url(#pbc7bd04590)">
     <use xlink:href="#m7d8ee3339b" x="72.843997" y="124.82166" style="fill: #ffffff; stroke: #ffffff; stroke-width: 0.9"/>
    </g>
   </g>
   <g id="line2d_14">
    <path d="M 128.666991 140.041714 
L 128.666991 74.983911 
" clip-path="url(#pbc7bd04590)" style="fill: none; stroke: #2f2f2f; stroke-width: 1.5; stroke-linecap: square"/>
   </g>
   <g id="line2d_15">
    <path d="M 128.666991 117.650948 
L 128.666991 86.001499 
" clip-path="url(#pbc7bd04590)" style="fill: none; stroke: #2f2f2f; stroke-width: 4.5; stroke-linecap: square"/>
   </g>
   <g id="line2d_16">
    <path d="M 128.666991 98.445375 
" clip-path="url(#pbc7bd04590)" style="fill: none; stroke: #2f2f2f; stroke-width: 1.5; stroke-linecap: square"/>
    <g clip-path="url(#pbc7bd04590)">
     <use xlink:href="#m7d8ee3339b" x="128.666991" y="98.445375" style="fill: #ffffff; stroke: #ffffff; stroke-width: 0.9"/>
    </g>
   </g>
   <g id="line2d_17">
    <path d="M 184.489985 130.045264 
L 184.489985 81.011395 
" clip-path="url(#pbc7bd04590)" style="fill: none; stroke: #2f2f2f; stroke-width: 1.5; stroke-linecap: square"/>
   </g>
   <g id="line2d_18">
    <path d="M 184.489985 119.654354 
L 184.489985 99.934834 
" clip-path="url(#pbc7bd04590)" style="fill: none; stroke: #2f2f2f; stroke-width: 4.5; stroke-linecap: square"/>
   </g>
   <g id="line2d_19">
    <path d="M 184.489985 105.473491 
" clip-path="url(#pbc7bd04590)" style="fill: none; stroke: #2f2f2f; stroke-width: 1.5; stroke-linecap: square"/>
    <g clip-path="url(#pbc7bd04590)">
     <use xlink:href="#m7d8ee3339b" x="184.489985" y="105.473491" style="fill: #ffffff; stroke: #ffffff; stroke-width: 0.9"/>
    </g>
   </g>
   <g id="line2d_20">
    <path d="M 240.312978 114.956442 
L 240.312978 76.631211 
" clip-path="url(#pbc7bd04590)" style="fill: none; stroke: #2f2f2f; stroke-width: 1.5; stroke-linecap: square"/>
   </g>
   <g id="line2d_21">
    <path d="M 240.312978 99.093315 
L 240.312978 84.523627 
" clip-path="url(#pbc7bd04590)" style="fill: none; stroke: #2f2f2f; stroke-width: 4.5; stroke-linecap: square"/>
   </g>
   <g id="line2d_22">
    <path d="M 240.312978 92.61629 
" clip-path="url(#pbc7bd04590)" style="fill: none; stroke: #2f2f2f; stroke-width: 1.5; stroke-linecap: square"/>
    <g clip-path="url(#pbc7bd04590)">
     <use xlink:href="#m7d8ee3339b" x="240.312978" y="92.61629" style="fill: #ffffff; stroke: #ffffff; stroke-width: 0.9"/>
    </g>
   </g>
   <g id="patch_3">
    <path d="M 44.9325 183.803951 
L 44.9325 7.2 
" style="fill: none; stroke: #000000; stroke-width: 0.8; stroke-linejoin: miter; stroke-linecap: square"/>
   </g>
   <g id="patch_4">
    <path d="M 44.9325 183.803951 
L 268.224475 183.803951 
" style="fill: none; stroke: #000000; stroke-width: 0.8; stroke-linejoin: miter; stroke-linecap: square"/>
   </g>
  </g>
 </g>
 <defs>
  <clipPath id="pbc7bd04590">
   <rect x="44.9325" y="7.2" width="223.291975" height="176.603951"/>
  </clipPath>
 </defs>
</svg>
